<svg width="20" height="16" viewBox="0 0 20 16" fill="none" xmlns="http://www.w3.org/2000/svg">
<path d="M0.754717 2.44409H19.2453C19.6619 2.44409 20 1.89662 20 1.22205C20 0.547477 19.6619 0 19.2453 0H0.754717C0.338113 0 0 0.547477 0 1.22205C0 1.89662 0.338113 2.44409 0.754717 2.44409Z" fill="black"/>
<path d="M0.754717 8.96283H19.2453C19.6619 8.96283 20 8.41535 20 7.74078C20 7.06621 19.6619 6.51874 19.2453 6.51874H0.754717C0.338113 6.51874 0 7.06621 0 7.74078C0 8.41535 0.338113 8.96283 0.754717 8.96283Z" fill="black"/>
<path d="M0.754717 15.4815H19.2453C19.6619 15.4815 20 14.934 20 14.2595C20 13.5849 19.6619 13.0374 19.2453 13.0374H0.754717C0.338113 13.0374 0 13.5849 0 14.2595C0 14.934 0.338113 15.4815 0.754717 15.4815Z" fill="black"/>
</svg>
