<svg width="23" height="20" viewBox="0 0 23 20" fill="none" xmlns="http://www.w3.org/2000/svg">
<g clip-path="url(#clip0)">
<path d="M22.2024 8.1848C18.6426 14.9994 17.4844 14.9994 16.7934 14.9994H9.98531C7.60079 14.9994 5.77368 13.7317 5.3303 11.7686C5.31669 11.7086 3.96869 5.72788 3.62403 4.05711C3.45468 3.23788 3.02407 2.69173 1.47524 2.69173C0.769756 2.69173 0.19873 2.17557 0.19873 1.53788C0.19873 0.900187 0.769756 0.384033 1.47524 0.384033C4.04528 0.384033 5.69964 1.53788 6.13365 3.63326C6.47491 5.28634 7.81865 11.2471 7.83226 11.3079C8.10373 12.5125 9.2977 12.6925 9.98531 12.6925H16.4572C17.1525 12.0171 18.7371 9.4148 19.8936 7.19942C20.1948 6.62326 20.9565 6.37788 21.593 6.64865C22.2313 6.92019 22.5036 7.60788 22.2024 8.1848ZM9.1343 15.7686C7.95906 15.7686 7.00679 16.6294 7.00679 17.6917C7.00679 18.754 7.95906 19.6148 9.1343 19.6148C10.3095 19.6148 11.2618 18.754 11.2618 17.6917C11.2618 16.6294 10.3095 15.7686 9.1343 15.7686ZM16.7934 15.7686C15.6181 15.7686 14.6658 16.6294 14.6658 17.6917C14.6658 18.754 15.6181 19.6148 16.7934 19.6148C17.9686 19.6148 18.9209 18.754 18.9209 17.6917C18.9209 16.6294 17.9686 15.7686 16.7934 15.7686ZM12.677 9.4948C12.7621 9.55711 12.8668 9.58711 12.9715 9.58711C13.0762 9.58711 13.1791 9.55711 13.2659 9.4948C13.351 9.43403 15.6726 7.38711 16.9389 5.68403C17.0368 5.55172 17.0461 5.38249 16.9627 5.24249C16.8819 5.10326 16.7202 5.01557 16.5457 5.01557H14.6514C14.6514 5.01557 14.4667 1.7148 14.3459 1.56173C14.1706 1.33557 13.4464 1.18173 12.9706 1.18173C12.4932 1.18173 11.7563 1.33557 11.5801 1.56173C11.4601 1.71403 11.301 5.01557 11.301 5.01557H9.38195C9.20664 5.01557 9.0458 5.10326 8.96325 5.24249C8.8807 5.38249 8.89006 5.55249 8.98708 5.68403C10.2542 7.38788 12.5928 9.43403 12.677 9.4948Z" fill="white"/>
</g>
<defs>
<clipPath id="clip0">
<rect width="22.1262" height="20" fill="white" transform="translate(0.19873 -0.000488281)"/>
</clipPath>
</defs>
</svg>
