<svg width="30" height="31" viewBox="0 0 30 31" fill="none" xmlns="http://www.w3.org/2000/svg">
<path d="M15 0.00488281C6.71626 0.00488281 0 6.72113 0 15.0049C0 23.2886 6.71626 30.0049 15 30.0049C23.2838 30.0049 30.0001 23.2886 30.0001 15.0049C30.0001 6.71928 23.2838 0.00488281 15 0.00488281ZM18.8775 15.003L16.4194 15.0048L16.4175 24.0048H13.0444V15.0049H10.7944V11.9036L13.0444 11.9018L13.0406 10.0755C13.0406 7.5443 13.7269 6.00492 16.7063 6.00492H19.1888V9.10803H17.6362C16.4756 9.10803 16.4194 9.54114 16.4194 10.3493L16.4156 11.9018H19.2056L18.8775 15.003Z" fill="#FCB638"/>
</svg>
