<svg width="111" height="122" viewBox="0 0 111 122" fill="none" xmlns="http://www.w3.org/2000/svg">
<path d="M65.2655 102.816L94.2701 91.8555C94.2701 91.8555 97.5683 99.3245 97.0833 108.248C96.5012 117.172 91.2629 106.308 91.2629 106.308C91.2629 106.308 91.748 109.121 91.2629 116.008C91.0689 119.112 90.1959 121.052 88.9348 121.634C87.5767 122.022 85.7336 121.149 83.5025 118.918C78.6522 114.165 77.1002 111.643 77.1002 111.643C77.1002 111.643 80.3013 123.283 74.093 116.978C67.6906 110.673 65.2655 102.816 65.2655 102.816Z" fill="#331000"/>
<path d="M20.9341 51.9912C10.0694 55.9681 -1.57126 75.8528 0.174839 77.5988C1.92094 79.3448 10.4574 71.4879 10.4574 71.4879C10.4574 71.4879 8.80835 76.1438 8.22632 82.0607C8.12931 82.6427 8.1293 83.2247 8.51732 83.6127C9.29337 84.2917 10.4575 83.5157 11.1365 82.7397C12.8826 80.7028 14.3377 78.4718 15.6958 76.0468C15.5017 79.2478 15.6957 82.4487 16.2778 85.5527C16.5688 87.2987 17.5389 89.4326 19.285 89.4326C20.7401 89.4326 21.7101 87.9777 22.2922 86.7167C26.7544 77.4048 24.9113 61.4001 20.9341 51.9912Z" fill="#331000"/>
<path d="M26.1722 58.7783C29.4704 49.6592 25.7842 44.5176 25.7842 44.5176H96.7922C96.7922 44.5176 93.106 49.7562 96.4042 58.7783C101.836 74.0092 93.494 97.001 61.3852 97.001H61.1912C29.0824 97.001 21.419 72.166 26.1722 58.7783Z" fill="#C1B3AA"/>
<path d="M53.0425 0.379988C52.2664 0.0890197 51.3934 -0.201945 50.7144 0.186012C50.0353 0.573969 49.8413 1.54386 50.0353 2.31977C50.2293 3.09569 50.8114 3.77462 51.2964 4.35655C51.8784 5.03548 52.4605 5.81139 53.1395 6.49031C50.9084 5.42343 48.4832 4.45354 46.1551 3.58064C45.088 3.19268 43.3419 3.19268 43.2449 4.35655C43.2449 4.8415 43.4389 5.22946 43.73 5.61742C44.603 6.78129 45.6701 7.75118 46.8341 8.52709C44.215 7.46021 41.3048 7.26623 38.5887 8.04215C38.2977 8.13914 37.9096 8.23613 37.7156 8.52709C37.1336 9.20602 37.9096 10.2729 38.5887 10.7578C42.2749 13.4735 46.9311 14.3464 51.4904 14.6374C58.7658 15.1224 66.1382 14.4434 73.2196 12.5036C69.2424 11.0488 59.8329 3.38665 53.0425 0.379988Z" fill="#331000"/>
<path d="M96.7923 9.501C97.4714 9.21004 98.2474 9.01605 98.8294 9.30701C99.4115 9.69496 99.6055 10.4709 99.4115 11.1498C99.2175 11.8287 98.7324 12.4106 98.3444 12.8955C97.8594 13.4775 97.2773 14.1564 96.7923 14.7383C98.7324 13.7684 100.77 12.8955 102.904 12.2166C103.874 11.8287 105.426 11.8287 105.426 12.8955C105.426 13.2835 105.232 13.6714 104.941 13.9624C104.165 14.9323 103.195 15.8051 102.225 16.581C104.456 15.6112 107.075 15.4172 109.403 16.0961C109.694 16.1931 109.985 16.2901 110.179 16.4841C110.664 17.066 110.082 17.9389 109.403 18.4238C106.202 20.7515 102.128 21.5274 98.1504 21.8183C91.8451 22.3033 85.3457 21.6244 79.2344 19.9756C82.7266 18.8117 90.875 12.1196 96.7923 9.501Z" fill="#331000"/>
<path d="M19.0908 62.0748C19.7699 50.3371 20.9339 21.5264 20.9339 21.5264C20.9339 21.5264 39.074 11.6318 61.3853 11.6318C83.7936 11.6318 101.837 21.5264 101.837 21.5264C101.837 21.5264 103.001 48.785 103.68 62.0748C104.359 74.0065 101.061 103.399 61.4823 103.399H61.1913C21.613 103.496 18.4118 74.0065 19.0908 62.0748Z" fill="#582B18"/>
<path d="M38.104 115.528C38.589 112.423 40.1411 109.609 43.0513 108.154C45.9614 106.698 49.1626 107.183 52.2668 107.863C52.3638 107.766 52.1698 107.474 51.7818 106.698C51.1997 105.534 50.4237 104.467 49.4536 103.496C46.9315 100.78 51.0057 96.6074 53.5279 99.4212C56.05 102.138 59.4452 106.698 57.6991 110.579C57.1171 111.938 55.953 112.714 54.5949 113.296C54.4009 113.49 54.1099 113.587 53.8189 113.684C51.7818 114.46 51.1027 116.595 51.2967 118.535C51.4908 120.088 49.8417 121.446 48.3866 121.446C47.6105 121.446 47.0285 121.155 46.5435 120.767C45.0884 121.64 42.6633 121.349 41.8872 119.312C41.8872 119.215 41.8872 119.215 41.7902 119.118C40.0441 119.506 37.716 118.05 38.104 115.528Z" fill="#B46E23"/>
<path d="M50.133 113.201C53.7222 110.388 57.2144 111.164 57.5054 110.97C56.8263 112.134 55.8563 112.813 54.6922 113.298C54.4982 113.492 54.2072 113.589 53.9162 113.686C51.879 114.462 51.2 116.596 51.394 118.536C51.588 120.088 49.9389 121.446 48.4839 121.446C48.2898 121.446 46.8348 115.723 50.133 113.201Z" fill="#934F21"/>
<path d="M43.8274 121.054C42.4693 113.292 48.0956 111.837 48.0956 111.837C43.7303 115.039 46.6405 120.763 46.6405 120.763C45.8645 121.248 44.7974 121.345 43.8274 121.054Z" fill="#934F21"/>
<path d="M39.0741 118.245C39.3651 110.675 44.3124 110.869 44.3124 110.869C39.9471 113.683 41.4992 118.148 41.8872 119.021C40.9172 119.312 39.8501 119.021 39.0741 118.245Z" fill="#934F21"/>
<path d="M56.6324 106.31C61.4827 108.736 63.0347 114.751 60.2216 119.31C58.2815 122.512 53.2373 119.601 55.1773 116.4C56.4384 114.46 55.7594 112.422 53.7223 111.355C50.3271 109.706 53.2373 104.661 56.6324 106.31Z" fill="#B46E23"/>
<path d="M55.1774 116.304C56.4385 114.364 55.7594 112.328 53.7223 111.261C53.7223 111.261 60.2218 111.94 58.7666 120.377C56.4385 121.25 53.5283 118.922 55.1774 116.304Z" fill="#934F21"/>
<path d="M45.0892 94.282L49.7455 92.5361C50.9095 93.5061 56.3419 97.8708 57.4089 98.9378C58.088 99.7137 58.864 100.587 58.767 101.557C58.767 101.945 58.573 102.43 58.185 102.624C57.991 102.721 57.7 102.721 57.4089 102.721C56.3419 102.624 55.3718 102.236 54.4988 101.557C54.9838 102.527 55.1778 103.594 55.2748 104.66C55.2748 105.242 55.0808 106.018 54.4018 106.018C54.2077 106.018 53.9167 105.921 53.7227 105.727C52.9467 105.145 52.1706 104.466 51.6856 103.691C51.8796 104.951 50.7155 106.115 49.4545 106.212C48.1934 106.309 47.0293 105.436 46.3503 104.369C45.6712 103.303 45.4772 101.945 45.4772 100.684C45.5742 100.005 44.9922 95.155 45.0892 94.282Z" fill="#582B18"/>
<path d="M49.454 117.66C49.939 114.556 51.4911 111.743 54.4013 110.288C57.3114 108.833 60.5126 109.318 63.6168 109.997C63.7138 109.9 63.5198 109.609 63.1317 108.833C62.5497 107.669 61.7737 106.602 60.8036 105.632C58.2815 102.916 62.3557 98.7446 64.8778 101.558C67.4 104.274 70.7952 108.833 69.0491 112.713C68.467 114.071 67.303 114.847 65.9449 115.429C65.7509 115.623 65.4599 115.72 65.1689 115.817C63.1317 116.593 62.4527 118.727 62.6467 120.667C62.8407 122.219 61.1916 123.577 59.7366 123.577C58.9605 123.577 58.3785 123.286 57.8935 122.898C56.4384 123.771 54.0132 123.48 53.2372 121.443C53.2372 121.346 53.2372 121.346 53.1402 121.249C51.3941 121.637 48.969 120.085 49.454 117.66Z" fill="#B46E23"/>
<path d="M61.3857 115.332C64.9749 112.519 68.467 113.295 68.7581 113.101C68.079 114.265 67.109 114.944 65.9449 115.429C65.7509 115.623 65.4599 115.72 65.1689 115.817C63.1318 116.593 62.4528 118.727 62.6468 120.667C62.8408 122.219 61.1917 123.577 59.7366 123.577C59.6396 123.577 58.0876 117.854 61.3857 115.332Z" fill="#934F21"/>
<path d="M55.177 123.19C53.8189 115.428 59.4452 113.973 59.4452 113.973C55.08 117.174 57.9901 122.899 57.9901 122.899C57.1171 123.287 56.147 123.481 55.177 123.19Z" fill="#934F21"/>
<path d="M50.3267 120.377C50.6177 112.809 55.5649 113.003 55.5649 113.003C51.1997 115.817 52.7518 120.28 53.1398 121.153C52.2668 121.444 51.1027 121.153 50.3267 120.377Z" fill="#934F21"/>
<path d="M56.3414 96.32L60.9977 94.5742C62.1617 95.5441 67.5941 99.9085 68.6611 100.975C69.3402 101.751 70.1162 102.624 70.0192 103.594C70.0192 103.982 69.8252 104.467 69.4372 104.661C69.2432 104.758 68.9521 104.758 68.6611 104.758C67.5941 104.661 66.624 104.273 65.751 103.594C66.236 104.564 66.43 105.631 66.527 106.698C66.527 107.28 66.333 108.056 65.6539 108.056C65.4599 108.056 65.1689 107.958 64.9749 107.765C64.1989 107.183 63.4228 106.504 62.9378 105.728C63.1318 106.989 61.9677 108.152 60.7067 108.249C59.4456 108.346 58.2815 107.474 57.6025 106.407C56.9234 105.34 56.7294 103.982 56.7294 102.721C56.8264 102.042 56.2444 97.2899 56.3414 96.32Z" fill="#582B18"/>
<path d="M67.8851 108.445C72.7355 110.871 74.2876 116.886 71.4744 121.446C69.5342 124.648 64.4899 121.737 66.43 118.535C67.6911 116.595 67.0121 114.557 64.9749 113.49C61.5797 111.744 64.5869 106.796 67.8851 108.445Z" fill="#B46E23"/>
<path d="M66.43 118.437C67.6911 116.497 67.0121 114.459 64.975 113.392C64.975 113.392 71.4743 114.071 70.0192 122.512C67.7881 123.386 64.878 121.057 66.43 118.437Z" fill="#934F21"/>
<path d="M83.7939 65.2775C76.4215 78.858 85.9281 89.1404 81.2718 93.0206C76.6155 96.9007 71.5713 89.4314 71.5713 89.4314C71.5713 89.4314 75.2575 97.3858 70.1162 98.3558C64.9749 99.3258 59.9306 92.4386 59.9306 92.4386C59.9306 92.4386 61.4827 101.751 58.1845 102.624C54.8863 103.4 52.1702 92.9236 52.1702 92.9236C52.1702 92.9236 51.8792 101.751 48.0959 101.557C44.3127 101.266 41.6936 94.6696 41.6936 94.6696C41.6936 94.6696 40.8205 98.1618 36.4553 98.4528C32.09 98.7438 31.508 88.2674 31.508 88.2674C31.508 88.2674 31.896 93.9906 27.6278 92.5356C23.2626 91.0805 18.1213 69.9337 30.1499 55.5771C42.3726 41.3175 83.7939 65.2775 83.7939 65.2775Z" fill="#C1B3AA"/>
<path d="M100.478 45.4877C100.478 45.4877 83.7933 57.6145 80.6892 75.9502C78.361 89.5321 72.7347 78.8606 73.5108 72.8457C73.5108 72.8457 71.4737 85.8456 67.4964 85.5546C63.5192 85.2635 64.6833 76.5322 64.6833 76.5322C64.6833 76.5322 61.9671 87.3978 57.4079 87.1068C52.8486 86.8157 52.2666 77.1143 52.2666 77.1143C52.2666 77.1143 48.1924 93.0246 44.8942 92.6366C41.596 92.2485 41.014 76.3382 41.014 76.3382C41.014 76.3382 37.7158 87.5919 34.9996 87.0098C32.2835 86.4277 33.0595 74.1069 33.0595 74.1069C33.0595 74.1069 30.4404 78.1815 27.7242 75.174C25.0081 72.1666 30.2464 59.7488 30.2464 59.7488C30.2464 59.7488 27.7242 64.1144 24.9111 61.6891C22.0979 59.2637 37.2308 44.5176 37.2308 44.5176L100.478 45.4877Z" fill="#DFD9D5"/>
<path d="M85.3456 18.9081C79.5253 21.9151 79.0402 36.6592 79.0402 36.6592C79.0402 36.6592 77.6822 15.513 63.9074 14.058C40.9172 11.633 38.492 22.0121 37.231 44.4193C37.231 44.4193 54.1099 54.3133 59.6392 65.2744C65.2655 53.4403 90.9719 49.0753 100.478 45.3893C103.777 24.6311 94.7551 14.64 85.3456 18.9081Z" fill="#C1B3AA"/>
<path d="M99.5083 34.6247C99.5083 41.706 95.7251 47.0413 91.7479 46.5563C87.7707 46.0713 84.1815 40.639 84.1815 34.3336C84.1815 28.9984 88.4497 21.82 92.4269 21.917C96.2101 22.111 99.5083 27.5433 99.5083 34.6247Z" fill="#351100"/>
<path d="M85.3457 34.4295C85.3457 40.0564 88.2559 45.0042 91.845 45.3923C95.4342 45.7804 98.3444 40.9296 98.3444 34.6235C98.3444 28.3174 95.4342 23.3696 91.845 23.6606C88.2559 23.9517 85.3457 28.8025 85.3457 34.4295Z" fill="white"/>
<path d="M86.6066 36.1752C86.6066 40.734 88.9347 44.7109 91.7478 45.0019C94.658 45.2929 96.9861 41.51 96.9861 36.4662C96.9861 31.4223 94.658 27.5425 91.8448 27.6395C88.9347 27.8335 86.6066 31.6163 86.6066 36.1752Z" fill="black"/>
<path d="M89.7107 40.4446C89.7107 41.7054 90.2927 42.7723 91.0688 42.8693C91.8448 42.9663 92.4269 41.9964 92.4269 40.6386C92.4269 39.3777 91.8448 38.3109 91.0688 38.2139C90.2927 38.2139 89.7107 39.1838 89.7107 40.4446Z" fill="white"/>
<path d="M88.3528 37.3391C88.3528 37.922 88.6438 38.5049 89.0319 38.5049C89.4199 38.5049 89.7109 38.0191 89.7109 37.4363C89.7109 36.8534 89.4199 36.2705 89.0319 36.2705C88.6438 36.2705 88.3528 36.7562 88.3528 37.3391Z" fill="white"/>
<path d="M73.5113 33.3618C73.5113 42.2849 67.303 48.8802 60.7067 48.2983C54.1103 47.7163 48.193 40.83 48.193 33.0709C48.193 26.4756 55.2744 17.4555 61.8707 17.5525C67.982 17.7465 73.6083 24.4388 73.5113 33.3618Z" fill="#351100"/>
<path d="M50.1331 33.068C50.1331 40.15 54.9833 46.2619 60.9006 46.747C66.818 47.2321 71.6682 41.2172 71.6682 33.262C71.6682 25.3068 66.915 19.1949 60.9006 19.5829C54.8863 19.971 50.1331 26.0829 50.1331 33.068Z" fill="white"/>
<path d="M52.1705 35.3025C52.1705 41.0261 56.0507 45.9736 60.707 46.3616C65.4602 46.7497 69.3405 41.9962 69.3405 35.6906C69.3405 29.385 65.5573 24.4375 60.804 24.6315C56.0507 24.8255 52.1705 29.579 52.1705 35.3025Z" fill="black"/>
<path d="M57.3119 40.6381C57.3119 42.1911 58.2819 43.55 59.64 43.6471C60.901 43.7442 61.968 42.4823 61.968 40.9293C61.968 39.2792 60.998 38.0174 59.64 37.9203C58.3789 37.8232 57.3119 39.0851 57.3119 40.6381Z" fill="white"/>
<path d="M55.0803 36.7566C55.0803 37.5338 55.5654 38.2139 56.2444 38.2139C56.9235 38.2139 57.4086 37.631 57.4086 36.8538C57.4086 36.0765 56.9235 35.3965 56.2444 35.3965C55.5654 35.3965 55.0803 35.9794 55.0803 36.7566Z" fill="white"/>
<path d="M84.8606 15.9973C83.9875 16.6764 83.3085 17.6465 82.7265 18.7136C83.0175 17.1614 83.3085 15.6093 83.1145 14.0571C82.9205 12.505 82.0474 11.0498 80.8834 10.7588C79.7193 10.9528 78.8462 12.505 78.6522 14.0571C78.4582 15.6093 78.7492 17.1614 79.0402 18.7136C78.3612 17.7435 77.7792 16.7734 76.9061 16.0943C75.451 14.9302 73.7049 16.6764 73.996 18.8106C74.287 21.2358 75.354 23.5641 76.3241 25.6013C77.2942 27.6385 78.2642 29.6757 79.2343 31.7129H82.5325C83.5025 29.6757 84.4726 27.6385 85.4426 25.6013C86.4127 23.4671 87.4798 21.1388 87.7708 18.8106C88.0618 16.5794 86.3157 14.8332 84.8606 15.9973Z" fill="#331000"/>
<path d="M77.7788 36.56C77.7788 36.56 78.4578 40.4443 81.174 40.4443C83.8901 40.4443 83.8901 36.4629 83.8901 36.4629L77.7788 36.56Z" fill="#8F4321"/>
<path d="M81.6595 28.8027C79.8164 28.8027 77.5852 32.3919 77.6823 37.2422L87.1888 37.0482C87.1888 37.0482 83.5026 28.8027 81.6595 28.8027Z" fill="#B46E23"/>
<path d="M90.8748 54.5117C99.9933 61.5926 105.135 83.9993 102.903 85.1633C100.672 86.3273 94.949 76.2394 94.949 76.2394C94.949 76.2394 95.143 81.0894 93.882 87.0063C93.785 87.5883 93.5909 88.1703 93.1059 88.4613C92.1359 88.9463 91.2628 87.7823 90.8748 86.8123C89.8078 84.2903 89.1287 81.7684 88.5467 79.1494C87.7707 82.2534 86.6066 85.2603 85.1515 88.0733C84.2785 89.6253 82.8234 91.3712 81.0773 90.8862C79.7193 90.4013 79.2342 88.7523 79.0402 87.3943C77.6822 77.1124 84.1815 62.3686 90.8748 54.5117Z" fill="#331000"/>
</svg>
