<svg width="100" height="100" viewBox="0 0 100 100" fill="none" xmlns="http://www.w3.org/2000/svg">
<path d="M72.1255 0.424235C68.4267 -0.91444 64.3434 1.02834 63.0711 4.73206L47.4533 50.1968L58.8495 54.321L76.2766 9.51117C77.6964 5.86077 75.8244 1.76291 72.1255 0.424235Z" fill="#BA8E79"/>
<path opacity="0.1" d="M64.6201 39.4831C61.6352 36.4963 57.5023 34.6458 52.9329 34.6458C52.8867 34.6458 52.8407 34.6473 52.7946 34.6477L47.4533 50.1963L58.8494 54.3206L64.6201 39.4831Z" fill="black"/>
<path d="M75.5282 45.1226C73.0633 45.0048 70.7344 45.5413 68.7012 46.5722C66.7226 47.5755 64.3107 47.1304 62.9131 45.4142C59.8918 41.704 55.2756 39.3315 50.1001 39.3315C44.9247 39.3315 40.3084 41.704 37.2872 45.4142C35.8896 47.1304 33.4777 47.5755 31.4991 46.5722C29.4658 45.5413 27.137 45.0048 24.672 45.1226C17.6887 45.4562 12.0351 51.1392 11.7705 58.0859C11.4774 65.783 17.6659 72.1145 25.3417 72.1145C30.2635 72.1145 34.5739 69.511 36.956 65.6135C39.9661 69.5623 44.7328 72.1145 50.1003 72.1145C55.4679 72.1145 60.2344 69.5623 63.2445 65.6135C65.6265 69.511 69.9369 72.1145 74.8588 72.1145C82.5346 72.1145 88.723 65.783 88.43 58.0859C88.1652 51.1394 82.5114 45.4564 75.5282 45.1226Z" fill="#F9D3B4"/>
<path opacity="0.1" d="M27.9716 45.361C26.9107 45.1537 25.806 45.0678 24.6718 45.1221C17.6884 45.4557 12.0348 51.1388 11.7703 58.0856C11.4772 65.7828 17.6656 72.1145 25.3415 72.1145C28.4055 72.1145 31.2321 71.1051 33.5044 69.4033C25.3279 60.1665 25.8579 49.3944 27.9716 45.361Z" fill="black"/>
<g opacity="0.1">
<path opacity="0.1" d="M77.8514 53.4304C78.6613 53.4304 79.3179 52.7776 79.3179 51.9724C79.3179 51.1672 78.6613 50.5144 77.8514 50.5144C77.0414 50.5144 76.3848 51.1672 76.3848 51.9724C76.3848 52.7776 77.0414 53.4304 77.8514 53.4304Z" fill="black"/>
<path opacity="0.1" d="M41.4178 57.7585C42.2278 57.7585 42.8844 57.1059 42.8844 56.3008C42.8844 55.4957 42.2278 54.843 41.4178 54.843C40.6079 54.843 39.9513 55.4957 39.9513 56.3008C39.9513 57.1059 40.6079 57.7585 41.4178 57.7585Z" fill="black"/>
<path opacity="0.1" d="M51.4671 47.3191C52.277 47.3191 52.9336 46.6664 52.9336 45.8612C52.9336 45.056 52.277 44.4033 51.4671 44.4033C50.6571 44.4033 50.0005 45.056 50.0005 45.8612C50.0005 46.6664 50.6571 47.3191 51.4671 47.3191Z" fill="black"/>
<path opacity="0.1" d="M23.4135 51.9736C24.2234 51.9736 24.88 51.321 24.88 50.5159C24.88 49.7108 24.2234 49.0581 23.4135 49.0581C22.6035 49.0581 21.947 49.7108 21.947 50.5159C21.947 51.321 22.6035 51.9736 23.4135 51.9736Z" fill="black"/>
</g>
<path d="M28.8491 100H71.1508C73.3209 100 75.4506 99.3877 77.2717 98.2139C89.8191 90.1261 98.5069 76.6211 99.9807 61.029C100.221 58.4898 98.1936 56.3005 95.6284 56.3005H4.37151C1.80636 56.3005 -0.220771 58.4898 0.0192637 61.029C1.49306 76.6211 10.1807 90.1259 22.7283 98.2139C24.5491 99.3877 26.679 100 28.8491 100Z" fill="#3B949C"/>
<path d="M49.9999 77.6597C53.5144 77.6597 56.3636 74.8266 56.3636 71.3319C56.3636 67.8372 53.5144 65.0042 49.9999 65.0042C46.4853 65.0042 43.6362 67.8372 43.6362 71.3319C43.6362 74.8266 46.4853 77.6597 49.9999 77.6597Z" fill="white"/>
<path d="M5.77424 65.0059C3.86811 65.0059 2.15899 65.8403 0.992798 67.1604C1.80188 70.7856 3.00382 74.2636 4.55835 77.5446C4.95199 77.6204 5.3584 77.6614 5.77424 77.6614C9.28872 77.6614 12.1379 74.8285 12.1379 71.3336C12.1379 67.839 9.28892 65.0059 5.77424 65.0059Z" fill="#F8D662"/>
<path d="M94.2254 65.0056C96.1315 65.0056 97.8407 65.84 99.0069 67.1601C98.1978 70.7852 96.9958 74.2632 95.4413 77.5441C95.0475 77.6199 94.6413 77.6609 94.2254 77.6609C90.7109 77.6609 87.8618 74.828 87.8618 71.3333C87.8618 67.8387 90.7107 65.0056 94.2254 65.0056Z" fill="#F8D662"/>
<path d="M85.1962 81.1586C77.94 76.978 68.9884 76.978 61.7322 81.1586C54.4759 85.3392 45.5243 85.3392 38.2681 81.1586C31.0119 76.978 22.0603 76.978 14.8041 81.1586L8.69635 84.6775C12.4367 90.0487 17.2085 94.656 22.7285 98.2141C24.5494 99.3878 26.6793 100 28.8494 100H71.151C73.3212 100 75.451 99.388 77.2719 98.2141C82.7919 94.656 87.5637 90.0489 91.3041 84.6775L85.1962 81.1586Z" fill="#E3F1F3"/>
<path opacity="0.1" d="M0.0192637 61.029C1.49286 76.6211 10.1807 90.1259 22.7283 98.2139C24.5492 99.3877 26.679 100 28.8492 100H43.6575C29.8592 91.6046 22.5576 69.5241 21.5752 56.3005H4.37151C1.80636 56.3005 -0.220771 58.4898 0.0192637 61.029Z" fill="black"/>
</svg>
