<svg width="96" height="90" viewBox="0 0 96 90" fill="none" xmlns="http://www.w3.org/2000/svg">
<path d="M95.9814 68.1707H0V83.653C1.54809 86.7494 22.7569 90.0007 47.9907 90.0007C73.2246 90.0007 93.8141 86.7494 95.3622 83.653H95.9814V68.1707Z" fill="#07A5A5"/>
<path d="M47.3715 90.0007C72.6053 90.0007 94.4334 86.7494 95.9814 83.653V68.1707H0" fill="#028184"/>
<path d="M95.9814 52.6909H0V68.1715C1.54809 71.2676 22.7569 74.5186 47.9907 74.5186C73.2246 74.5186 93.8141 71.2676 95.3622 68.1715H95.9814V52.6909Z" fill="#F9A035"/>
<path d="M47.2167 74.5186C72.4505 74.5186 94.4334 71.2676 95.9814 68.1715V52.6909H0" fill="#ED5E0F"/>
<path d="M95.9814 37.211L0 36.9014V52.6917C1.54809 55.7879 22.7569 59.0388 47.9907 59.0388C73.2246 59.0388 93.8141 55.7879 95.3622 52.6917H95.9814V37.211Z" fill="#D33CAC"/>
<path d="M47.6811 59.0388C72.7601 59.0388 94.4334 55.7879 95.9814 52.6917V36.9014L0 37.211" fill="#AD1591"/>
<path d="M95.517 36.902C95.517 40.6174 74.3082 43.7136 47.9907 43.7136C21.6732 43.7136 0 40.6174 0 36.902C0 33.1865 21.828 30.0903 47.9907 30.0903C74.1534 30.0903 95.517 33.0317 95.517 36.902Z" fill="#F77FC7"/>
<path d="M47.9907 30.0889C74.1534 30.0889 95.9814 33.1849 95.9814 36.9C95.9814 40.6152 74.1534 43.5564 47.9907 43.5564" fill="#E260BA"/>
<path d="M47.9908 39.0671C65.4325 39.0671 79.5718 37.0573 79.5718 34.578C79.5718 32.0987 65.4325 30.0889 47.9908 30.0889C30.5491 30.0889 16.4098 32.0987 16.4098 34.578C16.4098 37.0573 30.5491 39.0671 47.9908 39.0671Z" fill="#BA4A9D"/>
<path d="M47.9907 30.0889C65.4841 30.0889 79.5717 32.1012 79.5717 34.578C79.5717 37.0548 65.3293 39.0671 47.9907 39.0671" fill="#A03589"/>
<path d="M29.878 3.46118C30.0329 12.9051 22.2924 18.3238 26.9367 27.7677C29.5684 33.1864 35.9156 34.2701 43.1916 35.0442H43.3464C47.9907 29.3159 51.3965 24.0521 49.384 18.3238C45.8234 8.26056 36.6896 10.1184 29.878 3.46118Z" fill="#82C60A"/>
<path d="M43.1916 34.8892C47.9907 29.1609 51.3965 23.7423 49.384 18.1689C45.8234 8.26053 36.5349 10.1183 29.8781 3.46118H29.7233" fill="#5EA304"/>
<path d="M35.7608 17.394L29.4137 16.3104L36.6897 19.2515L39.4762 12.1311L35.7608 17.394Z" fill="#74B208"/>
<path d="M40.2502 27.9213L33.9031 26.8378L41.0242 29.7788L43.9656 22.6584L40.2502 27.9213Z" fill="#74B208"/>
<path d="M38.0831 22.5031L30.8071 21.4196L38.8572 24.6702L42.1082 16.4663L38.0831 22.5031Z" fill="#74B208"/>
<path d="M9.59814 23.7419C15.3261 29.0054 14.2424 36.591 22.2925 39.068C26.9368 40.4613 31.1166 37.3651 35.6061 33.3401C34.6772 27.4573 33.5936 22.3486 29.1041 20.4909C21.3636 17.0851 17.3386 23.5871 9.59814 23.7419Z" fill="#82C60A"/>
<path d="M35.7607 33.3411C34.8319 27.4583 33.7482 22.3495 29.2588 20.337C21.5184 16.9312 17.3385 23.4332 9.75293 23.7428" fill="#5EA304"/>
<path d="M21.2088 28.0765L17.0289 31.3276L22.7568 28.5409L20.1251 22.9675L21.2088 28.0765Z" fill="#74B208"/>
<path d="M29.8779 31.1732L25.6981 34.4243L31.426 31.7924L28.7943 26.0642L29.8779 31.1732Z" fill="#74B208"/>
<path d="M25.3886 29.6246L20.7444 33.1851L27.2463 30.2438L24.1502 23.7422L25.3886 29.6246Z" fill="#74B208"/>
<path d="M61.7686 26.9938C61.7686 35.9729 55.5762 34.5796 47.9906 34.5796C40.405 34.5796 34.2126 35.9729 34.2126 26.9938C34.2126 18.0148 40.405 6.86841 47.9906 6.86841C55.5762 6.86841 61.7686 18.0148 61.7686 26.9938Z" fill="#AF0547"/>
<path d="M47.9907 6.86841C55.5763 6.86841 61.7687 18.0148 61.7687 26.9938C61.7687 35.9729 55.5763 34.5796 47.9907 34.5796" fill="#84003C"/>
<path d="M47.9907 35.8184C51.4107 35.8184 54.1831 35.4023 54.1831 34.889C54.1831 34.3758 51.4107 33.9597 47.9907 33.9597C44.5708 33.9597 41.7983 34.3758 41.7983 34.889C41.7983 35.4023 44.5708 35.8184 47.9907 35.8184Z" fill="#5EA304"/>
<path d="M47.9907 33.9597C51.3965 33.9597 54.1831 34.4244 54.1831 34.889C54.1831 35.3537 51.3965 35.8184 47.9907 35.8184" fill="#527C00"/>
<path d="M44.0523 12.9626C46.0345 11.0769 47.1636 9.0461 46.5743 8.42672C45.9849 7.80734 43.9003 8.83391 41.9181 10.7196C39.9359 12.6054 38.8067 14.6361 39.3961 15.2555C39.9854 15.8749 42.0701 14.8483 44.0523 12.9626Z" fill="#D12269"/>
<path d="M40.7148 27.457C41.3133 27.457 41.7985 26.972 41.7985 26.3738C41.7985 25.7755 41.3133 25.2905 40.7148 25.2905C40.1163 25.2905 39.6311 25.7755 39.6311 26.3738C39.6311 26.972 40.1163 27.457 40.7148 27.457Z" fill="#680034"/>
<path d="M38.857 31.9473C39.4555 31.9473 39.9407 31.4621 39.9407 30.8635C39.9407 30.265 39.4555 29.7798 38.857 29.7798C38.2585 29.7798 37.7733 30.265 37.7733 30.8635C37.7733 31.4621 38.2585 31.9473 38.857 31.9473Z" fill="#680034"/>
<path d="M44.1205 23.4331C44.719 23.4331 45.2042 22.9478 45.2042 22.3492C45.2042 21.7506 44.719 21.2654 44.1205 21.2654C43.522 21.2654 43.0369 21.7506 43.0369 22.3492C43.0369 22.9478 43.522 23.4331 44.1205 23.4331Z" fill="#680034"/>
<path d="M40.4052 19.4075C40.9181 19.4075 41.334 18.9917 41.334 18.4788C41.334 17.9658 40.9181 17.55 40.4052 17.55C39.8922 17.55 39.4763 17.9658 39.4763 18.4788C39.4763 18.9917 39.8922 19.4075 40.4052 19.4075Z" fill="#680034"/>
<path d="M38.083 23.4329C38.596 23.4329 39.0118 23.0168 39.0118 22.5035C39.0118 21.9903 38.596 21.5742 38.083 21.5742C37.57 21.5742 37.1542 21.9903 37.1542 22.5035C37.1542 23.0168 37.57 23.4329 38.083 23.4329Z" fill="#680034"/>
<path d="M45.5138 17.3948C45.9413 17.3948 46.2878 17.0483 46.2878 16.6208C46.2878 16.1934 45.9413 15.8469 45.5138 15.8469C45.0863 15.8469 44.7397 16.1934 44.7397 16.6208C44.7397 17.0483 45.0863 17.3948 45.5138 17.3948Z" fill="#680034"/>
<path d="M42.5725 14.4529C43 14.4529 43.3466 14.1063 43.3466 13.6788C43.3466 13.2513 43 12.9048 42.5725 12.9048C42.145 12.9048 41.7985 13.2513 41.7985 13.6788C41.7985 14.1063 42.145 14.4529 42.5725 14.4529Z" fill="#680034"/>
<path d="M45.9783 11.0469C46.3203 11.0469 46.5975 10.7697 46.5975 10.4279C46.5975 10.086 46.3203 9.80884 45.9783 9.80884C45.6363 9.80884 45.359 10.086 45.359 10.4279C45.359 10.7697 45.6363 11.0469 45.9783 11.0469Z" fill="#680034"/>
<path d="M45.3589 31.4824C45.9574 31.4824 46.4426 30.9971 46.4426 30.3984C46.4426 29.7998 45.9574 29.3145 45.3589 29.3145C44.7604 29.3145 44.2753 29.7998 44.2753 30.3984C44.2753 30.9971 44.7604 31.4824 45.3589 31.4824Z" fill="#680034"/>
<path d="M55.2665 27.4568C55.865 27.4568 56.3502 26.9718 56.3502 26.3735C56.3502 25.7753 55.865 25.2903 55.2665 25.2903C54.668 25.2903 54.1829 25.7753 54.1829 26.3735C54.1829 26.9718 54.668 27.4568 55.2665 27.4568Z" fill="#C1145A"/>
<path d="M57.1245 31.9478C57.723 31.9478 58.2081 31.4624 58.2081 30.8636C58.2081 30.2649 57.723 29.7795 57.1245 29.7795C56.526 29.7795 56.0408 30.2649 56.0408 30.8636C56.0408 31.4624 56.526 31.9478 57.1245 31.9478Z" fill="#C1145A"/>
<path d="M51.861 23.4329C52.4595 23.4329 52.9447 22.9475 52.9447 22.3489C52.9447 21.7502 52.4595 21.2649 51.861 21.2649C51.2625 21.2649 50.7773 21.7502 50.7773 22.3489C50.7773 22.9475 51.2625 23.4329 51.861 23.4329Z" fill="#C1145A"/>
<path d="M55.5764 19.4075C56.0894 19.4075 56.5052 18.9916 56.5052 18.4786C56.5052 17.9657 56.0894 17.5498 55.5764 17.5498C55.0633 17.5498 54.6475 17.9657 54.6475 18.4786C54.6475 18.9916 55.0633 19.4075 55.5764 19.4075Z" fill="#C1145A"/>
<path d="M57.8984 23.4326C58.4114 23.4326 58.8273 23.0167 58.8273 22.5037C58.8273 21.9906 58.4114 21.5747 57.8984 21.5747C57.3855 21.5747 56.9696 21.9906 56.9696 22.5037C56.9696 23.0167 57.3855 23.4326 57.8984 23.4326Z" fill="#C1145A"/>
<path d="M50.4677 17.3945C50.8951 17.3945 51.2417 17.048 51.2417 16.6206C51.2417 16.1932 50.8951 15.8467 50.4677 15.8467C50.0402 15.8467 49.6936 16.1932 49.6936 16.6206C49.6936 17.048 50.0402 17.3945 50.4677 17.3945Z" fill="#C1145A"/>
<path d="M53.4089 14.4526C53.8364 14.4526 54.183 14.1061 54.183 13.6787C54.183 13.2513 53.8364 12.9048 53.4089 12.9048C52.9814 12.9048 52.6349 13.2513 52.6349 13.6787C52.6349 14.1061 52.9814 14.4526 53.4089 14.4526Z" fill="#C1145A"/>
<path d="M50.0032 11.0474C50.3452 11.0474 50.6224 10.7701 50.6224 10.4281C50.6224 10.0861 50.3452 9.80884 50.0032 9.80884C49.6612 9.80884 49.3839 10.0861 49.3839 10.4281C49.3839 10.7701 49.6612 11.0474 50.0032 11.0474Z" fill="#C1145A"/>
<path d="M50.6223 31.4822C51.2208 31.4822 51.7059 30.9969 51.7059 30.3982C51.7059 29.7995 51.2208 29.3142 50.6223 29.3142C50.0238 29.3142 49.5387 29.7995 49.5387 30.3982C49.5387 30.9969 50.0238 31.4822 50.6223 31.4822Z" fill="#C1145A"/>
<path d="M88.241 0.674553C85.6093 -0.563918 82.6679 -0.0994912 81.5842 2.06783L65.6389 33.9585L65.4841 34.1133H77.4044L91.1824 6.55729C92.266 4.54478 90.8728 2.06783 88.241 0.674553Z" fill="#C4B37E"/>
<path d="M71.2121 34.114C71.2121 34.114 65.6389 34.114 65.4841 34.114H77.4044L91.1824 6.55783C92.266 4.5453 90.8728 2.06834 88.241 0.675049" fill="#AA945E"/>
<path d="M77.0947 11.0474H89.015L91.3372 6.40308H79.4169L77.0947 11.0474Z" fill="#823061"/>
<path d="M89.015 11.0474L91.3372 6.40308H79.5717" fill="#680034"/>
<path d="M73.3794 18.6338L85.1449 18.7886L87.467 13.9895H75.7015L73.3794 18.6338Z" fill="#823061"/>
<path d="M85.2995 18.4802L87.4668 13.9895H75.8562" fill="#680034"/>
<path d="M69.509 26.373H81.4293L83.5967 21.7288H71.8312L69.509 26.373Z" fill="#823061"/>
<path d="M81.4293 26.373L83.5967 21.7288H72.76" fill="#680034"/>
<path d="M77.5592 34.115L79.8813 29.4707H67.9611L65.4841 34.115H77.5592Z" fill="#823061"/>
<path d="M77.5591 34.115L79.8812 29.4707H68.1158" fill="#680034"/>
<path d="M87.4577 1.52151C87.4088 1.01088 86.2651 0.702607 84.9032 0.832974C83.5413 0.963342 82.4768 1.48298 82.5257 1.99362C82.5746 2.50425 83.7183 2.81253 85.0802 2.68216C86.4422 2.5518 87.5066 2.03215 87.4577 1.52151Z" fill="#D8CAA4"/>
<path d="M14.6526 34.9425C14.5133 34.0124 11.7954 33.6484 8.58194 34.1296C5.36852 34.6108 2.87645 35.755 3.01574 36.6851C3.15503 37.6153 5.87293 37.9793 9.08635 37.4981C12.2998 37.0169 14.7918 35.8727 14.6526 34.9425Z" fill="#F2C0E3"/>
<path d="M4.64429 49.9065C4.64429 50.6806 4.17986 51.145 3.40581 51.145H2.78657C2.01252 51.145 1.5481 50.6806 1.5481 49.9065V41.3914C1.5481 40.7721 2.01252 40.3076 2.78657 40.3076H3.56062C4.17986 40.3076 4.64429 40.7721 4.64429 41.5462V49.9065Z" fill="#F2C0E3"/>
<path d="M4.64417 65.3855C4.64417 66.1596 4.17974 66.624 3.40569 66.624H2.78645C2.0124 66.624 1.54797 66.1596 1.54797 65.3855V56.8706C1.54797 56.2513 2.0124 55.7869 2.78645 55.7869H3.5605C4.17974 55.7869 4.64417 56.2513 4.64417 57.0254V65.3855Z" fill="#F7C937"/>
<path d="M4.64417 80.8648C4.64417 81.6388 4.17974 82.1033 3.40569 82.1033H2.78645C2.0124 82.1033 1.54797 81.6388 1.54797 80.8648V72.3503C1.54797 71.731 2.0124 71.2666 2.78645 71.2666H3.5605C4.17974 71.2666 4.64417 71.731 4.64417 72.5051V80.8648Z" fill="#3EC6BF"/>
</svg>
