<svg width="100" height="88" viewBox="0 0 100 88" fill="none" xmlns="http://www.w3.org/2000/svg">
<path d="M7.87317 70.8699V78.1006H3.45511C1.68616 78.1006 0.25 76.6662 0.25 74.8976V74.0751C0.25 72.3041 1.68626 70.8699 3.45511 70.8699H7.87317Z" fill="#9F5826" stroke="#CDCDCD" stroke-width="0.5"/>
<path d="M2.50024 55.3653V8.42193C3.45099 10.6417 5.65539 12.1967 8.22311 12.1967H76.2029V17.9195V73.0339H33.5313H31.4258H2.50024V55.3653Z" fill="#35BDB8" stroke="#CDCDCD" stroke-width="0.5"/>
<path d="M26.365 19.5469H66.8065H68.9916V65.4526H53.795H41.8972H24.3247V55.3647V21.5872C24.3247 20.4595 25.2373 19.5469 26.365 19.5469Z" fill="#AFDFE2" stroke="#CDCDCD" stroke-width="0.5"/>
<path d="M89.0875 61.1482H88.8387L88.8375 61.397L88.7676 75.6809H57.2453L57.1754 61.397L57.1742 61.1482H56.9254C51.0378 61.1482 46.2634 56.376 46.2634 50.4861C46.2634 44.5984 51.0378 39.8239 56.9254 39.8239C58.7956 39.8239 60.5527 40.3065 62.0787 41.1527L62.3974 41.3295L62.4476 40.9684C63.168 35.7789 67.6196 31.7834 73.0065 31.7834C78.3934 31.7834 82.8447 35.7788 83.5654 40.9684L83.6155 41.3294L83.9342 41.1527C85.46 40.3067 87.2173 39.8239 89.0875 39.8239C94.9751 39.8239 99.7495 44.5984 99.7495 50.4861C99.7495 56.3762 94.9752 61.1482 89.0875 61.1482Z" fill="#FFF0CE" stroke="#CDCDCD" stroke-width="0.5"/>
<path d="M72.0647 61.626L72.0722 61.6264H72.0797H82.309C83.3562 61.6264 84.2051 62.4753 84.2051 63.5225C84.2051 64.5698 83.3562 65.4188 82.309 65.4188H79.1703C75.4981 65.4188 72.5267 68.4053 72.5445 72.0772L72.562 75.6809H57.2456L57.1757 61.3971L57.1744 61.1483H56.9257C50.9096 61.1483 46.056 56.1661 46.2701 50.0997C46.4638 44.616 50.8903 40.1169 56.37 39.8381C58.4474 39.7326 60.4028 40.2233 62.0787 41.1527L62.3975 41.3294L62.4476 40.9684C63.1683 35.7788 67.6196 31.7834 73.0066 31.7834C75.964 31.7834 78.6389 32.9878 80.5699 34.933C80.1925 35.3477 79.8457 35.791 79.5333 36.2592L79.7413 36.3979L79.5333 36.2592C78.182 38.2852 75.8721 39.4986 73.4522 39.3463L73.4521 39.3463C73.0275 39.3196 72.5964 39.3166 72.1607 39.3387L72.1606 39.3387C66.3413 39.6348 61.6797 44.4687 61.5817 50.294C61.4804 56.3194 66.1536 61.2715 72.0647 61.626Z" fill="#F8DAB3" stroke="#CDCDCD" stroke-width="0.5"/>
<path d="M76.2029 1.74308V11.6951H8.22311C6.64253 11.6951 5.21228 11.0549 4.17774 10.018L4.17736 10.0176C3.14045 8.98291 2.50024 7.55269 2.50024 5.97241C2.50024 2.8118 5.06236 0.249756 8.22311 0.249756H74.7093L74.7093 0.249756C75.5336 0.249565 76.2029 0.918652 76.2029 1.74308Z" fill="#F2D093" stroke="#CDCDCD" stroke-width="0.5"/>
<path d="M91.9697 77.1416V84.3877C91.9697 85.9336 90.717 87.1863 89.1712 87.1863H56.8434C55.2976 87.1863 54.0449 85.9336 54.0449 84.3877V77.1416C54.0449 75.5957 55.2976 74.343 56.8434 74.343H89.171C90.717 74.3428 91.9697 75.5955 91.9697 77.1416Z" fill="#F8E2B6" stroke="#CDCDCD" stroke-width="0.5"/>
<path d="M89.1708 81.8328C90.3511 81.8328 91.3864 81.2133 91.9692 80.2817V84.3889C91.9692 85.9346 90.7166 87.1873 89.1708 87.1873H56.8433C55.2976 87.1873 54.0449 85.9346 54.0449 84.3889V80.2814C54.6278 81.2132 55.6631 81.8328 56.8433 81.8328H89.1708Z" fill="#F3C591" stroke="#CDCDCD" stroke-width="0.5"/>
<path d="M2.5 59.0198V8.42049C3.45074 10.6402 5.65514 12.1953 8.22285 12.1953H16.2432V59.0198H2.5Z" fill="#06A599" stroke="#CDCDCD" stroke-width="0.5"/>
<path d="M38.2338 65.9453H45.3353V83.3635H38.234H14.5546C9.74501 83.3635 5.84619 79.4646 5.84619 74.6554C5.84619 69.8449 9.74612 65.9451 14.5568 65.9451H37.9838V65.9453H38.2338Z" fill="#F9AA5C" stroke="#CDCDCD" stroke-width="0.5"/>
<path d="M5.84619 74.6533C5.84619 73.3206 6.14571 72.0584 6.68053 70.9295C8.29537 73.5862 11.2171 75.3617 14.5544 75.3617H38.234H45.3353V83.3611H38.234H14.5546C9.74499 83.3611 5.84619 79.4625 5.84619 74.6533Z" fill="#F6934D" stroke="#CDCDCD" stroke-width="0.5"/>
<path d="M46.9593 78.6005H52.2907C51.8259 79.935 50.9751 81.0863 49.8706 81.9233C48.6787 82.8266 47.1968 83.3635 45.5854 83.3635C41.6641 83.3635 38.4841 80.1834 38.4841 76.2624V73.0462C38.4841 71.0843 39.2784 69.3093 40.5634 68.0243C41.8487 66.7391 43.6235 65.9451 45.5854 65.9451C48.5597 65.9451 51.1076 67.7754 52.1639 70.3703H46.9591C45.943 70.3703 45.1216 71.1949 45.1216 72.2101V76.761V76.761C45.1218 77.7787 45.9435 78.6005 46.9593 78.6005Z" fill="#AB7249" stroke="#CDCDCD" stroke-width="0.5"/>
<path d="M56.0015 74.075V74.8975C56.0015 76.666 54.5653 78.1003 52.7964 78.1003H46.9589C46.2196 78.1003 45.6213 77.5026 45.6213 76.7606V72.2096C45.6213 71.4696 46.2198 70.8699 46.9589 70.8699H52.7964C54.565 70.8699 56.0015 72.3041 56.0015 74.075Z" fill="#9F5826" stroke="#CDCDCD" stroke-width="0.5"/>
</svg>
