<svg width="30" height="31" viewBox="0 0 30 31" fill="none" xmlns="http://www.w3.org/2000/svg">
<path d="M14.9995 18.0068C16.6544 18.0068 18.0035 16.6602 18.0035 15.0042C18.0035 14.3504 17.7897 13.7469 17.4356 13.2539C16.89 12.4975 16.003 12.0015 15.0013 12.0015C13.9989 12.0015 13.1126 12.4969 12.5658 13.2533C12.2105 13.7463 11.9984 14.3498 11.9978 15.0035C11.996 16.6596 13.344 18.0068 14.9995 18.0068Z" fill="#FCB638"/>
<path d="M21.5569 11.3307V8.81357V8.43896L21.1805 8.44017L18.6646 8.44803L18.6743 11.3403L21.5569 11.3307Z" fill="#FCB638"/>
<path d="M15 0.00488281C6.72905 0.00488281 0 6.73392 0 15.0049C0 23.2752 6.72905 30.0049 15 30.0049C23.2704 30.0049 30.0001 23.2752 30.0001 15.0049C30.0001 6.73392 23.2716 0.00488281 15 0.00488281ZM23.5308 13.2545V20.2391C23.5308 22.0584 22.0517 23.5369 20.2337 23.5369H9.76639C7.94773 23.5369 6.46924 22.0584 6.46924 20.2391V13.2545V9.77186C6.46924 7.9532 7.94773 6.47471 9.76639 6.47471H20.2331C22.0517 6.47471 23.5308 7.9532 23.5308 9.77186V13.2545Z" fill="#FCB638"/>
<path d="M19.6664 15.0045C19.6664 17.577 17.5735 19.6715 15.0001 19.6715C12.4268 19.6715 10.3345 17.577 10.3345 15.0045C10.3345 14.3857 10.4577 13.7941 10.6777 13.2539H8.13092V20.2395C8.13092 21.1423 8.86382 21.8735 9.7659 21.8735H20.2326C21.1334 21.8735 21.8676 21.1423 21.8676 20.2395V13.2539H19.3196C19.5414 13.7941 19.6664 14.3857 19.6664 15.0045Z" fill="#FCB638"/>
</svg>
