<svg width="30" height="31" viewBox="0 0 30 31" fill="none" xmlns="http://www.w3.org/2000/svg">
<path d="M15 30.0049C23.2843 30.0049 30.0001 23.2892 30.0001 15.0049C30.0001 6.72061 23.2843 0.00488281 15 0.00488281C6.71574 0.00488281 0 6.72061 0 15.0049C0 23.2892 6.71574 30.0049 15 30.0049Z" fill="#FCB638"/>
<path d="M23.9624 16.2125V22.3965H20.377V16.6269C20.377 15.1782 19.8593 14.1889 18.5611 14.1889C17.5704 14.1889 16.9819 14.855 16.722 15.4999C16.6276 15.7304 16.6033 16.0504 16.6033 16.3737V22.3962H13.0176C13.0176 22.3962 13.0657 12.6245 13.0176 11.613H16.6036V13.141C16.5963 13.1531 16.5862 13.1648 16.5798 13.1763H16.6036V13.141C17.08 12.4079 17.9298 11.3597 19.835 11.3597C22.1939 11.3597 23.9624 12.9009 23.9624 16.2125ZM9.26663 6.41504C8.04011 6.41504 7.23767 7.22013 7.23767 8.27789C7.23767 9.3132 8.01685 10.1415 9.21957 10.1415H9.24283C10.4934 10.1415 11.271 9.3132 11.271 8.27789C11.2472 7.22013 10.4934 6.41504 9.26663 6.41504ZM7.45078 22.3965H11.0351V11.613H7.45078V22.3965Z" fill="white"/>
</svg>
