<svg width="125" height="106" viewBox="0 0 125 106" fill="none" xmlns="http://www.w3.org/2000/svg">
<path d="M104.74 21.2896L104.03 43.9993L124.712 42.1744V20.9855L114.878 3.85181L104.537 20.7827H104.74V21.2896Z" fill="#CEDCDD"/>
<path d="M104.537 44.1003L104.436 61.6389L124.712 59.51V42.1741L104.537 44.1003Z" fill="#115E98"/>
<path d="M104.132 87.7952L124.712 83.8413V59.5095L104.436 61.6385L104.132 87.7952Z" fill="#CEDCDD"/>
<path d="M104.841 44.0994L104.74 21.4922L104.943 21.188C98.8598 20.9853 84.768 20.4784 78.5838 20.2756L78.1783 20.5798V42.0718L104.537 44.0994H104.841Z" fill="#F5F6F7"/>
<path d="M104.436 61.6392L78.077 59.4089V83.942L104.334 87.8958L104.841 87.7944L104.638 61.6392H104.436Z" fill="#F5F6F7"/>
<path d="M104.841 61.6394V44.1015H104.436L78.077 42.074V59.4092L104.436 61.6394H104.841Z" fill="#247EB5"/>
<path d="M114.979 3.95341L115.081 0.000244141L88.8233 1.52069L88.6205 4.96704C94.3991 4.46022 114.878 4.05477 114.979 3.95341Z" fill="#F5F6F7"/>
<path d="M114.979 3.95435V4.05573V3.95435C114.878 4.05573 94.3991 4.35987 88.5191 4.96816V5.27232L78.077 20.5809C84.2612 20.6823 98.9612 20.8851 104.943 21.1892L114.979 3.95435Z" fill="white"/>
<path d="M0.168297 93.4688C-0.168297 93.9737 0 94.3944 0.673187 94.6469C0.925629 94.731 1.17808 94.8151 1.59881 94.8993L65.7192 103.819C67.5705 104.071 70.179 103.145 71.5254 101.799L85.2415 87.2422C85.9146 86.569 86.0829 85.8117 85.9146 85.3069C85.8305 85.6435 85.578 85.98 85.2415 86.3166L71.5254 100.874C70.179 102.304 67.5705 103.23 65.7192 102.977L65.2985 102.893L7.99403 94.8993L1.59881 93.9737C0.841484 93.8896 0.420738 93.7213 0.168297 93.4688Z" fill="#C4F7F6"/>
<path d="M1.59885 94.8987C1.26225 94.8145 0.925659 94.7304 0.673218 94.6462C0.841507 94.8145 2.35618 96.4134 6.31111 97.3391L63.1107 105.586C67.4022 106.007 71.0205 102.22 71.4413 101.799C70.0949 103.145 67.4863 104.071 65.6351 103.819L1.59885 94.8987Z" fill="#427A76"/>
<path d="M1.17813 91.7849C0.168358 92.374 -0.168236 93.0471 0.252502 93.4679C0.504944 93.7203 0.92569 93.9728 1.68302 94.0569L8.07821 94.9826L25.4126 84.5481C26.2541 84.0432 27.6846 83.7066 28.6102 83.7908L77.0792 88.8397C78.0048 88.9239 78.2573 89.597 77.5841 90.2702L65.3827 102.977L65.8034 103.061C67.7388 103.313 70.3474 102.388 71.6096 100.957L85.2415 86.3152C85.5781 85.9786 85.8306 85.6421 85.9147 85.3055C86.2513 84.3798 85.5781 83.6225 84.1476 83.4542L28.9468 77.9004C27.0114 77.7321 24.1504 78.3211 22.4674 79.3309L1.17813 91.7849Z" fill="#6EBAB6"/>
<path d="M6.47943 88.586L22.3833 79.2454C24.0663 78.2356 26.9273 77.6466 28.8627 77.8149L58.3143 80.8443C58.3143 81.7699 58.3143 82.6955 58.3143 83.6212C62.69 83.9578 66.9815 84.3785 71.273 84.2102C71.273 84.631 71.273 85.0517 71.273 85.6407C74.4706 86.0615 77.6682 85.809 80.8658 86.3981C80.1085 88.9225 79.267 91.2787 78.3414 93.719L71.6096 100.872C70.2633 102.302 67.6547 103.228 65.8034 102.975L65.3827 102.891L77.5841 90.1848C78.2573 89.5116 78.0048 88.8384 77.0792 88.7543L28.6102 83.7053C27.6846 83.6212 26.1699 83.9578 25.4126 84.4627L8.07823 94.8971L6.73189 94.7288C6.56359 92.7092 6.47943 90.6897 6.47943 88.586Z" fill="#BFDBDA"/>
<path d="M25.2443 84.4638L7.90991 94.8977L65.2144 102.891L77.4158 90.1856C78.089 89.5124 77.8366 88.8393 76.9109 88.7551L28.4419 83.7065C27.5163 83.6223 26.0858 83.9589 25.2443 84.4638Z" fill="#A2EDED"/>
<path d="M46.3653 100.284C50.9934 95.4878 55.9582 91.112 61.4278 87.157L76.9109 88.7558C77.8366 88.84 78.089 89.5132 77.4158 90.1864L67.0656 100.958C64.3729 101.21 61.6802 101.547 58.9875 102.052L46.3653 100.284Z" fill="url(#paint0_linear)"/>
<path d="M7.99408 94.8988L25.3284 84.4639C26.1699 83.9589 27.6004 83.6223 28.5261 83.7065L54.9484 86.4835C51.4142 89.7655 48.3849 93.4682 45.6921 97.3392C42.3262 97.5916 39.0445 98.0966 35.8469 98.7698L7.99408 94.8988Z" fill="url(#paint1_linear)"/>
<path d="M9.9295 79.9211C9.9295 79.9211 9.08803 85.7269 9.50877 94.8142C33.6591 95.7398 45.7763 97.9275 45.7763 97.9275C45.9446 95.3191 46.1971 82.782 46.1971 82.782C46.1971 82.782 34.0798 80.7626 9.9295 79.9211Z" fill="#FFD56B"/>
<path d="M9.9295 79.9211C9.9295 79.9211 9.08803 85.7269 9.50877 94.8142C33.6591 95.7398 45.7763 97.9275 45.7763 97.9275C45.9446 95.3191 46.1971 82.782 46.1971 82.782C46.1971 82.782 34.0798 80.7626 9.9295 79.9211Z" fill="url(#paint2_linear)"/>
<path d="M26.2541 71.0002C17.4186 73.3569 9.92947 79.9218 9.92947 79.9218C34.0798 80.7635 46.1971 82.7834 46.1971 82.7834C51.5825 76.3869 56.3789 73.3569 56.3789 73.3569C42.8312 71.4211 26.2541 71.0002 26.2541 71.0002Z" fill="#FFE78F"/>
<path d="M26.2541 71.0002C17.4186 73.3569 9.92947 79.9218 9.92947 79.9218C34.0798 80.7635 46.1971 82.7834 46.1971 82.7834C51.5825 76.3869 56.3789 73.3569 56.3789 73.3569C42.8312 71.4211 26.2541 71.0002 26.2541 71.0002Z" fill="url(#paint3_linear)"/>
<path d="M46.1971 82.6977C46.1971 82.6977 45.9446 95.2363 45.7763 97.845C51.1618 90.6921 56.0423 87.2419 56.0423 87.2419C56.3789 83.6234 56.3789 73.2727 56.3789 73.2727C56.3789 73.2727 51.5825 76.3863 46.1971 82.6977Z" fill="#FFF4B5"/>
<path d="M46.1971 82.6977C46.1971 82.6977 45.9446 95.2363 45.7763 97.845C51.1618 90.6921 56.0423 87.2419 56.0423 87.2419C56.3789 83.6234 56.3789 73.2727 56.3789 73.2727C56.3789 73.2727 51.5825 76.3863 46.1971 82.6977Z" fill="url(#paint4_linear)"/>
<path d="M77.3316 87.2415C74.6389 92.0372 69.9266 98.0109 69.9266 98.0109L70.0949 100.198C72.7876 97.3378 77.4999 89.8497 77.4999 89.8497L77.3316 87.2415Z" fill="#FFF4B5"/>
<path d="M77.3316 87.2415C74.6389 92.0372 69.9266 98.0109 69.9266 98.0109L70.0949 100.198C72.7876 97.3378 77.4999 89.8497 77.4999 89.8497L77.3316 87.2415Z" fill="url(#paint5_linear)"/>
<path d="M57.2204 98.0964L57.3886 100.117L70.0947 100.201L69.9264 98.0964C63.8679 98.4332 57.2204 98.0964 57.2204 98.0964Z" fill="#FFD56B"/>
<path d="M57.2204 98.0964L57.3886 100.117L70.0947 100.201L69.9264 98.0964C63.8679 98.4332 57.2204 98.0964 57.2204 98.0964Z" fill="url(#paint6_linear)"/>
<path d="M57.2204 98.0974C57.2204 98.0974 63.868 98.5182 69.8425 98.0974C69.8425 98.0974 74.5547 92.1221 77.2474 87.325L67.7388 87.5774C67.7388 87.4933 61.1753 93.8053 57.2204 98.0974Z" fill="#FFE78F"/>
<path d="M57.2204 98.0974C57.2204 98.0974 63.868 98.5182 69.8425 98.0974C69.8425 98.0974 74.5547 92.1221 77.2474 87.325L67.7388 87.5774C67.7388 87.4933 61.1753 93.8053 57.2204 98.0974Z" fill="url(#paint7_linear)"/>
<path d="M57.2204 98.0973C61.1753 93.8889 67.7388 87.4921 67.7388 87.4921L71.3572 87.408C68.9169 90.8589 66.3083 94.1414 63.6156 97.424C61.5961 98.0973 59.4082 98.6024 57.2204 99.0232V98.0973Z" fill="url(#paint8_linear)"/>
<path d="M69.9266 85.8093C66.8132 89.5118 61.1752 94.8131 61.1752 94.8131L61.6801 96.9167H61.8484C64.7936 93.8033 69.9266 88.3337 69.9266 88.3337V85.8093Z" fill="#FFF4B5"/>
<path d="M69.9266 85.8093C66.8132 89.5118 61.1752 94.8131 61.1752 94.8131L61.6801 96.9167H61.8484C64.7936 93.8033 69.9266 88.3337 69.9266 88.3337V85.8093Z" fill="url(#paint9_linear)"/>
<path d="M61.1752 94.8142C55.4532 95.9084 49.5629 96.1609 49.5629 96.1609V98.1809L61.6801 96.9184L61.1752 94.8142Z" fill="#FFD56B"/>
<path d="M61.1752 94.8142C55.4532 95.9084 49.5629 96.1609 49.5629 96.1609V98.1809L61.6801 96.9184L61.1752 94.8142Z" fill="url(#paint10_linear)"/>
<path d="M49.5629 96.1619C49.5629 96.1619 55.4532 95.9094 61.1753 94.8152C61.1753 94.8152 66.8132 89.5968 69.9266 85.8093L61.1753 86.651C61.1753 86.651 54.4435 91.9535 49.5629 96.1619Z" fill="#FFE78F"/>
<path d="M49.5629 96.1619C49.5629 96.1619 55.4532 95.9094 61.1753 94.8152C61.1753 94.8152 66.8132 89.5968 69.9266 85.8093L61.1753 86.651C61.1753 86.651 54.4435 91.9535 49.5629 96.1619Z" fill="url(#paint11_linear)"/>
<defs>
<linearGradient id="paint0_linear" x1="70.1402" y1="92.6732" x2="41.5194" y2="99.3569" gradientUnits="userSpaceOnUse">
<stop stop-color="#BEC3C4"/>
<stop offset="1" stop-color="white"/>
</linearGradient>
<linearGradient id="paint1_linear" x1="54.9368" y1="91.2464" x2="7.96059" y2="91.2464" gradientUnits="userSpaceOnUse">
<stop stop-color="#BEC3C4"/>
<stop offset="1" stop-color="white"/>
</linearGradient>
<linearGradient id="paint2_linear" x1="28.2284" y1="112.704" x2="27.7712" y2="82.999" gradientUnits="userSpaceOnUse">
<stop stop-color="#FDC783"/>
<stop offset="0.8918" stop-color="#FFE78F"/>
</linearGradient>
<linearGradient id="paint3_linear" x1="76.8068" y1="81.141" x2="20.3652" y2="75.2011" gradientUnits="userSpaceOnUse">
<stop stop-color="#FFE78F"/>
<stop offset="0.8918" stop-color="#FFE78F"/>
</linearGradient>
<linearGradient id="paint4_linear" x1="59.8131" y1="72.9194" x2="47.0157" y2="90.7431" gradientUnits="userSpaceOnUse">
<stop stop-color="#FFDF9E"/>
<stop offset="1" stop-color="white"/>
</linearGradient>
<linearGradient id="paint5_linear" x1="77.5433" y1="93.7118" x2="69.919" y2="93.7118" gradientUnits="userSpaceOnUse">
<stop stop-color="#FFDF9E"/>
<stop offset="1" stop-color="white"/>
</linearGradient>
<linearGradient id="paint6_linear" x1="63.7371" y1="102.924" x2="63.6641" y2="97.6636" gradientUnits="userSpaceOnUse">
<stop stop-color="white"/>
<stop offset="0.8918" stop-color="#FFD371"/>
</linearGradient>
<linearGradient id="paint7_linear" x1="90.6987" y1="77.3324" x2="61.3585" y2="98.0403" gradientUnits="userSpaceOnUse">
<stop stop-color="white"/>
<stop offset="0.8918" stop-color="#FFE78F"/>
</linearGradient>
<linearGradient id="paint8_linear" x1="73.1638" y1="85.1294" x2="56.2785" y2="101.754" gradientUnits="userSpaceOnUse">
<stop stop-color="#FFDF9E"/>
<stop offset="1" stop-color="white"/>
</linearGradient>
<linearGradient id="paint9_linear" x1="69.9846" y1="84.4601" x2="63.0159" y2="95.542" gradientUnits="userSpaceOnUse">
<stop stop-color="#FFDF9E"/>
<stop offset="1" stop-color="white"/>
</linearGradient>
<linearGradient id="paint10_linear" x1="55.8874" y1="100.304" x2="55.4079" y2="95.1108" gradientUnits="userSpaceOnUse">
<stop stop-color="white"/>
<stop offset="0.8918" stop-color="#FFE67B"/>
</linearGradient>
<linearGradient id="paint11_linear" x1="45.1894" y1="91.4417" x2="66.669" y2="90.7563" gradientUnits="userSpaceOnUse">
<stop stop-color="white"/>
<stop offset="0.8918" stop-color="#FFE78F"/>
<stop offset="1" stop-color="#FFE78F"/>
</linearGradient>
</defs>
</svg>
