<svg width="69" height="77" viewBox="0 0 69 77" fill="none" xmlns="http://www.w3.org/2000/svg">
<path d="M40.6662 64.0661L58.7387 57.2356C58.7387 57.2356 60.7937 61.89 60.4915 67.4511C60.1289 73.0122 56.8649 66.2422 56.8649 66.2422C56.8649 66.2422 57.1671 67.9951 56.8649 72.2869C56.744 74.2212 56.2001 75.4301 55.4143 75.7928C54.5681 76.0346 53.4197 75.4906 52.0295 74.1003C49.0073 71.1384 48.0402 69.5668 48.0402 69.5668C48.0402 69.5668 50.0349 76.8204 46.1665 72.8913C42.1773 68.9623 40.6662 64.0661 40.6662 64.0661Z" fill="#331000"/>
<path d="M13.0438 32.3928C6.27415 34.871 -0.979019 47.2618 0.108956 48.3498C1.19693 49.4378 6.51592 44.5419 6.51592 44.5419C6.51592 44.5419 5.48839 47.4432 5.12573 51.1302C5.06529 51.4929 5.06528 51.8555 5.30706 52.0973C5.7906 52.5204 6.51593 52.0368 6.93903 51.5533C8.027 50.284 8.93365 48.8938 9.77985 47.3827C9.65896 49.3773 9.77984 51.372 10.1425 53.3062C10.3238 54.3941 10.9283 55.7239 12.0162 55.7239C12.9229 55.7239 13.5273 54.8172 13.89 54.0315C16.6704 48.2289 15.5219 38.2558 13.0438 32.3928Z" fill="#331000"/>
<path d="M16.3077 36.6237C18.3627 30.9417 16.0659 27.738 16.0659 27.738H60.3101C60.3101 27.738 58.0133 31.0022 60.0683 36.6237C63.4531 46.1138 58.2551 60.4397 38.2485 60.4397H38.1276C18.121 60.4397 13.346 44.9653 16.3077 36.6237Z" fill="#C1B3AA"/>
<path d="M33.0504 0.237605C32.5669 0.0563165 32.0229 -0.12497 31.5998 0.116748C31.1767 0.358465 31.0558 0.962757 31.1767 1.44619C31.2976 1.92963 31.6602 2.35264 31.9625 2.71521C32.3251 3.13822 32.6878 3.62165 33.1109 4.04466C31.7207 3.37993 30.2096 2.77564 28.759 2.23178C28.0941 1.99006 27.0061 1.99006 26.9457 2.71521C26.9457 3.01736 27.0666 3.25908 27.2479 3.5008C27.7919 4.22595 28.4568 4.83024 29.1821 5.31368C27.5501 4.64895 25.7368 4.52809 24.0444 5.01153C23.8631 5.07196 23.6213 5.13239 23.5004 5.31368C23.1378 5.73668 23.6213 6.4014 24.0444 6.70354C26.3413 8.39557 29.2425 8.93943 32.0833 9.12072C36.6166 9.42286 41.2102 8.99986 45.6226 7.79127C43.1444 6.88483 37.2814 2.11091 33.0504 0.237605Z" fill="#331000"/>
<path d="M60.3103 5.91933C60.7334 5.738 61.2169 5.61711 61.5796 5.79844C61.9422 6.04021 62.0631 6.52376 61.9422 6.94686C61.8213 7.36996 61.5191 7.73262 61.2774 8.03484C60.9751 8.3975 60.6125 8.82059 60.3103 9.18325C61.5191 8.57882 62.7884 8.03483 64.1182 7.61173C64.7226 7.36996 65.6897 7.36996 65.6897 8.03484C65.6897 8.27661 65.5688 8.51838 65.3875 8.69971C64.9039 9.30414 64.2995 9.84812 63.6951 10.3317C65.0853 9.72724 66.7172 9.60635 68.1679 10.0295C68.3492 10.0899 68.5305 10.1503 68.6514 10.2712C68.9536 10.6339 68.591 11.1779 68.1679 11.4801C66.1732 12.9307 63.6346 13.4143 61.1565 13.5956C57.2277 13.8978 53.178 13.4747 49.3701 12.4472C51.546 11.7219 56.6232 7.55129 60.3103 5.91933Z" fill="#331000"/>
<path d="M11.8953 38.6797C12.3184 31.3665 13.0438 13.4157 13.0438 13.4157C13.0438 13.4157 24.3466 7.25073 38.2485 7.25073C52.2108 7.25073 63.4532 13.4157 63.4532 13.4157C63.4532 13.4157 64.1785 30.3994 64.6016 38.6797C65.0247 46.1139 62.9696 64.4273 38.3089 64.4273H38.1276C13.4669 64.4878 11.4722 46.1139 11.8953 38.6797Z" fill="#582B18"/>
<path d="M23.7423 71.9832C24.0446 70.0491 25.0116 68.2963 26.8249 67.3897C28.6382 66.483 30.6328 66.7853 32.567 67.2084C32.6275 67.1479 32.5066 66.9666 32.2648 66.483C31.9021 65.7577 31.4186 65.0929 30.8142 64.4885C29.2426 62.7961 31.7813 60.1971 33.3528 61.9499C34.9243 63.6423 37.0398 66.483 35.9518 68.9007C35.5892 69.7469 34.8638 70.2304 34.0176 70.5931C33.8968 70.714 33.7154 70.7744 33.5341 70.8348C32.2648 71.3184 31.8417 72.6481 31.9626 73.8569C32.0835 74.824 31.0559 75.6702 30.1493 75.6702C29.6657 75.6702 29.3031 75.4888 29.0009 75.2471C28.0942 75.791 26.5832 75.6097 26.0996 74.3404C26.0996 74.28 26.0996 74.28 26.0392 74.2196C24.9512 74.4613 23.5006 73.5547 23.7423 71.9832Z" fill="#B46E23"/>
<path d="M31.2372 70.5321C33.4736 68.7798 35.6495 69.2632 35.8308 69.1423C35.4077 69.8674 34.8033 70.2904 34.078 70.5925C33.9571 70.7134 33.7758 70.7738 33.5944 70.8342C32.3251 71.3176 31.902 72.647 32.0229 73.8555C32.1438 74.8223 31.1163 75.6682 30.2097 75.6682C30.0888 75.6682 29.1821 72.1031 31.2372 70.5321Z" fill="#934F21"/>
<path d="M27.3084 75.4276C26.4621 70.5924 29.9679 69.6858 29.9679 69.6858C27.2479 71.6803 29.0612 75.2462 29.0612 75.2462C28.5777 75.5484 27.9128 75.6089 27.3084 75.4276Z" fill="#934F21"/>
<path d="M24.3467 73.6736C24.5281 68.9612 27.6107 69.0821 27.6107 69.0821C24.8907 70.8341 25.8578 73.6132 26.0996 74.1569C25.4952 74.3381 24.8303 74.1569 24.3467 73.6736Z" fill="#934F21"/>
<path d="M35.2869 66.2405C38.309 67.7514 39.2761 71.4986 37.5233 74.3391C36.3144 76.3336 33.1714 74.5204 34.3803 72.526C35.166 71.3172 34.7429 70.0481 33.4736 69.3833C31.3581 68.3558 33.1714 65.2131 35.2869 66.2405Z" fill="#B46E23"/>
<path d="M34.3802 72.4657C35.166 71.2571 34.7429 69.9882 33.4736 69.3235C33.4736 69.3235 37.5232 69.7465 36.6166 75.0035C35.166 75.5474 33.3527 74.0972 34.3802 72.4657Z" fill="#934F21"/>
<path d="M28.094 58.7446L30.9953 57.6565C31.7206 58.261 35.1054 60.9813 35.7702 61.6463C36.1933 62.1299 36.6769 62.674 36.6164 63.2785C36.6164 63.5203 36.4956 63.8226 36.2538 63.9435C36.1329 64.004 35.9516 64.004 35.7702 64.004C35.1054 63.9435 34.501 63.7017 33.957 63.2785C34.2592 63.883 34.3801 64.548 34.4405 65.213C34.4405 65.5757 34.3196 66.0593 33.8965 66.0593C33.7756 66.0593 33.5943 65.9989 33.4734 65.878C32.9899 65.5152 32.5063 65.0921 32.2041 64.6085C32.325 65.3944 31.5997 66.1198 30.814 66.1802C30.0282 66.2407 29.3029 65.6966 28.8798 65.0316C28.4567 64.3667 28.3358 63.5203 28.3358 62.7345C28.3963 62.3113 28.0336 59.2887 28.094 58.7446Z" fill="#582B18"/>
<path d="M30.8138 73.3134C31.1161 71.3794 32.0831 69.6266 33.8964 68.72C35.7097 67.8134 37.7043 68.1156 39.6385 68.5387C39.699 68.4783 39.5781 68.297 39.3363 67.8134C38.9737 67.0882 38.4901 66.4233 37.8857 65.8189C36.3142 64.1266 38.8528 61.5277 40.4243 63.2805C41.9958 64.9728 44.1113 67.8134 43.0233 70.231C42.6607 71.0772 41.9354 71.5607 41.0892 71.9233C40.9683 72.0442 40.7869 72.1046 40.6056 72.1651C39.3363 72.6486 38.9132 73.9783 39.0341 75.1871C39.155 76.1541 38.1275 77.0002 37.2208 77.0002C36.7373 77.0002 36.3746 76.8189 36.0724 76.5772C35.1657 77.1211 33.6547 76.9398 33.1711 75.6706C33.1711 75.6101 33.1711 75.6101 33.1107 75.5497C32.0227 75.7914 30.5116 74.8244 30.8138 73.3134Z" fill="#B46E23"/>
<path d="M38.2484 71.8632C40.4848 70.1109 42.6607 70.5942 42.842 70.4734C42.4189 71.1985 41.8145 71.6215 41.0892 71.9236C40.9683 72.0444 40.787 72.1049 40.6056 72.1653C39.3363 72.6487 38.9132 73.978 39.0341 75.1865C39.155 76.1533 38.1275 76.9993 37.2208 76.9993C37.1604 76.9993 36.1933 73.4342 38.2484 71.8632Z" fill="#934F21"/>
<path d="M34.3801 76.7586C33.5339 71.9222 37.0396 71.0154 37.0396 71.0154C34.3196 73.0104 36.1329 76.5773 36.1329 76.5773C35.5889 76.8191 34.9845 76.94 34.3801 76.7586Z" fill="#934F21"/>
<path d="M31.3579 75.0046C31.5392 70.2923 34.6218 70.4131 34.6218 70.4131C31.9019 72.1651 32.869 74.9442 33.1108 75.4879C32.5668 75.6692 31.8415 75.4879 31.3579 75.0046Z" fill="#934F21"/>
<path d="M35.1053 60.0163L38.0066 58.9285C38.7319 59.5328 42.1167 62.2524 42.7816 62.9172C43.2047 63.4006 43.6882 63.9446 43.6278 64.5489C43.6278 64.7906 43.5069 65.0928 43.2651 65.2137C43.1442 65.2741 42.9629 65.2741 42.7816 65.2741C42.1167 65.2137 41.5123 64.9719 40.9683 64.5489C41.2705 65.1532 41.3914 65.818 41.4518 66.4828C41.4518 66.8454 41.331 67.3289 40.9079 67.3289C40.787 67.3289 40.6056 67.2684 40.4848 67.1476C40.0012 66.785 39.5177 66.3619 39.2155 65.8784C39.3363 66.6641 38.611 67.3893 37.8253 67.4498C37.0395 67.5102 36.3142 66.9663 35.8911 66.3015C35.468 65.6367 35.3471 64.7906 35.3471 64.005C35.4075 63.5819 35.0449 60.6206 35.1053 60.0163Z" fill="#582B18"/>
<path d="M42.2981 67.5711C45.3203 69.0821 46.2874 72.8291 44.5345 75.6697C43.3257 77.6641 40.1826 75.851 41.3915 73.8566C42.1773 72.6478 41.7542 71.3787 40.4849 70.7138C38.3694 69.626 40.2431 66.5437 42.2981 67.5711Z" fill="#B46E23"/>
<path d="M41.3914 73.7965C42.1772 72.5878 41.7541 71.3188 40.4847 70.6541C40.4847 70.6541 44.5345 71.0771 43.6278 76.3346C42.2376 76.8785 40.4243 75.4281 41.3914 73.7965Z" fill="#934F21"/>
<path d="M52.2108 40.6743C47.6172 49.1367 53.5406 55.5439 50.6393 57.9617C47.738 60.3796 44.595 55.7253 44.595 55.7253C44.595 55.7253 46.8918 60.6818 43.6884 61.2862C40.4849 61.8907 37.3419 57.5991 37.3419 57.5991C37.3419 57.5991 38.309 63.4018 36.2539 63.9458C34.1988 64.4294 32.5064 57.9013 32.5064 57.9013C32.5064 57.9013 32.3251 63.4018 29.9678 63.2809C27.6106 63.0996 25.9786 58.9893 25.9786 58.9893C25.9786 58.9893 25.4346 61.1653 22.7147 61.3467C19.9948 61.528 19.6321 54.9999 19.6321 54.9999C19.6321 54.9999 19.8739 58.5662 17.2144 57.6595C14.4945 56.7528 11.291 43.5757 18.7859 34.6298C26.4017 25.7443 52.2108 40.6743 52.2108 40.6743Z" fill="#C1B3AA"/>
<path d="M62.6069 28.3425C62.6069 28.3425 52.2107 35.8981 50.2766 47.3221C48.8259 55.7843 45.3202 49.1354 45.8038 45.3879C45.8038 45.3879 44.5345 53.4874 42.0563 53.3061C39.5781 53.1248 40.3035 47.6848 40.3035 47.6848C40.3035 47.6848 38.6111 54.4546 35.7702 54.2732C32.9294 54.0919 32.5668 48.0474 32.5668 48.0474C32.5668 48.0474 30.0282 57.9603 27.9731 57.7185C25.918 57.4768 25.5554 47.5639 25.5554 47.5639C25.5554 47.5639 23.5003 54.5754 21.8079 54.2128C20.1155 53.8501 20.599 46.1736 20.599 46.1736C20.599 46.1736 18.9671 48.7123 17.2747 46.8385C15.5823 44.9648 18.8462 37.2278 18.8462 37.2278C18.8462 37.2278 17.2747 39.9478 15.5218 38.4367C13.769 36.9256 23.1981 27.738 23.1981 27.738L62.6069 28.3425Z" fill="#DFD9D5"/>
<path d="M53.1779 11.7814C49.5513 13.6552 49.2491 22.8427 49.2491 22.8427C49.2491 22.8427 48.4029 9.6659 39.82 8.75925C25.495 7.24815 23.9839 13.7156 23.1982 27.6782C23.1982 27.6782 33.7153 33.8434 37.1605 40.6736C40.6662 33.2994 56.6836 30.5795 62.607 28.2826C64.662 15.3476 59.0408 9.12191 53.1779 11.7814Z" fill="#C1B3AA"/>
<path d="M62.0026 21.5743C62.0026 25.9862 59.6453 29.3102 57.1671 29.008C54.6889 28.7058 52.4525 25.3214 52.4525 21.393C52.4525 18.069 55.112 13.5967 57.5902 13.6571C59.9475 13.778 62.0026 17.1624 62.0026 21.5743Z" fill="#351100"/>
<path d="M53.1779 21.4537C53.1779 24.9598 54.9912 28.0427 57.2276 28.2845C59.4639 28.5263 61.2772 25.5038 61.2772 21.5746C61.2772 17.6453 59.4639 14.5623 57.2276 14.7437C54.9912 14.925 53.1779 17.9476 53.1779 21.4537Z" fill="white"/>
<path d="M53.9637 22.5412C53.9637 25.3821 55.4143 27.8604 57.1671 28.0417C58.9804 28.2231 60.431 25.8657 60.431 22.7226C60.431 19.5794 58.9804 17.1616 57.2276 17.2221C55.4143 17.3429 53.9637 19.7003 53.9637 22.5412Z" fill="black"/>
<path d="M55.8977 25.2011C55.8977 25.987 56.2604 26.6519 56.7439 26.7124C57.2274 26.7728 57.5901 26.1683 57.5901 25.322C57.5901 24.5362 57.2274 23.8712 56.7439 23.8108C56.2604 23.8108 55.8977 24.4153 55.8977 25.2011Z" fill="white"/>
<path d="M55.0517 23.2652C55.0517 23.6281 55.233 23.991 55.4748 23.991C55.7166 23.991 55.8979 23.6885 55.8979 23.3256C55.8979 22.9628 55.7166 22.5999 55.4748 22.5999C55.233 22.5999 55.0517 22.9023 55.0517 23.2652Z" fill="white"/>
<path d="M45.8037 20.788C45.8037 26.3496 41.9353 30.4603 37.8252 30.0976C33.7151 29.7349 30.0281 25.4428 30.0281 20.6066C30.0281 16.4959 34.4404 10.8739 38.5505 10.9343C42.3584 11.0552 45.8641 15.2264 45.8037 20.788Z" fill="#351100"/>
<path d="M31.2369 20.6064C31.2369 25.0179 34.2591 28.8251 37.9461 29.1272C41.6331 29.4294 44.6553 25.6826 44.6553 20.7273C44.6553 15.7719 41.6936 11.9647 37.9461 12.2065C34.1986 12.4482 31.2369 16.2554 31.2369 20.6064Z" fill="white"/>
<path d="M32.5063 21.9953C32.5063 25.5612 34.9241 28.6436 37.8253 28.8854C40.787 29.1271 43.2047 26.1656 43.2047 22.237C43.2047 18.3085 40.8474 15.2261 37.8858 15.3469C34.9241 15.4678 32.5063 18.4293 32.5063 21.9953Z" fill="black"/>
<path d="M35.7098 25.3208C35.7098 26.2872 36.3142 27.1329 37.1604 27.1933C37.9462 27.2537 38.6111 26.4684 38.6111 25.502C38.6111 24.4751 38.0066 23.6899 37.1604 23.6295C36.3747 23.5691 35.7098 24.3543 35.7098 25.3208Z" fill="white"/>
<path d="M34.3195 22.9041C34.3195 23.3874 34.6217 23.8103 35.0448 23.8103C35.4679 23.8103 35.7701 23.4478 35.7701 22.9645C35.7701 22.4812 35.4679 22.0583 35.0448 22.0583C34.6217 22.0583 34.3195 22.4208 34.3195 22.9041Z" fill="white"/>
<path d="M52.8757 9.96888C52.3317 10.392 51.9086 10.9964 51.546 11.6613C51.7273 10.6942 51.9086 9.7271 51.7878 8.75997C51.6669 7.79285 51.1229 6.88617 50.3976 6.70483C49.6723 6.82572 49.1283 7.79285 49.0074 8.75997C48.8865 9.7271 49.0678 10.6942 49.2492 11.6613C48.8261 11.0569 48.4634 10.4524 47.9194 10.0293C47.0128 9.30397 45.9248 10.392 46.1062 11.7218C46.2875 13.2329 46.9524 14.6836 47.5568 15.9529C48.1612 17.2223 48.7656 18.4916 49.3701 19.761H51.4251C52.0295 18.4916 52.6339 17.2223 53.2384 15.9529C53.8428 14.6231 54.5077 13.1725 54.689 11.7218C54.8703 10.3315 53.7824 9.24354 52.8757 9.96888Z" fill="#331000"/>
<path d="M48.4633 22.7819C48.4633 22.7819 48.8864 25.2009 50.5788 25.2009C52.2712 25.2009 52.2712 22.7214 52.2712 22.7214L48.4633 22.7819Z" fill="#8F4321"/>
<path d="M50.8811 17.947C49.7327 17.947 48.3425 20.1829 48.403 23.2043L54.3264 23.0835C54.3264 23.0835 52.0296 17.947 50.8811 17.947Z" fill="#B46E23"/>
<path d="M56.6231 33.9646C62.3047 38.3767 65.5082 52.3383 64.118 53.0636C62.7278 53.7888 59.1617 47.5031 59.1617 47.5031C59.1617 47.5031 59.2826 50.5251 58.4968 54.2119C58.4364 54.5745 58.3155 54.9372 58.0133 55.1185C57.4088 55.4207 56.8649 54.6954 56.6231 54.091C55.9582 52.5196 55.5351 50.9482 55.1724 49.3163C54.6889 51.2504 53.9636 53.124 53.0569 54.8768C52.513 55.8438 51.6063 56.9317 50.5183 56.6295C49.6721 56.3273 49.3699 55.2998 49.249 54.4537C48.4028 48.0471 52.4525 38.8602 56.6231 33.9646Z" fill="#331000"/>
</svg>
