<svg width="81" height="86" viewBox="0 0 81 86" fill="none" xmlns="http://www.w3.org/2000/svg">
<path d="M16.546 73.0134C18.042 72.6187 19.416 71.7414 20.5711 70.4388C20.581 70.4003 20.6195 70.4102 20.6294 70.3717C20.6975 70.2662 20.7943 70.209 20.8624 70.1035C20.9305 69.9979 20.9888 69.9309 21.0954 69.8352C21.1636 69.7297 21.2317 69.6242 21.3383 69.5285C21.4163 69.3845 21.523 69.2889 21.601 69.1449C21.6593 69.0778 21.6692 69.0394 21.7274 68.9723C21.8538 68.7997 21.9417 68.6172 22.0681 68.4447C22.078 68.4062 22.1264 68.3776 22.1462 68.3007C22.244 68.0797 22.3704 67.9071 22.4682 67.6862C22.4682 67.6862 22.4682 67.6862 22.4781 67.6477C22.5759 67.4267 22.6737 67.2058 22.7715 66.9848C22.7814 66.9464 22.7913 66.9079 22.8012 66.8694C22.899 66.6485 22.9584 66.4176 23.0562 66.1967C23.0661 66.1582 23.076 66.1197 23.0859 66.0812C23.1452 65.8504 23.243 65.6294 23.3122 65.3601C23.3815 65.0908 23.4309 64.8984 23.4617 64.6192C23.4716 64.5808 23.4815 64.5423 23.4914 64.5038C23.5507 64.273 23.5716 64.0322 23.5924 63.7915C23.6023 63.753 23.6122 63.7145 23.6221 63.6761C23.643 63.4353 23.6639 63.1946 23.6847 62.9539C23.6847 62.9539 23.6847 62.9539 23.6946 62.9154C23.7155 62.6747 23.7265 62.4724 23.7089 62.2218C23.7188 62.1833 23.6902 62.1349 23.71 62.058C23.7209 61.8557 23.6935 61.6436 23.666 61.4314C23.6473 61.3446 23.6572 61.3061 23.6385 61.2193C23.6396 61.0555 23.5923 60.9203 23.5934 60.7565C23.5846 60.6312 23.5758 60.5059 23.5571 60.419C23.5483 60.2937 23.5395 60.1684 23.4823 60.0717C23.4735 59.9464 23.4164 59.8496 23.4076 59.7243C23.4174 59.6859 23.379 59.676 23.3889 59.6375C22.9953 57.9777 22.2246 56.508 21.1045 55.4407C20.9319 55.3143 20.8077 55.1593 20.6351 55.0329C20.5681 54.9747 20.4911 54.9549 20.4625 54.9065C20.434 54.8582 20.357 54.8384 20.3284 54.79L20.29 54.7801C20.0503 54.5955 19.7623 54.4394 19.4644 54.3218L21.3239 47.0887L19.4003 46.5942L17.5408 53.8272C17.2232 53.7866 16.9341 53.7943 16.6351 53.8405L16.5966 53.8306C16.5483 53.8592 16.4713 53.8394 16.4229 53.868C16.3361 53.8867 16.2592 53.8669 16.1723 53.8856C14.34 54.1528 12.5791 55.2587 11.2096 56.9165C11.1613 56.945 11.1415 57.022 11.0931 57.0506C10.9766 57.1847 10.8502 57.3573 10.7337 57.4914C10.6656 57.5969 10.6073 57.664 10.5392 57.7695C10.4809 57.8366 10.4227 57.9036 10.4029 57.9806C10.2765 58.1532 10.1985 58.2972 10.1105 58.4796C10.0908 58.5566 10.0424 58.5852 10.0226 58.6621C9.9347 58.8446 9.7984 59.0557 9.71047 59.2381L9.70058 59.2766C9.60277 59.4976 9.51485 59.68 9.41703 59.901C9.40714 59.9395 9.39725 59.9779 9.38736 60.0164C9.28954 60.2374 9.23019 60.4682 9.13238 60.6892C9.12249 60.7276 9.1126 60.7661 9.10271 60.8046C9.04336 61.0354 8.94556 61.2564 8.87632 61.5257C8.80709 61.795 8.74774 62.0259 8.72686 62.2666C8.71697 62.3051 8.70708 62.3435 8.69719 62.382C8.63785 62.6129 8.61698 62.8536 8.59611 63.0943C8.58622 63.1328 8.57633 63.1713 8.56644 63.2097C8.54557 63.4505 8.53458 63.6527 8.51371 63.8935L8.50382 63.9319C8.49284 64.1342 8.47198 64.3749 8.49947 64.5871C8.47969 64.664 8.50826 64.7124 8.48848 64.7894C8.4775 64.9916 8.505 65.2038 8.50391 65.3676C8.5226 65.4544 8.50283 65.5313 8.52152 65.6182C8.53032 65.7435 8.54901 65.8303 8.55781 65.9556C8.5853 66.1678 8.62267 66.3415 8.66005 66.5151C8.68863 66.5635 8.67875 66.602 8.69744 66.6888C9.09766 68.8015 10.0684 70.6097 11.5831 71.7375C11.6502 71.7957 11.7271 71.8155 11.7557 71.8639C11.7843 71.9122 11.8612 71.932 11.8898 71.9804L11.9283 71.9903C12.4559 72.331 13.0418 72.6047 13.6574 72.7629C14.3114 72.9311 14.9566 72.9739 15.5831 72.9299L15.6216 72.9398C15.6601 72.9497 15.7469 72.931 15.7953 72.9024C15.8821 72.8837 15.9206 72.8936 16.0074 72.8749C16.1119 73.1069 16.324 73.0794 16.546 73.0134ZM16.9658 70.7423C16.8691 70.7995 16.7822 70.8182 16.6855 70.8754C16.6371 70.904 16.5503 70.9226 16.502 70.9512C16.2316 71.0458 16.0095 71.1117 15.749 71.1678C17.7813 69.8036 19.3674 67.4632 20.0894 64.6546C20.8114 61.846 20.5507 59.0309 19.4283 56.8555C19.6295 57.0303 19.8306 57.2051 19.9834 57.4084C20.012 57.4568 20.0791 57.515 20.1076 57.5634C20.1747 57.6217 20.2319 57.7184 20.289 57.8151C20.3561 57.8734 20.3748 57.9602 20.4418 58.0185C20.5089 58.0767 20.5276 58.1636 20.5847 58.2603C20.6419 58.357 20.6991 58.4538 20.7562 58.5505C20.7848 58.5989 20.8035 58.6857 20.8321 58.7341C20.9937 59.0627 21.1355 59.4683 21.2388 59.8641C21.2674 59.9124 21.2575 59.9509 21.2861 59.9993C21.3235 60.1729 21.3708 60.3081 21.4082 60.4818C21.4367 60.5302 21.417 60.6071 21.4455 60.6555C21.4829 60.8292 21.4818 60.993 21.5192 61.1666C21.5093 61.2051 21.5379 61.2535 21.5181 61.3304C21.5456 61.5426 21.5731 61.7547 21.5523 61.9955C21.5797 62.2076 21.5589 62.4483 21.538 62.6891C21.5182 62.766 21.5468 62.8144 21.527 62.8913C21.5259 63.0551 21.5248 63.2189 21.4853 63.3728C21.4655 63.4498 21.4842 63.5366 21.4644 63.6135C21.4633 63.7773 21.4237 63.9312 21.3842 64.0851C21.3644 64.1621 21.3446 64.239 21.3248 64.316C21.2655 64.5468 21.2446 64.7875 21.1853 65.0184C21.1259 65.2492 21.0666 65.4801 20.9688 65.701C20.949 65.778 20.9292 65.8549 20.9094 65.9319C20.8699 66.0858 20.7918 66.2298 20.7523 66.3837C20.7325 66.4606 20.6742 66.5277 20.6545 66.6046C20.5764 66.7486 20.5369 66.9025 20.4588 67.0465C20.4391 67.1235 20.3907 67.152 20.3709 67.229C20.1467 67.6225 19.9225 68.0161 19.6598 68.3997C19.6499 68.4382 19.6015 68.4668 19.5818 68.5437C19.4653 68.6778 19.3872 68.8218 19.2707 68.956C19.2224 68.9845 19.2026 69.0615 19.1542 69.0901C19.0377 69.2242 18.9212 69.3583 18.8146 69.4539C18.7662 69.4825 18.7563 69.521 18.708 69.5496C18.4266 69.8464 18.1166 70.0948 17.8067 70.3433C17.7583 70.3719 17.7001 70.4389 17.6517 70.4675C17.555 70.5247 17.4582 70.5818 17.3615 70.639C17.2648 70.6962 17.2164 70.7247 17.1296 70.7434C17.1395 70.705 17.0526 70.7237 16.9658 70.7423ZM10.401 64.0506C10.4021 63.8868 10.4417 63.7329 10.4428 63.5691C10.4626 63.4921 10.4538 63.3668 10.4736 63.2899C10.5032 63.1745 10.4944 63.0491 10.5241 62.9337C10.5834 62.7029 10.6043 62.4621 10.6636 62.2313C10.723 62.0005 10.7823 61.7696 10.8801 61.5487C10.9098 61.4332 10.9395 61.3178 11.0076 61.2123C11.0274 61.1353 11.0571 61.0199 11.1153 60.9529C11.1934 60.8089 11.2329 60.655 11.311 60.511L11.3209 60.4725C12.4254 58.0904 14.306 56.359 16.2835 56.006C14.2511 57.3703 12.6552 59.7491 11.9332 62.5577C11.2112 65.3663 11.462 68.2199 12.5844 70.3952C11.0224 69.1323 10.1715 66.6986 10.401 64.0506ZM13.8044 68.0428C13.4097 66.5468 13.3733 64.7737 13.8184 63.0424C14.2635 61.311 15.1119 59.7655 16.2177 58.6552L13.8044 68.0428ZM15.7082 68.6143L18.1808 58.9958C18.6041 60.5402 18.6306 62.3518 18.1756 64.1216C17.7108 65.9298 16.8139 67.504 15.7082 68.6143Z" stroke="#D1C2A6" stroke-width="2" stroke-miterlimit="10"/>
<path d="M25.4972 1.97735L45.2719 7.06126C47.311 7.58548 48.54 9.66515 48.0158 11.7042C47.4916 13.7433 45.412 14.9724 43.373 14.4482L29.2152 10.8083C27.1761 10.2841 25.0965 11.5132 24.5723 13.5523L24.2262 14.8988C23.702 16.9379 24.931 19.0176 26.97 19.5418L67.2505 29.8976C71.4055 30.9658 73.9207 35.2219 72.8525 39.377L69.2227 53.4968C68.1545 57.6519 63.8986 60.1672 59.7436 59.099L14.8464 47.5563C10.6914 46.4881 8.17619 42.232 9.24437 38.0769L12.9434 23.6878L14.8226 16.3778L17.0579 7.68282L18.0074 3.98936C18.5316 1.95026 20.6112 0.721204 22.6502 1.24542L25.4972 1.97735Z" fill="#E8EDDF"/>
<path d="M69.6769 51.8922L9.66022 36.4613C9.00619 36.2931 8.63463 35.6643 8.80277 35.0102C8.97091 34.3561 9.59963 33.9845 10.2537 34.1527L70.2703 49.5836C70.9244 49.7518 71.2959 50.3806 71.1278 51.0347C70.9695 51.6503 70.3309 52.0604 69.6769 51.8922Z" fill="#124A5F"/>
<path d="M67.7958 44.8458L47.4059 39.603C46.7519 39.4348 46.3804 38.806 46.5485 38.1519C46.7166 37.4978 47.3453 37.1262 47.9994 37.2943L68.3893 42.5371C69.0433 42.7053 69.4148 43.3341 69.2467 43.9882C69.0885 44.6039 68.4499 45.014 67.7958 44.8458Z" fill="#CFDBD4"/>
<path d="M69.1812 39.4578L54.5616 35.7005C53.9076 35.5324 53.536 34.9039 53.7041 34.25C53.8723 33.5962 54.501 33.2247 55.155 33.3928L69.7746 37.1501C70.4286 37.3182 70.8002 37.9467 70.6321 38.6006C70.4738 39.2159 69.8352 39.6259 69.1812 39.4578Z" fill="#CFDBD4"/>
<path d="M16.7429 33.3197C18.1665 33.6857 19.6172 32.8283 19.9832 31.4046C20.3492 29.981 19.4918 28.5302 18.0682 28.1642C16.6446 27.7982 15.1939 28.6556 14.8279 30.0792C14.462 31.5029 15.3193 32.9537 16.7429 33.3197Z" fill="#F5CC5B"/>
<path d="M24.8221 35.3949C26.2457 35.7609 27.6964 34.9035 28.0624 33.4798C28.4284 32.0562 27.571 30.6054 26.1475 30.2394C24.7239 29.8734 23.2731 30.7308 22.9072 32.1544C22.5412 33.5781 23.3985 35.0289 24.8221 35.3949Z" fill="#333533"/>
</svg>
