<svg width="69" height="85" viewBox="0 0 69 85" fill="none" xmlns="http://www.w3.org/2000/svg">
<path fill-rule="evenodd" clip-rule="evenodd" d="M59.7574 20.4057C58.5096 18.7306 60.211 18.0764 60.3614 16.0639C60.6691 11.9182 59.6936 7.5775 55.4134 5.59236C53.6938 2.19186 51.7839 0.504139 48.0427 0.198732C44.558 -0.865634 36.8146 2.98386 42.4953 2.92916C44.8839 2.90523 47.1824 5.37812 46.7926 7.63106C46.4268 9.74042 46.4519 11.6595 45.0388 13.2503C43.497 14.9848 40.0886 15.2651 38.0339 15.7688C32.4558 17.1306 27.0349 18.6804 21.2892 19.2206C12.2114 19.2559 2.24141 23.9145 3.45504 34.3633C4.03964 39.3991 7.64977 39.1324 11.824 40.6424C17.3862 42.6549 22.9552 42.9318 28.8035 43.2543C37.4368 43.7306 43.268 45.0354 54.6476 43.4628C64.6815 42.076 70.3941 37.8812 65.6877 28.1948C64.1459 26.7509 60.358 21.2103 59.7574 20.4057Z" fill="#FCA259"/>
<path fill-rule="evenodd" clip-rule="evenodd" d="M11.7863 26.926C13.2734 30.9371 19.2606 28.1259 17.2186 24.231C15.6141 21.1702 10.592 23.7045 11.7863 26.926Z" fill="#A0663F"/>
<path fill-rule="evenodd" clip-rule="evenodd" d="M16.0915 18.5904C16.4573 21.1899 19.3963 20.4092 19.0635 18.048C18.7 15.4486 15.761 16.2315 16.0915 18.5904Z" fill="#A0663F"/>
<path fill-rule="evenodd" clip-rule="evenodd" d="M21.7415 17.6248C22.138 20.4443 26.0923 19.356 25.1978 16.5205C24.5357 14.419 21.4292 15.4025 21.7415 17.6248Z" fill="#A0663F"/>
<path fill-rule="evenodd" clip-rule="evenodd" d="M31.0186 17.5372C30.4055 17.7868 28.1697 17.6022 28.058 19.6783C27.8404 23.7839 33.7399 22.2673 32.5935 18.638C32.4009 17.7788 31.8756 17.4119 31.0186 17.5372Z" fill="#A0663F"/>
<path fill-rule="evenodd" clip-rule="evenodd" d="M30.3942 24.8111C27.6308 23.944 25.9123 27.2962 28.5675 28.6214C31.1167 29.8941 32.8283 25.5757 30.3942 24.8111ZM28.931 25.0333C28.6689 25.0333 28.5629 24.7234 28.931 25.0333V25.0333Z" fill="#A0663F"/>
<path fill-rule="evenodd" clip-rule="evenodd" d="M37.9051 23.759C39.1324 25.254 40.8691 23.5664 40.6583 22.0623C40.1853 18.7077 35.6829 21.0527 37.9051 23.759Z" fill="#A0663F"/>
<path fill-rule="evenodd" clip-rule="evenodd" d="M43.547 16.0066C41.9266 19.5225 47.8899 20.7476 47.2358 16.0784C46.895 13.6555 44.2547 14.4715 43.547 16.0066Z" fill="#A0663F"/>
<path fill-rule="evenodd" clip-rule="evenodd" d="M35.9017 15.8767C36.2561 18.3937 40.0007 18.2137 39.6178 15.4836C39.2668 12.995 35.5279 13.2149 35.9017 15.8767Z" fill="#A0663F"/>
<path fill-rule="evenodd" clip-rule="evenodd" d="M47.1424 26.2463C49.1571 28.5954 53.1285 24.6369 50.9189 22.5055C48.2033 19.8852 44.8279 23.5473 47.1424 26.2463Z" fill="#A0663F"/>
<path fill-rule="evenodd" clip-rule="evenodd" d="M55.5546 26.2537C54.325 31.0317 61.5441 30.5406 60.8319 26.3391C60.2678 23.0083 56.3557 23.1359 55.5546 26.2537Z" fill="#A0663F"/>
<path fill-rule="evenodd" clip-rule="evenodd" d="M60.5403 47.4312C55.0772 49.3366 49.7999 49.4528 44.1044 49.022C32.9674 48.1788 21.4122 48.5981 10.6377 45.29C3.86523 43.2114 0.503522 40.5414 2.11601 49.1827C3.08691 57.7625 6.29706 69.8203 8.43146 76.7819C10.8576 84.6951 23.3666 84.5048 30.1504 84.3942C33.2694 84.343 55.4852 83.3447 56.2578 81.069C57.7404 76.6953 59.0167 72.1143 60.5928 67.801C62.3967 62.8644 64.1653 56.2549 66.6256 47.0506C67.7093 44.5811 62.1129 46.8831 60.5403 47.4312Z" fill="#7A421C"/>
<path fill-rule="evenodd" clip-rule="evenodd" d="M67.1394 39.2379C66.287 38.6887 65.5269 39.3599 64.7919 39.7838C62.8125 40.9279 60.7408 41.9239 58.5289 42.5255C53.7006 43.8394 48.5839 43.3016 43.6462 43.2321C33.8881 43.0965 23.9978 43.3916 14.4653 40.9427C12.2284 40.3672 10.0302 39.6539 7.88892 38.7867C6.22173 38.1109 4.4634 36.8335 2.73354 36.3788C0.275503 35.7315 0.627638 40.1632 1.29086 41.3552C2.05323 42.7227 4.24459 43.3403 5.58586 43.9466C7.77041 44.9357 10.0245 45.7733 12.3218 46.4604C16.8562 47.8176 21.5261 48.5583 26.2382 48.9298C34.655 49.5942 43.212 49.5589 51.6539 49.5463C55.6765 49.5406 59.5328 49.013 63.2296 47.3618C64.7167 46.6986 66.6859 45.9431 67.8893 44.824C68.859 43.9226 68.753 42.1951 68.3907 41.0441C68.173 40.3649 67.7548 39.6345 67.1394 39.2379Z" fill="#A0663F"/>
<path fill-rule="evenodd" clip-rule="evenodd" d="M50.3469 3.38171C49.9276 4.37082 49.18 5.03403 48.8381 6.09949C49.5071 5.8317 49.6575 5.04087 50.0449 4.5144C50.3013 4.16571 50.8643 3.86032 50.5737 3.38171C50.4985 3.38171 50.4221 3.38171 50.3469 3.38171Z" fill="#231003"/>
<path fill-rule="evenodd" clip-rule="evenodd" d="M49.7439 6.2511C49.3735 6.75252 48.7137 7.54453 49.1399 7.98669C49.8522 6.66022 50.7183 5.48758 51.5558 4.2876C51.5388 4.22834 51.492 4.19985 51.4043 4.21238C50.7946 4.80497 50.2932 5.50467 49.7439 6.2511Z" fill="#231003"/>
<path fill-rule="evenodd" clip-rule="evenodd" d="M49.5161 9.271C50.2796 8.5747 50.9861 7.82256 51.4032 6.77869C50.6032 7.13538 50.013 8.35817 49.5161 9.271Z" fill="#231003"/>
<path fill-rule="evenodd" clip-rule="evenodd" d="M41.9665 22.2562C42.2651 22.1263 42.3232 21.757 42.4952 21.5017C42.3984 21.4971 42.3904 21.4036 42.2696 21.4264C42.1443 21.6772 42.093 22.0032 41.9665 22.2562Z" fill="#231003"/>
<path fill-rule="evenodd" clip-rule="evenodd" d="M50.7251 21.8786C49.802 21.3703 48.7115 21.4581 48.0061 21.727C46.7401 22.2114 45.8296 24.6421 46.5714 25.8798C47.9161 28.1202 51.8362 26.4279 51.5547 23.9162C51.4498 22.9772 50.5461 22.772 50.7251 21.8786ZM47.3281 22.5578C47.6699 22.5475 47.6961 22.2216 48.0824 22.2558C47.6038 23.2359 47.0717 24.1646 47.0261 25.5778C46.3241 24.7835 47.091 23.3578 47.3281 22.5578ZM50.8755 25.2006C50.3262 26.2558 48.422 27.0946 47.7053 26.3322C46.8631 25.4376 48.1588 22.2512 48.9884 22.029C50.3559 21.6621 51.6481 23.7145 50.8755 25.2006Z" fill="#231003"/>
<path fill-rule="evenodd" clip-rule="evenodd" d="M28.7555 24.9742C28.31 25.1109 27.6399 26.0658 27.5476 26.4087C27.42 26.885 27.6627 27.3955 27.8496 28.0701C29.2159 29.3566 32.3314 28.1305 31.6249 26.1831C31.3195 25.3411 29.7048 24.6824 28.7555 24.9742ZM29.2091 28.2194C29.0826 27.8935 28.7111 27.8114 28.302 27.767C27.6012 26.9101 28.2336 25.6613 29.3595 25.7285C29.1054 25.4801 28.9082 25.9279 28.5287 25.8037C29.0062 24.7201 30.8614 25.4983 31.1702 26.182C31.3298 27.6747 30.5116 28.1886 29.2091 28.2194Z" fill="#231003"/>
<path fill-rule="evenodd" clip-rule="evenodd" d="M21.6583 35.3173C21.6264 34.0156 22.6315 32.7914 22.7158 31.6173C22.2509 32.1838 21.8452 32.8107 21.7347 33.7306C21.4532 33.9597 20.8982 35.2124 21.6583 35.3173Z" fill="#231003"/>
<path fill-rule="evenodd" clip-rule="evenodd" d="M35.3992 34.0339C35.6397 33.6954 35.8653 33.3431 36.0795 32.9761C35.6932 33.1208 35.2488 33.6042 35.3992 34.0339Z" fill="#231003"/>
<path fill-rule="evenodd" clip-rule="evenodd" d="M35.2487 34.8632C35.1564 35.1252 34.8009 35.5195 35.0219 35.8442C35.0709 35.5696 35.5689 35.0136 35.2487 34.8632Z" fill="#231003"/>
<path fill-rule="evenodd" clip-rule="evenodd" d="M16.8278 39.0909C16.9098 38.692 16.7947 38.1791 16.6762 37.958C16.6261 38.1666 16.5919 38.9268 16.8278 39.0909Z" fill="#231003"/>
<path fill-rule="evenodd" clip-rule="evenodd" d="M15.2415 38.185C15.1332 38.2853 15.1332 38.6124 15.2415 38.7139C15.4603 38.6557 15.6756 38.5942 15.7702 38.4107C15.589 38.3412 15.5697 38.1086 15.2415 38.185Z" fill="#231003"/>
<path fill-rule="evenodd" clip-rule="evenodd" d="M38.1171 40.4501C38.0829 40.6781 37.6498 41.0155 37.9666 41.1306C37.9746 40.9243 38.5433 40.6017 38.1171 40.4501Z" fill="#231003"/>
<path fill-rule="evenodd" clip-rule="evenodd" d="M67.4847 39.6961C67.0379 39.2517 66.5001 39.1412 66.4272 38.6386C66.3121 37.8455 67.2784 36.4028 67.5599 35.996C67.2807 34.3573 68.32 33.1744 68.0887 31.6941C67.9861 31.0423 67.128 30.068 66.7291 29.4298C66.2266 28.623 65.7548 27.8572 65.2956 27.2396C64.9378 26.7575 64.3327 26.4578 63.9372 25.9564C63.3583 25.2248 62.9549 24.3314 62.4273 23.4654C61.5578 22.0375 60.4068 21.0233 59.7094 19.6159C61.7732 15.8987 60.294 11.2003 58.5767 8.36616C58.1824 7.71661 57.8633 7.04199 57.5192 6.62947C56.9528 5.95143 56.1471 5.75885 55.6321 5.11955C55.2845 4.6888 55.101 4.19879 54.7261 3.7612C53.8669 2.75838 53.0236 2.34016 51.8567 1.5721C50.2294 0.499772 47.2107 -0.220431 44.6102 0.0621802C42.9123 0.246789 41.122 1.38293 40.4577 2.70482C41.0286 3.11165 41.7283 2.79143 42.4952 2.93046C43.5903 3.12988 45.2222 4.31616 45.8934 5.19476C46.9144 6.53261 46.421 9.26528 45.7418 10.8572C45.3236 11.8384 44.5897 12.5233 44.1567 13.3495C43.0046 13.6321 42.4075 14.4685 41.6656 15.1614C40.9978 14.7067 40.42 15.8132 39.7785 15.6138C39.9756 12.7922 34.6801 13.5671 35.8527 16.2941C34.9034 16.3682 34.0601 16.7431 33.4368 16.8969C32.6778 17.0872 31.9337 16.9391 31.0962 17.0485C29.2934 17.2832 27.4632 18.3191 25.6604 18.1801C26.1573 17.0941 25.3846 16.3716 25.812 15.387C25.2616 14.8001 24.4913 15.4759 23.7733 15.6901C23.4577 15.7836 23.1352 15.7346 22.8674 15.8417C22.0423 16.1699 21.4782 17.3106 21.6583 18.106C21.7597 18.5481 22.2406 18.4934 22.1118 19.0119C20.9848 18.7909 19.835 19.3162 18.4869 19.3139C18.7194 18.7487 19.0578 18.4239 18.9393 17.804C18.7205 16.6496 17.1274 16.7682 16.373 17.4268C16.0801 18.1755 16.1451 19.0803 16.373 19.8427C11.776 19.5134 9.3111 22.1469 6.70947 24.0705C6.12032 24.5069 5.44231 24.8294 5.04916 25.2032C4.68678 25.5473 4.34946 26.2539 3.99164 26.7883C3.59393 27.3843 3.06744 27.9256 2.86004 28.3746C2.66176 28.7996 2.64808 29.5597 2.4817 30.338C2.33926 31.0093 2.0088 31.7192 1.95296 32.2252C1.83786 33.2724 2.18201 33.4616 2.40537 34.1875C2.68342 35.0843 2.66745 35.8296 3.08567 36.3777C1.45496 36.8165 -0.552937 38.7651 0.141057 40.9827C0.324527 41.5684 1.06409 41.867 1.27377 42.569C1.16323 42.6955 1.13817 42.8675 1.12221 43.0214C0.975209 44.5495 1.38773 46.6361 1.57462 48.0787C1.69997 49.0451 1.68517 50.0046 1.8014 50.9482C1.87433 51.5339 2.13758 52.1424 2.25381 52.7601C2.63557 54.7862 2.7005 56.8066 3.3113 58.573C3.71471 59.7444 3.87426 60.9592 4.21727 62.1979C4.53863 63.3648 5.15057 64.4497 5.4252 65.5949C5.69186 66.7094 5.76365 67.8558 6.02917 68.9156C6.55223 71.001 7.1938 72.993 7.84107 74.9564C8.28892 76.3125 8.99888 77.4384 9.12423 79.0327C9.29858 79.2606 9.62676 79.3358 9.87861 79.4851C10.2752 80.7739 11.6552 80.9198 12.748 81.4485C13.5594 81.8394 14.0437 82.3898 14.8619 82.5801C15.7303 82.783 16.618 82.7807 17.655 83.0325C18.578 83.257 19.4396 83.6752 20.3729 83.8633C21.3666 84.065 22.4537 84.1436 23.5431 84.2416C27.7207 84.6131 32.6004 85.2182 36.4532 84.9208C38.1432 84.7909 39.8434 84.996 41.5117 84.9208C44.086 84.8034 46.3743 84.1003 48.6842 83.4872C50.732 82.9425 52.8834 82.7032 54.7238 82.0513C55.256 81.8633 56.0913 81.6605 56.2338 80.995C55.6879 80.6577 54.9791 81.7083 54.3466 81.5237C55.1102 80.8856 55.9705 80.3659 56.6873 79.787C58.1938 78.5711 58.2337 76.9723 58.8764 74.5781C59.0599 73.8955 59.4325 73.1935 59.6308 72.4654C60.0832 70.8084 60.4228 69.3042 60.8399 67.9345C61.0746 67.163 61.4097 66.4451 61.5943 65.7454C61.7094 65.3158 61.6421 64.9112 61.7458 64.387C61.9931 63.1358 62.2746 61.5848 62.727 60.3108C63.0711 59.3422 63.38 58.3245 63.7082 57.3662C64.0512 56.3679 64.6073 55.4563 64.8409 54.5731C65.0403 53.8164 65.1018 53.0609 65.3685 52.3088C66.1229 50.1858 66.4203 47.6457 66.9548 45.4384C67.618 44.6361 68.6892 44.1769 68.8419 43.1741C68.9171 42.6784 68.745 41.81 68.6151 41.3622C68.4282 40.7069 67.8129 40.022 67.4847 39.6961ZM66.8044 34.9396C66.3611 34.4564 66.4226 33.6109 66.5787 33.0525C66.9115 33.1972 66.9707 33.6166 66.9559 34.11C66.8442 34.1966 66.7656 34.1966 66.6539 34.11C66.638 34.4359 67.0813 34.5897 66.8044 34.9396ZM67.4095 31.2406C67.5679 31.309 67.6397 31.4628 67.6363 31.693C67.373 31.7203 67.3195 31.3386 67.4095 31.2406ZM59.8599 21.9532C60.098 21.9908 60.1265 21.8175 60.3886 21.8791C61.0233 22.5286 61.8154 23.5098 62.2757 24.4454C63.5201 26.9752 66.8796 28.7951 66.9559 32.5237C66.5685 32.3573 66.6802 31.693 66.4272 31.391C66.2665 32.7619 65.8277 34.6604 66.7291 35.7703C66.4454 36.0393 66.2198 36.3675 66.1263 36.8279C65.4768 36.3948 65.2317 35.5584 65.2204 34.4872C64.4249 35.7498 66.2357 37.6278 65.3708 38.715C64.7087 38.119 64.6905 36.8791 64.3144 35.996C64.3281 35.6701 64.5252 35.2598 64.1629 35.1652C63.7857 36.1646 64.1913 37.2381 64.54 38.1099C64.7395 38.609 65.3092 39.1765 64.8432 39.6198C64.6004 39.6859 64.7383 39.3702 64.54 39.393C64.213 39.3691 64.3543 39.8112 64.0113 39.7702C63.8939 39.352 63.5999 38.8722 63.4825 38.2614C63.2968 37.2825 63.6364 36.0461 63.1806 35.4684C62.7384 35.4547 62.9127 36.0552 62.8786 36.4495C62.6404 36.486 62.6119 36.3128 62.3498 36.3743C62.2005 37.6347 62.1652 39.009 62.0467 40.299C60.9425 39.5958 61.9145 37.0615 61.7447 35.9208C61.1943 36.6786 61.3037 38.0962 61.1407 39.2426C60.9664 39.2187 60.8513 39.2551 60.7635 39.3178C60.8684 39.9332 61.0667 40.8653 60.5379 41.2049C60.2428 39.8477 60.8991 38.4004 60.7635 37.2028C60.3305 38.1794 60.3214 39.5788 60.1596 40.8266C59.7573 40.7764 59.5738 40.5075 59.33 40.2978C59.3619 38.9463 59.8063 38.0062 60.0103 36.8256C59.616 36.7845 59.6262 37.1458 59.6319 37.5059C59.1727 38.3036 59.1032 39.4921 59.0291 40.6762C58.7454 40.6944 58.6645 40.9155 58.4252 40.9781C58.2143 39.5058 58.7682 38.1532 59.0291 36.9019C58.2724 37.2267 58.2838 38.3207 58.1232 39.2426C57.3403 39.4477 57.9203 40.634 57.2172 40.9781C57.1363 41.3303 57.4144 41.5741 57.2172 41.8089C56.7306 41.7667 56.9631 41.0055 56.3113 41.1297C56.089 41.4476 56.7192 41.9012 56.4617 42.2613C56.3876 42.2613 56.3113 42.2613 56.2361 42.2613C55.8235 41.9798 56.0754 41.3109 56.1597 40.8266C56.3238 39.8978 56.5437 38.9269 56.84 38.1851C56.0515 38.6979 55.9455 40.7639 55.7073 42.1861C55.3768 42.1906 55.3529 41.8875 55.027 41.8841C55.0258 41.279 55.4965 41.1456 55.7825 40.8266C55.8076 40.5007 55.3643 40.6408 55.4053 40.2978C55.5557 39.442 55.8771 38.756 56.0845 37.9572C55.321 38.3514 55.4475 39.6357 55.1033 40.4494C54.872 40.6454 54.537 40.7388 54.1974 40.8266C54.0675 40.3764 54.4196 39.8021 54.5005 39.3178C53.7689 40.2465 53.8361 41.9753 52.537 42.3365C52.5576 41.679 52.8459 41.287 52.9894 40.7502C52.4983 40.8391 52.5826 41.5012 52.3854 41.8829C52.1826 42.0869 52.0983 41.7872 51.9331 41.7314C51.8237 41.9354 51.9536 42.4345 52.0846 42.6373C52.0106 42.9416 51.5582 42.8664 51.7063 43.3929C51.4807 43.4931 51.1285 43.4692 50.8015 43.4681C51.0875 42.2191 51.6356 41.2311 52.0846 40.1463C51.3781 40.2511 51.4294 41.7508 50.7262 42.1097C50.675 41.6117 51.1889 41.3405 51.0283 40.977C50.422 40.9736 50.7923 41.9502 50.2738 42.0345C50.1462 41.3964 50.5041 40.5474 50.1987 40.2226C49.8625 40.2898 50.0049 40.8345 49.9719 41.2038C49.7428 41.2938 49.6676 41.2402 49.2927 41.2778C48.797 37.8181 49.491 35.3134 50.7274 32.9739C51.6732 31.1813 52.4231 29.5791 53.8977 28.5193C54.2578 27.8732 54.7273 27.3364 55.1808 26.7838C55.5079 26.7348 55.2059 27.3137 55.4076 27.3877C55.5922 27.3205 55.4885 26.9661 55.7848 27.0105C55.3643 31.3215 61.1362 29.2566 60.9185 26.4818C60.7977 24.9377 59.3812 24.0727 57.2195 24.1411C57.5773 22.687 58.7636 22.0626 59.183 20.6677C59.5818 20.923 59.3961 21.7617 59.8599 21.9532ZM66.2015 37.3555C66.1867 37.6939 66.0431 37.9025 65.8984 38.1099C65.6067 37.9743 65.6705 37.482 65.5964 37.1287C65.8289 37.1743 65.9896 37.2882 66.2015 37.3555ZM63.3321 39.1674C63.5144 39.2369 63.5315 39.4705 63.5577 39.6961C63.1578 39.6779 63.5008 39.3862 63.3321 39.1674ZM63.4084 40.2249C63.7344 40.1987 63.9076 40.3286 64.0113 40.5269C63.9748 40.8414 63.6705 40.8892 63.4084 40.9793C63.2922 40.8414 63.2922 40.3616 63.4084 40.2249ZM62.5014 39.393C62.7247 39.4819 62.8068 39.9958 62.6529 40.2249C62.4239 40.0927 62.3908 39.6505 62.5014 39.393ZM62.5766 41.3565C62.5162 41.4226 62.3703 41.4021 62.351 41.508C62.1436 41.5069 62.172 41.1513 62.2757 41.0545C62.4683 41.0636 62.5686 41.1639 62.5766 41.3565ZM62.5766 39.3189C62.2347 38.5862 62.5538 37.4455 62.6518 36.6763C62.727 36.6763 62.8033 36.6763 62.8786 36.6763C62.8318 37.6039 63.0199 38.2967 63.029 39.1685C62.8307 39.1685 62.5857 39.1252 62.5766 39.3189ZM61.747 41.6573C61.6661 41.9798 61.2479 41.965 60.9162 42.0356C60.9983 41.7143 61.4154 41.7291 61.747 41.6573ZM60.3123 42.3376C60.1106 42.3376 59.9088 42.3376 59.7094 42.3376C59.6912 41.9935 59.8348 41.81 59.9351 41.5832C60.2655 41.63 60.2268 42.047 60.3123 42.3376ZM58.1995 42.0356C58.5448 42.1177 58.7488 42.341 59.0303 42.4892C58.865 42.7274 58.4126 42.6772 58.0491 42.7148C58.2553 42.5371 58.1277 42.1895 58.1995 42.0356ZM58.6519 41.7337C58.5756 41.4055 58.8081 41.3861 58.8776 41.206C59.0667 41.3075 59.2377 41.6961 59.1043 41.8852C58.8217 41.9661 58.889 41.6983 58.6519 41.7337ZM57.8964 40.9793C57.5431 40.9132 57.7881 40.2614 57.8212 39.9218C58.0867 40.0118 57.9876 40.773 57.8964 40.9793ZM57.5944 42.7148C57.3619 42.9063 56.6816 42.9815 56.3876 42.8664C56.5756 42.4345 57.2628 42.4459 57.5944 42.7148ZM54.4241 43.092C54.2817 43.059 53.9694 43.1957 54.0458 42.9416C54.1552 42.8265 54.4401 42.8687 54.4241 43.092ZM53.5182 43.1684C53.4863 42.659 53.7609 42.455 53.7438 41.9604C53.8452 41.9604 53.9455 41.9604 54.0458 41.9604C53.7347 42.2271 54.1962 43.2664 53.5182 43.1684ZM54.121 42.4128C54.1358 42.1804 54.5278 42.2544 54.4994 42.4881C54.3239 42.512 54.2099 42.4767 54.121 42.4128ZM54.8777 41.1297C54.9096 41.3895 54.848 41.5525 54.8025 41.7325C54.186 41.7234 53.9603 40.969 54.8777 41.1297ZM53.2914 42.5644C53.2937 42.8687 53.2698 43.1467 53.0646 43.2436C52.8287 43.2789 52.8516 43.0544 52.7627 42.9416C52.7946 42.6715 53.0042 42.5781 53.2914 42.5644ZM50.3468 43.5456C50.2044 43.68 49.8477 43.6014 49.5924 43.6208C49.5514 42.9587 49.2277 42.2579 49.4408 41.5832C49.6722 41.6379 49.6631 41.4533 49.8932 41.508C50.0585 42.2943 50.177 43.0943 50.3468 43.5456ZM49.4408 31.4662C49.4078 31.6839 49.2813 31.8115 49.0636 31.8445C48.8392 31.5722 49.2049 31.3033 49.4408 31.4662ZM49.1388 30.8634C49.2437 30.5135 49.6596 30.4771 50.0448 30.4098C50.3058 31.0674 49.3781 31.1893 49.1388 30.8634ZM49.8932 31.7693C50.1827 32.5591 49.5195 33.1095 49.2141 33.7317C48.7332 33.1003 48.9497 31.7944 49.8932 31.7693ZM50.2727 31.7693C50.3297 30.9158 50.1713 29.9312 51.2527 29.9574C51.0613 30.6959 50.7172 31.2839 50.2727 31.7693ZM56.7648 24.8978C57.4406 24.2995 58.4206 24.9126 59.1055 24.6721C59.714 24.9696 60.1436 25.4459 60.4638 26.0305C61.3174 28.28 57.0565 30.2104 56.3124 28.3712C55.8691 27.2783 56.4503 25.814 56.7648 24.8978ZM59.2548 18.9345C60.2302 15.9716 59.6616 11.8247 58.6519 9.4214C59.9374 11.6994 61.241 16.4377 59.2548 18.9345ZM55.7825 9.72338C55.893 9.15246 55.86 8.82769 56.3113 8.51545C55.6469 8.20093 56.0503 7.03971 56.0081 6.25114C56.0833 6.25114 56.1597 6.25114 56.2349 6.25114C57.4109 7.99695 58.7123 10.2168 59.1032 12.668C59.9237 17.8063 57.7209 22.5013 55.5546 25.3513C54.5016 25.0379 54.6372 26.4054 53.8179 26.5604C53.8715 26.1433 54.1871 25.6442 53.9695 25.202C53.2367 25.5017 53.4464 26.7427 53.1387 27.4664C52.6601 27.7923 52.6704 28.6082 51.9308 28.6743C51.9182 28.215 52.3946 27.9062 52.2328 27.5427C51.6129 27.5108 51.7986 28.9136 51.2516 29.203C51.3154 29.2908 51.3519 29.4059 51.3268 29.5802C51.026 29.5791 50.7946 29.5084 50.6476 29.3546C49.9388 29.8788 48.7662 29.9392 48.0802 30.4862C48.1383 30.8315 48.6659 30.7061 48.6089 31.1665C47.7543 31.8844 46.2523 31.7728 45.5139 32.4497C46.4586 32.7175 47.4067 31.7431 48.5326 31.6953C48.65 31.8047 48.5998 32.0816 48.6078 32.2981C48.2796 32.3539 47.8261 32.4098 47.5503 32.1477C47.2916 32.6172 47.7212 33.2667 47.5503 33.6576C46.2842 33.775 45.8216 34.6969 44.682 34.9407C45.7213 35.2644 46.5338 34.0826 47.6255 33.9596C46.7674 35.3419 44.3094 35.776 43.2473 37.2062C43.9185 37.5549 44.6216 36.6854 45.3601 36.6022C45.3601 36.7538 45.3601 36.9053 45.3601 37.0558C44.535 37.3133 43.5858 37.4466 43.0958 38.0369C43.1755 38.4757 43.7852 38.0882 44.0017 38.2637C44.0644 38.6432 43.906 38.8027 43.6245 38.6409C42.8769 39.8055 42.7584 41.6003 41.8126 42.5667C42.0097 41.2152 42.9647 39.8602 42.7938 38.6409C41.971 39.4785 41.8285 40.9975 41.1323 41.9627C41.0559 41.0055 41.7351 40.1497 41.8867 39.1697C41.8445 39.0603 41.7693 38.985 41.661 38.9429C41.2622 39.3884 41.1152 40.1725 40.9055 40.83C40.6924 41.5023 40.6594 42.3274 40.0748 42.6419C39.9221 42.2408 40.3939 41.8704 40.5272 41.5103C40.4303 41.1525 39.9334 41.6995 39.7728 41.5103C39.8867 40.7115 40.5249 40.0562 40.4531 39.3212C39.4081 40.0631 39.709 42.1496 38.4144 42.6419C38.4258 42.1416 38.7779 41.3531 39.0172 40.83C38.6697 40.6613 38.5797 41.3268 38.4144 41.5855C38.2492 41.6721 37.9255 41.6003 37.8856 41.8112C37.7831 41.7872 37.823 41.622 37.8105 41.5092C37.3763 41.9308 37.1415 42.5519 36.3757 42.6408C36.59 41.6972 36.8407 40.7912 37.2053 39.9993C36.2789 40.5064 36.5809 42.243 35.6966 42.7923C35.733 43.1558 35.635 43.9045 35.1678 44.0014C35.063 43.5763 35.5667 43.1547 35.545 42.5667C35.3763 42.3787 35.3615 42.9815 35.0926 42.9439C34.9786 42.2009 35.5758 42.1678 35.7729 41.7348C35.9336 41.5525 35.6042 41.4009 35.4698 41.2824C35.651 40.7593 35.8401 40.2443 36.0737 39.7725C35.1917 39.801 35.6156 41.7781 34.4875 41.8112C34.7234 40.3582 35.0812 39.3474 35.6202 38.1121C34.9673 38.1509 34.9262 39.1446 34.7143 39.7725C34.4772 40.4756 34.2277 41.1753 34.034 41.7359C33.1519 38.8346 34.296 35.1299 35.0914 32.526C35.1712 32.2434 34.9034 32.3118 34.9399 32.0736C35.9313 31.0024 36.345 29.35 37.6578 28.6002C37.9791 27.8641 38.7084 27.5359 39.0925 26.8647C39.2178 26.8647 39.3455 26.8647 39.4708 26.8647C39.6338 26.6561 39.4264 26.5501 39.5449 26.3359C41.514 24.7702 43.3613 23.0141 45.5093 21.6546C46.3902 21.0973 47.0785 20.2108 47.9252 19.6171C48.9941 19.0746 50.0129 18.4843 50.9451 17.804C51.1103 16.9368 51.761 16.5562 52.0778 15.8417C52.782 15.3004 53.7632 14.3397 54.2669 13.4999C54.9119 12.4355 55.5671 10.8367 55.7825 9.72338ZM47.1002 39.8465C47.2016 39.8465 47.3019 39.8465 47.4033 39.8465C47.4899 40.5155 47.5959 41.1639 47.6289 41.8852C46.8141 41.5183 47.4534 40.5964 47.1002 39.8465ZM43.7043 42.79C43.6348 43.0487 43.5174 43.2573 43.4775 43.5444C43.5299 43.7951 43.7373 43.8897 43.9299 43.998C43.9197 44.3159 43.3259 44.0971 43.1755 44.072C43.5823 43.7108 43.0297 42.8436 43.7043 42.79ZM43.1755 42.6396C43.0775 41.8624 43.6678 41.3724 44.0815 41.3565C43.9926 41.9969 43.8661 42.6009 43.1755 42.6396ZM43.5527 40.9029C43.6291 40.25 43.759 39.6483 43.9299 39.091C44.2501 39.499 44.4153 40.3867 44.2319 41.0545C43.9231 40.9759 43.7727 40.9075 43.5527 40.9029ZM44.3835 41.6573C44.7493 41.6847 44.6307 42.292 44.2319 42.1861C44.225 41.9525 44.3242 41.826 44.3835 41.6573ZM44.6102 42.3376C44.8074 42.4425 44.9361 42.6145 44.9122 42.9416C44.7538 42.9849 44.6968 43.1285 44.4598 43.092C44.4416 42.7741 44.576 42.6043 44.6102 42.3376ZM44.9874 39.7702C44.8655 39.5275 44.7048 40.0357 44.535 39.7702C44.4336 39.1913 44.4586 38.4882 44.2319 38.0346C44.6022 37.9025 44.8552 37.6506 45.2894 37.5822C45.4068 37.6928 45.3566 37.9686 45.3646 38.1862C45.2632 38.3116 44.9373 38.2113 44.8358 38.3378C44.919 38.7321 45.2028 38.9269 45.5162 39.0922C45.7418 40.103 45.294 40.9451 45.0638 41.7337C44.5202 41.3439 44.8644 40.0608 44.9874 39.7702ZM44.3835 36.5999C44.633 36.1703 45.1618 36.0188 45.6666 35.8456C45.7486 36.3196 44.9384 36.5168 44.3835 36.5999ZM45.9686 41.8089C45.9925 42.1097 45.8227 42.2168 45.5162 42.1861C45.392 41.7929 45.727 41.606 45.9686 41.8089ZM48.2329 42.9416C48.2226 43.2333 47.9378 43.2504 47.6289 43.2436C47.5446 42.8675 48.0095 42.7741 48.2329 42.9416ZM47.7805 40.1485C47.7805 39.997 47.7805 39.8454 47.7805 39.6961C48.0483 39.6585 48.1132 40.2135 47.7805 40.1485ZM46.2706 36.9771C46.7948 36.8985 46.952 36.4507 47.5537 36.4495C47.5833 37.2392 47.3782 37.899 47.3281 38.7902C46.6193 38.5418 46.2523 37.9515 46.2706 36.9771ZM46.1942 41.1297C46.07 40.7001 46.0427 40.1725 45.9686 39.695C46.0939 39.695 46.2204 39.695 46.3458 39.695C46.503 40.0802 46.968 41.1092 46.1942 41.1297ZM47.4033 35.9208C47.1059 36.2387 46.6318 36.7458 46.119 36.5999C46.1429 35.9686 46.8347 36.0062 47.4033 35.9208ZM46.119 35.7692C46.2523 34.9453 47.3463 35.0832 47.7053 34.486C48.0825 34.51 47.9856 35.0114 48.0825 35.3168C47.4603 35.457 46.7127 35.8501 46.119 35.7692ZM46.1942 38.9406C45.8421 38.8927 45.6598 38.3492 45.817 38.0346C46.1874 38.0654 46.282 38.6967 46.1942 38.9406ZM45.817 42.8664C46.4233 42.8903 46.6911 43.2516 46.723 43.8475C46.4745 44.0025 45.9583 43.8874 45.5903 43.9228C45.5891 43.4943 45.719 43.1957 45.817 42.8664ZM46.6478 38.8642C46.919 38.9212 47.1526 39.0147 47.1002 39.393C46.9566 39.5354 46.9634 39.3486 46.723 39.393C46.6193 39.2961 46.6489 39.0659 46.6478 38.8642ZM48.4597 43.696C48.1964 43.7336 47.9685 43.8088 47.6289 43.7712C47.6757 43.4157 48.5064 43.0727 48.4597 43.696ZM48.0825 38.2614C47.7315 37.8819 47.6483 36.5156 47.932 35.996C48.3731 36.0837 48.2283 36.7572 48.5349 36.9771C48.4323 37.4535 48.0631 37.6632 48.0825 38.2614ZM48.5349 33.8069C48.9462 34.1373 49.0283 35.237 48.5349 35.5447C48.4221 35.0672 48.0859 34.1613 48.5349 33.8069ZM48.4597 32.7505C48.699 32.8223 48.6864 33.432 48.6112 33.5812C48.2432 33.6359 48.3731 32.9112 48.4597 32.7505ZM42.6468 41.7337C42.7299 41.4157 42.8325 41.1149 42.9488 40.8277C43.2268 40.9371 43.0365 41.7986 42.6468 41.7337ZM42.3459 42.9416C42.3846 42.8299 42.4576 42.7513 42.4963 42.6385C42.7505 42.6772 42.6422 43.0339 42.3459 42.9416ZM42.3459 44.1495C42.1146 44.2042 42.0701 44.0732 41.8924 44.0743C41.8684 43.6481 42.216 43.5923 42.3459 43.3199C42.6912 43.3929 42.4097 44.0003 42.3459 44.1495ZM41.0605 43.9991C40.8861 44.023 40.771 43.9866 40.6833 43.9239C40.8428 43.4783 41.0992 43.1319 41.212 42.6396C41.2588 42.8892 41.1289 43.6117 41.0605 43.9991ZM39.9289 42.1861C39.7956 42.5815 39.6144 42.9279 39.2486 43.092C39.2999 42.6476 39.4457 41.9513 39.9289 42.1861ZM38.4953 43.696C38.5181 43.8954 38.3905 43.9444 38.1922 43.9228C38.1614 43.7644 38.2446 43.7222 38.2674 43.6196C38.3905 43.5991 38.3985 43.6926 38.4953 43.696ZM38.0418 42.4128C37.8355 42.961 37.6065 43.4874 37.3615 43.9991C36.9011 43.5171 37.3729 42.1997 38.0418 42.4128ZM36.9843 42.9416C36.8202 43.288 36.6344 44.3091 36.1535 43.8475C36.6697 43.6162 36.3826 43.0271 36.9843 42.9416ZM33.4357 30.4851C33.3821 30.1796 33.5086 30.0543 33.814 30.1079C33.8675 30.4121 33.7422 30.5386 33.4357 30.4851ZM34.2675 32.5237C34.0351 32.4018 34.1604 32.1613 34.2675 31.995C34.5855 32.0896 34.2596 32.3038 34.2675 32.5237ZM34.3416 30.1079C34.353 29.7409 34.9513 29.6452 35.2487 29.8059C35.3251 30.37 34.6265 30.3073 34.3416 30.1079ZM39.9289 21.8027C40.0736 22.687 39.4594 23.4893 38.8714 23.389C37.962 23.2306 38.2868 20.662 39.4754 21.0472C39.4981 21.2216 39.2577 21.1315 39.2486 21.274C39.4207 21.5064 39.726 21.6033 39.9289 21.8027ZM40.3061 21.576C40.3813 21.576 40.4577 21.576 40.5317 21.576C40.8964 22.2791 40.7585 23.2807 39.9289 23.389C40.2981 22.9583 40.583 22.2301 40.3061 21.576ZM42.42 23.3138C42.3915 23.6112 42.1134 23.6614 41.9676 23.8414C41.783 23.6283 42.1271 23.3001 42.42 23.3138ZM45.8934 20.5948C46.0278 20.1014 46.4324 19.8757 46.6478 19.4632C47.2187 19.8871 46.3401 20.4729 45.8934 20.5948ZM50.8755 15.5363C50.9861 14.8924 51.312 14.4628 51.4043 13.8007C51.492 13.7882 51.5388 13.8178 51.5559 13.8759C51.3473 14.448 51.2915 15.1728 50.8755 15.5363ZM52.3103 13.1204C52.3125 14.2303 52.251 15.2765 51.4043 15.5363C51.5923 14.9141 51.4693 13.3426 52.3103 13.1204ZM50.7251 16.2166C50.5735 16.0662 50.749 15.8576 50.8003 15.6878C51.0784 15.6411 51.002 16.3374 50.7251 16.2166ZM52.9142 12.8948C53.0362 12.8731 53.0441 12.9666 53.1399 12.97C53.1843 13.2651 53.0749 13.4087 52.9894 13.5728C52.6704 13.4794 52.9644 13.1649 52.9142 12.8948ZM54.2726 11.0829C54.2726 11.3849 54.121 11.5353 54.121 11.8373C53.7769 11.8794 53.6515 11.7039 53.2914 11.7621C53.2151 11.1672 53.8247 10.9074 54.2726 11.0829ZM53.5182 9.95015C53.8498 9.99802 53.819 10.7285 53.5182 10.7809C53.2208 10.6875 53.3917 10.0858 53.5182 9.95015ZM53.8202 12.2908C53.7324 12.5062 53.664 12.7398 53.3678 12.7432C53.37 12.4458 53.5216 12.2942 53.8202 12.2908ZM55.4053 8.36502C55.0532 8.43226 55.0179 7.96504 55.4053 8.06304C55.4053 8.16332 55.4053 8.26474 55.4053 8.36502ZM42.0428 16.367C43.3966 15.3824 44.6023 13.8269 45.3646 12.2908C46.1908 11.2971 46.8187 9.79062 47.0261 8.36502C47.1059 7.80778 47.2027 6.55996 47.0261 6.17593C46.1771 4.34693 43.9379 2.52021 41.5892 2.40056C41.9653 1.37268 43.2997 1.22225 44.3823 0.965853C44.886 0.847338 45.376 0.560169 45.8922 0.512307C46.7948 0.429119 48.111 0.649054 48.9873 0.889502C50.3969 1.27809 52.2373 2.38347 53.4418 3.30537C54.3649 4.0119 55.4611 5.33037 55.3289 6.62719C55.3552 6.88132 55.0019 6.75255 54.8765 6.85397C54.6828 7.50808 54.8378 8.37756 55.027 8.8915C54.611 8.95418 54.4378 9.25844 53.9706 9.26984C54.0321 8.62598 54.0971 7.98669 54.1962 7.38272C53.6333 7.69952 53.6948 8.6408 53.5923 9.42026C53.0521 10.2134 52.9199 11.4156 52.1587 11.9877C52.0846 12.3125 52.4424 12.2065 52.4607 12.4412C51.8111 13.2754 50.5519 13.5022 49.9685 14.4047C50.4015 14.2588 50.6522 13.9295 51.1012 13.8007C50.977 14.6622 50.242 15.5557 50.3457 16.8958C50.1405 16.9436 50.1588 17.2114 49.8921 17.1989C50.0573 16.1722 49.9491 15.7665 50.3457 14.9346C49.8556 15.0565 49.7337 15.6776 49.5149 16.1425C49.3143 16.5699 48.7423 17.4644 48.9862 17.8029C49.2699 18.1983 48.8984 18.2165 48.4574 18.5584C48.1657 18.784 47.9252 19.1954 47.5514 19.0872C47.2814 18.1994 48.3879 17.6707 48.307 16.9733C47.7338 17.1009 47.4352 17.918 47.0238 18.4832C46.5999 19.0655 46.2227 19.7492 45.7395 19.9931C45.8592 18.5937 47.5742 18.1219 47.401 16.4445C47.3167 15.632 46.3401 14.5882 45.3623 14.4811C42.8473 14.2087 42.0941 19.796 45.588 19.2376C45.1948 20.0774 44.9453 21.0597 44.0792 21.4278C44.0598 20.572 44.7812 20.074 44.7584 19.4644C43.8011 20.0421 43.9185 21.6945 42.8712 22.1822C42.9738 21.348 43.6359 20.6882 43.702 20.0672C42.5966 20.9264 42.5898 22.8819 41.2861 23.5406C41.3784 22.6483 42.0736 21.715 42.3436 20.7475C41.8297 21.1133 41.8126 21.9794 41.2861 22.3338C41.0286 21.2318 40.0554 20.8455 39.0207 20.5219C37.0344 21.1292 37.1324 24.4078 39.701 24.0693C40.0839 24.0192 40.2947 23.8038 40.6069 23.5406C40.7539 24.8203 39.5323 25.3844 38.795 26.0328C38.6207 25.9245 38.8828 25.6237 38.9466 25.504C38.7301 25.6396 38.5249 25.7878 38.3426 25.9564C38.0634 25.7331 38.6412 25.4584 38.3426 25.202C37.7159 25.2043 37.8367 25.9542 37.5882 26.3336C37.5563 26.5912 37.8139 26.5604 37.8902 26.7108C37.7489 26.998 37.5814 27.2578 37.1358 27.2396C37.0093 26.6447 37.7204 25.8778 37.513 25.202C36.9489 25.9211 36.8612 27.1176 36.1547 27.6931C36.0578 27.2817 36.5478 26.8692 36.1547 26.6356C35.4914 27.2316 35.8037 28.8031 34.5684 28.8259C34.5148 28.4965 34.696 28.4008 34.6436 28.0715C34.1821 28.2378 34.2356 28.9216 33.8892 29.203C33.1029 29.3478 32.3884 29.5643 31.8505 29.9586C31.7616 30.2993 32.1844 30.1261 32.0762 30.4862C31.2215 30.8144 30.4808 31.2565 30.0386 31.9961C30.9708 32.4098 31.7389 31.3933 32.6049 31.2417C32.6049 31.4434 32.6049 31.644 32.6049 31.8457C31.3742 32.4257 30.2141 33.0787 29.2831 33.9596C30.319 34.2547 30.9366 32.8519 32.0009 32.6764C32.1639 33.3317 31.642 33.5129 31.699 34.2616C30.6084 34.9077 29.56 35.596 28.3019 36.0735C28.1789 35.498 28.5959 35.4615 28.7543 35.1675C28.1743 35.392 27.8005 35.825 27.5464 36.3766C27.6296 36.6193 27.9612 36.6148 28.3008 36.6022C28.2575 37.0877 27.788 37.1469 27.6216 37.5093C27.5646 37.7919 27.9099 37.6734 27.9236 37.8854C27.6342 38.2261 27.4872 38.7093 27.0929 38.9429C26.5732 38.9338 26.7544 38.225 26.2633 38.1885C26.1881 38.5839 26.4832 39.213 26.7156 39.5468C26.4444 40.0813 26.4627 40.9052 26.2633 41.5103C26.0148 41.5331 25.6445 41.6847 25.4314 41.5103C25.5886 40.5599 25.8371 39.7018 26.0353 38.7925C25.4223 38.8905 25.396 40.2112 25.2046 40.9816C24.71 41.0157 24.5619 41.3952 24.1471 41.5103C23.9431 40.6898 24.5961 39.7052 24.4502 38.9429C23.9272 39.2768 24.0183 40.2237 23.7699 40.83C23.2388 40.7001 23.0189 41.206 22.7124 41.0568C22.6098 40.4836 23.1853 39.5822 23.0144 38.9429C22.4651 39.5263 22.4184 40.6112 22.1836 41.5103C21.7289 41.6448 21.2617 42.1325 20.9005 42.1143C21.0759 40.83 21.4315 39.7258 21.5808 38.4141C21.1888 38.8038 21.0657 39.4602 20.9768 40.1508C20.6224 40.299 20.3831 40.5622 19.9193 40.6032C19.8053 40.1873 20.2475 39.344 20.0709 38.8665C19.6937 39.042 19.8293 39.7326 19.6184 40.0756C19.035 40.324 18.8299 40.9485 18.0322 40.9816C18.1575 40.234 18.251 39.1172 18.259 38.34C17.7883 38.5942 18.1359 39.2631 17.9558 39.6984C17.7917 40.0984 17.3906 40.2807 16.9747 40.3776C16.7867 40.1645 17.0134 39.5343 16.8242 39.3212C16.5063 39.532 16.749 40.3024 16.6727 40.7548C16.4698 40.9052 16.3012 41.0875 15.9183 41.0579C15.8921 40.6796 16.0938 40.5291 16.0687 40.152C15.7177 40.2032 15.9422 40.8289 15.54 40.8311C15.2904 40.528 15.483 39.7816 15.3143 39.3964C14.9531 39.589 15.3303 40.5189 15.0876 40.8311C14.6283 40.5702 14.4973 40.0072 14.258 39.548C13.948 38.9497 13.4762 38.462 13.352 37.7361C13.2175 36.9429 13.442 35.8102 13.4272 34.943C13.3873 32.5818 15.4579 31.2816 16.0687 29.6577C16.8151 29.3124 17.1878 28.5501 17.8818 28.0726C18.9484 27.3364 20.4561 27.2248 21.2777 26.1855C23.4178 25.5063 25.5282 24.7986 27.3926 23.8437C28.972 23.8539 29.9566 22.8865 31.1679 22.3349C32.4032 21.772 33.5234 21.184 34.7165 20.7486C35.8333 20.3418 37.031 19.5213 38.264 18.6359C39.5084 17.7402 40.9442 17.1681 42.0428 16.367ZM46.7993 17.4997C46.5805 18.3066 45.4193 19.2296 44.535 18.6325C45.7669 18.7328 45.9697 17.8029 46.7993 17.4997ZM44.1567 17.9533C43.8057 16.6086 44.3926 14.9961 45.9686 15.0839C47.662 16.0787 45.915 18.9231 44.1567 17.9533ZM31.7001 35.7692C31.634 35.2256 31.74 34.853 32.0773 34.7117C32.2756 35.3544 32.9662 36.6489 32.3804 37.1276C31.8414 36.9874 32.3155 35.8342 31.7001 35.7692ZM32.3793 41.5832C32.2152 41.6471 32.1206 41.7781 31.8505 41.7337C31.7548 41.0579 31.675 40.4756 31.7753 39.9218C32.2494 40.2021 31.9747 41.2323 32.3793 41.5832ZM32.6061 33.5049C32.2904 33.4434 32.4921 32.7209 32.5309 32.5237C32.7782 32.5807 32.7177 33.3385 32.6061 33.5049ZM30.8694 31.5414C31.2739 30.9739 32.4682 30.444 33.0585 30.5603C32.4499 30.9637 31.6055 31.5164 30.8694 31.5414ZM32.5297 37.507C32.9183 37.4751 32.7667 38.1064 32.4545 38.0346C32.2915 37.8728 32.4169 37.613 32.5297 37.507ZM32.7565 34.6376C33.0471 34.6992 33.1496 34.9476 33.3605 35.0889C33.2203 35.3031 33.3616 35.7954 33.2089 35.9948C32.8374 35.7635 32.7178 35.2815 32.7565 34.6376ZM31.3981 39.3189C31.0893 39.2118 30.9138 38.4574 31.4733 38.4882C31.6352 38.7047 31.4585 39.0865 31.3981 39.3189ZM31.4733 40.4505C31.1657 40.5223 31.2112 40.0426 31.3218 39.9218C31.4346 40.0357 31.4437 40.2534 31.4733 40.4505ZM30.189 41.508C29.544 41.1878 28.8341 39.7201 30.2643 39.7702C30.4329 40.2055 30.5059 40.7377 30.5663 41.2801C30.3691 41.075 30.3315 40.7103 30.189 40.4494C29.7913 40.7012 30.4352 41.1912 30.189 41.508ZM28.4535 41.1297C28.7145 41.1194 28.8922 41.1947 28.8307 41.5069C28.5333 41.5536 28.4968 41.3382 28.4535 41.1297ZM28.5287 42.7148C28.4239 42.6692 28.5173 42.4242 28.3771 42.4128C28.1481 42.4607 28.1697 42.7593 27.9999 42.8652C27.6057 42.5758 27.8928 42.047 27.9247 41.5821C28.2449 41.7861 29.2649 42.4003 28.5287 42.7148ZM28.8307 40.299C29.0506 40.3012 29.0096 40.7263 28.9059 40.8277C28.5413 40.7947 28.5891 40.4141 28.8307 40.299ZM28.3783 39.6961C28.5982 39.1366 29.421 39.1788 29.8882 38.8654C29.5042 39.2187 28.9298 39.7577 28.3783 39.6961ZM29.8882 43.3188C29.7993 43.4054 29.6216 43.4043 29.4358 43.394C29.4085 43.1011 29.3276 43.1604 29.2102 42.8652C29.282 42.7376 29.4187 42.6715 29.6626 42.7137C29.6979 42.9553 29.8996 43.0305 29.8882 43.3188ZM30.3406 42.8664C30.6415 42.8174 30.5571 43.1536 30.5663 43.3951C30.2973 43.4111 30.2278 43.002 30.3406 42.8664ZM30.4922 37.7327C30.2586 37.8694 30.4512 37.964 30.417 38.2614C29.3583 38.4859 28.8296 39.2403 27.7743 39.4694C26.9094 38.6409 28.4569 37.9993 29.2843 37.2803C30.1321 36.543 30.4614 35.9595 31.1713 35.4684C31.5223 35.4205 31.3628 35.8809 31.3981 36.1475C31.2477 36.1464 31.3013 35.9413 31.095 35.996C30.9377 36.7857 31.5588 37.4227 31.1702 37.9594C30.8113 38.0176 30.8363 37.6905 30.4922 37.7327ZM27.4723 43.2436C26.849 43.3895 27.0484 42.7114 26.5664 42.7148C26.653 42.2977 27.1874 41.9297 27.4723 41.9604C27.4153 42.4174 27.3641 42.8014 27.4723 43.2436ZM27.396 43.7723C27.3379 43.9581 26.1858 43.8168 26.1892 43.6971C26.1949 43.4533 27.0997 43.7461 27.396 43.7723ZM26.0376 42.4892C25.7812 42.4675 25.6034 42.3684 25.2832 42.414C25.3072 42.2374 25.4029 42.1302 25.3584 41.8852C25.6205 41.8146 25.9544 41.5194 26.2644 41.7337C26.1892 41.9844 26.1288 42.2522 26.0376 42.4892ZM26.6416 41.8852C26.5823 41.4283 27.0028 41.5662 26.7932 41.1308C27.045 41.1308 27.2957 41.1308 27.5475 41.1308C27.3891 41.5251 27.0393 41.7291 26.6416 41.8852ZM26.7932 40.4505C26.7806 40.2625 26.9117 40.2169 26.9436 40.0733C27.0758 40.1428 27.2057 40.2135 27.1703 40.4505C27.0712 40.5474 26.8923 40.5474 26.7932 40.4505ZM24.9801 41.7337C24.9243 42.0801 24.9174 42.4767 24.8297 42.7912C24.5585 42.8356 24.465 42.7034 24.3009 42.6396C24.6348 42.373 24.2451 41.4112 24.9801 41.7337ZM24.3009 41.9604C24.2895 42.6373 23.7232 42.071 24.3009 41.9604V41.9604ZM22.4902 41.7337C22.8947 41.6345 23.2491 41.0864 23.6217 41.206C23.6571 42.0721 23.1785 42.422 22.4902 42.5644C22.3135 42.3513 22.5768 42.0926 22.4902 41.7337ZM20.3751 42.1861C20.1472 42.0881 19.7529 42.1553 19.6207 41.9604C19.6447 41.7838 19.7393 41.6767 19.696 41.4317C20.0903 41.3485 20.2202 40.9998 20.6771 40.9781C20.8036 41.3303 20.5107 41.8522 20.3751 42.1861ZM19.4692 40.5257C19.4908 40.7229 19.443 40.8505 19.2436 40.8277C19.2219 40.6306 19.2698 40.5029 19.4692 40.5257ZM18.3376 41.508C18.4629 41.508 18.5894 41.508 18.7148 41.508C18.8185 41.7815 18.2065 41.8681 18.3376 41.508ZM17.0533 41.206C17.0727 40.8972 17.3678 40.8665 17.6573 40.8277C17.7952 41.3724 17.2345 41.606 17.0533 41.206ZM12.7503 39.6198C13.2893 39.8614 13.7577 40.1725 14.0346 40.6773C13.5252 40.683 13.0979 40.6055 12.6763 40.5257C12.7036 40.226 12.6056 39.8021 12.7503 39.6198ZM12.5999 37.6575C12.4244 37.4273 12.601 37.0444 12.6751 36.8267C12.8996 36.8598 12.9509 37.7281 12.5999 37.6575ZM12.9771 24.5206C13.9867 24.0693 15.6687 24.9137 15.9969 25.8037C16.8448 28.7882 11.8238 29.0823 11.8444 26.6345C11.8501 26.0043 12.4324 24.7645 12.9771 24.5206ZM12.1475 24.5969C12.2637 24.0329 12.7309 23.4198 13.205 23.4642C13.1024 24.0921 12.6785 24.3987 12.1475 24.5969ZM13.3543 24.0682C14.6762 21.0244 19.8031 25.4892 16.5245 27.088C16.602 24.9479 15.2266 24.2608 13.3543 24.0682ZM15.1662 28.6731C15.3861 28.566 15.5377 28.3905 15.8465 28.3712C15.6949 28.9751 15.3349 29.3683 14.9406 29.7295C14.9975 29.3603 15.271 29.2053 15.1662 28.6731ZM14.6374 29.0503C14.5007 29.3409 14.5554 29.8241 14.1862 29.8811C13.9708 29.5176 14.2226 28.7974 14.6374 29.0503ZM22.4902 25.2009C22.8947 24.883 23.7619 24.369 24.2257 24.5969C23.8314 24.9832 23.1511 25.0813 22.4902 25.2009ZM26.3408 23.691C26.2051 24.0841 25.7014 24.1103 25.2832 24.2197C25.2023 23.6089 25.9784 23.8585 26.3408 23.691ZM26.0376 22.6335C26.1869 22.7634 26.1869 23.3822 25.812 23.2374C25.6422 23.0312 25.9978 22.8648 26.0376 22.6335ZM27.3219 22.9355C27.3219 22.8602 27.3219 22.785 27.3219 22.7098C27.421 22.613 27.6 22.613 27.6991 22.7098C27.7333 22.9446 27.5373 22.9503 27.3219 22.9355ZM39.1734 15.1591C38.3312 14.4959 36.8487 14.6611 36.2299 15.3847C36.1501 14.0742 39.1198 13.7255 39.1734 15.1591ZM38.9477 15.9898C38.0395 16.0639 37.2555 16.2599 36.3803 16.367C36.2812 15.0634 38.8292 14.4913 38.9477 15.9898ZM33.5109 17.3482C34.1046 17.2035 35.0219 16.8559 35.9267 16.8206C36.2435 16.8046 36.2435 17.1066 36.5307 17.1226C37.3352 16.2155 39.4195 16.5881 40.5317 15.9898C40.1124 16.5004 39.4377 16.7579 39.1734 17.4245C37.75 17.8131 37.056 18.9299 35.6259 19.3117C35.6247 19.1111 35.6669 18.8672 35.4743 18.8592C35.0652 19.004 35.1473 19.6387 34.8704 19.9168C34.451 19.8427 34.884 19.3641 34.6447 19.086C34.0396 19.6125 33.961 20.6677 32.9832 20.8216C33.1359 19.6512 33.0847 18.0809 32.0021 17.7265C32.3485 17.3037 32.9901 17.4758 33.5109 17.3482ZM29.0575 18.2541C30.3851 17.469 32.614 17.8165 32.6813 19.3117C32.736 20.531 31.4882 22.0033 30.0398 21.8791C28.5618 21.7515 28.2609 19.5817 29.0575 18.2541ZM28.0763 22.1811C28.0398 21.944 28.1834 21.8859 28.2279 21.7275C28.3498 21.707 28.3566 21.7993 28.4535 21.8027C28.4991 22.1002 28.2848 22.1366 28.0763 22.1811ZM25.5089 15.7642C25.4599 16.2314 24.8696 15.844 24.6793 15.7642C24.7089 15.5317 25.4792 15.5317 25.5089 15.7642ZM23.8485 16.065C24.5653 16.0274 24.9801 16.2918 25.3584 16.5938C25.3801 17.42 25.3026 18.1482 24.906 18.5573C24.1015 18.294 23.3653 18.9743 22.6406 18.7829C22.5164 17.3505 23.2651 16.7909 23.8485 16.065ZM24.4525 18.9345C24.2964 19.2832 23.8337 19.323 23.3198 19.3117C23.4451 18.9664 24.1471 18.8547 24.4525 18.9345ZM22.0366 17.9533C22.0491 17.0097 22.3534 16.3579 23.1682 16.2177C22.7739 16.7773 22.5186 17.4781 22.0366 17.9533ZM17.0533 17.7265C17.7564 17.551 17.484 18.3533 17.884 18.4809C18.2202 17.9658 17.5182 17.8416 17.5809 17.3482C19.2207 17.3858 18.3102 19.8848 16.9017 19.5384C16.4881 19.0963 16.5189 18.0126 17.0533 17.7265ZM3.61556 30.3346C3.00476 30.6036 3.18252 31.6634 2.78482 32.1465C2.57742 31.089 3.04352 29.9814 3.38767 29.0503C4.01785 27.3604 5.08448 26.0738 6.25595 24.8989C8.85871 23.1121 11.0706 20.5811 14.9383 20.1424C15.7519 20.0512 16.5895 20.1469 17.4282 19.992C18.3695 19.8176 19.5797 19.4404 20.9768 19.3117C21.3745 19.2752 21.9284 19.2444 22.26 19.3117C22.5688 19.3743 22.7807 19.7059 23.1659 19.7652C23.7254 19.8507 24.3545 19.5806 24.7522 19.3117C25.1727 19.0279 25.2548 18.6769 25.959 18.6325C26.9105 18.5721 27.6421 18.4068 28.3749 18.1789C27.8245 18.9983 28.2028 20.0752 28.0729 20.9731C27.943 21.8711 27.1567 22.4192 26.7145 22.9355C26.5242 22.2563 27.135 21.7549 27.0917 20.9731C26.065 21.4301 25.9704 22.8204 25.1283 23.4642C24.8924 22.7326 26.1334 21.8164 25.9579 20.8979C25.0656 21.7913 24.7454 23.258 23.542 23.8414C23.6822 22.9001 24.3773 22.5127 24.5231 21.5771C23.828 21.6364 23.73 22.4705 23.4668 22.9355C23.1614 23.4767 22.905 24.026 22.6349 24.5217C22.2565 24.467 22.6599 24.1001 22.6349 23.9178C22.2816 23.9417 22.309 24.3462 21.9557 24.3702C22.0811 23.4904 22.8115 23.2135 23.0121 22.4078C21.9808 22.4204 21.7768 24.0739 21.1261 24.6721C21.109 24.8693 21.558 24.9855 21.3518 25.1257C21.3335 25.3593 21.0851 25.3604 20.8993 25.4277C20.562 25.4391 20.9666 25.234 20.8993 25.0505C20.627 25.1576 20.3797 25.6864 20.1449 25.5792C20.3523 24.6528 20.9153 24.0841 21.1261 23.1634C20.4834 23.3765 20.2908 24.1673 19.9934 24.7485C19.6994 25.3251 19.533 26.0852 18.9359 26.3348C18.6806 25.0972 19.8213 24.6744 19.7666 23.6933C18.986 24.1457 18.8675 25.2613 18.2567 25.8824C18.0846 23.8904 16.5747 23.2352 14.9349 22.7121C15.4169 22.3543 16.4231 22.4432 16.5952 23.0141C17.0317 22.2813 15.9217 22.0751 15.4636 22.1081C15.0032 22.1412 14.7423 22.5252 14.3309 22.7121C13.7714 22.9674 13.0888 22.9138 12.5953 23.3161C10.7925 24.7838 10.3128 29.3489 13.9537 29.129C13.8751 29.6611 13.6654 30.207 13.5013 30.7152C13.3406 31.2109 13.2779 31.8252 12.8973 32.15C12.7811 31.4617 12.7629 30.6731 12.5201 30.1113C12.1133 30.7528 12.5794 31.8058 12.4449 32.6787C12.209 32.8918 12.1965 32.4234 11.9925 32.3756C11.8592 32.6924 11.7908 33.0479 11.7669 33.3567C11.6484 34.8006 12.3708 36.2239 11.9173 37.4341C11.5948 36.045 11.8774 34.0519 11.3145 32.9032C11.0626 35.0957 11.6518 38.1497 11.7669 40.2272C11.0672 40.1303 11.4911 38.9144 11.3885 38.4141C11.2427 38.2238 11.245 38.8198 10.8598 38.6409C10.4336 37.0717 10.9361 34.9043 10.4085 33.3556C9.87518 34.6125 10.4883 36.3618 10.3333 37.9606C10.0929 37.9731 10.0006 38.1315 9.72934 38.1121C9.67465 37.1845 9.76921 36.2524 9.80453 35.3943C9.83644 34.5852 9.99712 33.6678 9.65297 33.0536C9.05015 33.6508 9.42734 34.7926 9.42734 35.6951C9.42506 36.69 9.32821 37.6814 9.27579 38.5645C8.78919 38.6568 8.5556 39.0021 8.14307 39.1685C7.75448 38.1919 8.89746 38.1178 9.12423 37.5082C8.81313 37.0478 8.46101 37.8307 8.14307 37.5822C8.34706 36.421 8.33908 34.8667 8.59548 33.9584C7.61774 35.1185 8.6308 38.2705 6.85992 38.6386C6.62517 37.8649 7.43539 37.5093 7.68952 36.9771C7.41716 36.6854 7.32826 37.2153 7.01033 37.1287C7.13454 35.7703 7.40578 34.5544 7.53911 33.2029C6.75395 34.2046 6.99437 36.233 6.55792 37.5822C6.16477 37.5161 6.0565 37.7908 5.72717 37.9594C5.62803 36.0906 6.46335 33.7214 6.33002 32.0713C5.83431 32.934 5.89128 34.3504 5.65084 35.4684C5.20185 35.4729 5.08446 35.8079 4.59331 35.7703C4.53519 33.9664 4.96595 32.0759 5.04572 30.4098C4.62408 30.7654 4.51924 31.5802 4.44175 32.297C4.31868 33.4354 4.40758 34.7971 4.13979 35.9219C3.84464 35.9812 3.74778 35.9994 3.53582 35.8467C3.46175 35.2951 3.93124 35.286 3.83893 34.714C3.77398 34.4929 3.59507 34.7595 3.4606 34.714C3.7227 32.4098 4.01786 30.1774 4.51812 28.2971C3.34323 29.5825 3.7455 32.2035 3.08341 34.1111C2.48628 33.0912 3.54605 31.4617 3.61556 30.3346ZM12.1475 39.0158C12.0153 38.9463 11.98 38.7799 11.9959 38.5634C12.2762 38.5805 12.2067 38.8312 12.1475 39.0158ZM9.65527 38.9406C9.73618 38.6705 9.93672 38.5178 10.3356 38.5634C10.4632 39.0249 9.92535 39.1172 9.65527 38.9406ZM10.184 39.3189C10.151 39.5617 10.0678 39.7577 9.7316 39.6961C9.70767 39.4454 9.72023 39.2323 9.88205 39.1674C10.0883 39.1115 10.0336 39.3178 10.184 39.3189ZM9.27808 39.5446C9.27808 39.6198 9.27808 39.6961 9.27808 39.7702C9.11968 39.8021 9.07749 39.7189 8.97493 39.6961C8.9943 39.5617 9.10601 39.5229 9.27808 39.5446ZM6.48499 38.1851C6.39041 38.4437 6.45992 38.8643 6.33343 39.091C5.77391 39.2164 5.91065 38.0267 6.48499 38.1851ZM5.42746 36.7515C5.44114 37.2438 5.38531 37.6654 5.27591 38.0346C4.95683 38.0529 4.89302 37.8147 4.67309 37.7327C4.94658 37.4273 4.88845 36.7914 5.42746 36.7515ZM4.52153 36.6752C4.41099 36.037 4.7597 35.8569 5.35113 35.9208C5.16424 36.2615 4.95684 36.5828 4.52153 36.6752ZM2.78596 53.9634C2.62984 52.9173 2.24696 51.7789 2.25722 51.0199C2.26064 50.7647 2.24354 50.5778 2.48285 50.416C3.11759 52.2484 3.19621 54.6346 3.46401 56.8329C3.04465 56.1457 2.94436 55.0369 2.78596 53.9634ZM19.9227 83.0291C21.1865 83.2262 22.7374 83.1351 23.6217 83.7094C22.3374 83.5328 20.7466 83.665 19.9227 83.0291ZM32.6061 84.0866C33.9165 83.5829 35.5302 84.0741 37.0606 84.1618C35.725 84.727 33.9997 84.2803 32.6061 84.0866ZM65.144 51.4735C64.9058 51.2775 65.2192 50.9994 65.2192 50.7932C65.4232 50.9539 65.2272 51.3481 65.144 51.4735ZM65.2956 48.2257C64.8227 50.245 64.5025 52.4376 64.0113 54.5674C63.3914 57.2591 62.3931 59.8094 61.5954 62.2686C61.1852 63.5346 60.9618 64.9944 60.6142 66.4211C59.9214 69.27 59.3425 71.4739 58.5015 74.4231C58.1038 75.8145 57.9192 77.4646 57.2936 78.2726C57.1363 78.4754 56.7933 78.6304 56.4628 78.9529C54.7386 80.6246 52.8584 81.6229 50.1211 82.4263C48.8562 82.7966 47.5195 82.8604 46.0449 83.1054C43.212 83.5761 40.1409 83.7026 37.211 83.7094C36.0145 83.7117 34.7359 83.3573 33.4357 83.4074C31.0574 83.4975 28.5207 83.5396 25.9613 83.2559C24.7465 83.1214 23.599 82.8422 22.489 82.7271C21.501 82.6245 20.7204 82.7579 19.9216 82.5755C19.3757 82.4513 18.8287 82.0673 18.186 81.8964C17.3826 81.6833 16.4391 81.542 15.5434 81.3676C14.6272 81.1887 13.6016 81.1556 12.8255 80.9152C11.8398 80.6064 11.1037 79.5227 10.1077 79.1797C9.54246 77.3039 8.88376 75.5217 8.07011 73.8944C7.81257 72.5531 7.52087 71.2039 7.01262 69.8922C6.49868 68.5658 6.38473 67.2803 6.03147 65.816C5.6349 64.1819 4.95229 62.5854 4.52153 60.8339C3.65318 57.3081 3.50161 53.4267 2.78596 49.7357C2.36547 47.5751 1.77975 45.3199 2.10566 43.3951C2.10224 43.2664 2.16264 43.1991 2.25722 43.1684C5.1312 43.4977 7.29181 44.8948 9.8809 45.7358C10.8803 46.0594 11.4729 46.301 12.5999 46.5665C14.2876 46.9643 16.5245 47.1796 18.7148 47.4725C19.9159 47.6332 21.1181 48.0332 22.3386 48.2269C23.5864 48.4274 24.7237 48.8753 25.886 49.0588C27.7937 49.3573 29.5338 49.2445 31.5486 49.2844C34.2402 49.3391 36.8806 49.5442 39.2497 49.5112C41.5801 49.4793 43.9458 49.2548 46.2706 49.134C48.6374 49.0098 51.0157 48.9118 53.2914 48.7556C54.3558 48.6838 55.4008 48.3397 56.4617 48.2269C58.7328 47.9887 60.8331 47.787 62.8034 47.1705C63.7025 46.889 64.499 46.2919 65.4449 46.2646C65.8733 46.8936 65.4357 47.6241 65.2956 48.2257ZM11.1652 45.6595C11.9526 45.6275 13.0796 45.909 13.883 46.113C13.017 46.2224 11.809 46.023 11.1652 45.6595ZM14.4118 46.3398C14.9109 46.1381 16.1246 46.3386 16.4494 46.7922C15.7121 46.6987 15.1206 46.4606 14.4118 46.3398ZM23.5454 47.6981C23.7243 47.5249 24.2234 47.6708 24.5266 47.6229C24.4662 47.9386 23.7425 47.7357 23.5454 47.6981ZM24.9801 48.301C25.6023 48.1984 27.3002 48.285 27.9247 48.6793C26.8615 48.5631 25.8006 48.7511 24.9801 48.301ZM28.6803 48.2257C28.7213 47.983 30.1822 48.1722 30.4922 48.301C30.4728 48.5494 28.6803 48.2269 28.6803 48.2257ZM32.6061 48.8297C33.3935 48.5437 34.9217 48.8354 35.7023 48.8297C34.6436 49.1875 33.6191 48.8423 32.6061 48.8297ZM63.3321 46.1882C63.4449 45.9238 63.8996 46.0002 64.1629 45.8862C64.0159 46.1164 63.7127 46.1894 63.3321 46.1882ZM66.352 44.5267C66.0089 44.6168 65.9007 44.2464 65.6728 44.4527C61.0097 46.8526 54.7546 47.4839 48.1577 47.7745C45.1128 47.9078 41.6952 48.0913 38.7209 48.2257C35.9473 48.3522 33.3969 47.7426 30.4922 47.6229C28.1219 47.5238 25.6867 47.2389 23.395 47.1705C21.0543 47.0987 19.2116 46.4389 17.1285 46.0378C16.2636 45.8714 15.3565 45.901 14.487 45.7358C13.7976 45.6048 13.0853 45.239 12.3731 45.0555C11.5652 44.8469 10.7094 44.831 10.0325 44.6031C9.46723 44.4128 9.06382 44.0584 8.52252 43.9239C7.65873 43.7097 6.56706 43.6732 5.57906 43.5456C4.86227 43.1456 4.32437 42.9439 3.61556 42.6396C3.30674 42.5086 1.98374 42.1633 1.72847 41.7337C1.54045 41.4203 1.29085 39.3554 1.57688 38.6386C1.70451 38.3195 2.66859 37.2882 3.0116 37.3555C3.56314 37.4626 3.14267 37.8706 3.38882 38.4118C4.01444 38.74 4.6104 39.0147 5.27591 39.3189C5.89925 39.6015 6.38928 40.0665 7.01262 40.3753C7.70434 40.7183 8.72424 41.0123 9.65412 41.3565C10.5783 41.7006 11.49 42.169 12.372 42.2624C14.1714 42.4539 16.1075 42.3456 17.8088 43.1684C18.6806 42.8447 19.5296 43.3826 20.6783 43.5456C21.517 43.6652 22.4309 43.6265 23.2445 43.6971C24.6998 43.8225 26.3225 44.3193 27.9247 44.3774C29.2124 44.423 30.5731 44.4663 31.9269 44.5279C32.9764 44.5757 33.9234 44.268 34.2675 44.9803C34.6949 44.251 35.8869 44.6703 36.8339 44.6783C37.2247 44.5905 36.9125 45.2036 37.211 45.207C37.7136 45.28 37.5803 44.7205 37.9666 44.6783C41.0593 44.5962 45.237 44.5131 48.6112 44.4527C49.8078 44.4299 51.0317 44.1598 51.8578 44.5267C52.1746 44.5427 52.1746 44.2407 52.4618 44.2247C57.1864 43.2892 62.8204 43.2595 65.2967 40.0722C65.4061 39.9548 65.683 40.0049 65.8995 39.997C66.0853 39.7702 65.9976 39.6597 65.9748 39.3178C68.3929 39.9115 68.0271 43.5364 66.352 44.5267ZM67.1815 44.5267C67.5325 43.8453 68.0636 43.3461 68.2391 42.4892C68.7029 43.3974 67.6499 44.0504 67.1815 44.5267Z" fill="#231003"/>
<path fill-rule="evenodd" clip-rule="evenodd" d="M21.2811 32.4472C21.6925 31.9788 21.7586 31.1627 21.9614 30.4834C21.3313 31.1878 21.2435 32.4347 20.8287 33.3533C20.9359 33.5858 21.3039 32.8404 21.2811 32.4472Z" fill="#231003"/>
<path fill-rule="evenodd" clip-rule="evenodd" d="M36.0032 55.1724C35.9382 54.6744 35.6476 54.3086 35.4744 53.8141C35.145 52.8682 35.0619 51.7048 34.5684 51.3982C33.5235 50.7475 32.3782 51.3868 31.2466 51.5498C30.5959 52.2666 30.36 52.7338 29.9634 53.7389C29.3709 55.2374 28.9846 56.4966 28.6051 58.6458C28.3715 59.9676 28.1504 61.4639 28.0763 62.7994C27.9612 64.8575 28.3954 66.6625 28.2279 68.6123C28.1276 69.7701 27.894 70.9358 28.0011 71.9341C28.1003 72.8639 28.6313 73.8018 28.8319 74.8034C28.9584 75.4382 28.9264 76.0706 29.135 76.539C29.29 76.8888 29.6261 77.0506 29.9657 77.4449C30.2825 77.813 30.4466 78.3178 30.7201 78.4261C30.9389 78.5138 32.197 78.4785 32.532 78.3509C33.5029 77.9816 34.0613 75.9441 34.4191 74.5003C34.8453 72.7842 35.4493 71.4372 35.5519 69.8202C35.6602 68.1109 35.7376 66.3468 35.9291 64.6124C36.1331 62.7698 36.3279 60.8895 36.3063 59.1757C36.2972 58.4361 36.0715 57.5974 36.0043 56.7598C35.9587 56.2071 36.067 55.6693 36.0032 55.1724ZM32.5298 51.6991C31.7708 54.0431 30.907 56.8031 29.9634 58.8714C29.8199 59.1848 29.6991 59.8731 29.2831 59.8526C30.0307 56.7986 29.8221 52.7908 32.5298 51.6991ZM29.7367 60.1545C30.5423 57.7136 31.6318 55.5564 32.3793 53.0574C32.6824 52.9332 32.8864 52.7099 33.0585 52.4546C33.1394 52.0204 32.9537 51.8552 32.9081 51.5487C33.5406 51.5202 34.0841 51.5783 34.4932 51.7743C34.7063 52.7235 35.1439 53.8369 35.0972 54.7929C34.6516 54.3576 34.6995 53.4289 34.2676 52.9811C33.544 53.0813 33.1508 54.0226 32.7576 54.7929C32.4295 55.4368 32.0944 56.0465 31.8517 56.5296C30.9731 58.2777 30.1754 60.2468 29.1338 61.5117C29.1977 60.9237 29.0495 60.1215 29.7367 60.1545ZM28.9823 63.0991C29.0484 62.8621 29.1692 62.6821 29.3595 62.5704C29.4164 62.3379 29.0985 62.4781 29.2091 62.1932C30.768 59.2235 32.2699 56.1935 33.8892 53.2853C33.9496 53.3252 34.0112 53.3628 34.1149 53.3605C34.3075 54.7781 35.177 55.52 35.2476 57.0595C34.4192 56.3769 34.5798 54.7075 33.8129 53.9634C33.6944 54.9867 34.2801 56.1239 33.2089 56.5308C33.2089 56.7325 33.2089 56.9342 33.2089 57.1347C32.0728 59.2953 30.9594 61.416 29.8119 63.6267C29.4541 64.315 28.9219 65.1116 29.0575 65.9674C29.3367 65.9195 29.2877 65.5435 29.2831 65.2119C30.4991 62.6536 31.8301 60.2092 33.1337 57.7375C34.2061 58.8486 33.2534 60.1169 32.605 61.3625C32.1765 62.1863 31.8061 62.9385 31.4734 63.6267C30.4398 65.76 29.5167 67.3212 29.1327 69.3644C29.4358 69.7028 29.6489 69.0271 29.8871 69.2892C29.9851 70.186 30.1401 70.9746 29.6615 71.5534C29.339 71.5421 29.764 71.2161 29.5099 71.101C29.2615 71.2298 29.3902 71.7369 29.3583 72.0822C29.6797 72.3614 29.8495 71.6321 30.188 71.9306C30.1823 72.8571 29.6603 73.2662 29.282 73.8177C28.6347 70.709 28.482 66.4904 28.9823 63.0991ZM33.4357 71.3267C32.8784 70.929 33.0836 69.9638 33.4357 69.5148C33.7058 69.5467 33.6488 69.9068 33.6625 70.1951C33.5269 70.2042 33.5029 70.1028 33.3605 70.1199C33.3616 70.5939 33.5394 70.9575 33.4357 71.3267ZM33.0585 67.6277C33.5474 68.0961 33.5337 69.386 32.9081 69.6664C32.9947 68.8846 32.6346 68.0983 33.0585 67.6277ZM31.4734 72.2326C31.4734 72.4343 31.4734 72.636 31.4734 72.8366C31.3184 73.0155 31.1737 72.7329 31.021 72.9118C31.0289 73.4736 31.0631 74.0616 30.6426 74.1949C30.1617 71.7472 31.6671 70.643 32.3041 69.0613C32.8124 69.3496 32.8705 70.9221 32.2289 71.0999C32.1286 70.8731 32.1525 70.5222 32.1537 70.194C31.5075 70.5039 32.589 72.2885 31.4734 72.2326ZM32.3041 67.8556C32.3041 68.1074 32.3041 68.3582 32.3041 68.61C31.5805 69.4966 31.3708 70.8982 30.4922 71.6298C30.0011 70.8469 31.1098 70.276 30.7942 69.4396C30.8819 69.3758 30.997 69.3404 31.1714 69.3655C31.2124 69.198 31.0278 69.2573 31.021 69.1387C31.5907 67.6699 32.311 66.3525 32.9081 64.911C33.7559 65.45 32.6403 66.1771 32.5298 66.8745C32.9047 66.6955 32.9218 66.1588 33.3605 66.0437C33.4198 66.7958 32.9981 67.6152 32.3041 67.8556ZM29.8882 67.5525C31.1201 64.8597 32.3486 62.1624 33.7388 59.6258C34.3804 60.2161 34.5046 62.0507 33.5873 62.4188C33.5508 62.657 33.7229 62.6855 33.6625 62.9476C32.5115 65.1685 31.5349 67.565 30.4158 69.8168C29.8005 69.3359 30.4626 68.0379 29.8882 67.5525ZM34.7963 58.0407C34.4055 57.8071 34.2095 58.3381 33.9656 58.4931C33.7047 58.2002 33.7354 57.6145 33.4368 57.3604C33.5747 56.8179 33.7502 56.3131 34.0408 55.9257C34.3679 56.2299 34.6391 56.9877 34.4932 57.5119C34.6676 57.6145 34.859 57.6988 34.7963 58.0407ZM33.6625 64.8347C33.5098 64.6854 33.3582 64.5338 33.2101 64.3823C33.2329 64.0279 33.471 63.8888 33.5121 63.5515C33.9645 63.6564 33.9895 64.5885 33.6625 64.8347ZM33.4357 66.9497C33.7741 67.1309 33.7787 67.9092 33.7388 68.2328C33.4277 68.0482 33.3514 67.2824 33.4357 66.9497ZM33.6625 65.7406C33.4642 65.5047 33.7502 65.27 33.814 65.0614C34.1502 65.123 33.887 65.7509 33.6625 65.7406ZM33.8904 66.0437C33.9645 66.0437 34.0408 66.0437 34.116 66.0437C34.1878 66.4665 34.2836 67.2118 34.1913 67.5525C33.8118 67.3451 33.7673 66.5121 33.8904 66.0437ZM34.1913 62.8724C34.0864 63.3111 34.3599 63.6655 34.2664 63.8535C34.2277 63.5789 33.6716 63 34.1913 62.8724ZM34.2676 61.9664C34.3417 61.9664 34.418 61.9664 34.4932 61.9664C34.4818 62.551 34.9456 63.1401 34.6448 63.5527C34.3063 63.2359 34.3576 62.5305 34.2676 61.9664ZM34.6448 58.4942C34.9 59.0697 35.0311 59.7682 35.0972 60.5317C34.5114 60.3072 33.5941 58.7438 34.6448 58.4942ZM29.3595 69.0624C29.3697 68.6453 29.5304 68.3775 29.6626 68.0812C29.9977 68.2693 29.7834 69.1399 29.3595 69.0624ZM29.9634 73.5169C29.927 73.2787 30.0706 73.2217 30.1139 73.0633C30.4501 73.077 30.1982 73.5944 29.9634 73.5169ZM30.6426 76.0079C30.5651 76.4638 30.7725 76.9504 30.6426 77.2159C29.9726 76.6279 29.8985 75.4439 29.3595 74.7248C29.756 74.4912 29.919 74.0274 30.3407 73.8189C30.5652 74.4901 30.2905 75.1282 30.1891 75.706C30.1982 75.8985 30.4421 75.8564 30.6426 75.8575C30.817 75.4541 31.2318 75.2889 31.323 74.8C31.0426 74.8217 31.1178 75.2 30.7942 75.1772C30.6745 74.5436 31.274 74.0046 31.4745 73.4417C31.7184 73.9317 31.7936 75.0348 31.5486 75.5544C31.3913 75.5863 31.3492 75.5031 31.2466 75.4792C31.1452 75.7561 31.1349 76.123 31.021 76.3863C30.7395 76.4148 30.8808 76.0228 30.6426 76.0079ZM31.021 77.0654C31.2956 77.0677 31.1817 77.4586 31.5486 77.3674C31.9623 76.8911 31.0221 76.3099 31.6238 75.7823C31.9246 76.1606 31.7332 77.0324 31.8506 77.5942C31.5098 78.0295 30.6597 77.7173 31.021 77.0654ZM32.0773 72.611C32.1138 73.1386 32.2688 73.8291 32.1526 74.2713C31.7343 74.0365 31.9429 73.1728 31.8506 72.611C31.9269 72.611 32.001 72.611 32.0773 72.611ZM32.2289 76.0079C31.9508 75.8849 31.9486 75.1635 32.0773 74.8764C32.409 74.9732 32.1423 75.6661 32.2289 76.0079ZM32.7565 70.9495C33.2044 71.7893 32.9867 72.7842 32.5298 73.4405C32.213 72.6531 32.2289 71.4623 32.7565 70.9495ZM32.7565 76.5367C32.6551 76.5367 32.5548 76.5367 32.4534 76.5367C32.4192 76.3008 32.5206 76.1994 32.7565 76.2347C32.7565 76.335 32.7565 76.4364 32.7565 76.5367ZM32.6061 75.102C32.3964 74.1676 32.6665 73.5158 32.9833 72.9129C33.7354 73.3995 33.0266 74.6599 32.6061 75.102ZM33.2853 75.5544C32.8933 75.2695 33.3138 74.6781 33.4357 74.4228C33.8243 74.6621 33.3639 75.2855 33.2853 75.5544ZM33.6625 70.6486C33.8163 70.7204 33.8243 70.9381 33.814 71.1774C33.5986 71.166 33.6761 70.8617 33.6625 70.6486ZM34.116 71.1774C34.0613 70.2658 33.8277 69.4818 33.7388 68.7616C34.1856 69.0453 33.8642 70.096 34.418 70.2715C34.377 70.6327 34.4021 71.0589 34.116 71.1774ZM34.7963 68.1564C34.4374 68.0368 34.5718 67.4237 34.4932 67.0237C34.6448 67.3485 34.9342 67.7747 34.7963 68.1564ZM35.0972 65.817C34.7405 65.474 34.4499 63.7965 35.3228 64.3071C35.406 64.715 35.21 65.3657 35.0972 65.817ZM35.5507 63.0228C35.2898 62.9624 35.2601 63.1356 35.022 63.098C34.8978 62.845 34.9969 62.3687 34.8704 62.1168C35.1485 62.1909 34.9308 62.7607 35.2487 62.7972C35.4254 62.4849 35.0733 62.1419 35.0972 61.7396C35.0334 61.3739 35.4641 61.424 35.5496 61.1357C35.7285 60.5294 35.2716 59.8389 35.2476 59.2486C35.3981 59.2486 35.5496 59.2486 35.7 59.2486C36.0658 60.387 35.6544 61.8707 35.5507 63.0228Z" fill="#231003"/>
<path fill-rule="evenodd" clip-rule="evenodd" d="M47.9321 51.17C47.4694 51.1609 47.5287 51.6726 47.1766 51.774C44.1784 50.2402 43.5128 53.3956 42.7983 55.5494C42.0713 57.7339 41.9152 59.7293 41.2884 61.2871C41.0366 64.9063 39.2292 68.2566 39.5517 72.2326C39.6064 72.9049 39.8571 73.6 40.0041 74.3465C40.1523 75.0917 40.0349 75.9715 40.2309 76.6871C40.3961 77.2956 41.122 78.3828 41.6656 78.499C42.7494 78.7304 43.653 77.584 44.1567 76.9891C44.4314 76.6643 44.7949 76.4478 44.9875 76.1584C46.535 73.8268 46.6501 70.0093 48.0062 67.6276C48.0609 66.2738 48.5748 65.377 48.6101 64.0038C49.5457 63.1184 49.3383 61.3452 49.4409 59.9276C49.4956 59.172 49.7155 58.3675 49.6677 57.6621C49.4945 55.1129 49.0443 52.8532 47.7805 51.6224C47.8352 51.4572 48.1349 51.3729 47.9321 51.17ZM45.2131 52.1512C45.1003 51.5393 46.6398 51.6555 46.6478 52.076C45.5174 52.2287 44.9487 52.9443 44.0815 53.3603C44.2536 52.7951 44.4735 51.9005 45.2131 52.1512ZM46.4962 52.5284C45.6233 53.8446 44.714 55.1232 43.4775 56.077C43.906 54.3164 44.657 52.8782 46.4962 52.5284ZM40.9853 66.0436C41.1995 65.5593 42.0508 64.781 42.5716 64.1565C43.6222 62.895 44.6467 61.646 45.6666 60.3811C46.4472 59.4125 46.9373 58.6137 47.7053 57.8137C48.0415 58.216 48.1999 59.1709 48.0825 59.7772C47.7304 59.7259 47.9617 59.0934 47.6301 59.0228C47.3566 59.0763 47.5264 59.572 47.4785 59.8535C45.1242 62.5315 43.0605 65.5 41.0617 68.5347C41.5346 68.586 41.571 67.9661 41.742 67.704C42.3357 66.79 43.1493 65.8111 43.8547 64.8345C44.7857 63.5468 45.6302 62.1144 46.8746 61.2107C46.9156 61.5708 46.9213 61.9697 47.0262 62.2682C45.1493 65.5513 42.6399 68.1997 40.6081 71.3266C40.5044 70.015 40.4235 67.3188 40.9853 66.0436ZM48.3093 61.4375C47.9389 61.1765 47.6814 60.2136 48.0062 59.9287C48.4278 60.1099 48.2546 60.8871 48.3093 61.4375ZM41.2121 71.403C41.2531 71.2366 41.0673 71.2959 41.0605 71.1773C42.7083 68.4959 44.7481 66.2077 46.4962 63.6277C46.5714 63.6277 46.6478 63.6277 46.723 63.6277C46.7002 64.079 46.9692 64.6955 46.6478 64.9861C46.3071 65.1924 46.2068 64.8653 45.8934 64.8345C45.6575 65.0921 45.9994 65.2322 45.9686 65.5149C45.5356 65.5 45.9595 65.8727 45.7419 66.0436C43.9835 68.4629 42.2536 70.9107 40.6081 73.4416C40.3346 72.5026 40.5363 71.7335 41.2121 71.403ZM46.1943 68.3831C45.8137 68.1017 45.931 67.2082 45.9686 66.7217C46.1692 67.1501 46.1988 67.7495 46.1943 68.3831ZM45.4399 68.6099C45.3909 68.0595 45.1196 67.2082 45.5151 66.8744C45.637 66.8527 45.6438 66.9461 45.7407 66.9496C45.645 67.386 46.1179 68.4971 45.4399 68.6099ZM45.5903 69.1387C45.6655 69.1387 45.7419 69.1387 45.8171 69.1387C45.9003 69.4862 46.0085 70.3432 45.7419 70.5734C45.4649 70.2839 45.3282 69.5307 45.5903 69.1387ZM40.9853 76.0832C40.4599 75.5373 40.6947 74.1186 40.9853 73.5169C41.1756 74.2268 41.4878 75.5669 40.9853 76.0832ZM41.3636 77.2922C40.9272 77.1464 41.0446 76.425 41.2884 76.1595C41.5847 76.2416 41.4354 77.0837 41.3636 77.2922ZM42.0428 75.9327C41.6428 75.4325 41.9197 74.7578 42.2696 74.4228C42.6548 74.8775 42.4485 75.6763 42.0428 75.9327ZM41.8172 74.4228C41.8297 73.9818 42.0451 73.7459 42.1944 73.4416C42.2821 73.4291 42.3288 73.4587 42.3459 73.5169C42.3493 73.9989 42.1625 74.2906 41.8172 74.4228ZM42.3459 77.7446C42.1271 77.2797 42.0371 76.531 42.3459 76.0832C42.6513 76.2826 42.8872 77.6364 42.3459 77.7446ZM42.9488 76.9139C42.7642 76.1173 42.6308 74.8752 43.4012 74.6496C43.31 75.4632 43.4171 76.4763 42.9488 76.9139ZM43.6279 74.122C43.7977 74.1778 43.6564 74.5447 43.7032 74.7248C43.155 74.7476 43.5846 74.3533 43.6279 74.122ZM43.5528 76.6883C43.4582 76.2792 43.5117 76.0604 43.5528 75.6308C43.8149 75.8712 44.1203 76.6575 43.5528 76.6883ZM43.7784 72.5357C43.6952 73.2901 43.4775 74.2052 42.7983 74.5732C42.5693 73.1454 43.5903 72.4274 44.0815 71.4782C44.3721 71.7448 44.2786 72.7967 44.0063 72.9881C43.7806 72.987 43.9094 72.6326 43.7784 72.5357ZM44.1567 75.2536C44.0017 74.743 43.694 73.7368 44.0815 73.3664C44.3812 73.6821 44.2308 74.8114 44.1567 75.2536ZM44.3835 69.7426C44.2103 69.7187 44.3003 69.9603 44.1579 69.9683C44.2513 71.3631 43.3294 72.2143 42.6479 73.0645C42.7038 72.5562 42.4405 72.3648 42.4964 71.8565C42.0269 71.9044 42.4633 72.3876 42.3459 72.7625C41.8206 72.767 41.6896 73.1647 41.5152 73.518C40.9853 72.6781 42.4485 71.1454 42.9499 70.4218C43.6211 69.4543 44.1533 68.6395 44.6866 68.0059C44.8086 67.9843 44.8154 68.0777 44.9123 68.0812C44.8359 68.6999 45.0387 68.9518 44.9123 69.6674C44.7037 69.8292 44.5966 69.623 44.3835 69.7426ZM44.8359 70.799C44.837 70.5984 44.8074 70.3683 44.9111 70.2714C44.9863 70.2714 45.0627 70.2714 45.1367 70.2714C45.2541 70.3808 45.204 70.6577 45.212 70.8742C45.0353 70.7637 45.0729 70.7147 44.8359 70.799ZM45.2131 73.3664C45.3738 72.9118 45.1162 72.5072 45.2883 72.0833C45.4387 72.4035 45.7316 73.2308 45.2131 73.3664ZM45.7419 71.9317C45.6689 71.7141 45.5686 71.2548 45.6666 71.101C45.9333 71.1181 46.1669 71.9181 45.7419 71.9317ZM46.2706 71.0258C46.0495 70.3876 46.0837 69.362 46.1954 68.5336C46.3914 69.4349 46.8962 70.2748 46.2706 71.0258ZM47.2518 68.4595C46.8803 68.4002 46.9817 68.7147 46.6478 68.8367C46.3983 68.039 46.5281 66.9849 46.2706 65.892C46.413 65.7325 46.7048 65.7234 46.7994 65.5149C47.123 66.3581 47.4375 67.5478 47.2518 68.4595ZM47.629 66.8732C46.9658 66.0208 47.3019 64.2465 46.7994 63.3246C46.7447 63.1184 46.9498 63.1731 46.9509 63.0226C47.5652 63.6414 47.1823 65.2573 47.8569 65.8157C47.8569 66.2453 47.7281 66.5439 47.629 66.8732ZM48.233 64.0801C47.9048 64.1052 48.0871 63.622 47.931 63.4762C47.6609 63.8203 48.0757 64.4585 47.8558 64.7593C47.5025 64.0175 47.1663 62.6489 47.629 61.9663C47.6199 61.7999 47.3088 61.9344 47.1766 61.8911C47.1367 61.3281 46.9669 60.2387 47.629 60.4563C47.711 61.4067 47.7726 62.3776 48.3845 62.7981C48.413 63.3018 48.2227 63.5901 48.233 64.0801ZM48.6865 61.2871C48.462 61.0193 48.4324 60.462 48.5349 60.078C48.7674 60.0222 48.6808 60.2865 48.9133 60.2296C48.9417 60.6865 48.8392 61.0113 48.6865 61.2871ZM47.9321 52.8315C48.7913 53.7455 48.8289 54.9283 48.9133 56.379C48.372 55.8377 48.5532 54.5739 48.0062 54.0383C47.6449 55.7659 49.3725 57.0969 49.0637 59.0216C48.4791 58.2467 48.274 57.0935 48.0062 56.0018C47.523 56.0485 47.7247 56.9169 47.7805 57.2849C45.5037 59.9162 43.5847 62.9041 41.1369 65.3633C41.1118 64.8847 41.277 64.5975 41.2884 64.1565C43.2417 61.2518 45.261 58.4154 47.3281 55.6257C46.6159 56.0417 46.2079 56.7892 45.7419 57.4376C44.8405 58.698 43.8536 59.9219 42.9488 61.2882C42.5237 61.9298 42.1853 62.7263 41.5141 63.1753C41.6622 62.266 41.8947 61.4421 42.0428 60.5327C43.163 58.8074 44.2023 57.1334 45.4399 55.4742C45.8308 54.95 46.5304 54.5625 46.5715 53.8138C45.6461 54.0702 45.4387 55.0457 44.7595 55.5494C44.7231 55.7876 44.8963 55.8149 44.8348 56.0781C43.9425 56.9978 43.4604 58.3276 42.4941 59.1732C42.9317 56.4291 45.5003 54.599 46.8735 52.5295C47.1424 52.125 47.4922 52.3654 47.9321 52.8315Z" fill="#231003"/>
<path fill-rule="evenodd" clip-rule="evenodd" d="M13.8078 65.0615C13.7805 64.1658 13.8785 63.1288 13.8078 62.2684C13.5605 59.2122 12.5452 56.5012 11.7703 53.9634C11.2757 52.3441 10.6888 50.7589 10.1088 49.5852C9.91849 49.1977 9.31682 48.3431 9.0513 48.1505C8.03594 47.4132 6.80976 48.2587 6.10779 48.6029C5.76592 49.9476 5.73742 51.6056 5.27704 52.8306C5.44342 53.1805 5.83428 52.8375 6.03257 53.1326C6.17843 54.9821 6.89637 56.6379 6.93854 58.3415C7.51174 58.7643 7.34536 59.3911 7.54251 60.1534C8.07696 62.2263 9.31111 65.229 9.35441 67.3258C9.99599 68.324 10.1088 69.8852 10.486 71.1763C10.9065 72.6133 11.6598 73.8554 12.2227 74.9517C12.8985 75.0998 13.4945 75.6662 14.2602 75.4793C15.2334 74.5073 14.9474 73.452 14.789 71.7062C14.5793 69.3907 13.8739 67.1811 13.8078 65.0615ZM13.4295 63.7031C12.8597 61.3454 12.6181 58.2834 11.9948 56.2288C12.8472 58.3165 13.6164 60.8235 13.4295 63.7031ZM7.99492 48.3773C7.8935 48.7237 7.42056 49.0359 7.08895 48.906C7.18923 48.5288 7.55163 48.4137 7.99492 48.3773ZM6.48498 49.1328C6.60577 49.1111 6.61489 49.2046 6.71061 49.2069C6.62172 49.3197 6.64567 49.5453 6.40864 49.51C6.38471 49.3345 6.42116 49.2194 6.48498 49.1328ZM8.7493 49.2832C8.52252 50.2621 8.6194 51.4358 8.44733 52.605C7.93225 52.6335 7.65075 53.1714 7.31458 53.5862C7.20974 52.7976 8.10432 51.9669 7.99492 51.1703C7.18013 51.2113 7.78068 52.6677 6.78698 52.5287C6.73456 51.7287 7.29408 50.9367 7.54251 50.188C6.71062 50.1926 6.91462 51.8734 6.40979 52.4535C5.64172 50.8102 7.1596 48.5596 8.7493 49.2832ZM7.39095 55.5496C7.34992 54.9707 7.78068 54.2357 7.99492 53.6625C8.22283 54.1275 8.02683 55.4482 7.39095 55.5496ZM6.48498 53.8882C6.35849 53.7639 6.4246 53.4449 6.40979 53.209C6.59554 53.1987 6.77329 53.1976 6.86331 53.2842C6.81773 53.5679 6.77215 53.8483 6.48498 53.8882ZM6.86217 55.2476C6.63767 55.2408 6.65933 54.7964 6.93739 54.8693C6.96132 55.0448 6.92484 55.1599 6.86217 55.2476ZM7.08895 56.7564C7.07869 56.5707 7.07641 56.3929 7.16302 56.304C7.23823 56.304 7.31459 56.304 7.3898 56.304C7.37727 56.5433 7.33737 56.7541 7.08895 56.7564ZM8.14533 57.8139C7.85588 57.5325 7.65761 58.149 7.39095 57.8891C7.44793 56.4111 8.34361 55.7718 8.7493 54.6425C8.78576 54.4044 8.40288 54.5856 8.37211 54.4158C8.6684 52.9503 8.90657 51.4267 9.0513 49.8108C9.87635 50.2701 10.2023 51.2273 10.486 52.2267C10.5544 52.4705 10.2399 52.3327 10.184 52.4535C9.63019 54.7166 9.06726 56.9718 7.84336 58.5672C7.57214 58.2036 8.14533 58.1467 8.14533 57.8139ZM8.37211 61.1357C8.13166 61.0297 8.06783 60.534 8.29689 60.3813C8.41882 60.3597 8.42679 60.4531 8.52252 60.4554C8.56126 60.7722 8.48151 60.9682 8.37211 61.1357ZM9.65527 58.9466C9.8923 59.5187 9.41024 60.6583 9.12649 61.2109C8.66952 60.4053 9.48775 59.6247 9.65527 58.9466ZM9.27808 62.6456C9.10145 61.8309 9.58232 61.0434 9.95724 60.5318C9.61195 59.0287 10.8837 57.5017 10.7128 55.9268C10.1658 56.3359 10.372 57.4994 10.0325 58.117C9.30769 58.4999 9.30315 59.603 8.67411 60.0794C8.52597 59.8241 8.62169 59.3272 8.2217 59.325C8.18979 58.966 8.2342 58.6834 8.44844 58.5694C8.66496 58.5808 8.58635 58.8851 8.59889 59.0982C9.10827 58.3575 8.9214 56.8464 9.65642 56.1547C9.64502 54.9924 10.0849 53.6773 10.486 52.6814C11.1755 53.6215 11.0387 54.7007 10.6376 55.7764C11.1219 55.757 10.6547 54.7873 11.1663 54.7952C11.3316 55.6875 11.5766 56.4989 11.7703 57.3627C10.9498 58.3814 10.8302 60.0965 10.486 61.5904C9.71909 61.5767 9.88889 62.5009 9.27808 62.6456ZM10.0325 62.4189C10.4051 62.6764 9.98572 63.939 9.73046 64.306C9.18346 63.7806 9.77492 62.8473 10.0325 62.4189ZM10.184 66.0438C9.76693 65.1321 10.5589 64.1647 10.7128 63.3248C10.7789 63.0331 10.5282 63.057 10.486 62.8724C10.8712 61.1938 11.0148 59.2748 11.7703 57.9655C12.258 58.3746 12.4164 59.693 11.7703 60.0041C11.7407 60.6879 12.0974 60.9842 12.0723 61.6645C12.4256 61.865 12.8301 62.0143 12.6763 62.722C12.437 62.5077 12.2375 62.2548 11.9959 62.0417C11.5914 62.9704 11.4091 64.1225 11.09 65.1367C10.551 65.2017 10.4427 65.6985 10.184 66.0438ZM11.9196 62.8724C12.756 63.5858 12.4985 65.9424 11.7691 66.8745C11.5481 66.895 11.5367 66.7036 11.3168 66.723C10.9293 66.8893 11.0854 67.6004 10.6364 67.7041C10.8951 65.9241 11.5549 64.5453 11.9196 62.8724ZM10.9384 70.9496C10.7903 70.8219 10.7356 70.5986 10.7128 70.3456C10.78 70.2875 10.8826 70.2658 11.0148 70.2715C11.0923 70.3718 11.0171 70.7752 10.9384 70.9496ZM11.2415 68.9873C10.9874 68.2203 11.662 67.7554 11.7703 67.1002C12.0016 67.5423 11.6222 68.6568 11.2415 68.9873ZM11.9196 69.5912C11.7737 68.7149 12.1338 67.1047 12.5236 66.2694C12.9406 66.6728 12.8005 67.5389 12.9007 68.0813C12.4734 68.4824 12.6683 69.5092 11.9196 69.5912ZM13.0523 71.4031C13.213 71.5957 13.1788 71.982 13.2779 72.2339C12.9463 72.1427 12.8107 71.6538 13.0523 71.4031ZM13.6574 67.1754C13.6962 67.7657 13.8796 68.2101 13.8831 68.8368C13.5993 68.5349 12.7948 67.2323 13.6574 67.1754Z" fill="#231003"/>
<path fill-rule="evenodd" clip-rule="evenodd" d="M60.6143 51.9263C60.2098 51.3724 59.8269 50.9485 59.256 50.9451C58.4036 50.9394 57.2172 51.7884 56.4629 52.0015C55.2504 53.9569 54.2384 56.4115 53.745 59.1738C53.6128 59.9168 53.3234 60.588 53.141 61.2888C52.8995 62.2176 52.9257 63.3013 52.6886 64.3839C52.479 65.3411 52.1587 66.2995 52.0094 67.2533C51.8499 68.2675 51.6926 69.3295 51.557 70.3483C51.4078 71.4639 51.0955 72.5066 51.1046 73.4445C51.1149 74.5908 51.4591 75.5492 51.2551 76.7663C52.038 78.2363 53.6937 77.1548 54.4265 76.0859C55.37 74.7105 55.9592 72.7858 56.6156 70.877C56.9175 69.9996 57.3335 69.105 57.6731 68.2356C58.0013 67.3923 58.5084 66.5684 58.8047 65.6681C58.9847 65.1234 58.9619 64.5229 59.1078 64.0078C59.4611 62.7611 60.1847 61.7424 60.391 60.7612C60.5733 59.8917 60.4536 58.8206 60.6929 57.8918C60.8912 57.126 61.2707 56.4924 61.3733 55.8532C61.5066 55.0167 61.7094 53.8145 61.5989 53.2869C61.5123 52.8812 60.9402 52.3695 60.6143 51.9263ZM52.3855 69.2144C52.9211 68.7928 53.2128 68.1284 53.6686 67.6282C54.1461 68.8862 53.6766 69.9358 52.6123 70.346C52.063 71.7272 52.8265 73.963 51.8567 74.8769C51.5753 72.8314 52.2806 71.1243 52.3855 69.2144ZM52.8379 71.5551C52.8379 71.3032 52.8379 71.0525 52.8379 70.7996C53.1695 70.6286 53.304 70.2583 53.5182 69.9688C54.0778 70.493 53.3085 71.3397 52.8379 71.5551ZM53.3667 72.2331C53.2083 72.0952 53.3314 71.5984 53.5923 71.6303C53.8145 71.8901 53.5376 72.1328 53.3667 72.2331ZM52.9895 75.2541C52.7126 75.5253 52.7525 74.8404 52.7627 74.5738C53.0738 74.5646 52.7764 75.1652 52.9895 75.2541ZM52.7627 73.7442C52.4664 73.6507 52.6374 73.0502 52.7627 72.9134C52.9211 72.8815 52.9633 72.9647 53.0647 72.9886C53.0248 73.3009 52.953 73.5823 52.7627 73.7442ZM52.4607 76.9896C52.0436 76.9782 51.5468 76.5634 51.8567 75.7817C53.3427 76.6637 54.2339 75.0113 54.8014 74.0461C54.684 74.7948 53.557 77.0204 52.4607 76.9896ZM53.5935 74.8005C53.5638 74.1658 53.6185 73.6177 53.6686 73.0638C53.9034 72.8656 54.0208 73.2439 54.2726 73.0638C54.7455 72.706 54.4345 71.5642 54.953 71.252C55.0054 70.9716 54.6305 71.1209 54.5746 70.9488C54.406 69.848 54.9974 69.5096 55.4054 68.9854C55.7062 69.5153 55.1364 70.9146 55.7826 71.0993C55.1945 72.4758 54.6293 73.8741 53.5935 74.8005ZM54.349 69.5916C54.145 68.6492 55.0977 68.37 55.4065 67.7045C55.8646 68.5489 54.8322 69.1894 54.349 69.5916ZM54.4994 70.4976C54.4094 70.6856 54.5336 71.0867 54.2726 71.1015C54.2965 70.8486 54.1723 70.4474 54.4994 70.4976ZM54.4242 68.3837C54.2475 68.1843 54.4105 67.8686 54.4242 67.6282C54.3592 67.4652 54.2385 67.3615 53.9718 67.4025C54.4618 66.8066 54.9062 65.7764 55.6321 65.6659C55.8293 67.1724 55.0828 67.7342 54.4242 68.3837ZM56.0093 70.1956C55.8623 69.5369 55.9637 68.631 55.9341 67.8549C56.088 67.978 56.0367 68.3062 56.2372 68.3837C57.2321 68.0407 56.0697 65.9678 57.2184 65.7411C57.2594 66.1285 57.4326 66.3826 57.8212 66.4214C57.1899 67.6521 56.864 69.1882 56.0093 70.1956ZM56.3877 63.7776C56.5096 63.34 56.4116 63.1657 56.2361 62.8717C56.5575 62.7657 56.5916 62.3725 56.9905 62.3429C57.0361 63.0289 56.8674 63.8665 56.3877 63.7776ZM56.9905 64.8351C56.8287 64.8704 56.8469 64.7269 56.8401 64.6095C56.6315 64.9559 56.5632 65.4402 56.4617 65.8926C56.2202 65.3434 56.2806 64.2357 56.8401 63.9292C57.0885 64.0146 57.1181 64.614 56.9905 64.8351ZM58.1996 65.3639C57.6936 65.0642 57.9021 65.9154 57.5192 65.9678C57.2776 65.3833 57.4828 65.0779 57.746 64.6847C57.7437 64.4591 57.3893 64.5867 57.2936 64.4579C56.9939 62.9264 58.1243 62.8215 58.5015 61.9657C57.8714 61.6649 57.836 62.6073 57.2936 62.646C57.2936 61.772 57.4383 61.4541 57.2936 60.8342C56.6076 63.2192 54.145 63.8266 53.2915 66.0431C53.549 66.3815 54.0721 66.067 54.1211 65.7399C54.1758 65.5348 53.7667 65.7946 53.8191 65.5895C54.5313 64.7656 55.1205 63.8198 56.0834 63.2477C56.1051 63.5771 55.7495 63.9713 56.0834 64.1548C55.0111 65.7992 53.7268 67.2327 52.4596 68.6845C52.9302 64.0978 53.916 60.0251 55.1011 56.1529C55.3153 56.0902 55.2971 56.2588 55.4783 56.2281C56.7067 55.215 57.1774 53.4476 58.8001 52.8311C58.7101 53.3461 58.285 53.786 57.9705 54.1894C57.003 55.427 55.6709 56.6531 55.0259 58.2656C55.092 58.4217 55.5512 58.3454 55.6298 58.2656C55.6538 58.0662 55.525 58.0172 55.3278 58.04C56.3386 56.2816 57.7814 54.9575 58.9517 53.3598C59.7972 54.2658 59.4269 56.3956 58.1973 56.5301C57.1671 58.5949 55.1148 59.6388 54.1951 61.8153C55.525 60.2245 56.7341 58.5152 58.3466 57.2092C58.2907 57.7186 58.4697 57.9932 58.4218 58.4935C57.272 59.8086 56.0241 61.0279 55.1 62.5697C56.3455 61.5486 57.1831 59.7219 58.4981 59.0223C58.7295 61.1703 58.9768 63.4745 58.1996 65.3639ZM59.0292 61.1361C58.824 60.4057 58.6246 58.963 58.8776 58.2667C59.33 58.7795 59.2514 60.4307 59.0292 61.1361ZM59.632 61.5133C59.1363 61.0347 59.8269 60.0718 59.8588 59.4006C60.0753 59.8017 59.9043 61.0974 59.632 61.5133ZM59.4064 59.3242C59.0223 58.1744 59.4565 57.4235 60.0867 56.9084C59.4622 56.8469 59.1295 57.7061 58.652 58.0411C58.6417 57.5978 58.4754 57.3106 58.5004 56.832C58.8149 56.5187 59.052 56.1255 59.4064 55.8509C59.5716 55.8623 59.5693 56.0412 59.5579 56.2292C59.64 55.8178 59.8121 55.2868 60.1608 54.9449C60.3385 54.9689 60.3294 55.1785 60.4639 55.2481C60.4605 56.9551 60.0115 58.2189 59.4064 59.3242ZM59.632 54.4173C60.0559 54.3592 60.163 55.1113 59.7084 55.0976C59.5819 54.9711 59.6491 54.6543 59.632 54.4173ZM60.8411 55.6252C60.7579 54.3843 58.93 53.9022 59.5579 52.6806C59.1568 52.6271 59.0121 52.6351 58.7272 52.3787C57.2845 53.1513 56.7466 54.8264 55.3301 55.6252C55.2435 54.9164 55.8885 54.3387 56.1597 53.7381C56.3854 53.239 56.3637 52.5314 57.1409 52.5291C57.4623 51.6436 58.5642 51.5365 59.632 51.3975C60.7112 52.3547 61.7026 53.5968 60.8411 55.6252Z" fill="#231003"/>
<path fill-rule="evenodd" clip-rule="evenodd" d="M23.697 58.3432C23.6138 57.0965 23.4907 55.6607 23.395 54.3423C23.2947 52.9829 23.0953 51.3374 22.7147 50.6423C22.4001 50.0668 21.207 49.1746 20.374 49.284C19.7575 49.366 17.9729 50.9796 17.7325 51.4741C17.3017 52.355 17.2425 54.2751 17.2037 55.7017C17.1604 57.2959 17.1285 58.9744 17.1285 60.6085C17.1285 63.7069 17.0693 67.7545 17.5057 70.1964C17.6812 71.1787 18.1564 72.4219 18.4869 73.5922C19.027 75.5032 19.8828 78.074 21.9603 77.0655C21.9626 76.2484 22.7785 75.6103 23.0167 74.9528C23.2845 74.2155 23.2822 73.0886 23.395 72.0835C23.5044 71.0955 23.7881 70.0358 23.8474 69.139C23.9556 67.53 23.4816 66.0087 23.6206 64.459C23.6503 64.1353 23.8713 63.7866 23.9237 63.4015C24.0947 62.1321 23.8086 61.1054 23.697 60.155C23.6309 59.5852 23.7368 58.9448 23.697 58.3432ZM18.488 51.171C18.5758 51.1585 18.6225 51.1881 18.6396 51.2462C18.3501 52.5168 18.4322 54.16 17.8088 55.0967C17.7678 55.4397 18.2111 55.2984 18.186 55.6254C18.0367 57.7233 18.7467 59.8462 17.5057 60.8342C17.6003 57.6161 17.1855 53.5936 18.488 51.171ZM19.092 73.4418C18.6157 73.2048 18.7 72.6191 18.5632 72.1587C18.3581 71.467 18.0082 70.7366 17.884 69.9685C17.5102 67.6599 17.7461 64.974 17.5809 62.344C17.7313 62.017 18.0983 61.9053 18.1849 61.5133C18.0835 61.2808 17.8487 61.6546 17.7313 61.4381C17.859 61.0131 18.0265 60.6256 18.1849 60.2302C18.3057 60.2086 18.3148 60.302 18.4105 60.3054C18.4162 61.1316 18.537 61.8403 18.4869 62.7212C17.3416 63.912 18.4492 65.7159 17.9581 67.2508C17.9421 67.6189 18.3148 67.5995 18.4105 67.8547C18.2681 69.0626 18.7307 70.0996 18.7888 71.0249C18.798 71.1753 18.6806 71.4032 18.7137 71.5536C18.847 72.1769 19.451 72.7205 19.092 73.4418ZM18.2624 64.3063C18.2635 64.1057 18.2339 63.8755 18.3376 63.7775C18.5644 63.7821 18.5712 64.3952 18.2624 64.3063ZM18.5632 57.2857C18.7638 57.2868 18.994 57.2583 19.092 57.3609C19.0418 57.7381 18.8641 57.9888 18.7148 58.2668C18.5256 58.0662 18.6145 57.7529 18.5632 57.2857ZM19.4692 72.0072C19.3586 71.5776 19.4532 71.3428 19.4692 70.8745C19.8133 70.8984 19.8133 71.9844 19.4692 72.0072ZM19.8464 68.7618C19.1136 66.1329 20.823 64.6276 21.4326 62.4956C21.5079 62.4956 21.5842 62.4956 21.6583 62.4956C22.0697 63.4516 21.6059 64.0009 21.5079 64.9114C21.3107 65.1153 21.2799 64.8191 21.0555 64.8362C21.2458 65.7808 20.9107 66.6047 20.603 67.4035C20.4059 67.9094 20.1814 68.4712 19.8464 68.7618ZM21.1307 68.3835C20.3592 67.9881 20.8982 67.0423 21.2047 66.4964C21.7563 66.9534 21.3609 67.8661 21.1307 68.3835ZM21.2059 70.8745C20.954 70.7503 20.9586 70.3674 20.9039 70.0449C21.2036 70.1235 21.1979 70.5053 21.2059 70.8745ZM20.3751 72.9883C19.9637 72.2066 20.113 71.214 20.5267 70.5725C20.946 71.1901 20.7512 72.4994 20.3751 72.9883ZM21.5079 68.2331C22.0309 68.5806 21.8748 69.5127 21.5831 69.9685C20.962 69.7065 21.2594 68.6661 21.5079 68.2331ZM21.9614 69.9685C22.3808 70.3423 22.3261 71.3907 21.9614 71.7804C21.5557 71.4271 21.5648 70.3172 21.9614 69.9685ZM22.113 68.2331C21.9967 67.7852 21.7551 67.318 22.0378 66.8747C22.2497 67.1471 22.6862 68.0781 22.113 68.2331ZM22.187 65.0618C21.9887 64.9877 21.7597 64.6971 21.9614 64.4578C22.2429 64.4533 22.1779 64.794 22.187 65.0618ZM21.8098 66.3449C21.4372 66.3152 21.6343 65.7159 21.5842 65.3637C21.9124 65.4287 22.0662 66.158 21.8098 66.3449ZM20.2999 68.7618C20.7375 69.2301 20.5107 70.4426 19.9979 70.6488C19.7974 69.8865 20.0504 69.2837 20.2999 68.7618ZM20.1495 76.1596C20.1586 76.024 20.0572 76 20.0743 75.8576C20.1358 75.7915 20.2817 75.812 20.2999 75.706C20.57 75.7516 20.4013 76.1892 20.1495 76.1596ZM20.5267 74.8765C20.2179 74.7272 20.4082 74.0161 20.5267 73.819C20.7318 73.8646 20.5939 74.6269 20.5267 74.8765ZM20.7535 72.9131C21.0589 73.1603 20.9472 73.8258 20.9791 74.3477C20.8332 73.9238 20.6748 73.3393 20.7535 72.9131ZM20.9039 76.7635C20.823 76.4114 21.1295 76.196 21.3563 76.3863C21.3381 76.6439 21.1956 76.7783 20.9039 76.7635ZM21.2811 71.4784C21.6606 71.6653 21.8497 72.6327 21.5842 72.9883C21.3677 72.6168 21.2127 71.8966 21.2811 71.4784ZM21.6583 75.0269C21.6571 74.2577 21.4805 73.6549 21.8851 73.215C22.0195 73.3324 22.1813 73.4236 22.3375 73.5182C22.2714 74.1791 22.0184 74.6554 21.6583 75.0269ZM22.7158 72.4607C22.4811 72.5028 22.3386 72.6373 22.2634 72.8379C21.8566 72.4846 22.407 71.8385 22.4902 71.4795C22.9471 71.5798 22.6885 72.0311 22.7158 72.4607ZM22.4138 68.7618C22.7146 69.0649 22.6987 69.6837 22.791 70.1964C22.2816 70.111 22.1585 69.1447 22.4138 68.7618ZM23.0178 69.0626C22.7511 68.9532 22.6326 68.3755 22.7921 68.0815C22.9141 68.0599 22.922 68.1533 23.0178 68.1567C23.2115 68.4063 23.0075 68.7618 23.0178 69.0626ZM23.1682 67.1756C22.2942 66.2195 23.4725 64.3473 22.2622 63.5519C22.2338 63.2716 22.5688 63.3536 22.489 63.0232C21.7882 62.7622 21.6754 61.5623 22.1118 60.9846C22.5563 61.1692 22.4309 61.9224 22.7147 62.2688C22.8127 62.3725 23.0428 62.3429 23.2434 62.3429C23.2878 64.0225 23.1921 65.5632 23.1682 67.1756ZM22.791 59.853C22.5209 59.8086 22.7887 60.3043 22.489 60.2302C22.2577 59.8325 22.4252 59.0348 21.9603 58.8719C21.7255 59.3596 22.0412 59.9465 22.1118 60.3818C21.2116 62.1993 20.4105 64.116 19.6207 66.044C19.435 66.0338 19.2572 66.0315 19.1683 66.1181C18.9267 66.4053 19.3461 67.3534 18.8652 67.4024C18.6738 65.4196 19.2105 64.4305 19.8464 63.0232C20.3842 61.8381 20.774 60.874 21.4326 60.0786C21.1546 59.3721 21.591 58.8104 21.6583 58.1916C22.0298 58.0469 21.8611 58.4434 22.1118 58.4184C22.2953 58.1791 21.9944 57.7836 21.8087 57.6629C21.2389 58.252 21.0406 59.2092 20.9027 60.2302C20.1164 61.4073 19.7108 62.9639 19.0156 64.2311C18.3957 61.821 20.0504 60.3875 20.4503 58.4947C20.5472 58.3887 20.807 58.448 20.9039 58.3432C21.0053 57.9193 21.0361 57.509 21.2059 57.0601C21.452 56.4117 22.3865 55.6801 21.6583 55.173C21.4577 55.777 21.1204 56.2442 21.0555 56.9848C20.8173 57.0737 20.6361 57.2196 20.4515 57.362C20.0811 58.8787 19.6766 60.3624 18.8652 61.4381C18.4139 59.2012 19.1421 57.7631 19.8464 56.1541C20.3877 54.9189 21.1124 53.7885 21.3563 52.6057C20.1985 53.36 20.5107 55.5844 19.1672 56.1541C19.5239 54.8665 19.7131 53.4683 20.1484 52.3037C20.268 51.9812 20.6862 51.718 20.4503 51.3226C19.8441 51.9618 19.5273 53.0808 19.2424 54.1155C19.0327 54.8745 19.0999 55.7849 18.5621 56.3046C18.4937 54.6762 18.6339 53.2552 19.3165 52.38C19.3507 52.1692 18.9062 52.4393 18.9393 52.2285C19.0589 51.5687 18.9951 50.7243 19.77 50.7186C19.77 50.5169 19.77 50.3152 19.77 50.1147C22.3306 48.6675 22.9346 52.4906 22.9403 54.5691C21.9842 53.5879 22.2246 51.4092 21.354 50.3414C21.0007 50.2229 20.186 49.725 19.9957 50.3414C20.3911 50.4508 20.8765 50.4656 21.1284 50.7186C21.4782 52.3424 22.4503 54.0437 22.864 55.7758C22.8959 55.9114 22.9209 56.1587 22.9391 56.3046C23.1317 57.8178 23.281 59.2616 23.3164 60.9105C22.9073 60.7931 23.044 60.1288 22.791 59.853Z" fill="#231003"/>
</svg>
