<svg width="92" height="73" viewBox="0 0 92 73" fill="none" xmlns="http://www.w3.org/2000/svg">
<path fill-rule="evenodd" clip-rule="evenodd" d="M83.2173 21.136C72.7783 21.932 62.8953 23.825 52.6083 25.574C41.4793 27.4659 30.5634 30.1679 19.4294 31.9769C16.7044 32.4199 14.0574 32.7899 11.2934 32.8659C9.53737 32.9139 4.49637 32.2239 3.25437 33.6528C2.18937 34.8788 2.45436 37.9208 2.34436 39.3037C2.08836 42.5197 1.90437 45.7407 1.62137 48.9526C1.22337 53.5135 0.838369 57.9425 1.17237 62.4644C1.58637 68.0713 8.81836 66.5713 12.5534 66.0563C22.9554 64.6184 33.5464 63.5294 44.0084 62.3014C55.2923 60.9764 66.4963 59.6674 77.6543 57.4655C81.2193 56.7625 84.7783 57.4685 85.4943 53.7395C86.4633 48.6896 86.4763 44.4377 86.3713 39.2938C86.3333 35.7958 87.1803 32.2839 87.6993 28.8419C87.9723 27.0339 88.3923 25.053 88.2373 23.213C87.9793 20.1591 85.4483 20.966 83.2173 21.136Z" fill="#FFCE76"/>
<path fill-rule="evenodd" clip-rule="evenodd" d="M83.6614 51.2388C79.2884 52.1008 74.8484 52.5398 70.5114 53.5858C61.8724 55.6687 53.2204 57.0117 44.4234 58.2307C35.6284 59.4496 26.9094 61.1656 18.1154 62.3656C13.6984 62.9676 9.23939 63.3755 4.77839 63.2765C2.28939 63.2205 2.20239 63.5905 2.08739 67.4384C1.97139 71.2864 4.46739 71.9683 6.89239 71.8453C11.0154 71.6363 15.1134 71.1134 19.1954 70.5114C26.7824 69.3924 34.4364 69.2634 42.0094 68.2114C50.7394 66.9985 59.6634 66.4025 68.3334 64.8755C72.5974 64.1245 76.9084 63.2875 81.0854 62.1446C84.5054 61.2066 85.4074 60.2216 85.0984 56.5627C85.0264 55.7247 86.1554 50.7458 83.6614 51.2388Z" fill="#592D0F"/>
<path fill-rule="evenodd" clip-rule="evenodd" d="M84.0453 17.0623C79.7993 18.1063 75.6143 19.2834 71.2723 19.8774C62.5123 21.0774 53.6353 21.0754 44.8913 22.4395C37.2453 23.6325 29.6613 25.2346 22.0283 26.5176C18.4713 27.1176 1.51634 27.6646 1.88734 32.0587C2.29534 36.8789 16.9733 32.4088 20.3443 31.8507C28.9143 30.4317 37.4303 28.5586 46.0203 27.2866C53.7813 26.1386 61.6403 25.9486 69.4353 25.1306C72.9073 24.7655 89.7854 23.1895 89.3984 18.6164C89.1164 15.2833 86.3543 16.4943 84.0453 17.0623Z" fill="#592D0F"/>
<path fill-rule="evenodd" clip-rule="evenodd" d="M90.7773 19.5854C90.7733 14.0584 81.3993 9.7164 75.8573 7.5944C70.5733 5.57241 65.4133 4.43541 60.2743 2.05041C59.4013 1.64641 50.0063 4.93241 48.2203 5.56841C38.0223 9.20241 28.3373 14.2404 18.5733 18.8884C14.0873 21.0254 8.84833 24.1904 4.34634 26.1554C0.0513367 28.0294 1.28033 30.8164 0.643334 34.7764C0.0773339 38.3024 2.07933 40.1544 2.58133 35.3004C2.66733 34.4634 2.79233 32.3434 3.19633 31.6154C4.32933 29.5824 12.0983 26.0674 11.2963 30.5054C10.6793 33.9024 12.8453 35.1014 13.9193 33.2724C14.2393 32.7274 13.8623 32.3334 14.0383 31.1234C14.8093 25.8274 22.4763 28.1404 26.9053 28.1764C32.7533 28.2224 39.4443 21.8264 45.2803 24.5264C48.5073 26.0224 43.2553 33.1124 45.9113 35.7344C48.2643 38.0574 50.2313 36.2794 50.6643 33.2174C51.0303 30.6274 48.8483 29.3274 50.7833 26.3894C52.7633 23.3824 55.2143 22.4344 58.5463 23.1354C60.6483 23.5764 62.0323 22.9914 63.5633 26.2114C65.0933 29.4304 63.2713 36.4144 65.5523 38.8114C69.8483 43.3254 73.6193 34.2904 69.5933 34.1514C68.5703 34.1164 66.9233 32.4544 67.2403 28.5054C67.5293 24.8834 69.1783 21.8694 72.6753 20.4914C77.2133 18.7044 83.9243 18.8744 85.8193 20.4674C89.3353 23.4214 85.0573 32.7754 85.6723 36.8864C86.3703 41.5684 93.6893 38.0614 91.2463 33.1374C88.9113 28.4334 90.7913 25.1424 90.7773 19.5854Z" fill="#FF967A"/>
<path fill-rule="evenodd" clip-rule="evenodd" d="M62.0674 2.64504C61.2924 2.05104 60.4244 1.59404 59.5644 1.13904C58.8404 0.75604 58.0864 0.137039 57.3864 0.93204C57.1934 1.16204 57.0524 1.41904 56.9654 1.70704C56.3834 1.60504 55.7894 1.58304 55.2004 1.62604C51.8144 1.87404 47.6714 4.23804 49.1584 8.15104C50.7284 12.279 55.5384 11.63 58.9674 11.151C60.5934 10.924 62.6884 10.838 63.7314 9.36404C64.8074 7.84404 65.0024 5.38304 63.9324 3.83604C63.4244 3.10104 62.6944 3.12304 62.0674 2.64504Z" fill="white"/>
<path fill-rule="evenodd" clip-rule="evenodd" d="M77.2724 4.89723C76.4484 4.64422 75.6004 4.48422 74.7524 4.33522C74.4284 4.27222 74.1254 4.32622 73.8484 4.49923C73.3274 4.84024 73.0144 4.84223 72.3714 4.94624C68.5334 5.56726 64.8774 8.75636 67.3504 12.7775C70.1494 20.9108 86.6235 14.0455 80.9674 7.65133C79.8154 6.34729 79.0204 5.43525 77.2724 4.89723Z" fill="white"/>
<path fill-rule="evenodd" clip-rule="evenodd" d="M70.1413 17.5426C70.2023 18.2565 71.1163 18.0955 71.0603 17.4396C71.0023 16.7526 70.0843 16.8756 70.1413 17.5426Z" fill="white"/>
<path fill-rule="evenodd" clip-rule="evenodd" d="M72.8623 17.2826C72.9213 17.9661 73.8383 17.898 73.7803 17.2146C73.7233 16.5542 72.8033 16.5872 72.8623 17.2826Z" fill="white"/>
<path fill-rule="evenodd" clip-rule="evenodd" d="M78.8794 16.679C78.4834 17.6971 80.0574 17.6251 79.8114 16.664C79.6984 16.221 79.0264 16.303 78.8794 16.679Z" fill="white"/>
<path fill-rule="evenodd" clip-rule="evenodd" d="M82.8994 15.4747C82.9604 16.1908 83.9094 16.0398 83.8524 15.3737C83.7934 14.6816 82.8404 14.7966 82.8994 15.4747Z" fill="white"/>
<path fill-rule="evenodd" clip-rule="evenodd" d="M66.2803 17.5043C66.5283 18.0482 67.2084 17.3803 67.1784 17.0193C67.1024 16.1244 65.9423 16.7653 66.2803 17.5043Z" fill="white"/>
<path fill-rule="evenodd" clip-rule="evenodd" d="M65.1744 15.2823C65.3504 16.2622 66.7353 15.1353 66.6923 14.6294C66.6103 13.6444 64.9894 14.2374 65.1744 15.2823Z" fill="white"/>
<path fill-rule="evenodd" clip-rule="evenodd" d="M62.4324 11.9765C62.4954 12.7214 63.6524 12.5644 63.5924 11.8535C63.5294 11.1085 62.3724 11.2655 62.4324 11.9765Z" fill="white"/>
<path fill-rule="evenodd" clip-rule="evenodd" d="M64.8403 12.0097C64.8583 12.9146 65.9343 12.6526 65.9943 11.9137C66.0703 10.9958 64.8263 11.1718 64.8403 12.0097Z" fill="white"/>
<path fill-rule="evenodd" clip-rule="evenodd" d="M62.8023 14.5676C62.8603 15.2411 63.8134 15.1971 63.7534 14.5006C63.6974 13.8311 62.7443 13.875 62.8023 14.5676Z" fill="white"/>
<path fill-rule="evenodd" clip-rule="evenodd" d="M60.0964 13.3477C59.5303 14.1657 61.1384 14.7748 61.0534 13.7687C61.0264 13.4487 60.3584 12.9676 60.0964 13.3477Z" fill="white"/>
<path fill-rule="evenodd" clip-rule="evenodd" d="M63.9073 9.45726C63.8003 10.6918 65.3143 10.0335 65.0843 9.13213C64.9133 8.46386 63.9503 8.96206 63.9073 9.45726Z" fill="white"/>
<path fill-rule="evenodd" clip-rule="evenodd" d="M47.7963 10.1693C48.4384 10.8122 49.1084 9.57947 48.8334 9.07758C48.0943 7.72689 47.0463 9.4175 47.7963 10.1693Z" fill="white"/>
<path fill-rule="evenodd" clip-rule="evenodd" d="M46.8734 8.23096C47.0364 8.87014 48.0294 8.48803 47.9804 7.90587C47.9114 7.06663 46.6774 7.46274 46.8734 8.23096Z" fill="white"/>
<path fill-rule="evenodd" clip-rule="evenodd" d="M46.9613 6.73439C47.0343 7.60247 48.2524 7.13143 48.1974 6.47837C48.1233 5.6103 46.9063 6.08134 46.9613 6.73439Z" fill="white"/>
<path fill-rule="evenodd" clip-rule="evenodd" d="M45.8424 7.27152C43.3244 6.67855 45.5574 9.75938 46.0304 8.13347C46.1904 7.88548 46.1214 7.33651 45.8424 7.27152Z" fill="white"/>
<path fill-rule="evenodd" clip-rule="evenodd" d="M56.4923 13.4968C49.3233 11.1127 43.0582 10.7557 36.0132 13.4938C33.5682 14.4429 29.9503 15.5979 28.1723 17.628C26.9703 19.001 27.5583 23.1191 31.0913 22.5351C32.8213 21.9941 34.4473 21.6491 35.9453 21.249C39.3253 20.6 55.3542 16.8449 58.8492 16.4359C60.9502 16.1889 60.3333 14.7739 56.4923 13.4968Z" fill="#8CC63F"/>
<path fill-rule="evenodd" clip-rule="evenodd" d="M42.6663 15.5396C41.2453 15.7106 38.9574 15.9906 38.5874 17.6545C38.1214 19.7505 40.5814 19.9905 42.0473 19.8675C43.0593 19.7825 44.0613 19.5965 45.0403 19.3305C45.6953 19.1525 47.6543 18.8345 47.9693 18.2425C48.3653 17.8336 48.1293 16.8476 47.7803 16.5356C46.4763 15.3746 44.3623 15.3356 42.6663 15.5396Z" fill="#FFCE76"/>
<path fill-rule="evenodd" clip-rule="evenodd" d="M65.2963 7.28764C66.0313 7.38464 66.3733 7.04263 66.4773 6.43263C66.0833 5.72063 64.9713 6.51464 65.2963 7.28764Z" fill="#231003"/>
<path fill-rule="evenodd" clip-rule="evenodd" d="M46.7333 8.66735C47.6054 8.76734 47.9604 8.28838 48.2704 7.76141C47.8894 6.93447 45.8363 7.8224 46.7333 8.66735ZM46.9674 8.25539C46.8954 7.77642 47.4494 7.67542 47.7684 7.87541C47.7394 8.26738 47.3664 8.27639 46.9674 8.25539Z" fill="#231003"/>
<path fill-rule="evenodd" clip-rule="evenodd" d="M62.6024 11.1756C60.9304 12.6855 63.9504 13.4265 63.9134 11.8156C63.8994 11.2616 63.3384 11.0656 62.6024 11.1756ZM62.5474 12.1645C62.5044 11.9176 62.6424 11.8715 62.7114 11.7496C62.8594 11.8226 62.7804 12.2675 62.5474 12.1645ZM62.9634 12.3295C62.9484 12.0145 63.0414 11.8176 63.1434 11.6316C63.2134 11.6356 63.2854 11.6396 63.3554 11.6436C63.5404 11.9606 63.3133 12.3685 62.9634 12.3295Z" fill="#231003"/>
<path fill-rule="evenodd" clip-rule="evenodd" d="M82.6254 14.1252C83.3034 14.0823 83.7484 13.7803 83.6854 12.9096C83.0184 12.4058 82.2134 13.4435 82.6254 14.1252Z" fill="#231003"/>
<path fill-rule="evenodd" clip-rule="evenodd" d="M58.7704 13.8683C57.1984 13.4673 55.4574 12.3963 53.4114 12.1543C51.4544 11.9243 49.3684 11.5063 47.2824 11.5323C39.7014 11.6293 32.9094 13.6823 28.4804 17.2212C28.0104 17.5962 27.2994 18.3682 27.1864 18.8492C26.5534 21.5112 28.5124 22.5182 30.1294 23.2622C38.4494 20.8882 48.9284 18.3312 58.1824 16.8113C58.9504 16.6843 60.2214 16.8123 60.4114 16.2263C60.6704 15.4123 58.6664 14.5643 58.7704 13.8683ZM48.9574 11.9783C48.8734 12.3533 48.1534 12.1263 47.9654 11.9953C48.1654 11.8423 48.6474 12.0073 48.9574 11.9783ZM27.7504 20.1542C28.3574 20.9302 29.2894 21.4182 29.6064 22.4532C28.7524 22.1632 27.7744 21.4122 27.7504 20.1542ZM31.0904 22.5352C31.5224 22.1942 32.0704 21.9812 32.8204 21.9942C32.4694 22.3842 31.6624 22.6402 31.0904 22.5352ZM35.6244 21.2282C35.8964 20.9822 36.4714 21.0742 36.8444 20.9412C36.6754 21.2672 35.8594 21.2192 35.6244 21.2282ZM31.2154 21.5502C33.2224 20.5932 36.3244 20.3532 38.7504 19.7712C38.7814 19.7642 39.1394 19.6402 39.1624 20.0072C36.6184 20.6372 33.7834 20.9452 31.2154 21.5502ZM38.7354 17.5042C39.1574 16.1913 43.1414 15.4483 45.3534 15.6743C46.4194 15.7833 47.5904 16.6102 47.8754 17.4432C45.6104 17.8042 43.0344 18.7972 40.7714 19.1042C39.7064 19.2492 38.2074 19.1462 38.7354 17.5042ZM39.6574 20.0352C39.7584 19.2212 40.6284 19.4912 41.1094 19.4062C42.1244 19.2282 43.2924 18.8122 44.4874 18.5312C45.7814 18.2273 47.1064 18.1642 48.2104 17.8162C48.2674 17.8332 48.2764 17.8912 48.3474 17.8942C45.9634 19.0982 42.4404 19.5042 39.6574 20.0352ZM38.3194 17.3393C38.0264 18.1403 38.5104 18.6302 38.7004 19.4142C36.5004 19.7162 33.9034 20.4642 31.6754 20.9372C30.8104 21.1222 29.8454 21.3012 29.1244 20.9382C27.3964 17.5403 31.6654 15.6483 34.4504 14.2923C37.7634 12.6783 42.1964 12.2233 46.6084 12.2023C47.3194 12.1983 47.9264 12.4413 48.5774 12.4533C50.7384 12.4903 53.5224 12.4103 55.4824 13.1183C56.0844 13.3363 56.6804 13.8943 57.3584 13.7893C57.9254 14.3103 58.8014 14.5543 59.0414 15.3693C55.3884 15.8613 51.9464 16.5913 48.5874 17.4112C47.9164 14.4153 39.1864 14.9693 38.3194 17.3393ZM58.7114 16.2023C55.6744 16.4773 52.0164 17.6262 49.1354 17.7262C52.2864 16.6723 55.8724 16.1043 59.6564 15.7583C59.7574 15.7573 59.8574 15.7573 59.8644 15.8403C59.9524 16.3773 59.1884 16.1593 58.7114 16.2023Z" fill="#231003"/>
<path fill-rule="evenodd" clip-rule="evenodd" d="M60.0173 14.3622C63.0903 14.2192 58.8973 11.4489 60.0173 14.3622V14.3622ZM60.7503 13.9073C60.6133 14.0583 60.3853 14.0533 60.1823 13.9463C59.9193 13.2015 60.8893 13.0395 60.7503 13.9073Z" fill="#231003"/>
<path fill-rule="evenodd" clip-rule="evenodd" d="M82.8733 16.052C83.6303 16.1629 84.1583 15.8182 84.1213 15.2716C84.0403 14.1245 82.1163 14.9908 82.8733 16.052ZM83.1843 15.5744C83.1883 15.5034 83.1923 15.4325 83.1963 15.3626C83.2913 15.2706 83.5343 15.2846 83.6193 15.3855C83.5513 15.5344 83.4303 15.6244 83.1843 15.5744Z" fill="#231003"/>
<path fill-rule="evenodd" clip-rule="evenodd" d="M62.6774 14.935C62.8504 15.026 62.8984 15.2291 63.1564 15.2441C63.6384 14.981 64.1794 14.7869 64.1484 13.9525C63.6534 13.3492 62.7274 14.1246 62.6774 14.935ZM63.1094 14.8169C63.0744 14.4277 63.2484 14.2717 63.6304 14.3497C63.5884 14.6539 63.4154 14.8089 63.1094 14.8169Z" fill="#231003"/>
<path fill-rule="evenodd" clip-rule="evenodd" d="M65.7764 13.9722C65.1124 14.1802 64.8384 15.5061 65.6824 15.6661C67.0594 15.9281 67.1364 13.5462 65.7764 13.9722ZM65.6354 15.2401C65.4794 14.8951 65.7194 14.6031 65.6194 14.2472C65.9594 14.2562 66.2074 14.3482 66.3844 14.5021C66.5124 14.9721 66.1814 15.3021 65.6354 15.2401Z" fill="#231003"/>
<path fill-rule="evenodd" clip-rule="evenodd" d="M81.1005 14.8217C80.9735 14.8347 80.2534 15.2525 80.2764 15.6253C80.3584 16.9627 82.4735 14.6798 81.1005 14.8217Z" fill="#231003"/>
<path fill-rule="evenodd" clip-rule="evenodd" d="M42.9134 14.9737C43.6344 15.0527 43.5444 14.2295 43.8275 13.8204C43.1804 12.7651 42.3664 14.2005 42.9134 14.9737Z" fill="#231003"/>
<path fill-rule="evenodd" clip-rule="evenodd" d="M46.4404 15.2396C47.0864 15.2366 47.3224 14.7226 47.8794 14.8236C48.2214 13.1545 46.1724 14.1406 46.4404 15.2396Z" fill="#231003"/>
<path fill-rule="evenodd" clip-rule="evenodd" d="M44.7454 15.1455C45.3784 15.1285 45.3864 14.4114 45.9264 14.2904C45.6024 13.2713 44.3004 14.4044 44.7454 15.1455Z" fill="#231003"/>
<path fill-rule="evenodd" clip-rule="evenodd" d="M40.6144 14.2795C40.6614 14.6175 40.6204 15.0344 40.6964 15.3464C40.8684 15.3264 40.8424 15.4844 41.0464 15.4364C41.3594 15.2054 41.5994 14.4115 41.2614 14.1025C40.9304 14.0335 40.7914 14.1775 40.6144 14.2795Z" fill="#231003"/>
<path fill-rule="evenodd" clip-rule="evenodd" d="M48.1226 15.5447C48.7325 15.8147 49.5245 15.1566 50.0725 14.8736C49.5785 14.1754 48.3916 15.0206 48.1226 15.5447Z" fill="#231003"/>
<path fill-rule="evenodd" clip-rule="evenodd" d="M78.6254 17.3043C78.7014 17.4134 78.7914 17.5134 78.8914 17.6024C79.4794 17.5914 80.4574 17.1503 80.2954 16.5462C80.1204 15.884 78.4594 16.2861 78.6254 17.3043ZM79.0614 17.1163C79.0704 16.7152 79.5384 16.6392 79.7904 16.7312C79.6614 16.9873 79.4714 17.1743 79.0614 17.1163Z" fill="#231003"/>
<path fill-rule="evenodd" clip-rule="evenodd" d="M38.3193 14.7894C38.6153 15.0835 38.6613 15.6027 39.2644 15.6207C39.7904 15.0765 38.6233 13.799 38.3193 14.7894Z" fill="#231003"/>
<path fill-rule="evenodd" clip-rule="evenodd" d="M66.6214 17.9143C67.0744 17.7963 67.3994 17.5344 67.5184 17.0434C67.0904 15.7876 65.3873 17.3144 66.6214 17.9143ZM66.5814 17.3464C66.5784 17.1074 66.8644 16.9954 67.0174 17.1584C66.9654 17.3344 66.7414 17.5154 66.5814 17.3464Z" fill="#231003"/>
<path fill-rule="evenodd" clip-rule="evenodd" d="M49.5674 16.3338C49.8334 16.942 51.3874 16.6989 51.3554 16.0078C50.8384 15.4376 49.9564 16.0498 49.5674 16.3338Z" fill="#231003"/>
<path fill-rule="evenodd" clip-rule="evenodd" d="M75.0823 18.5959C75.6543 18.5859 76.0863 18.4179 76.1843 17.8776C75.8483 17.0211 74.4613 17.9886 75.0823 18.5959Z" fill="#231003"/>
<path fill-rule="evenodd" clip-rule="evenodd" d="M36.4203 15.8186C36.3223 16.3508 37.8384 16.801 38.1744 16.1278C38.0404 15.5845 36.5373 15.1804 36.4203 15.8186Z" fill="#231003"/>
<path fill-rule="evenodd" clip-rule="evenodd" d="M35.3934 17.7443C35.9634 18.1899 37.3454 17.9092 37.5464 17.2267C36.9424 17.1198 35.4924 16.8521 35.3934 17.7443Z" fill="#231003"/>
<path fill-rule="evenodd" clip-rule="evenodd" d="M65.6914 19.3521C64.1824 19.416 62.4714 19.2541 61.4154 19.8228C62.8604 19.6878 64.6004 19.8827 65.6914 19.3521Z" fill="#231003"/>
<path fill-rule="evenodd" clip-rule="evenodd" d="M35.5264 19.1684C35.9224 19.5961 36.9733 19.3792 37.4373 19.2023C37.5123 18.184 35.7294 18.6937 35.5264 19.1684Z" fill="#231003"/>
<path fill-rule="evenodd" clip-rule="evenodd" d="M84.7664 21.5405C81.0364 22.2484 76.7814 23.2453 72.9533 23.7903C71.6703 23.9723 70.1373 23.7143 69.1523 24.6422C73.7564 23.9363 79.3794 23.0733 84.1014 21.9994C84.5484 22.0934 84.8964 22.0994 85.0394 21.6965C84.9004 21.6885 84.9614 21.4995 84.7664 21.5405Z" fill="#231003"/>
<path fill-rule="evenodd" clip-rule="evenodd" d="M57.1354 20.3658C54.4494 20.7396 51.5354 20.8595 49.2024 21.6261C51.9494 21.3193 54.7954 21.1244 57.1354 20.3658Z" fill="#231003"/>
<path fill-rule="evenodd" clip-rule="evenodd" d="M47.3514 21.8066C45.2694 22.0546 43.1204 22.2276 41.4124 22.8945C43.0904 22.5866 45.6784 22.5566 47.3514 21.8066Z" fill="#231003"/>
<path fill-rule="evenodd" clip-rule="evenodd" d="M80.8594 25.5747C81.4564 25.9137 81.6704 26.5946 82.1974 26.9946C82.2524 26.4557 81.4434 24.8927 80.8594 25.5747Z" fill="#231003"/>
<path fill-rule="evenodd" clip-rule="evenodd" d="M77.4114 25.1702C77.3454 25.9294 78.0114 26.5976 78.6594 26.9397C78.3274 26.2745 78.0404 25.5693 77.4114 25.1702Z" fill="#231003"/>
<path fill-rule="evenodd" clip-rule="evenodd" d="M37.6223 23.5356C35.8663 23.9976 33.3023 23.5556 31.8403 24.3485C33.7073 24.2245 36.1803 24.3585 37.6223 23.5356Z" fill="#231003"/>
<path fill-rule="evenodd" clip-rule="evenodd" d="M41.7484 24.4713C41.0164 24.8023 40.2964 25.1474 39.7684 25.7074C40.5434 25.4224 41.2914 25.1104 41.7484 24.4713Z" fill="#231003"/>
<path fill-rule="evenodd" clip-rule="evenodd" d="M27.6254 24.9643C27.9424 24.9933 28.2524 25.0153 28.3444 24.7916C28.1684 24.9194 27.6924 24.7128 27.6254 24.9643Z" fill="#231003"/>
<path fill-rule="evenodd" clip-rule="evenodd" d="M71.7783 29.6755C72.3013 29.4526 73.0203 28.4218 73.0912 27.695C72.9943 27.692 72.9383 27.653 72.8833 27.613C72.4443 28.2209 72.0383 28.8677 71.7783 29.6755Z" fill="#231003"/>
<path fill-rule="evenodd" clip-rule="evenodd" d="M21.0044 25.5893C21.1294 25.7313 21.3705 25.6183 21.4365 25.4713C21.2484 25.4623 21.0224 25.4103 21.0044 25.5893Z" fill="#231003"/>
<path fill-rule="evenodd" clip-rule="evenodd" d="M64.9753 28.4493C65.2003 28.4004 65.2833 28.1935 65.3563 27.9746C65.1373 27.9556 65.0133 28.0416 64.8533 28.0876C64.7883 28.3024 65.0923 28.1875 64.9753 28.4493Z" fill="#231003"/>
<path fill-rule="evenodd" clip-rule="evenodd" d="M16.2464 25.8223C16.0874 25.8483 15.6804 25.8163 15.7274 26.2186C17.2864 26.4537 19.2404 26.1005 20.6514 25.5701C19.4524 26.0494 17.6144 25.5951 16.2464 25.8223Z" fill="#231003"/>
<path fill-rule="evenodd" clip-rule="evenodd" d="M77.1614 32.2407C77.7534 31.7528 77.9444 30.8169 78.3423 30.11C77.6284 29.8601 77.2174 31.5178 77.1614 32.2407Z" fill="#231003"/>
<path fill-rule="evenodd" clip-rule="evenodd" d="M58.7494 30.8674C59.1114 30.4715 59.2154 29.7886 59.3414 29.1297C58.6654 28.5708 58.6694 30.5885 58.7494 30.8674Z" fill="#231003"/>
<path fill-rule="evenodd" clip-rule="evenodd" d="M4.58643 27.8683C4.69143 28.0192 4.93143 28.0522 5.21343 28.0452C5.40843 28.0872 5.18043 27.6563 5.37543 27.6993C7.64644 27.2075 10.3794 27.4394 12.4474 26.6036C10.6574 26.6496 8.61243 27.2405 6.81443 27.2834C6.05743 27.3014 4.94143 27.0155 4.58643 27.8683Z" fill="#231003"/>
<path fill-rule="evenodd" clip-rule="evenodd" d="M81.9264 30.5913C81.8624 31.4375 82.7414 32.0076 83.1584 32.6438C83.0964 31.9136 82.6414 30.9624 81.9264 30.5913Z" fill="#231003"/>
<path fill-rule="evenodd" clip-rule="evenodd" d="M53.6923 30.0909C53.5493 30.6758 53.9023 31.3727 54.2384 31.7496C54.2414 31.2907 54.4294 30.1099 53.6923 30.0909Z" fill="#231003"/>
<path fill-rule="evenodd" clip-rule="evenodd" d="M72.5433 32.4812C71.8753 32.091 71.3943 31.1877 70.5613 31.1677C70.7883 31.914 71.9543 32.5042 72.5433 32.4812Z" fill="#231003"/>
<path fill-rule="evenodd" clip-rule="evenodd" d="M39.9114 32.0902C39.9794 31.6543 40.0114 31.1534 40.2014 30.6895C39.4584 30.1666 39.3634 32.0452 39.9114 32.0902Z" fill="#231003"/>
<path fill-rule="evenodd" clip-rule="evenodd" d="M33.4183 32.9362C33.6163 32.3641 33.9003 31.5501 33.8813 30.9781C33.2153 30.685 33.0473 32.5531 33.4183 32.9362Z" fill="#231003"/>
<path fill-rule="evenodd" clip-rule="evenodd" d="M4.79932 31.7059C5.4003 31.1238 6.25026 30.4315 6.53625 29.7473C5.79128 30.1674 4.97031 30.8927 4.79932 31.7059Z" fill="#231003"/>
<path fill-rule="evenodd" clip-rule="evenodd" d="M59.8643 33.7615C60.1204 34.5625 60.4544 35.2925 60.9524 35.8755C60.7734 34.9835 60.5814 34.1045 60.0174 33.5575C60.0044 33.6685 59.8333 33.6035 59.8643 33.7615Z" fill="#231003"/>
<path fill-rule="evenodd" clip-rule="evenodd" d="M56.5774 35.563C56.7914 34.9591 57.5014 34.5702 57.5814 34.0603C56.8914 34.0813 56.3174 34.9751 56.5774 35.563Z" fill="#231003"/>
<path fill-rule="evenodd" clip-rule="evenodd" d="M75.3964 37.2423C75.5284 36.6905 75.7824 36.2736 75.9734 35.7878C75.2824 35.3319 74.9444 36.9114 75.3964 37.2423Z" fill="#231003"/>
<path fill-rule="evenodd" clip-rule="evenodd" d="M25.0354 33.3919C24.9874 33.3899 24.9404 33.3869 24.8934 33.3839C24.8484 33.9909 24.8384 35.1288 25.4194 35.3967C25.2624 34.7538 25.6235 33.6489 25.0354 33.3919Z" fill="#231003"/>
<path fill-rule="evenodd" clip-rule="evenodd" d="M30.9323 35.6305C31.3033 35.0954 31.8423 34.7473 32.0803 34.0642C31.4203 34.1922 30.7353 35.0414 30.9323 35.6305Z" fill="#231003"/>
<path fill-rule="evenodd" clip-rule="evenodd" d="M78.4724 37.9797C78.3694 38.0657 78.3854 38.2827 78.3734 38.4697C78.9654 38.7236 79.1594 39.3326 79.8024 39.5405C79.5614 38.8396 79.0634 38.3687 78.4724 37.9797Z" fill="#231003"/>
<path fill-rule="evenodd" clip-rule="evenodd" d="M50.1594 38.8905C50.4194 38.1526 51.2124 37.6237 51.3954 37.0467C50.7704 37.0347 49.8794 38.1446 50.1594 38.8905Z" fill="#231003"/>
<path fill-rule="evenodd" clip-rule="evenodd" d="M19.7234 37.2062C20.3073 37.1332 20.3933 36.5043 20.5043 35.9034C19.8454 35.6545 19.9464 36.7363 19.7234 37.2062Z" fill="#231003"/>
<path fill-rule="evenodd" clip-rule="evenodd" d="M55.6514 38.2035C55.5954 38.2175 55.5664 38.2585 55.5734 38.3415C55.8324 39.1165 56.4214 39.5966 57.1124 39.9856C56.8624 39.2195 56.1184 38.5525 55.6514 38.2035Z" fill="#231003"/>
<path fill-rule="evenodd" clip-rule="evenodd" d="M5.89136 36.2985C6.43435 36.7734 6.89135 37.3253 7.66034 37.6002C7.21534 37.1793 6.42835 35.5477 5.89136 36.2985Z" fill="#231003"/>
<path fill-rule="evenodd" clip-rule="evenodd" d="M15.0474 38.5057C15.6553 38.0346 16.1043 37.3865 16.3613 36.5233C15.5494 36.7204 15.1664 37.7836 15.0474 38.5057Z" fill="#231003"/>
<path fill-rule="evenodd" clip-rule="evenodd" d="M40.0533 38.4736C39.9513 38.5586 39.9663 38.7766 39.9553 38.9636C40.5783 39.0096 40.4133 39.7616 40.8933 39.9366C40.9793 39.3796 40.7483 38.5506 40.0533 38.4736Z" fill="#231003"/>
<path fill-rule="evenodd" clip-rule="evenodd" d="M26.5394 40.7716C26.6924 39.9687 26.7264 39.0307 27.0254 38.3898C26.1994 38.0288 26.0744 40.4096 26.5394 40.7716Z" fill="#231003"/>
<path fill-rule="evenodd" clip-rule="evenodd" d="M82.1373 43.4238C82.5223 42.7039 83.2173 42.3309 83.5843 41.5919C82.9093 41.5769 81.8423 42.8439 82.1373 43.4238Z" fill="#231003"/>
<path fill-rule="evenodd" clip-rule="evenodd" d="M71.0633 43.8734C71.4184 43.1114 72.1954 42.4524 72.3174 41.6764C71.4874 41.8524 71.0093 43.2084 71.0633 43.8734Z" fill="#231003"/>
<path fill-rule="evenodd" clip-rule="evenodd" d="M61.9724 41.7419C62.4854 42.0238 63.7395 42.6315 64.2085 42.2907C63.5745 41.9798 62.7114 41.533 61.9834 41.53C61.9804 41.6 61.9764 41.67 61.9724 41.7419Z" fill="#231003"/>
<path fill-rule="evenodd" clip-rule="evenodd" d="M21.4653 40.2777C21.6683 40.7678 21.7683 41.3498 22.2423 41.5958C22.3513 40.9388 22.0763 40.6248 21.8923 40.2307C21.7203 40.2117 21.5533 40.2017 21.4653 40.2777Z" fill="#231003"/>
<path fill-rule="evenodd" clip-rule="evenodd" d="M7.52734 40.0014C8.08437 40.4654 8.44238 41.1065 9.22241 41.3705C8.74239 40.9855 8.02436 39.0804 7.52734 40.0014Z" fill="#231003"/>
<path fill-rule="evenodd" clip-rule="evenodd" d="M37.3033 42.0753C37.3293 42.6313 37.2833 43.7793 37.7553 44.1543C37.8073 43.5413 38.0484 42.1973 37.3033 42.0753Z" fill="#231003"/>
<path fill-rule="evenodd" clip-rule="evenodd" d="M30.9564 42.857C31.6004 43.1359 32.2254 42.2032 33.0474 42.1932C32.5514 41.5575 31.1664 42.2072 30.9564 42.857Z" fill="#231003"/>
<path fill-rule="evenodd" clip-rule="evenodd" d="M46.9194 43.6692C47.6844 43.5742 48.2954 43.3082 49.1364 43.2962C48.7194 42.7582 47.0014 42.8882 46.9194 43.6692Z" fill="#231003"/>
<path fill-rule="evenodd" clip-rule="evenodd" d="M53.8323 46.7445C54.4523 46.3586 55.3793 45.6768 55.9824 45.022C54.9163 44.907 54.3283 45.9717 53.8323 46.7445Z" fill="#231003"/>
<path fill-rule="evenodd" clip-rule="evenodd" d="M5.80523 44.2277C6.10223 43.8837 5.96122 43.0509 6.17822 42.62C5.45423 41.8942 5.33623 44.0777 5.80523 44.2277Z" fill="#231003"/>
<path fill-rule="evenodd" clip-rule="evenodd" d="M17.8142 43.5454C18.6542 43.6264 18.8662 44.6116 19.3762 44.7656C19.4152 44.0125 18.2642 42.5652 17.8142 43.5454Z" fill="#231003"/>
<path fill-rule="evenodd" clip-rule="evenodd" d="M43.7434 44.7695C43.5924 45.5815 43.9734 46.4824 44.4735 46.9343C44.5345 46.2694 44.0975 45.4865 43.9544 44.7815C43.8834 44.7775 43.8134 44.7735 43.7434 44.7695Z" fill="#231003"/>
<path fill-rule="evenodd" clip-rule="evenodd" d="M12.2013 45.149C12.5473 44.5347 13.4623 44.5578 13.8253 43.9625C13.0283 43.9565 11.4303 44.3697 12.2013 45.149Z" fill="#231003"/>
<path fill-rule="evenodd" clip-rule="evenodd" d="M7.16333 44.0195C7.07733 44.0975 7.06934 44.2635 7.06934 44.4395C7.56732 44.6875 7.91531 45.0694 8.43829 45.2944C8.2483 44.6585 7.88031 44.1815 7.16333 44.0195Z" fill="#231003"/>
<path fill-rule="evenodd" clip-rule="evenodd" d="M33.2204 45.4614C33.0784 46.1765 33.4244 47.0195 33.8174 47.4785C34.1564 46.9305 33.5924 46.0835 33.5034 45.4774C33.4094 45.4724 33.3154 45.4664 33.2204 45.4614Z" fill="#231003"/>
<path fill-rule="evenodd" clip-rule="evenodd" d="M12.2374 47.0625C12.1334 47.1485 12.1494 47.3655 12.1384 47.5524C12.5884 47.7534 12.7645 48.1993 13.3735 48.2583C13.1435 47.7274 12.8375 47.2625 12.2374 47.0625Z" fill="#231003"/>
<path fill-rule="evenodd" clip-rule="evenodd" d="M16.6854 47.3082C16.9614 48.0897 17.7094 48.452 18.3684 48.8903C18.0444 48.1508 17.5674 47.5484 16.6854 47.3082Z" fill="#231003"/>
<path fill-rule="evenodd" clip-rule="evenodd" d="M21.9384 49.6542C22.6174 49.2613 23.5343 49.1364 24.1863 48.7166C23.3214 48.5527 21.8034 48.6976 21.9384 49.6542Z" fill="#231003"/>
<path fill-rule="evenodd" clip-rule="evenodd" d="M8.2904 47.9775C7.70238 48.4236 6.42934 48.4926 6.50934 49.4376C7.28036 49.1486 7.88738 48.6766 8.4234 48.1265C8.4134 48.0465 8.3504 48.0115 8.2904 47.9775Z" fill="#231003"/>
<path fill-rule="evenodd" clip-rule="evenodd" d="M29.9304 51.1583C30.4874 51.1103 31.5244 51.0054 32.0134 50.6376C31.4894 50.3807 29.8444 50.4826 29.9304 51.1583Z" fill="#231003"/>
<path fill-rule="evenodd" clip-rule="evenodd" d="M11.7115 51.4244C12.3775 51.0936 12.9104 50.6148 13.3464 50.0291C12.5475 50.135 11.4795 50.6568 11.7115 51.4244Z" fill="#231003"/>
<path fill-rule="evenodd" clip-rule="evenodd" d="M17.0864 52.8551C17.3594 52.2363 17.7703 51.7705 17.9653 51.0627C17.3384 50.8718 16.6584 52.3603 17.0864 52.8551Z" fill="#231003"/>
<path fill-rule="evenodd" clip-rule="evenodd" d="M37.4984 55.1903C38.2624 54.4934 38.9664 53.7306 39.5414 52.8247C38.6274 52.7797 38.0004 54.2815 37.4984 55.1903Z" fill="#231003"/>
<path fill-rule="evenodd" clip-rule="evenodd" d="M75.8315 54.9745C76.0035 54.9335 76.4975 54.8244 76.5345 55.0846C76.4265 55.1386 76.3725 55.2537 76.3735 55.4299C76.6715 55.4629 76.8004 55.3068 76.8884 55.1046C76.7364 54.7924 76.0145 54.4971 75.8315 54.9745Z" fill="#231003"/>
<path fill-rule="evenodd" clip-rule="evenodd" d="M2.62537 51.7728C3.19336 52.1846 4.04635 52.6874 4.84235 52.6734C4.40735 52.2246 3.17036 51.2499 2.62537 51.7728Z" fill="#231003"/>
<path fill-rule="evenodd" clip-rule="evenodd" d="M8.74735 55.0859C8.82634 54.2849 8.95035 53.0639 9.04034 52.3398C8.17037 52.1558 8.20737 54.7339 8.74735 55.0859Z" fill="#231003"/>
<path fill-rule="evenodd" clip-rule="evenodd" d="M25.6004 53.8937C25.7994 54.3706 25.3564 55.3643 25.7214 55.5293C26.1863 55.2874 26.1563 54.3526 26.0273 53.8467C25.8544 53.8287 25.6884 53.8178 25.6004 53.8937Z" fill="#231003"/>
<path fill-rule="evenodd" clip-rule="evenodd" d="M70.8494 56.6827C71.0683 56.7267 71.0823 56.5437 71.0803 56.3407C71.0104 56.3367 70.9394 56.3327 70.8684 56.3287C70.7734 56.4167 70.7644 56.5847 70.8494 56.6827Z" fill="#231003"/>
<path fill-rule="evenodd" clip-rule="evenodd" d="M74.3054 56.9447C74.6124 57.0545 74.9015 56.7159 74.6084 56.608C74.4924 56.7029 74.3524 56.7719 74.3054 56.9447Z" fill="#231003"/>
<path fill-rule="evenodd" clip-rule="evenodd" d="M32.0653 57.3689C32.1003 56.4315 32.5572 55.2541 32.4302 54.6259C31.8603 54.8719 31.3774 56.9347 32.0653 57.3689Z" fill="#231003"/>
<path fill-rule="evenodd" clip-rule="evenodd" d="M63.0864 58.7318C63.5274 58.3268 63.9434 57.8917 64.0944 57.1586C64.0234 57.1546 63.9524 57.1506 63.8814 57.1466C63.7014 57.7697 63.2674 58.1097 63.0864 58.7318Z" fill="#231003"/>
<path fill-rule="evenodd" clip-rule="evenodd" d="M62.1484 57.7583C61.8814 58.2354 61.5204 58.6064 61.3604 59.2025C61.7254 58.8535 62.1554 58.2004 62.2864 57.8373C62.2734 57.7813 62.2314 57.7513 62.1484 57.7583Z" fill="#231003"/>
<path fill-rule="evenodd" clip-rule="evenodd" d="M14.2312 55.8145C14.7072 56.0825 14.8212 56.6726 15.3773 56.8696C15.4053 56.2495 14.6192 54.9944 14.2312 55.8145Z" fill="#231003"/>
<path fill-rule="evenodd" clip-rule="evenodd" d="M20.9094 58.0254C21.4224 57.6473 22.0764 56.7172 21.8034 55.9501C21.2804 56.3451 20.9454 57.3343 20.9094 58.0254Z" fill="#231003"/>
<path fill-rule="evenodd" clip-rule="evenodd" d="M58.1474 58.3872C58.1124 58.5532 57.7843 58.7741 57.9744 58.9441C57.9654 58.6891 58.4534 58.5182 58.1474 58.3872Z" fill="#231003"/>
<path fill-rule="evenodd" clip-rule="evenodd" d="M4.23929 55.8984C4.1583 56.8297 3.39734 58.1301 3.79232 58.8494C4.0583 57.9101 4.76626 56.8307 4.45128 55.9104C4.37928 55.9064 4.30929 55.9024 4.23929 55.8984Z" fill="#231003"/>
<path fill-rule="evenodd" clip-rule="evenodd" d="M53.1534 60.3064C53.3384 60.3374 53.3904 60.2214 53.3804 60.0364C53.1964 60.0044 53.1434 60.1214 53.1534 60.3064Z" fill="#231003"/>
<path fill-rule="evenodd" clip-rule="evenodd" d="M7.66141 58.0715C7.4314 58.6707 8.14744 59.4909 8.47446 60.03C8.57446 59.3058 8.32245 58.3336 7.66141 58.0715Z" fill="#231003"/>
<path fill-rule="evenodd" clip-rule="evenodd" d="M49.6893 61.4609C50.0993 61.3189 50.0833 60.7007 50.3834 60.4366C49.8993 60.4957 49.8813 61.0768 49.6893 61.4609Z" fill="#231003"/>
<path fill-rule="evenodd" clip-rule="evenodd" d="M12.9175 59.0714C13.0925 59.5624 13.0595 60.2414 13.5494 60.4524C13.7524 60.0004 13.5244 59.3574 13.3444 59.0234C13.1715 59.0044 13.0055 58.9944 12.9175 59.0714Z" fill="#231003"/>
<path fill-rule="evenodd" clip-rule="evenodd" d="M48.1354 61.3743C48.0334 61.5605 47.8074 61.6075 47.8214 61.9238C48.0684 61.9218 48.4324 61.5174 48.1354 61.3743Z" fill="#231003"/>
<path fill-rule="evenodd" clip-rule="evenodd" d="M45.9584 62.317C46.1664 62.0999 46.6004 62.1339 46.6294 61.7167C46.2984 61.5255 46.0024 61.9458 45.9584 62.317Z" fill="#231003"/>
<path fill-rule="evenodd" clip-rule="evenodd" d="M36.1664 63.8999C36.1444 64.0007 36.0434 64.0126 36.0134 64.1034C36.1744 64.3388 36.4585 63.9627 36.1664 63.8999Z" fill="#231003"/>
<path fill-rule="evenodd" clip-rule="evenodd" d="M9.69444 64.8431C9.99844 64.508 10.2724 64.1388 10.4664 63.6815C10.3654 63.6585 10.3544 63.5585 10.2624 63.5284C10.2394 64.1027 9.57544 64.3599 9.69444 64.8431Z" fill="#231003"/>
<path fill-rule="evenodd" clip-rule="evenodd" d="M16.5754 65.9315C16.5674 65.4734 16.8544 64.5692 16.7514 64.0291C16.1825 64.0201 15.9825 65.8135 16.5754 65.9315Z" fill="#231003"/>
<path fill-rule="evenodd" clip-rule="evenodd" d="M13.6213 66.8319C13.5343 66.0806 13.4903 65.2003 13.7513 64.5001C12.9493 64.4491 12.9333 66.7649 13.6213 66.8319Z" fill="#231003"/>
<path fill-rule="evenodd" clip-rule="evenodd" d="M26.1864 66.3228C26.4894 66.2597 26.7314 66.1315 26.8503 65.8633C26.5604 65.6731 26.2364 66.0014 26.1864 66.3228Z" fill="#231003"/>
<path fill-rule="evenodd" clip-rule="evenodd" d="M8.13245 66.1722C7.81346 65.8992 8.30945 64.8954 7.70847 64.8734C7.51247 65.4183 7.60247 66.5501 7.52047 66.9871C7.15448 67.204 6.6355 67.6479 6.6145 67.9999C6.91149 67.7309 7.19448 67.448 7.57647 67.274C7.59147 67.439 7.60347 67.607 7.84346 67.572C7.80546 66.1042 9.28441 65.9332 9.40741 64.8964C9.02442 65.3693 8.66143 65.8622 8.13245 66.1722Z" fill="#231003"/>
<path fill-rule="evenodd" clip-rule="evenodd" d="M43.9424 24.5217C43.3724 24.5587 43.1154 24.9477 42.7034 25.1627C43.1224 24.9567 43.6704 24.8927 43.9424 24.5217Z" fill="#231003"/>
<path fill-rule="evenodd" clip-rule="evenodd" d="M13.8053 26.3959C13.3593 26.372 13.0083 26.4548 12.7313 26.6195C13.0843 26.5397 13.5393 26.5726 13.8053 26.3959Z" fill="#231003"/>
<path fill-rule="evenodd" clip-rule="evenodd" d="M31.8293 28.3844C32.1843 28.3454 33.0504 27.8565 33.0844 27.4625C32.6653 27.7695 31.9803 27.7795 31.8293 28.3844Z" fill="#231003"/>
<path fill-rule="evenodd" clip-rule="evenodd" d="M90.6665 22.4335C90.8965 21.3805 91.5145 20.3575 91.6145 19.3695C91.8045 17.5085 90.1815 15.8405 89.1705 14.9145C87.8815 13.7345 86.0205 13.1105 84.5905 11.8975C83.8465 11.2655 82.4285 10.4495 82.1545 9.85051C81.9315 9.36451 82.0475 8.77751 81.8835 8.34751C81.6235 7.66751 81.0225 6.71651 80.5105 6.28751C79.9835 5.84751 78.8655 5.05851 78.1095 4.88051C76.8455 4.58051 75.6205 4.93151 74.7555 4.05651C73.1605 4.85051 71.1185 5.14251 69.2165 5.59151C68.5725 4.91951 67.5715 5.05451 66.7835 4.74851C65.9895 4.44051 65.2355 3.68651 64.3785 3.41151C64.0695 3.31151 63.7065 3.39951 63.3945 3.28651C62.8465 3.08651 62.2115 2.53251 61.5425 2.19151C59.7635 1.28651 59.1815 0.810511 57.7675 -0.000488281C57.6635 0.0325117 57.5895 0.100509 57.5445 0.199509C56.8145 2.73951 53.6794 1.70551 51.4634 2.55351C50.4804 2.93051 49.7465 4.03151 48.8705 4.6065C48.0805 5.1265 47.0305 5.49751 46.0345 5.93651C35.3564 10.6455 25.0054 16.1145 14.4014 20.7605C10.4584 22.4885 6.71239 24.4895 3.10738 26.4395C1.65338 27.2265 0.534384 28.7855 0.545384 30.4765C1.20538 32.9145 -0.65562 35.9895 0.257382 38.2525C0.701382 38.6965 1.47338 38.7525 2.00638 38.6325C1.69138 48.4555 1.82838 58.4085 1.16438 67.9105C1.31938 69.2705 1.28538 70.8005 1.42438 72.1745C2.73238 72.7115 3.94138 72.1205 5.19139 71.9585C5.83739 71.8745 6.50639 72.1215 7.23939 72.0715C7.67539 72.0425 8.09839 71.7355 8.53839 71.6475C9.47239 71.4595 10.7204 71.2865 11.6844 71.1135C11.7934 71.0935 12.0044 71.0675 12.1124 71.0665C13.7634 71.0425 14.9364 70.9215 16.3764 70.8065C20.2344 70.4955 24.3254 70.3135 27.7654 69.8075C31.5164 69.2555 35.3434 68.9455 39.0954 68.5935C44.1624 68.1175 49.1304 67.1325 54.0024 66.7265C55.1514 66.6305 56.3135 66.1395 57.4425 65.9965C58.5555 65.8555 59.6845 65.9675 60.7805 65.8275C66.1895 65.1385 71.0835 64.2795 76.0735 63.4155C78.0265 63.0775 79.8535 62.1855 81.7535 61.8895C83.2205 61.6605 84.7065 60.9755 85.3555 59.5375C86.4815 57.0395 86.0915 53.6825 86.5495 50.7505C87.1395 46.9705 87.6835 43.1245 88.1555 39.6465C89.4445 39.5995 90.3055 39.1055 90.9215 38.3125C92.8755 35.7925 90.8375 33.4145 90.4135 30.8475C89.9595 28.1035 90.1015 25.0025 90.6665 22.4335ZM87.7825 14.4125C87.9675 14.4025 88.0835 14.4545 88.0515 14.6405C87.8665 14.6485 87.6975 14.6435 87.7825 14.4125ZM86.7565 13.7175C86.5165 13.6415 86.1645 13.6655 86.2115 13.3325C86.4735 13.3895 86.7345 13.4475 86.7565 13.7175ZM81.0945 8.5165C79.2295 7.6585 77.3025 6.8555 76.2455 5.2735C78.5595 5.7305 80.5465 6.4795 81.0945 8.5165ZM82.0605 10.2695C82.3315 12.8965 80.8465 14.0775 79.1245 14.7105C82.1825 11.3535 77.7035 8.40951 76.1285 6.11551C77.9815 7.61251 80.7865 8.25651 82.0605 10.2695ZM76.9695 15.2295C78.6065 12.4735 77.0265 9.55851 76.2065 7.25351C76.2535 7.25652 76.3015 7.25951 76.3485 7.26151C77.1435 8.45151 80.2445 10.1415 79.8135 12.4835C79.6225 13.5205 78.3485 15.5115 76.9695 15.2295ZM75.9795 7.5255C76.2525 9.0385 77.6635 10.7015 77.3885 12.7735C77.1985 14.2125 76.3875 16.0045 74.5925 15.9485C74.5675 13.3955 76.4035 10.8125 75.7675 7.5145C75.8375 7.5175 75.9095 7.5215 75.9795 7.5255ZM75.0845 7.05051C75.1545 7.05451 75.2255 7.05851 75.2965 7.06251C75.4695 8.58751 75.7465 9.91251 75.3325 11.5265C75.0595 12.5915 74.3485 13.5725 74.1765 14.5075C74.0235 15.3345 74.1805 15.9955 73.3675 16.3055C72.9505 16.1635 72.5975 15.9645 72.1905 15.8155C70.1125 12.0915 73.8095 9.70151 75.0845 7.05051ZM73.7455 17.1755C73.6455 17.3905 73.5095 17.5625 73.2275 17.5715C73.0545 17.3245 73.2475 16.9835 73.4075 16.8735C73.5435 16.9535 73.6455 17.0645 73.7455 17.1755ZM74.5275 5.60251C74.5755 5.60551 74.6225 5.60851 74.6695 5.61051C74.8185 9.07951 71.4235 9.88151 71.0775 12.9205C70.9425 14.0975 71.4445 14.8205 71.6225 15.8555C70.4265 16.9155 68.9075 15.4505 68.6645 14.2755C67.7805 9.9955 72.8095 7.79951 74.5275 5.60251ZM70.8335 17.2985C70.8285 17.6465 70.4685 17.9015 70.1745 17.6865C70.2565 17.4245 70.5105 17.0505 70.8335 17.2985ZM68.0795 13.3215C65.6105 10.4345 69.5005 7.83951 71.8845 7.29851C71.9315 7.30151 71.9785 7.30451 72.0255 7.30651C70.3605 8.91951 68.3725 10.1735 68.0795 13.3215ZM73.1225 5.38351C72.3485 5.8705 71.1625 6.28851 69.9695 6.05851C70.7435 5.57151 72.1085 5.35351 73.1225 5.38351ZM69.2865 6.87151C69.5775 6.27051 70.7025 6.60251 71.4325 6.49451C69.6655 7.42051 68.3175 8.81251 66.7095 9.91651C66.7095 8.28251 67.6285 6.65551 69.2865 6.87151ZM64.8755 4.64351C65.1455 4.73851 65.5825 4.68251 65.5635 5.03551C65.3025 5.09551 65.1125 5.23251 64.9745 5.42851C64.7275 5.32251 64.6595 4.77651 64.8755 4.64351ZM64.2955 6.1695C63.5105 4.3005 61.6605 3.38251 60.2745 2.05051C62.0285 2.96851 65.0065 3.4925 64.2955 6.1695ZM63.9825 7.99451C63.7155 9.46951 62.2195 10.3435 60.7865 10.7215C62.7855 8.5775 61.2635 4.82851 60.1655 2.75451C61.9305 3.71551 64.4695 5.30951 63.9825 7.99451ZM61.5535 7.08051C61.6395 9.65951 60.1965 11.0745 57.7215 11.0475C60.1175 9.7045 59.9145 5.24551 59.3995 2.49951C59.9565 3.66951 61.4975 5.37651 61.5535 7.08051ZM59.1485 3.19351C59.6455 5.46251 59.4395 11.7955 56.1964 10.4665C55.7345 10.2785 55.5615 9.81851 55.2665 9.35351C55.5365 6.18151 58.5455 6.07051 59.0105 3.11551C59.0935 3.10751 59.1355 3.13751 59.1485 3.19351ZM58.1085 1.50651C58.1785 1.51051 58.2495 1.51451 58.3205 1.51851C59.9015 5.19651 54.7575 5.99151 54.8465 9.2585C54.8735 10.3035 55.9305 10.5065 56.5835 11.1255C56.0845 11.8785 54.4445 11.8645 53.5945 11.3855C53.5415 10.8705 53.1825 10.7575 52.7975 10.4205C52.2435 5.15151 57.0155 5.18451 58.1085 1.50651ZM52.2255 10.5305C50.0145 11.0545 49.1044 8.46351 49.9614 6.65151C50.9954 4.46251 55.0435 3.98851 56.6095 2.98151C55.2645 5.3115 51.7854 6.19251 52.2255 10.5305ZM51.0044 3.16651C52.5494 2.22451 54.6715 2.87951 56.3035 2.11451C56.6125 1.96951 56.8715 1.70151 57.1865 1.52551C57.2335 1.52851 57.2805 1.53051 57.3285 1.53351C55.3705 4.39551 50.1965 3.66351 49.2005 7.59951C48.0265 5.89451 49.7884 3.90851 51.0044 3.16651ZM48.3914 5.57251C48.4344 5.82051 48.2964 5.8665 48.2274 5.9885C48.1724 5.9485 48.1165 5.90852 48.0195 5.90652C48.0165 5.65352 48.1414 5.54251 48.3914 5.57251ZM47.9924 6.4005C47.9974 6.7575 47.5304 6.89651 47.2664 6.71451C47.2664 6.36151 47.7874 6.2855 47.9924 6.4005ZM44.9484 7.6485C44.8724 7.1135 45.3994 7.25251 45.8194 7.2715C46.4154 7.7195 45.8134 8.86851 45.0464 8.43351C44.9684 8.04651 45.2574 8.06951 45.2934 7.80951C45.2834 7.66251 44.9834 7.7735 44.9484 7.6485ZM1.97038 71.2855C2.85838 70.8515 3.10139 69.3015 4.06939 69.2065C3.62439 69.8395 3.21339 70.8085 2.59839 71.4625C2.38039 71.4115 2.14138 71.3785 1.97038 71.2855ZM3.17339 64.9065C3.58039 63.5865 5.68839 64.1675 6.78539 63.6195C6.18939 64.8775 5.09739 66.2325 3.76939 66.9235C3.73239 67.6825 3.07038 67.7425 2.84338 68.2885C2.95438 67.1855 4.04239 66.1325 4.15739 65.0315C3.49339 65.3415 3.75739 66.6835 2.79239 66.6565C2.78039 65.9695 3.58039 65.5515 3.17339 64.9065ZM3.67139 63.5875C4.16639 63.0665 5.34239 63.3055 6.24039 63.2335C5.60339 63.5965 4.52839 63.4705 3.67139 63.5875ZM2.18838 64.7815C2.24738 64.9085 2.40138 64.9495 2.60438 64.9455C2.49938 65.2035 2.30538 65.3615 2.07938 65.4835C1.92138 64.7005 1.97938 63.7825 2.81239 63.7535C2.77439 64.2855 2.31538 64.3475 2.18838 64.7815ZM3.95239 71.3245C3.77239 70.9455 4.44939 70.9515 4.48939 70.5755C4.34039 70.3655 4.20339 70.8015 3.91739 70.6855C4.14439 70.2005 4.46239 69.4125 5.16339 69.9045C4.73539 70.3505 4.65339 71.1835 3.95239 71.3245ZM5.52039 71.1275C5.71039 70.7395 5.85439 70.3005 6.48139 70.4015C6.46239 70.6205 6.49239 70.7955 6.59539 70.9035C6.40539 71.1665 5.97139 71.1565 5.52039 71.1275ZM6.09239 69.7435C5.94939 69.5465 6.24339 69.3555 6.27039 69.1155C6.43439 69.1255 6.59939 69.1345 6.76439 69.1425C6.64639 69.4605 6.47139 69.7145 6.09239 69.7435ZM6.66239 68.4285C7.14739 68.4185 7.4254 68.5965 7.9294 68.5705C7.7904 69.2545 7.18439 68.5475 6.70939 68.8565C6.63139 68.7685 6.64339 68.6025 6.66239 68.4285ZM6.79539 69.8525C6.85939 69.5005 7.11339 69.3585 7.39539 69.2485C7.28639 69.5235 7.05139 69.9825 6.79539 69.8525ZM7.2354 70.8695C7.2074 70.4735 8.1374 70.2545 8.2354 70.7125C7.9014 70.7635 7.6394 70.8945 7.2354 70.8695ZM8.6824 70.3115C8.2964 70.2105 7.90839 70.1105 7.49339 70.0335C7.39439 69.1895 8.58239 69.4105 9.14839 69.5585C9.03839 69.8585 8.7664 69.9805 8.6824 70.3115ZM8.2624 68.9425C8.4754 68.4155 9.0824 68.9745 9.6824 68.8795C9.5824 69.5815 8.6944 69.0795 8.2624 68.9425ZM8.6514 68.3265C8.7194 67.9775 9.02239 67.8905 9.11839 67.5735C9.54039 67.7775 10.0644 67.8895 10.6554 67.9415C10.6714 68.4335 9.91539 68.0635 9.98139 68.6125C9.52439 68.5295 8.9364 68.5625 8.6514 68.3265ZM9.80039 70.5855C9.70039 70.4735 9.69139 70.2805 9.53739 70.2165C9.67239 69.5805 10.3534 69.9355 10.8204 70.0755C10.7454 70.5405 10.1974 70.4785 9.80039 70.5855ZM10.9774 69.8005C10.5694 69.6965 10.1574 69.5955 10.1644 69.1175C10.4864 68.9885 11.1094 69.1035 11.4354 69.1875C11.3914 69.5135 11.1884 69.6625 10.9774 69.8005ZM11.6094 69.9075C11.6904 69.6225 11.8524 69.4285 12.1344 69.3695C12.0904 69.6955 11.8684 69.8215 11.6094 69.9075ZM11.7354 68.9215C11.4414 68.8045 10.9644 68.8515 10.6834 68.7225C10.7414 67.9115 11.5984 68.0165 12.1934 68.3095C12.1494 68.6345 11.9464 68.7835 11.7354 68.9215ZM12.3114 70.0165C12.3894 69.7065 12.7474 69.3845 13.0454 69.5615C12.8754 69.7975 12.6454 69.9645 12.3114 70.0165ZM12.3664 69.0275C12.4064 68.6515 12.7434 68.2775 13.1044 68.5025C12.8954 68.7185 12.8174 69.0815 12.3664 69.0275ZM13.1394 69.1415C13.2114 68.7485 13.5004 68.5955 14.0144 68.6945C13.9664 69.0845 13.5014 69.3455 13.1394 69.1415ZM13.8924 68.3325C14.0074 67.6495 14.4674 67.6675 14.9874 67.7555C14.9324 68.3035 14.4244 68.5445 13.8924 68.3325ZM14.7984 69.8715C14.7634 69.5575 15.0434 69.5945 15.1084 69.3925C14.8294 69.3495 14.6344 69.6495 14.3984 69.4235C14.3894 68.7125 15.1864 69.0045 15.6184 69.1365C15.4814 69.5345 15.2074 69.7785 14.7984 69.8715ZM15.1514 68.6155C15.1794 67.4245 16.3504 68.2385 17.0824 68.2975C16.9684 68.5695 16.8604 68.8505 16.5524 68.9055C16.5174 68.6405 16.6914 68.6095 16.6554 68.3445C16.1164 68.5425 15.8194 69.1215 15.1514 68.6155ZM16.5914 69.4745C16.7614 69.4425 16.9264 69.3845 16.9364 69.6345C16.8054 69.5965 16.5054 69.7065 16.5914 69.4745ZM16.9674 69.0705C17.1504 68.4735 17.8424 68.3375 18.4034 68.7245C18.3634 69.4625 17.3724 69.5615 16.9674 69.0705ZM18.7764 68.3905C18.4274 68.3455 18.1204 68.2625 17.8704 68.1275C17.9954 67.4105 18.8084 67.6635 19.4474 67.7905C19.3274 68.1055 19.0004 68.1915 18.7764 68.3905ZM19.8714 69.0885C19.8464 69.7865 19.1394 69.7205 18.4244 69.6465C18.3074 68.8575 19.1864 68.6875 19.8714 69.0885ZM17.9604 70.3295C18.5074 70.1405 19.2294 70.1465 19.8874 70.0825C19.4934 70.4415 18.7064 70.3625 17.9604 70.3295ZM20.2434 68.7555C19.7864 68.8065 19.7214 68.5075 19.2634 68.5595C19.2094 68.1495 19.6074 68.2435 19.5194 67.7945C19.9584 67.8695 20.3744 67.9675 20.7784 68.0765C20.7244 68.4435 20.4184 68.5265 20.2434 68.7555ZM21.5734 69.0415C21.2254 69.0725 21.0034 69.0305 20.6594 68.9195C20.8204 68.3475 21.2064 68.0705 21.8994 68.2795C21.9034 68.6605 21.6744 68.7805 21.5734 69.0415ZM21.6404 67.8415C21.6454 67.3745 22.1554 67.4065 22.5064 67.5345C22.5274 67.7595 22.3914 67.8045 22.3424 67.9505C22.0404 67.9765 21.8774 67.8735 21.6404 67.8415ZM21.9304 68.9915C22.1184 68.0365 23.0764 68.6245 23.7824 68.8095C23.5554 69.4135 22.2234 69.0815 21.9304 68.9915ZM22.6244 67.9665C22.8074 67.4365 23.3484 67.5895 23.5424 68.0175C23.3934 68.3475 22.8314 68.1455 22.6244 67.9665ZM23.6024 68.2335C23.7214 68.0455 24.0264 68.2505 24.0924 68.3315C23.9714 68.5195 23.6674 68.3145 23.6024 68.2335ZM25.4184 68.6875C25.1604 68.5155 24.7854 68.4495 24.7424 68.0835C25.0894 68.1535 25.5044 68.1625 25.7944 68.2835C25.7804 68.5425 25.5324 68.5405 25.4184 68.6875ZM25.8314 68.9235C25.6834 68.7355 26.0024 68.6155 26.0034 68.3655C26.1784 68.3655 26.3444 68.3735 26.4234 68.4595C26.3484 68.7515 26.1274 68.8805 25.8314 68.9235ZM26.6154 68.8255C26.5634 68.5295 27.1634 68.4215 27.1134 68.7825C26.9464 68.7945 26.8414 68.8785 26.6154 68.8255ZM26.5164 68.0405C26.5234 67.9225 26.5304 67.8045 26.5354 67.6865C26.2274 67.9965 25.7424 67.9275 25.2564 67.7565C25.5944 66.2835 27.0904 67.2765 27.2894 68.1525C26.9704 68.1705 26.7624 68.0885 26.5164 68.0405ZM27.0884 66.6555C27.6674 66.8435 28.1824 66.7235 28.5564 67.0195C28.2624 67.2255 27.2824 66.9785 27.0884 66.6555ZM27.2624 67.3735C27.7294 67.2245 28.2654 67.5935 28.7334 67.6675C28.4384 68.6525 27.5194 67.9045 27.2624 67.3735ZM28.8194 68.6635C28.8014 67.8475 30.0264 67.9455 30.0244 68.6595C29.7904 68.8505 29.1294 68.7875 28.8194 68.6635ZM28.9994 66.6905C29.0164 66.0575 29.6804 66.2475 30.0784 66.3965C29.9634 66.8925 29.5084 66.7785 28.9994 66.6905ZM29.6784 67.2235C30.1594 67.1955 30.4244 67.3615 30.8744 67.3615C30.8134 67.7955 29.8064 67.5285 29.6784 67.2235ZM31.4794 66.6855C31.4064 67.4045 30.6784 66.8665 30.1214 66.8945C30.1454 66.1775 31.0144 66.6565 31.4794 66.6855ZM30.7254 66.2195C30.7254 66.0445 30.7344 65.8785 30.8204 65.7995C31.1374 65.7825 31.1614 66.0305 31.1454 66.3135C30.9264 66.3525 30.9444 66.1795 30.7254 66.2195ZM32.2684 67.7915C31.8414 67.8145 31.5824 67.6895 31.2124 67.6625C31.3734 67.2535 32.2194 67.3915 32.2684 67.7915ZM31.7184 66.2035C31.8294 66.2165 31.9894 66.1855 31.9964 66.2905C32.0604 66.5415 31.5534 66.4545 31.7184 66.2035ZM30.6624 68.6235C31.2384 68.4245 31.7494 67.9485 32.4514 68.2975C32.2494 68.8465 31.3534 68.6205 30.6624 68.6235ZM32.1064 66.8625C32.5814 66.9535 33.2244 66.8915 33.3584 67.2865C32.9954 67.3485 32.0864 67.3635 32.1064 66.8625ZM32.3464 66.3795C32.7054 66.3925 32.8964 66.5585 33.2564 66.5715C33.0884 66.6525 32.2854 66.7275 32.3464 66.3795ZM33.3234 67.9215C33.8984 67.7585 35.2924 67.9825 35.8544 68.2735C35.0364 68.6675 34.0884 68.1455 33.3234 67.9215ZM45.7234 65.2795C45.7704 65.4815 45.6144 65.4565 45.6334 65.6285C45.1174 65.7415 44.6494 65.3265 44.2444 65.1265C44.5674 64.8345 45.3564 65.1745 45.7234 65.2795ZM44.6284 64.5795C44.6324 64.5095 44.6364 64.4385 44.6404 64.3685C45.0964 64.2445 45.7694 64.4655 46.1124 64.6625C45.9334 65.2195 45.1024 64.5915 44.6284 64.5795ZM43.4444 64.2315C43.2794 63.7755 44.2214 64.0455 44.4364 64.2155C44.3574 64.6875 43.7174 64.3555 43.4444 64.2315ZM43.6634 65.3765C43.3264 65.3885 43.1604 65.2455 42.8954 65.1925C42.8484 64.8905 42.9894 64.7975 43.1344 64.7105C43.3054 64.9375 43.6904 64.9735 43.6634 65.3765ZM43.3584 65.7855C43.3394 66.4105 42.4624 66.0165 42.5184 65.5975C42.7304 65.4905 43.1384 65.6855 43.3584 65.7855ZM42.6834 66.4565C42.6154 66.7075 42.0844 66.5405 42.1254 66.2845C42.3394 66.1125 42.5404 66.3605 42.6834 66.4565ZM41.9894 64.9305C42.0524 64.5025 42.4304 64.2385 42.7894 64.5495C42.7544 64.9745 42.3284 65.2805 41.9894 64.9305ZM41.6394 64.8395C41.3134 64.7735 41.2934 64.4335 41.2544 64.1105C41.5924 64.0995 41.7584 64.2415 42.0244 64.2955C42.0114 64.6055 41.8314 64.7285 41.6394 64.8395ZM41.2584 65.3145C41.2034 65.6525 41.0294 65.8585 40.8624 66.0725C40.0384 65.9155 39.5534 65.4555 39.3044 64.7815C40.0594 64.8685 40.6984 65.0565 41.2584 65.3145ZM40.4754 66.6885C39.6124 67.0165 37.6034 66.6775 37.1124 66.0055C38.2024 66.2795 39.6224 66.4005 40.4754 66.6885ZM38.7644 65.6015C38.7504 65.4365 38.7894 65.3315 38.8544 65.2525C39.0474 65.3475 39.2974 65.3925 39.2544 65.6985C39.0904 65.6675 38.9964 65.5745 38.7644 65.6015ZM38.4854 65.5155C37.9424 65.4645 37.4914 65.3315 37.0894 65.1555C37.0914 64.2035 38.1034 64.5665 38.6784 64.6055C38.9304 64.9005 38.7254 65.3485 38.4854 65.5155ZM38.0414 65.8455C37.6884 65.9355 36.8524 65.8815 36.7114 65.5585C37.2564 65.5645 37.5324 65.8095 38.0414 65.8455ZM37.2814 66.7945C36.5614 66.9995 35.1764 66.6765 34.4684 66.4265C34.9574 65.9705 36.5554 66.5935 37.2814 66.7945ZM35.9714 66.1555C35.5884 66.0945 35.2414 66.0045 34.9234 65.8845C35.0574 65.0975 36.0904 65.0615 36.1234 65.9505C36.0554 65.9995 36.0104 66.0745 35.9714 66.1555ZM34.5714 65.8655C34.0984 65.7285 33.4404 65.7595 33.5504 65.1005C33.9954 64.7585 34.4314 65.1455 35.1094 65.1165C35.0174 65.4645 34.7924 65.6635 34.5714 65.8655ZM36.4264 68.1635C35.9234 67.5615 34.5924 67.7015 33.7034 67.4455C34.3704 66.8565 35.6454 67.6685 36.6614 67.7515C36.6494 67.9625 36.4644 67.9825 36.4264 68.1635ZM36.7804 68.1835C36.8254 67.5725 37.3434 67.8915 37.8584 67.8885C37.7154 68.2305 37.1654 68.1155 36.7804 68.1835ZM37.7414 67.4575C37.7594 67.2475 38.1734 67.2915 38.0904 67.5475C37.8874 67.5955 37.9134 67.4385 37.7414 67.4575ZM37.9874 66.8335C38.6474 67.0255 39.6694 66.8955 40.0124 67.3705C39.3084 67.2175 38.2724 67.3615 37.9874 66.8335ZM40.3724 67.2485C40.5144 67.2565 40.6544 67.2645 40.7964 67.2725C40.8394 67.5875 40.3254 67.4985 40.3724 67.2485ZM40.5414 66.7625C40.7974 66.7355 40.8784 66.8635 41.0274 66.9315C40.9444 67.0665 40.4354 67.0195 40.5414 66.7625ZM41.9344 65.9185C41.9954 66.1865 41.7464 66.1095 41.7694 66.3345C41.4544 66.3495 41.2564 66.2555 41.0714 66.1535C41.1494 65.5625 41.6944 65.4025 41.9344 65.9185ZM41.7784 67.4685C41.9664 67.4785 42.1544 67.4895 42.3424 67.4995C42.4094 67.8135 41.6764 67.7725 41.7784 67.4685ZM41.7304 67.0405C42.7984 67.0115 43.4924 67.1755 44.5594 67.1265C44.0454 67.7305 42.4204 67.2915 41.7304 67.0405ZM43.5384 66.3625C43.4444 65.6675 44.8184 65.9415 44.6654 66.4955C44.1314 66.7385 43.9694 66.2465 43.5384 66.3625ZM45.5514 67.1115C45.6414 66.8615 46.4164 66.7015 46.4734 67.0915C46.1074 67.0135 45.7814 67.2745 45.5514 67.1115ZM46.5475 67.0245C46.5825 66.7885 47.0514 66.7455 47.0414 67.0515C46.8774 67.0425 46.7125 67.0335 46.5475 67.0245ZM47.0144 66.2715C46.2664 66.4045 46.1984 65.9275 45.8414 65.7105C45.8404 65.5335 45.9644 65.4975 46.0024 65.3645C46.3814 65.4505 46.7874 65.5105 47.1944 65.5715C47.1954 65.8735 47.1024 66.0695 47.0144 66.2715ZM47.1514 65.0745C46.9584 65.2435 46.6474 64.9475 46.3034 65.0275C46.3094 64.9335 46.3154 64.8395 46.3194 64.7455C46.7454 64.7225 46.8764 64.9625 47.1514 65.0745ZM46.7934 63.8505C47.3244 63.8685 47.7225 64.0035 48.0495 64.2025C47.9625 64.9215 46.6204 64.5545 46.7934 63.8505ZM47.2574 66.9935C47.3014 66.7425 47.5014 66.6665 47.7724 66.6675C47.8974 66.8625 47.5904 67.0755 47.2574 66.9935ZM47.5824 66.2325C47.6824 65.3205 48.6334 66.0925 49.2195 66.1095C48.8775 66.3785 48.1724 66.2405 47.5824 66.2325ZM48.4894 65.2195C48.5524 65.5175 47.9714 65.4865 48.0654 65.1965C48.2764 65.1435 48.2864 65.1445 48.4894 65.2195ZM48.1714 64.5645C48.4214 64.5855 48.7424 64.5445 48.7254 64.8075C48.4894 64.7725 48.1074 64.8685 48.1714 64.5645ZM50.0154 65.7995C49.7624 65.8665 49.1075 65.7805 48.9675 65.5285C49.0715 65.1515 49.8055 65.4595 50.0275 65.5875C50.0235 65.6585 50.0194 65.7285 50.0154 65.7995ZM49.5215 64.4985C49.7615 64.2235 50.4234 64.5925 50.4164 64.9725C50.0154 65.1505 49.9215 64.5365 49.5215 64.4985ZM50.5844 65.7605C50.9944 65.6145 51.6674 65.7605 51.9184 65.9765C51.6724 66.2175 50.6744 66.0925 50.5844 65.7605ZM50.6234 65.0545C50.7574 64.6485 52.1185 64.9145 52.1604 65.4225C51.7444 65.4695 51.0614 65.2085 50.6234 65.0545ZM51.0864 64.3715C51.0924 64.2545 51.0994 64.1375 51.1064 64.0195C50.8724 64.0085 50.9174 64.3075 50.7334 64.3525C49.3494 64.1935 49.8425 63.1965 50.4115 62.4935C50.9605 62.4945 51.2925 62.6895 51.6675 62.8475C51.5815 63.1265 51.3514 63.2435 51.2744 63.5335C50.8634 63.5655 50.6765 63.3975 50.2905 63.4075C50.4055 64.2445 52.2245 63.5565 52.2125 64.5065C51.9365 64.6115 51.4134 64.4345 51.0864 64.3715ZM52.2475 63.8695C51.9995 63.7785 51.7055 63.7285 51.4825 63.6145C51.5575 63.3485 51.7415 63.2035 51.8035 62.9235C52.0845 62.8965 51.8665 63.3165 51.9135 63.4955C52.2705 63.5455 52.0655 62.9665 52.4345 63.0285C52.4305 63.3735 52.4155 63.7045 52.2475 63.8695ZM51.9254 62.0095C51.8844 61.8145 52.0734 61.8745 52.0824 61.7355C52.2354 61.7545 52.2234 61.9215 52.2034 62.0955C52.0544 62.1175 52.0205 62.0375 51.9254 62.0095ZM53.3895 63.7195C53.4365 63.9225 53.2805 63.8975 53.2995 64.0695C52.9745 63.9745 52.9044 64.0685 52.6704 63.8925C52.6614 63.6325 52.7715 63.5045 52.8434 63.3355C53.0924 63.4035 53.2635 63.5405 53.3895 63.7195ZM53.9695 62.1935C53.9545 62.6025 53.7234 62.7685 53.5694 63.0215C53.3494 62.9955 53.0485 63.0415 52.9384 62.9165C52.7215 62.3345 53.3215 61.8085 53.9695 62.1935ZM52.9345 65.5365C52.9385 65.4665 52.9424 65.3945 52.9464 65.3245C53.1844 65.1445 53.4564 65.3655 53.5734 65.5015C53.5474 65.7235 53.0435 65.6355 52.9345 65.5365ZM53.8015 63.9545C53.9635 63.8165 54.1795 64.0105 54.2875 64.1235C54.2865 64.3995 53.6225 64.2715 53.8015 63.9545ZM53.9225 65.5905C53.9435 65.1275 54.6175 65.0535 54.6335 65.5595C54.4935 65.6775 54.1635 65.5845 53.9225 65.5905ZM54.5454 63.2885C54.3264 63.2835 54.2135 63.1835 54.0595 63.1195C53.9755 62.4865 54.5925 61.9555 54.8685 62.5985C54.7605 62.8275 54.6434 63.0465 54.5454 63.2885ZM55.1075 63.3895C55.0755 63.1295 55.1754 63.0165 55.2765 62.9035C55.4244 62.9715 55.5165 63.0915 55.4645 63.3395C55.2955 63.3005 55.3035 63.4585 55.1075 63.3895ZM55.5125 65.0405C55.6065 64.7675 56.1005 64.9655 56.2175 65.0805C56.0815 65.2425 55.6635 65.0895 55.5125 65.0405ZM55.5385 63.2725C55.7245 63.2625 55.8405 63.3145 55.8095 63.4995C55.6695 63.6305 55.4675 63.5215 55.5385 63.2725ZM56.1785 63.2365C56.0865 63.1405 56.1005 62.8985 56.2015 62.8135C56.3495 62.7905 56.3855 62.8725 56.4795 62.8995C56.4305 63.0695 56.3995 63.2595 56.1785 63.2365ZM56.2995 62.3225C56.3055 61.9885 56.5915 61.8835 56.8135 61.9975C56.8095 62.3895 56.5415 62.5865 56.2995 62.3225ZM56.6535 63.6175C56.4605 63.3805 56.7865 63.2675 56.7585 62.9855C56.8285 62.9895 56.9005 62.9935 56.9705 62.9975C56.9405 63.2885 56.9445 63.6175 56.6535 63.6175ZM57.0145 64.7705C56.9505 64.6035 56.7845 64.5295 56.8295 64.2645C57.1675 64.3205 57.3725 64.4935 57.5865 64.6605C57.6145 64.9415 57.1945 64.7225 57.0145 64.7705ZM56.9955 63.8485C57.1105 63.5535 57.0245 63.0325 57.4625 63.0955C57.5635 63.2815 57.5325 63.8385 57.4115 64.0135C57.2475 63.9805 57.1235 63.9125 56.9955 63.8485ZM57.6255 62.6795C57.3505 62.7015 57.2875 62.5335 56.9935 62.5745C56.9385 62.0625 57.2395 61.9485 57.7305 62.0485C57.7045 62.2675 57.7505 62.5695 57.6255 62.6795ZM58.0225 63.1975C58.1375 63.1835 58.1395 63.2705 58.2295 63.2795C58.1635 63.5805 58.0835 63.8645 57.9055 64.0415C57.4955 63.9175 57.9165 63.4145 58.0225 63.1975ZM58.8375 61.2585C58.5645 61.3005 58.3665 61.3435 58.3555 61.0195C58.6555 61.1315 58.8015 61.0785 59.1315 61.0625C59.0995 61.3015 59.1545 61.6385 59.0225 61.7655C58.7275 61.7475 58.7195 61.4725 58.8375 61.2585ZM58.8815 63.0325C58.6205 63.0645 58.5075 62.9645 58.3955 62.8635C58.3995 62.5195 58.4605 62.2375 58.8505 62.3225C58.9565 62.4675 59.0485 62.8485 58.8815 63.0325ZM58.9245 63.5305C58.8115 63.8545 58.7955 64.2855 58.3205 64.2055C58.0795 63.7845 58.5285 63.0195 58.9245 63.5305ZM57.9055 62.7655C57.8895 62.4745 57.9955 62.3165 58.0815 62.1385C58.1515 62.1425 58.2225 62.1465 58.2935 62.1505C58.4595 62.4295 58.2565 62.8295 57.9055 62.7655ZM58.0815 64.6875C58.3005 64.6485 58.3355 64.7745 58.5015 64.7825C58.4865 64.9945 57.9895 64.9585 58.0815 64.6875ZM58.4695 65.3465C58.6575 65.3575 58.8465 65.3675 59.0345 65.3775C59.0075 65.6305 58.4435 65.6465 58.4695 65.3465ZM59.4385 64.4795C59.0885 64.4345 59.3065 63.8815 59.1295 63.6835C59.2375 63.5845 59.5975 63.6055 59.6945 63.7145C59.6925 64.0625 59.6165 64.3275 59.4385 64.4795ZM60.0455 61.1845C60.0855 61.6535 59.6035 61.5385 59.6465 62.0115C59.3055 62.0705 59.3705 61.7665 59.3915 61.5015C59.7785 61.4635 59.5915 60.7515 60.0455 61.1845ZM59.5945 60.3795C59.7825 60.3685 59.8215 60.4905 59.7905 60.6735C59.6045 60.6855 59.5655 60.5635 59.5945 60.3795ZM60.1605 61.6865C60.4115 61.7305 60.4875 61.9305 60.4855 62.2005C60.2995 62.3685 60.2135 62.1035 59.9955 62.1025C59.9345 61.8335 60.1825 61.9115 60.1605 61.6865ZM60.8235 65.0525C60.3665 65.0145 60.4485 64.4935 59.8585 64.5735C59.8505 64.3145 59.8955 64.1145 59.9635 63.9415C60.5525 64.0175 61.1155 64.6105 60.8235 65.0525ZM61.0465 63.5775C60.7215 63.6005 60.7315 63.3235 60.5715 63.1965C60.4175 63.1495 60.4635 63.3265 60.3515 63.3265C60.0815 63.1425 59.8555 62.9205 59.7555 62.5855C60.0005 62.4885 60.2105 62.9235 60.5305 62.6285C60.7775 62.8485 61.3365 63.0965 61.0465 63.5775ZM60.5995 61.4275C60.9225 61.2785 61.4615 61.4405 61.6515 61.6265C61.5085 61.8675 61.4445 62.1965 61.3215 62.4585C60.7195 62.4385 60.8025 61.8045 60.5995 61.4275ZM62.3765 63.8635C62.3365 63.7185 62.6405 63.0575 62.9735 63.3305C62.9095 63.6575 62.7095 63.8345 62.3765 63.8635ZM63.2205 63.9805C63.2585 63.6725 63.3735 63.4525 63.7415 63.5135C63.7005 63.8175 63.5265 63.9725 63.2205 63.9805ZM62.8555 62.8985C62.6925 62.7485 62.9915 62.5685 62.8115 62.4005C62.3585 62.4095 62.0795 62.8735 61.5965 62.6165C61.6595 62.2615 61.8095 62.0065 61.9295 61.7145C62.2875 61.6845 62.4145 61.8605 62.7725 61.8315C62.7955 61.9675 62.9675 61.9705 62.8945 62.1915C63.1995 61.8015 63.7945 62.1915 64.1625 62.3335C63.9425 62.8125 63.4715 63.2855 62.8555 62.8985ZM63.3885 60.9445C63.3735 61.2545 63.1885 61.3705 63.0715 61.5645C62.7455 61.4985 62.4885 61.3705 62.1655 61.3015C62.0365 60.3575 62.9345 60.7975 63.3885 60.9445ZM64.4915 62.7765C64.4065 62.9905 64.1785 63.3285 63.9735 63.1725C64.0595 62.9435 64.1925 62.7665 64.4915 62.7765ZM63.8365 64.3695C64.0235 64.0765 64.4965 63.7095 64.9225 63.9335C64.6925 64.2255 64.2845 64.3205 63.8365 64.3695ZM65.1085 64.4395C65.2155 64.2595 65.3835 64.1485 65.6885 64.1885C65.6705 64.4575 65.2355 64.5285 65.1085 64.4395ZM65.0835 63.5875C65.1035 63.2845 65.3625 63.2495 65.6685 63.2665C65.6615 63.6155 65.3595 63.7515 65.0835 63.5875ZM64.7435 63.3565C64.9505 63.0285 65.2845 62.5615 65.7665 62.7765C65.5945 63.1595 65.1375 63.2245 64.7435 63.3565ZM63.4915 61.6585C63.5015 61.4695 63.5115 61.2815 63.5225 61.0945C63.6165 61.0995 63.7105 61.1045 63.8045 61.1105C63.8675 61.3875 63.5405 61.3475 63.7095 61.5305C64.0105 61.5655 64.0075 61.2615 64.2245 61.2045C64.9265 61.4635 65.3775 61.5375 66.1075 61.7335C65.7355 62.8535 64.3035 61.7555 63.4915 61.6585ZM67.5155 60.6065C67.4405 60.9725 67.2805 61.2445 67.1125 61.5045C65.8575 61.2145 64.9155 61.0575 63.8325 60.6145C63.9175 60.3345 64.0915 60.1535 64.2245 59.9265C65.4835 59.7885 66.6475 60.3965 67.5155 60.6065ZM67.4725 60.1075C67.5235 59.8895 67.7025 59.8165 67.7825 59.6285C68.5035 59.7905 69.6085 59.9675 70.5095 60.2755C70.4865 60.6245 70.1935 60.6715 70.0505 60.8865C69.1255 60.6495 68.1845 60.3495 67.4725 60.1075ZM65.9975 62.4345C65.8525 62.2635 66.0395 62.0415 66.2995 62.0975C66.2505 62.2665 66.2195 62.4565 65.9975 62.4345ZM66.6925 62.6855C66.6795 62.1745 67.1245 61.7935 67.5015 62.1645C67.2705 62.3815 67.1225 62.6915 66.6925 62.6855ZM67.6025 62.8775C67.5635 62.6255 67.8045 62.5715 67.8975 62.6815C67.8295 62.7815 67.7785 62.8995 67.6025 62.8775ZM67.3195 61.5865C67.3235 61.1415 67.5855 60.9825 67.7235 60.6885C68.0735 60.7105 68.3415 60.8065 68.6335 60.8805C68.6825 61.3595 68.3195 61.3785 68.3665 61.8575C68.0695 61.9255 67.5905 61.7485 67.3195 61.5865ZM69.6065 61.2175C69.2765 61.4735 69.0385 61.8315 68.5085 61.8645C68.5535 61.3065 69.0595 60.7515 69.6065 61.2175ZM69.9135 62.0845C69.8935 62.2375 69.7265 62.2265 69.5525 62.2055C69.5165 61.9585 69.8135 61.9665 69.9135 62.0845ZM68.5905 62.9325C68.6435 62.3995 69.5605 62.6205 69.8735 62.7905C69.8035 63.0875 69.4655 63.0835 69.2145 63.1795C69.2785 62.8545 68.8385 62.9795 68.5905 62.9325ZM70.5445 63.4655C70.0965 63.4645 69.8985 63.7425 69.3985 63.6855C69.6485 63.4145 69.8885 63.1335 70.3515 63.1005C70.4095 63.2295 70.6335 63.2065 70.5445 63.4655ZM69.8545 61.8695C70.0205 61.5925 70.4045 61.2385 70.7215 61.5625C70.5985 61.8245 70.2135 62.1155 69.8545 61.8695ZM70.9635 62.2845C70.7875 62.2855 70.6725 62.2325 70.6185 62.1245C70.6345 61.8415 70.9625 61.9085 71.0655 61.7245C71.1475 61.8545 70.9325 62.1215 70.9635 62.2845ZM70.9635 61.0095C71.1395 61.0095 71.3055 61.0175 71.3835 61.1035C71.3695 61.3165 70.8725 61.2815 70.9635 61.0095ZM71.1215 60.7345C71.1655 60.3985 71.7405 60.4095 71.7575 60.7695C71.6015 60.9015 71.2845 60.7975 71.1215 60.7345ZM71.9325 61.4175C71.8655 61.1405 72.1775 60.7085 72.6745 60.8195C72.5985 61.2105 72.3015 61.3545 71.9325 61.4175ZM73.1575 61.0605C72.9935 61.2765 72.8605 61.5285 72.4955 61.5195C72.6185 61.2565 72.8655 61.1335 73.1575 61.0605ZM72.3055 62.3595C72.3255 62.1795 72.4245 62.0905 72.6045 62.0915C72.5855 62.2715 72.4865 62.3605 72.3055 62.3595ZM73.4055 62.9865C73.1635 62.9915 73.0555 63.1465 72.7615 63.0935C72.8805 62.7755 73.0155 62.4765 73.4335 62.4925C73.4225 62.6565 73.4135 62.8215 73.4055 62.9865ZM73.7805 60.0325C73.5955 60.1485 73.5505 60.4255 73.3965 60.5775C73.1185 60.6035 72.9895 60.4945 72.8385 60.4055C72.8115 60.1735 72.9045 60.0795 72.9365 59.9155C72.4285 59.8785 72.2095 60.5985 71.7215 60.1315C71.8895 59.8405 71.6625 59.5705 71.9055 59.3615C72.1345 59.3595 72.1975 59.5035 72.4665 59.4645C72.5225 59.5495 72.5505 59.6585 72.5185 59.8205C72.5725 59.7055 73.0735 59.4095 73.0125 59.8475C73.5055 59.6225 73.8315 59.9905 74.3505 59.9925C74.2995 60.3075 73.8105 60.2875 73.7805 60.0325ZM74.6045 61.7775C74.6075 61.5545 74.7995 61.5455 74.9735 61.5145C74.9545 61.7165 74.8665 61.8455 74.6045 61.7775ZM74.9975 59.8165C74.9425 59.7305 74.9145 59.6225 74.9465 59.4595C74.1625 59.7725 73.6105 59.1255 72.8395 59.1305C72.9055 58.8305 72.8925 58.6655 72.9445 58.4985C73.6585 58.7555 74.4715 58.9225 74.9505 59.3895C75.2635 59.3085 75.3665 59.4095 75.6515 59.4985C75.6075 59.9145 75.3465 59.8945 74.9975 59.8165ZM75.6325 62.4015C75.6735 62.1475 76.0745 62.2965 76.0795 62.0015C76.2095 62.1515 75.9155 62.4625 75.6325 62.4015ZM75.8405 61.2085C75.6525 60.9705 75.9855 60.3565 76.2955 60.6665C76.2565 60.9735 76.0175 61.0565 75.8405 61.2085ZM76.5425 61.3185C76.6375 61.0745 76.7775 60.8815 77.1315 60.9255C77.1145 61.2375 76.8335 61.5505 76.5425 61.3185ZM76.5575 58.4865C76.6345 58.5745 76.6235 58.7405 76.6045 58.9145C76.9005 58.9735 76.9835 58.5495 77.1825 58.7335C77.1475 59.0945 76.8485 59.1605 76.6525 59.3415C76.4255 59.0525 75.5615 59.3335 75.6205 58.7875C75.2375 58.9585 74.6005 58.8915 74.5815 58.3765C74.2085 58.5935 73.8005 58.4045 73.5295 58.1765C73.6005 57.7805 73.8745 57.6125 74.0715 57.3565C74.0245 57.1015 73.8975 57.3385 73.6515 57.2625C73.4285 57.5135 73.3585 57.9355 72.9715 58.0035C72.5655 57.9645 72.4595 57.6565 71.9985 57.6665C71.7755 58.0495 72.2855 58.1645 72.6035 58.2665C72.5695 58.6285 72.2705 58.6945 72.0745 58.8745C71.4175 58.7695 70.8985 58.5395 70.2585 58.4205C70.1145 58.2675 70.2935 58.1425 70.3525 58.0005C70.1335 57.9555 70.1195 58.1385 70.1215 58.3415C69.8505 58.3125 69.6015 58.3105 69.4115 58.3725C69.5205 59.2945 70.9205 58.7555 71.6325 59.2045C71.5375 59.5995 71.1995 59.7215 70.9535 59.9455C69.7695 59.6225 68.8165 59.1005 67.4575 59.1145C67.6745 59.5445 67.3935 59.6245 67.2665 60.0245C66.2845 59.8755 65.4385 59.6015 64.5395 59.3785C64.5985 58.7585 65.5085 58.0715 65.5665 57.4515C64.9335 57.8705 64.6855 58.7175 64.2555 59.3625C63.9055 59.3445 63.4845 59.2505 63.3975 59.5275C63.4245 59.8155 63.7445 59.8435 63.8645 60.0485C63.7625 60.1845 63.7115 60.3775 63.6255 60.5305C63.1715 60.5345 62.8745 60.3975 62.5785 60.2605C62.6515 59.7685 62.9565 59.5335 63.0685 59.0835C62.6355 58.9895 62.5485 59.8925 62.2285 60.1705C61.8355 60.0525 61.2425 60.1125 61.1185 59.7545C60.9765 59.8965 60.7595 59.9535 60.5375 60.0065C60.4675 60.2475 60.6275 60.2825 60.5805 60.5045C60.9655 60.7245 61.7405 60.2065 62.0635 60.5865C62.0135 60.8065 61.9175 60.9735 61.8205 61.1395C60.4765 61.1575 60.0565 60.3465 59.6425 59.5325C59.6855 59.1305 60.1165 59.1615 60.1135 58.7085C59.9575 58.4665 59.8905 58.9535 59.6115 58.8215C59.5575 59.0495 59.6405 59.1535 59.6545 59.3195C59.5255 59.3995 59.2795 59.3505 59.2185 59.5085C59.3905 59.8345 59.2805 60.0575 59.2345 60.5005C58.9255 60.4045 58.7115 60.6425 58.5295 60.4615C58.4255 60.2325 58.7735 59.9635 58.7205 59.5515C58.2875 60.0725 57.9385 60.8975 57.8975 61.6305C57.6945 61.6105 57.4335 61.6435 57.3355 61.5285C57.4075 60.8165 58.1665 60.1295 57.8065 59.4295C57.4395 60.0935 57.5055 61.2425 56.7715 61.4965C56.8085 61.0375 57.0965 60.8595 57.1835 60.4565C56.6875 60.6515 56.7855 61.5115 56.1315 61.5315C56.1825 61.8985 56.1755 62.1025 55.9475 62.3005C55.7285 62.2955 55.6154 62.1955 55.4614 62.1325C55.4715 61.3425 55.8084 60.9195 55.9204 60.2445C55.5384 60.3445 55.3675 61.3265 55.1915 61.9045C54.7515 61.8965 54.6695 61.5655 54.5165 61.3005C54.6145 60.9595 55.0575 61.0055 55.1205 60.6255C54.6095 60.6545 54.5855 61.2275 54.0935 61.2765C54.0774 61.4865 54.2815 61.6465 54.1365 61.7745C53.7505 61.8075 53.5704 61.6565 53.2224 61.6535C53.1524 61.4705 53.1305 61.2435 52.9684 61.1435C52.5684 61.0975 52.5724 61.5015 52.3044 61.6025C52.0664 61.4805 51.6645 61.5045 51.3205 61.4775C51.3615 61.8885 51.6855 62.0455 51.6895 62.4895C51.0685 62.3955 50.7345 62.0005 50.0815 62.1175C50.3635 62.4685 49.7844 63.0395 49.6454 63.5805C49.2034 63.5965 49.1794 63.2365 48.9664 63.0475C49.0274 62.7395 49.2344 62.5975 49.2914 62.2865C49.1554 62.1405 49.0285 62.6385 48.9115 62.7615C48.5775 62.8145 48.6924 62.4645 48.3584 62.5185C48.2764 62.9825 48.6474 63.5935 48.9894 63.8995C48.3014 63.8665 48.1844 63.3225 47.6864 63.1195C47.3804 63.1575 47.7314 63.4645 47.5184 63.6055C47.3544 63.5735 47.2314 63.5035 47.1024 63.4405C47.2504 63.1315 47.5245 62.9615 47.5774 62.5455C47.1845 62.6575 47.1204 63.1345 46.8904 63.4285C46.4844 63.3895 46.2704 63.1775 45.7684 63.2245C45.5194 62.8735 44.6414 62.1375 44.2464 62.5745C44.7404 63.2065 45.7434 63.3835 46.0714 64.1625C45.7334 64.1305 45.4794 64.0205 45.1614 63.9715C45.0014 63.8185 45.2724 63.6965 45.1134 63.5435C44.7924 63.9615 44.0814 63.7265 43.7014 63.4655C43.7274 63.2445 43.9914 63.2895 43.9404 62.9835C43.7354 62.9065 43.6084 63.5605 43.2694 63.5845C43.0704 63.5835 43.0754 63.3995 43.0774 63.2195C42.7004 63.2985 42.6714 63.7655 42.3984 63.9605C41.2084 63.8095 40.3314 63.2585 39.2454 63.3605C39.1964 64.0085 40.2354 63.9645 40.7004 63.9375C40.7434 64.1395 40.8794 64.4815 40.7314 64.6475C39.1764 64.3195 38.3074 63.8545 36.5924 63.9215C36.5134 64.3725 36.9384 64.3725 37.1964 64.5225C37.0534 64.8625 36.8744 65.1625 36.3184 65.0405C36.2004 64.8565 36.0964 64.6575 36.1454 64.3225C35.8664 64.1445 35.7484 64.7035 35.4824 64.7815C34.6124 64.7315 33.0444 64.0705 33.1134 65.3585C33.0014 65.3585 32.8454 65.3095 32.8274 65.4145C33.1264 65.6605 33.5024 65.8385 33.5564 66.3045C32.6854 66.1005 31.7154 65.9835 31.1944 65.4655C30.9194 65.6335 30.5494 65.6945 30.5204 66.1365C29.7884 66.0755 29.2864 65.8095 28.5584 65.7445C28.4534 65.9405 28.5404 66.3075 28.3704 66.5845C27.7744 66.5575 26.6174 65.9035 26.4524 66.6905C25.6344 66.5435 24.6394 66.2915 23.6504 66.1105C23.9404 66.6555 24.9634 66.5465 25.5224 66.8505C25.4164 67.2565 25.0864 67.4145 24.8394 67.6635C24.3394 67.4695 23.7714 67.5995 23.3754 67.2275C23.3404 66.9135 23.6194 66.9515 23.6864 66.7485C23.4524 66.5255 23.3424 66.9205 23.1754 67.0045C22.8584 66.8855 22.6494 66.6695 22.5004 66.3995C21.8364 67.4025 20.4084 66.6305 19.0174 66.6315C19.4264 67.2495 20.8824 66.9305 21.4544 67.4035C21.4704 67.6465 21.2314 67.6035 21.1514 67.7405C19.1234 67.4075 17.0494 66.7615 14.9764 66.6905C15.3724 67.4315 17.0984 66.9835 17.6924 67.5485C17.6834 67.7645 17.4284 67.7035 17.4564 67.9605C16.3774 67.9435 15.6414 67.4075 14.7964 67.3885C14.6904 67.2155 14.8044 66.8445 14.5464 66.8075C14.1754 66.9445 13.8864 67.1705 13.3924 67.1685C13.3374 67.4865 13.7834 67.3565 13.9424 67.4815C13.8044 67.8285 13.6634 68.1695 13.1974 68.1485C13.0064 67.8805 13.3594 67.7195 13.3774 67.4505C13.0984 67.1175 12.5834 67.5405 12.5694 67.9725C11.7354 67.8125 11.0534 67.6795 10.4004 67.4975C10.3714 66.3375 11.0484 65.5785 10.9174 64.5515C10.1314 64.9975 10.2754 66.4845 9.9774 67.4745C9.5044 67.2685 9.2474 67.6175 8.92039 67.3455C8.43239 67.3725 8.49239 68.0175 8.23139 68.2985C7.57139 68.3345 6.35439 67.7645 5.95639 68.4555C5.92339 68.6415 6.35539 68.4115 6.22739 68.6825C6.09139 68.8815 5.64139 68.7275 5.50539 68.9255C5.50239 69.1295 5.80039 69.0655 5.76839 69.2945C5.64339 69.6505 5.13039 69.5645 4.84239 69.3855C4.80639 68.9945 5.10239 68.9755 5.09739 68.6195C5.10439 68.4125 4.95139 68.3485 4.83439 68.2505C4.11639 68.4745 3.69439 69.0265 3.14039 69.4325C3.19439 68.8925 3.74439 68.2585 3.88039 67.5615C4.52539 67.5105 4.69139 68.2085 5.27439 67.9935C5.10339 67.6085 4.45239 67.6555 4.32439 67.2315C5.49639 65.9165 6.60239 64.5275 7.87139 63.3195C14.4314 63.1375 20.4674 61.8905 26.4264 60.8055C32.0674 59.7775 37.5904 58.9725 43.0324 57.6865C48.1834 57.2615 53.8054 56.2655 58.9595 55.3105C60.2465 55.0725 61.7875 55.1615 63.4435 54.9205C65.1985 54.6665 67.0095 53.9165 68.5705 54.4255C68.7695 54.3975 68.7835 54.1635 68.8775 54.0175C71.5805 53.7825 74.1935 53.1525 76.8595 53.1145C76.9125 53.1805 76.9275 53.2785 76.9155 53.4005C77.1475 53.4105 77.2735 53.3005 77.5555 53.3655C77.6185 53.1525 77.4455 53.1505 77.5085 52.9375C78.6185 52.9985 79.4915 52.6905 80.7095 52.6895C80.3185 53.4345 78.8745 52.7465 78.6095 53.4945C79.3865 53.7995 80.2555 53.0785 81.1835 53.0705C81.1505 53.3335 80.9975 53.4625 80.8685 53.6195C80.9385 53.8815 81.1905 53.3465 81.2925 53.6425C80.9785 54.3135 79.3565 53.9125 78.6335 54.3455C78.5715 54.0775 78.8195 54.1545 78.7985 53.9295C78.4445 54.0595 78.2565 54.3745 77.9825 54.5925C78.1465 54.7565 78.6685 54.3665 78.8265 54.7105C79.2265 54.4765 80.1425 54.0415 80.6155 54.3845C80.8045 54.2055 81.3115 53.8955 81.5455 54.2235C81.0635 54.6595 80.1945 54.6645 79.5915 54.9655C80.2385 55.1865 80.7975 54.6635 81.4515 54.6435C81.4305 55.0205 81.3675 55.3505 81.1875 55.5495C80.8885 55.4595 80.5695 55.3875 80.2815 55.2865C80.0405 55.2915 80.0645 55.5935 79.9045 55.6905C79.5175 55.6315 79.2365 55.6935 78.9125 55.7065C78.7275 55.4775 78.9755 55.2775 79.0855 55.1485C78.8035 55.1095 78.7335 55.3045 78.5755 55.4045C78.5785 55.6695 78.9145 55.6375 78.9745 55.8515C78.8375 56.2475 78.5975 56.5295 78.2885 56.7345C77.8935 56.7345 77.7845 56.3325 77.4525 56.4755C77.3315 56.9645 77.8415 56.8875 77.9815 57.1425C77.7655 57.8125 76.8255 57.2825 76.4245 57.1265C76.9885 56.1315 78.2855 55.9555 78.7465 54.8465C77.8925 55.1945 77.1895 56.3575 76.0945 56.6835C76.5115 55.8495 77.4655 55.6155 77.8995 54.7995C77.1155 55.2735 76.1245 56.1645 75.3055 56.8525C75.4155 57.0875 75.5005 56.6785 75.7335 56.8045C75.6415 57.7605 76.9915 57.4245 77.2215 58.0915C76.1665 58.2245 75.4385 57.4975 74.5015 57.3035C74.3595 57.3445 74.3035 57.4815 74.2705 57.6445C74.8275 58.1115 75.8385 58.1665 76.5575 58.4865ZM8.17039 62.9155C16.2084 61.5225 24.3854 60.2855 32.6744 59.1725C28.6584 60.1885 23.8324 60.5535 19.2964 61.5485C16.0264 62.2665 11.8914 62.7345 8.17039 62.9155ZM50.3985 56.3295C50.4335 56.0945 50.7295 56.1495 50.9755 56.1485C50.8735 56.3105 50.5855 56.2635 50.3985 56.3295ZM51.2565 56.1635C51.3385 56.0045 51.5905 56.0355 51.8295 56.0545C51.7485 56.2135 51.4975 56.1825 51.2565 56.1635ZM79.1785 59.7645C79.2095 59.5795 78.9075 59.6935 78.9835 59.4705C79.0645 59.4865 79.1095 59.4615 79.1285 59.4065C79.4035 59.3845 79.4095 59.6025 79.6105 59.6455C79.5305 59.9485 79.1595 60.0945 78.8845 59.9595C78.9135 59.8165 79.0815 59.8295 79.1785 59.7645ZM77.8445 58.2735C78.4075 58.1405 79.0255 58.5055 79.4495 58.7165C79.0385 59.0155 78.1595 58.7075 77.8445 58.2735ZM78.4325 57.8815C78.7585 56.8455 79.9095 58.0475 80.5555 57.9275C80.1615 58.6015 79.0685 57.9865 78.4325 57.8815ZM78.5625 56.8265C78.9855 56.6145 79.0635 55.6485 79.7435 55.9715C79.4135 56.2735 79.1785 57.3245 78.5625 56.8265ZM79.8175 57.1785C80.0715 57.0405 80.4935 56.7625 80.8225 56.9515C80.7435 57.3425 80.1085 57.4635 79.8175 57.1785ZM79.8835 55.9785C80.3095 55.9415 80.9125 55.6505 81.1545 56.0485C81.1755 56.2735 81.0395 56.3195 80.9905 56.4645C80.5735 56.3455 79.9655 56.3975 79.8835 55.9785ZM81.6575 57.2095C81.5225 57.3825 81.3185 57.4795 81.0075 57.4565C81.0405 57.0855 81.4285 56.9595 81.6575 57.2095ZM81.3565 56.2725C81.3435 55.8415 81.8235 56.0525 81.9995 56.1655C81.8885 56.3715 81.5165 56.3265 81.3565 56.2725ZM77.7155 58.0545C77.7095 58.1485 77.7035 58.2425 77.6995 58.3365C77.5495 58.3575 77.5135 58.2765 77.4205 58.2495C77.4885 58.1505 77.5405 58.0325 77.7155 58.0545ZM77.3035 59.0935C77.5035 58.6155 78.1295 59.0385 78.5035 59.1595C78.3445 59.4575 77.9805 59.5245 77.6955 59.6815C77.5515 59.4985 77.7475 59.0095 77.3035 59.0935ZM78.5795 60.3695C78.5555 60.5665 78.4395 60.6625 78.2105 60.6325C78.2345 60.4335 78.3495 60.3375 78.5795 60.3695ZM77.9155 62.1025C77.9225 61.8285 77.5815 61.8655 77.5905 61.5885C77.8565 61.4105 78.0945 61.8635 78.4385 61.6355C78.3745 61.8505 78.6245 61.7815 78.5595 61.9965C78.3235 62.0075 78.2355 62.1835 77.9155 62.1025ZM78.1705 61.3375C78.2705 61.2415 78.5765 61.2585 78.6645 61.3645C78.6515 61.5825 78.1165 61.6845 78.1705 61.3375ZM78.9205 61.8745C78.9455 61.6475 79.5945 61.4585 79.5595 61.8395C79.3275 61.8295 79.2025 61.9395 78.9205 61.8745ZM78.7625 60.8745C79.0875 60.0275 79.5245 60.9625 80.2495 60.8855C79.9345 61.3585 79.2475 60.9935 78.7625 60.8745ZM80.2785 61.6665C80.2015 61.5785 80.2125 61.4125 80.2305 61.2385C80.4545 61.1365 80.9195 60.9015 81.0065 61.2815C80.9345 61.6005 80.5545 61.5765 80.2785 61.6665ZM79.5825 60.1405C79.7205 59.8445 79.9075 59.6045 80.3875 59.6895C80.4635 59.7775 80.4535 59.9435 80.4345 60.1175C80.6925 60.1355 80.8005 59.7395 81.0105 59.9365C80.8865 60.5425 80.0165 60.4065 79.5825 60.1405ZM80.7445 58.3635C80.6945 58.0385 81.0655 57.9355 81.2545 58.1085C81.1555 58.2725 81.0075 58.3825 80.7445 58.3635ZM81.2505 59.4545C81.2735 59.1395 81.7715 59.2705 81.9635 59.3515C81.9955 59.7115 81.3525 59.6805 81.2505 59.4545ZM81.0845 58.5945C81.1585 58.2335 81.8265 58.1995 82.0925 58.2965C82.0245 58.6635 81.4525 58.8045 81.0845 58.5945ZM81.6375 57.5625C81.6215 57.2455 81.8695 57.2215 82.1525 57.2375C82.2785 57.4325 81.9705 57.6445 81.6375 57.5625ZM81.6185 55.3665C81.6715 55.1995 81.7375 55.0505 81.7205 54.8055C82.2085 54.9255 82.3555 54.6645 82.5875 54.4995C82.6705 54.4925 82.7125 54.5215 82.7255 54.5775C82.5385 55.0215 82.1845 55.5865 81.6185 55.3665ZM83.7165 53.2865C83.7205 53.2165 83.7245 53.1455 83.7285 53.0745C83.8135 53.0195 83.9225 52.9925 84.0845 53.0235C84.1165 53.2835 83.9235 53.2925 83.7165 53.2865ZM84.0965 54.0865C83.8835 54.6475 83.3385 54.8385 82.8385 55.0785C83.1185 54.5925 83.4035 54.1115 84.0965 54.0865ZM83.1745 52.8315C83.2605 52.5865 83.4695 52.3945 83.7555 52.5805C83.6005 52.7065 83.4065 52.7895 83.1745 52.8315ZM83.1995 53.6825C83.2375 53.9765 82.9335 54.1145 82.7605 53.9415C82.7825 53.7165 82.9365 53.6405 83.1995 53.6825ZM83.1965 57.5785C83.0855 57.7805 82.9445 57.9465 82.6115 57.9005C82.7615 57.7445 82.8445 57.5115 83.1965 57.5785ZM82.7275 53.2315C82.6735 53.5705 82.5305 53.8095 82.1315 53.7655C81.9545 53.4235 82.4375 53.0375 82.7275 53.2315ZM82.4155 58.8805C82.4365 58.6045 82.8085 58.7195 82.9965 58.6295C83.0105 58.9235 82.5385 59.2065 82.4155 58.8805ZM83.0435 60.3315C82.8385 60.2685 82.7575 60.0955 82.7875 59.8215C82.9275 59.6775 83.2325 59.7175 83.3015 59.4965C83.4815 59.7745 83.1305 60.1025 83.0435 60.3315ZM83.4585 57.9475C83.4575 57.5825 83.9695 57.6415 83.9525 57.9745C83.8115 58.1075 83.6185 57.9905 83.4585 57.9475ZM83.3015 56.9475C83.3765 56.6105 83.9615 56.5125 84.2395 56.6445C83.9955 56.8235 83.6745 57.1415 83.3015 56.9475ZM83.0775 55.8725C83.5445 55.4435 83.8545 54.8415 84.5605 54.6795C84.2485 55.2365 83.7025 55.9115 83.0775 55.8725ZM85.7015 48.1545C84.5555 48.6285 83.5245 47.9515 82.3895 47.8305C82.6555 48.6245 84.9755 48.1535 85.0695 49.3245C83.6805 49.5475 82.3185 48.6195 81.1665 48.1865C81.3535 48.8265 82.3565 48.7315 82.6655 49.2615C81.4795 49.1965 80.2965 48.7965 79.1425 48.9245C80.9455 49.3545 82.9865 49.5895 84.5445 49.8605C84.2225 50.2755 83.7915 50.5695 83.4235 50.9315C81.2165 50.4455 78.9575 49.6485 76.7805 49.3595C78.7025 50.2125 81.3105 50.4505 83.2605 51.2775C82.9365 51.8075 82.3175 51.3525 81.9145 51.2735C79.2105 50.7425 75.9125 50.0905 73.3535 49.8075C75.8005 50.3795 78.8215 50.9915 81.4705 51.6025C78.4345 52.5375 75.0605 50.3345 71.9845 50.2275C73.9015 51.0185 76.3885 51.2975 78.4045 52.0005C75.8855 51.9855 72.6115 50.9275 69.4745 50.7975C71.7225 51.4475 74.4615 51.6575 76.8335 52.1965C73.5915 53.2985 70.0185 51.1415 66.3975 51.3355C68.3175 51.9095 71.1295 52.0575 73.2675 52.6365C70.5105 53.5395 67.2355 51.9575 64.0245 51.9845C65.9785 52.6505 68.6645 52.6635 70.6825 53.2735C67.3785 54.5095 64.1905 52.7155 60.5955 52.5025C62.1295 53.2105 64.5475 53.1265 65.9705 53.9345C62.6995 53.6965 59.5965 52.9895 56.4685 52.8415C58.3955 53.3095 60.6185 53.5115 62.7175 53.8245C61.8775 54.1845 60.3905 53.8225 59.3795 53.9935C60.9495 54.3495 62.8115 54.1425 64.6125 54.1415C64.0715 54.6195 63.3125 54.4335 62.3295 54.4395C58.8955 54.4625 55.3295 55.4745 51.7764 55.6975C50.1214 55.8015 48.7364 56.4615 47.1864 56.7185C40.6694 57.7985 34.0234 58.4135 27.3394 59.5155C25.7534 59.7765 24.1594 59.8865 22.5544 60.2425C18.7494 61.0835 14.5994 61.3325 10.5574 61.9865C7.70339 62.4485 4.87839 62.8715 1.98238 63.3535C2.60738 56.4825 2.13638 50.3735 2.44138 43.5445C2.56838 40.6795 2.87039 37.7715 2.92939 34.7185C5.38039 34.2575 8.00939 33.9945 10.3004 33.3555C9.31239 32.4915 7.9114 33.8525 6.74939 33.5135C5.63439 33.9155 4.27038 34.0415 2.95638 34.2235C2.74538 33.0825 3.24938 32.1055 3.67738 31.4305C3.93038 31.7215 4.09939 31.2675 4.33339 31.1135C4.40939 30.8435 4.03039 30.9805 4.14439 30.6775C4.70739 30.6405 5.47639 30.1145 5.62039 29.6245C5.97039 29.5165 6.34639 29.4355 6.76639 29.4055C6.91239 29.5625 6.66339 29.6085 6.67239 29.8245C6.97139 29.6895 7.66639 28.9815 7.88439 29.6795C6.97439 30.2875 6.07239 30.9065 5.42839 31.8105C6.42139 31.7425 6.78739 30.3315 7.8614 30.1035C7.6714 30.8535 6.65539 31.0375 6.70439 31.8105C8.05839 31.1975 8.33739 29.3855 10.0384 29.1625C9.39839 30.2225 8.2784 30.7445 7.62639 31.7915C8.7244 31.5905 9.25339 30.1105 10.2984 29.6025C10.1564 30.4485 9.23539 31.0615 8.82739 31.8585C9.88039 32.0425 10.0924 30.0355 11.0074 29.5705C11.4104 31.0485 9.6344 34.1835 11.4334 34.6945C12.2484 34.9255 13.0384 34.5145 13.7204 34.3255C13.9694 33.7545 14.3944 33.3785 14.5864 32.7445C17.9294 32.0975 21.0624 31.7335 24.5114 31.3095C27.4854 30.9445 30.3704 29.8125 33.4724 29.3975C36.8374 28.9475 40.1694 28.1135 43.6134 27.9055C44.0704 27.8775 44.7114 27.9445 44.9194 27.3405C34.7114 28.2095 24.9104 31.2295 14.6144 32.2495C13.9664 31.3665 14.6494 29.4215 15.6334 29.1885C15.7794 29.6775 15.0044 29.7835 14.9364 30.2845C16.7094 30.4055 17.3214 27.6205 19.6044 27.8505C18.9854 28.6355 17.5884 29.1975 16.8584 30.1065C17.6524 30.1345 18.4284 28.8685 19.4214 28.6195C19.2804 29.0745 18.4434 29.1125 18.6514 29.7105C19.7034 29.3175 20.2344 27.6905 21.6404 28.1765C21.0964 28.7435 20.1624 28.8745 19.7884 29.6325C20.8014 29.3885 21.4794 28.1225 23.1194 28.3295C22.8064 28.7305 22.1574 28.7545 21.9334 29.2555C23.0154 28.5485 24.0584 28.2285 26.0094 28.5605C25.8204 28.9995 25.2314 28.9905 25.0404 29.4275C25.7294 29.5225 26.0504 28.5565 26.9274 28.6115C26.9094 28.8425 26.4664 28.8245 26.6894 29.0935C27.6994 28.5965 29.1794 27.9785 30.6584 27.7545C30.9744 27.7625 30.5864 27.9325 30.6384 28.1085C31.5874 27.7435 32.3434 27.1645 33.5304 27.0645C33.8844 27.3165 33.3774 27.5955 33.4914 27.7705C34.4984 27.2945 35.0214 26.2815 36.2104 26.0085C36.0014 26.5495 35.2874 26.5275 35.0884 27.0795C36.5114 26.6935 37.4044 25.0675 39.1134 24.7515C38.4184 25.7265 37.2884 26.2135 36.3044 26.8625C36.9334 27.0995 37.7424 26.2825 38.2694 25.9095C38.4994 25.7115 38.4424 26.1485 38.6814 26.1445C40.0174 25.6135 40.4644 24.0865 42.1994 24.0015C42.1694 24.1395 41.9534 24.4935 42.3174 24.4325C42.1604 24.9575 41.4804 24.8975 41.3414 25.4415C42.3634 25.3505 43.4834 23.2085 44.7894 24.5705C44.4104 25.0465 43.6874 25.1385 43.3814 25.6965C44.0944 26.2395 44.4444 24.7675 45.1315 24.8015C45.9145 24.8395 46.2874 26.9485 46.1434 28.2575C45.9104 30.3795 44.4334 32.2165 44.8584 34.8445C45.0474 36.0085 46.2934 36.8215 47.5744 36.9785C49.3954 37.2025 49.9544 35.5475 50.9684 34.5445C51.0704 31.9405 49.4955 29.4025 50.7455 27.0235C50.9185 26.8695 50.9665 27.1675 51.2365 27.1215C53.8395 26.1525 57.6715 26.1655 60.5225 25.7235C60.7595 25.1145 61.7035 25.2925 62.2595 25.0395C61.9835 24.6235 60.9485 25.0595 60.5495 25.2275C57.5335 25.7585 53.9915 26.1005 51.0595 26.4735C51.0695 25.9305 51.6315 25.6485 52.0085 25.9585C53.1005 25.1525 53.7155 23.8165 55.2605 23.5175C54.8265 24.0065 53.7554 24.5885 54.3774 25.3805C54.9844 24.4785 55.8015 23.4295 56.8335 23.2495C56.7795 23.7775 55.6894 24.1595 55.7544 24.8195C55.7344 24.9715 56.0035 24.8655 56.1045 24.9095C56.4225 23.9895 56.9185 23.2705 58.0385 23.2455C57.8985 23.7635 57.3995 23.8815 57.2665 24.4075C57.3225 24.5135 57.3595 24.6365 57.5365 24.6345C57.9315 24.2945 57.9815 23.0715 59.0155 23.5125C59.1635 23.8185 58.3545 23.9825 58.6125 24.4105C59.1645 24.2215 59.1405 23.5955 59.7225 23.5515C60.5065 23.4925 61.8865 24.1585 62.4885 24.7675C63.4315 25.7245 63.7995 27.6095 63.9365 29.3105C64.0315 30.4845 64.8615 32.6475 63.9765 33.7045C64.0245 33.9305 64.3305 33.9265 64.3765 34.1515C64.4725 35.2745 64.7105 36.2695 64.6875 37.4985C65.2755 38.5655 65.5135 39.9205 66.9475 40.1735C68.9095 40.5205 71.9245 39.0225 71.7295 36.9675C71.6225 35.8375 70.6135 35.0045 70.0455 34.1125C67.2355 33.9195 67.3135 31.1425 67.2395 28.5035C67.4645 28.4815 67.3865 28.7295 67.6555 28.6675C67.2845 24.3645 70.1905 22.5325 73.0875 21.3895C72.8045 21.9235 72.1945 22.0915 71.7535 22.4495C72.3725 22.8185 72.7265 21.6505 73.4295 21.6215C73.4175 21.8975 72.9275 21.9065 73.1815 22.2455C74.0485 21.5905 74.4995 20.4685 76.0385 20.5615C75.9925 21.1185 75.0355 21.2855 74.8305 21.9115C75.7665 22.0985 75.9305 20.3985 76.8855 20.6085C76.8275 21.0685 76.3415 21.0495 76.2705 21.4955C76.7515 22.0435 77.5525 21.2425 77.9975 21.0245C78.1655 21.0745 77.9385 21.4785 78.1855 21.4595C78.7125 21.0745 79.3185 20.7755 79.5395 20.0475C80.0645 20.0085 80.3895 19.7465 81.0375 19.8475C81.0295 20.2165 80.5065 20.3665 80.8495 20.6875C81.3265 20.7455 81.1715 20.0965 81.4565 19.9415C81.8955 19.8825 82.3715 19.8635 82.8775 19.8785C82.7285 20.2335 81.9305 20.4195 82.3235 20.9105C82.9565 20.6365 83.2765 19.4915 84.2145 20.0235C84.3725 20.2715 83.9825 20.3255 84.1835 20.5875C84.4315 20.7905 84.5485 20.3295 84.8355 20.3405C87.0175 21.7525 86.5185 25.4185 86.2965 28.4965C86.0205 32.3155 83.9415 37.0905 86.4745 39.3445C86.4445 42.3035 86.5965 45.6625 85.7015 48.1545ZM8.39639 29.4245C8.37639 29.0285 8.76739 29.0895 9.12239 29.1105C9.21039 29.5625 8.60939 29.5485 8.39639 29.4245ZM11.5634 32.3625C11.5124 31.9315 11.7564 31.8295 11.8214 31.5275C12.1514 31.7045 11.7914 32.3195 11.5634 32.3625ZM20.0244 27.9435C20.2674 27.9275 20.4254 27.9875 20.3624 28.2465C20.1184 28.2615 19.9594 28.2025 20.0244 27.9435ZM39.2234 25.3235C39.2784 25.0605 39.3154 24.7765 39.6744 24.8525C39.6514 25.1505 39.4604 25.2635 39.2234 25.3235ZM39.9844 24.3735C40.0724 24.2975 40.2384 24.3075 40.4124 24.3265C40.3884 24.5245 40.2724 24.6215 40.0434 24.5905C40.0084 24.5305 39.9754 24.4705 39.9844 24.3735ZM42.5454 24.1615C42.5494 24.0915 42.5534 24.0205 42.5574 23.9495C42.6904 23.8495 43.0694 23.9375 43.0394 24.1885C42.8774 24.2135 42.6714 24.3085 42.5454 24.1615ZM79.0305 20.2315C78.6925 20.7105 77.5185 21.2835 76.7745 21.3105C77.2075 20.5945 78.0245 20.3075 79.0305 20.2315ZM87.4165 37.6245C87.4475 37.4075 87.5875 37.3145 87.6555 37.1425C87.9015 37.1255 87.6395 37.6795 87.4165 37.6245ZM88.9705 37.7105C89.0005 37.5425 89.0905 36.7955 89.4495 36.7445C89.4285 37.2225 89.1765 37.4405 88.9705 37.7105ZM91.3165 36.2825C90.9385 36.6095 90.6635 37.0535 90.5325 37.6555C90.1325 37.2545 90.7925 36.8855 90.7435 36.3925C89.9525 36.5325 90.2625 37.9035 89.5835 38.1695C89.5385 37.2645 90.1445 36.4495 90.4305 35.6655C90.3045 35.5245 90.0645 35.6375 89.9985 35.7835C89.8965 35.7185 89.9095 35.5505 89.8765 35.4235C88.8865 36.0165 88.7615 37.5755 87.8105 38.2125C88.1195 37.0085 88.7315 36.1425 89.3865 35.3245C88.9405 35.1675 88.7145 35.8625 88.4215 36.1215C88.2045 35.9215 88.5075 35.6715 88.5945 35.5635C87.8135 35.7445 87.4485 37.4295 86.6405 37.5815C86.8975 36.7685 87.4505 36.2855 87.7475 35.5175C87.3165 35.5115 87.0835 36.3745 86.6255 36.5885C86.6155 35.8205 87.4495 35.3635 87.7245 34.6665C86.9655 34.8685 86.8935 35.8385 86.2255 36.1415C86.2775 35.2945 87.0975 34.6695 87.5475 34.0195C86.9465 33.8595 86.8625 34.8965 86.2875 35.0115C86.5715 34.0035 87.1355 33.3085 87.6295 32.5355C86.9205 32.4445 86.8375 33.7005 86.2055 33.9445C86.4205 32.9095 86.9575 32.2345 87.3385 31.3855C86.7845 31.4165 86.8745 32.1665 86.3695 32.2525C86.5085 31.5075 86.9845 31.1415 87.1785 30.4555C87.0475 30.1705 86.7515 30.7175 86.6805 30.4985C86.6025 29.5495 87.0255 28.5455 87.5935 28.0705C87.1605 27.5215 87.8515 26.9555 87.6135 26.4415C87.2905 26.5815 87.3565 27.1555 86.9345 27.1835C86.8005 26.4995 87.4255 26.0395 87.7975 25.6725C87.7415 25.4765 87.5965 25.3585 87.5415 25.1625C87.3005 25.3435 87.2955 25.7865 86.9375 25.8375C86.7085 24.7785 87.9685 24.3375 87.3645 23.2395C87.0925 23.2595 87.2465 23.7575 86.9135 23.7115C86.6645 22.9655 87.7745 22.1915 87.1765 21.5295C87.0975 21.7725 87.2095 22.3305 86.8425 22.4315C86.5695 21.7145 86.2395 21.0475 85.8195 20.4625C85.9235 20.2945 86.0775 20.5545 86.1055 20.4065C84.7785 19.5145 82.5135 19.0335 80.0675 19.4345C75.5565 20.1745 70.2855 21.1535 68.3235 24.3095C68.1595 24.3515 67.9585 24.3525 67.8215 24.4235C67.0865 25.8345 66.6615 29.0305 66.8875 31.0295C66.9935 31.9625 67.4895 33.3225 68.0765 33.8575C68.6235 34.3555 69.4555 34.3465 70.0105 34.7445C70.8015 35.3085 71.0565 36.1365 71.2895 37.2235C71.0525 37.3155 70.7655 36.9545 70.4585 36.8945C70.0525 37.3395 69.8535 38.0185 69.5175 38.5415C69.2555 38.0235 69.9455 37.3395 70.0425 36.7285C69.8355 36.6445 69.6585 36.5355 69.4185 36.4815C68.9045 37.1085 68.6105 37.9795 68.1635 38.6785C67.8825 38.0025 68.6495 37.2995 68.9755 36.8115C68.0685 36.9225 67.9375 38.5505 67.1525 39.0475C66.8955 38.2465 67.7285 37.4025 67.9905 36.6855C67.2285 37.0335 67.1855 38.1865 66.3365 38.4365C66.4105 37.3915 67.2545 36.8185 67.2535 35.9365C66.5965 36.3275 66.3465 37.1725 65.8105 37.6985C65.8275 36.9675 66.5065 36.3275 66.7085 35.5525C66.0335 35.8735 65.9225 36.8245 65.2055 37.0985C65.3535 36.2395 65.7315 35.6365 66.1005 35.0225C65.6645 34.8365 65.6395 35.7565 65.1395 35.7495C65.2375 34.8585 65.6665 34.3395 66.0965 33.8185C65.6255 33.6105 65.6105 34.5115 65.0695 34.4695C64.9655 33.5495 65.7415 32.9755 65.9745 32.1825C65.4555 32.1785 65.5715 32.8815 65.0165 32.8375C64.9145 31.9235 65.3165 31.5715 65.4095 30.8755C65.0555 30.8305 65.2355 31.3825 64.8215 31.2685C64.7455 30.7705 65.1945 30.2465 65.3315 29.7385C65.1695 29.5665 64.9835 29.7925 64.7625 29.7785C64.8785 29.2525 65.0185 28.2685 64.4125 28.4135C63.8685 25.9465 63.0225 23.7505 60.3825 23.1605C58.1875 22.8565 55.9075 22.3915 54.3494 23.3935C54.1204 23.4415 54.1365 23.2695 54.0035 23.2325C52.1875 24.4205 50.4774 25.9695 49.8304 28.2435C49.3474 29.9435 50.8575 32.0435 50.0164 33.8485C49.8064 33.7545 49.6504 33.6145 49.3844 33.7435C49.3874 33.5405 49.4484 33.2835 49.3454 33.1755C48.3724 33.5645 48.6224 35.3185 47.8474 35.9255C47.9024 35.2435 48.3714 34.4255 48.5405 33.6265C47.8004 33.8275 47.8314 35.5295 47.0654 35.9525C46.7624 34.8955 48.2095 33.7525 47.9524 32.7435C47.2355 33.4425 47.0674 34.7555 46.3844 35.4895C46.2504 34.5615 47.2094 33.8185 47.2264 33.0575C46.5504 33.3315 46.4214 34.6015 45.7244 34.6035C46.0424 33.6565 46.8674 32.8845 46.9364 31.9075C46.4994 32.2955 46.3684 33.0225 45.7984 33.2615C45.9954 32.2565 46.5004 31.5955 46.7904 30.6955C46.2814 30.5395 46.2344 31.4475 45.8844 31.7085C45.7994 30.9625 46.4124 30.3495 46.5674 29.6205C46.5504 29.5235 46.3934 29.5525 46.2894 29.5345C46.3124 29.3355 46.4354 29.2475 46.4574 29.0485C46.7424 28.9505 46.4654 29.3555 46.6534 29.3425C46.7594 29.3125 46.8374 29.2475 46.9434 29.2175C47.0454 28.9255 46.6534 29.0735 46.6064 28.9155C46.6254 28.5365 46.8964 28.4385 46.9354 28.0835C46.9734 27.8035 46.6194 27.8735 46.6054 27.6405C46.5475 26.5065 46.4114 25.4435 45.9184 24.6985C43.1364 22.2055 38.9144 24.3465 36.3154 25.4415C32.0664 27.2305 27.6684 28.5285 22.1614 27.7745C19.1474 27.3625 16.1754 27.2235 14.1704 28.8195C13.5814 30.1735 13.9714 31.8785 13.6384 33.3235C13.1324 33.2835 13.0554 33.7215 12.6894 33.8385C12.7174 33.0185 12.7054 32.6875 12.9284 32.0805C12.6084 31.8795 12.5894 32.5795 12.3944 32.7595C12.1914 32.6255 12.0354 32.7625 11.9044 32.6615C12.1904 32.0265 12.7564 31.1185 11.7944 30.8135C11.9734 30.0065 12.4114 29.4695 12.0574 28.6315C11.9474 28.5065 11.6464 28.5525 11.4254 28.5255C11.4044 28.3005 11.5664 28.2835 11.5234 28.0355C10.8244 28.0975 10.4314 28.0975 9.9434 28.4435C9.6084 28.4975 9.7244 28.1475 9.3894 28.2015C8.9114 28.2915 8.77639 28.7645 8.15839 28.6995C7.80039 28.5525 8.53739 28.4575 8.53939 28.2245C7.91239 27.8705 7.70039 28.6535 7.15839 28.8565C6.64039 29.0495 6.06539 28.8265 5.45539 28.9045C4.21139 29.0625 3.72038 30.2175 2.94038 30.8185C2.98338 30.5565 2.90739 30.4015 2.68139 30.3795C2.07739 30.8115 2.60138 31.5575 2.50938 32.2125C2.37338 33.1745 1.43138 34.1535 1.85139 35.1505C2.10839 35.2085 2.22639 34.7265 2.36139 34.8945C2.29339 35.9935 2.47838 37.6895 1.54838 38.0375C1.28338 37.4875 1.32139 37.0195 1.56839 36.4095C1.55339 36.2205 1.21338 36.3265 1.15638 36.1745C1.64639 34.2085 1.34539 31.3425 1.39039 29.3875C1.42539 27.8985 4.78139 26.0495 6.07739 25.3275C9.93839 23.1755 14.0954 21.2105 18.4454 19.4245C20.4034 18.6205 22.1834 17.4675 23.9064 16.7515C31.4944 13.5995 38.0854 9.93051 45.1354 6.87751C45.2114 7.32651 44.4754 7.47851 44.3664 7.96851C44.9064 10.2645 47.8214 7.47551 45.4184 6.89351C45.7254 6.41151 46.4534 6.40151 46.9474 6.12751C46.5474 7.17351 47.7674 7.51551 48.3244 6.84151C48.4264 7.68951 49.1034 8.02351 49.2034 8.87351C48.8584 8.73651 48.4354 8.13251 48.0864 8.59951C49.0804 8.76351 49.1994 10.0795 48.0044 10.0815C47.5104 9.8175 47.9454 9.02251 47.8694 8.65751C46.2474 9.82351 48.9914 11.4255 49.2424 9.4415C50.0944 10.1205 50.4554 11.1435 51.7034 11.0655C52.2964 11.0285 53.0265 10.7635 53.2285 11.6455C54.2695 12.3175 56.1485 12.1185 56.9915 11.4995C58.4395 11.7935 59.1735 11.2325 60.2135 10.8985C60.5635 10.8535 60.4655 11.2095 60.7625 11.2125C61.9185 10.8045 62.9965 10.3105 63.7625 9.4655C63.4495 11.0665 65.3045 10.1685 65.5355 9.42251C65.5455 8.98351 65.1485 8.44151 64.7205 8.81151C64.6825 9.11351 65.0415 9.05951 65.1195 9.25751C64.9005 9.61251 64.7205 10.0115 64.1585 9.9845C64.0135 9.6765 64.3325 9.5615 64.4105 9.2905C64.4435 9.0365 64.1095 9.11151 64.0025 8.98351C64.7645 8.09951 64.2565 6.63851 64.8995 5.56251C65.8675 6.60551 66.1835 4.59051 67.3205 5.3425C67.3225 5.6085 67.0645 6.1515 67.4765 6.3425C66.4475 7.4785 65.1545 9.1965 66.0735 11.2235C65.8405 11.1865 65.7715 11.0005 65.4455 11.0465C65.2155 11.1125 65.0685 11.2735 64.9945 11.5175C65.1635 11.7425 65.5775 11.3205 65.7715 11.5605C65.9535 11.8775 65.6835 12.2355 65.4455 12.3225C65.1035 12.3605 65.2085 11.9985 64.8225 12.0755C64.5685 13.0285 65.9005 12.8115 66.2935 12.3695C66.8165 13.4935 68.7665 14.0175 68.1735 15.5185C67.9335 15.5105 67.6805 15.5135 67.6155 15.3465C66.4465 16.3345 68.5645 16.6565 68.8045 15.6245C69.3575 16.0235 69.7075 16.6065 70.3625 16.9145C68.5605 18.5125 72.2465 18.4295 70.9395 16.7335C71.1255 16.5915 71.3245 16.4635 71.5275 16.3405C71.8675 16.6435 72.2835 16.9955 72.7675 16.9765C72.4385 18.6265 74.1295 17.9445 74.3165 17.1325C74.3865 16.7565 73.9845 16.8035 73.9995 16.4775C75.3815 16.8275 76.1445 15.7505 76.8675 15.8575C76.9215 16.1935 76.5265 16.0275 76.5575 16.3365C76.8015 16.4545 76.9385 16.6675 77.1695 16.7955C77.8305 16.7095 78.2195 16.3185 78.2995 15.5835C80.3465 14.9715 81.9695 13.8845 82.5555 11.6395C83.8125 12.6175 85.0505 13.6125 86.3615 14.5415C85.6805 14.5555 84.7695 15.0875 85.3695 15.8325C86.2675 15.9615 86.5585 15.4105 86.9075 14.9265C88.6175 15.8885 91.1085 16.8675 91.0615 19.1945C91.0405 20.3065 90.3465 21.3275 90.0305 22.4655C89.5075 24.3605 89.5485 26.9265 89.5305 28.9545C89.5265 29.3405 89.4365 29.9015 89.4565 30.2965C89.5655 32.5685 91.6025 33.9515 91.3165 36.2825ZM68.0915 15.6595C68.1455 15.9545 67.7815 15.9805 67.6555 15.8485C67.7245 15.6995 67.8445 15.6075 68.0915 15.6595Z" fill="#231003"/>
<path fill-rule="evenodd" clip-rule="evenodd" d="M76.5654 54.5195C76.7154 54.2897 77.0654 54.2797 77.1614 53.9869C76.9384 54.0889 76.4734 54.3147 76.5654 54.5195Z" fill="#231003"/>
<path fill-rule="evenodd" clip-rule="evenodd" d="M50.6553 61.9391C50.7073 61.8172 51.0223 61.6084 50.8233 61.4535C50.7723 61.5774 50.5344 61.8711 50.6553 61.9391Z" fill="#231003"/>
</svg>
