<svg width="87" height="55" viewBox="0 0 87 55" fill="none" xmlns="http://www.w3.org/2000/svg">
<path fill-rule="evenodd" clip-rule="evenodd" d="M60.7386 2.45696C51.1219 4.84095 41.7903 9.31426 33.4247 14.5743C24.8145 19.9901 17.005 26.4804 8.22655 31.6891C4.48165 33.9104 -0.056982 44.8032 0.569948 49.1152C1.461 55.2441 17.0828 53.7929 21.4143 53.5843C23.6482 53.4759 29.962 54.0528 31.6815 52.7183C36.4954 48.9818 41.8486 46.007 46.9697 42.7264C60.0727 34.3372 89.5218 23.9088 86.6915 3.77337C85.7268 -3.09783 65.4704 1.28511 60.7386 2.45696Z" fill="#F7A834"/>
<path fill-rule="evenodd" clip-rule="evenodd" d="M66.2237 14.4358C60.1713 14.3857 54.1286 14.8125 48.0789 14.9251C44.7372 14.989 35.3652 12.3367 35.5487 17.772C35.3999 20.2171 36.9554 20.876 37.5017 22.4621C38.4692 25.259 38.0272 28.9691 37.834 31.716C37.6449 34.4072 33.5956 38.9736 37.5699 41.2728C40.2166 42.8061 49.868 33.4939 51.9281 31.8883C56.1651 28.5869 60.7468 26.1195 65.2702 23.2823C67.3456 21.9812 71.7966 14.483 66.2237 14.4358Z" fill="#FFC050"/>
<path fill-rule="evenodd" clip-rule="evenodd" d="M13.9036 33.2166C9.01469 35.477 7.08802 42.1608 6.34571 47.4309C5.97456 50.0597 19.1359 48.0634 22.5041 48.1399C27.2665 48.2483 33.8778 42.9699 31.0212 37.7165C29.8896 35.6354 16.1111 32.1962 13.9036 33.2166Z" fill="#ED1003"/>
<path fill-rule="evenodd" clip-rule="evenodd" d="M78.6303 3.68037C73.5482 3.255 67.0954 3.09098 71.4241 9.47704C75.1092 14.9123 78.6414 12.3017 81.0212 7.9243C83.1759 3.96394 80.7682 4.33649 78.6303 3.68037Z" fill="#ED1003"/>
<path fill-rule="evenodd" clip-rule="evenodd" d="M57.1104 16.8052C56.9353 16.6287 56.7018 16.5189 56.3932 16.5119C55.7301 16.498 55.3312 17.2084 55.1866 17.7491C54.9878 18.4762 55.2352 19.2324 55.2547 19.9636C55.2602 20.1971 55.6383 21.2091 55.9789 20.6545C56.3403 20.0665 56.9784 19.6758 57.3954 19.1253C57.8848 18.4789 57.9459 17.6004 57.4205 16.954C57.3301 16.8414 57.2161 16.7941 57.1104 16.8052Z" fill="white"/>
<path fill-rule="evenodd" clip-rule="evenodd" d="M64.2736 15.707C64.2333 15.6945 64.1958 15.6917 64.1624 15.6945C64.0276 15.6055 63.8663 15.5805 63.7537 15.7528C63.2797 16.4771 62.8918 17.7685 63.8524 18.3135C64.079 18.4414 64.2277 18.3441 64.3459 18.1342C64.6128 17.6532 64.6795 17.054 64.6851 16.5119C64.6892 16.2324 64.5878 15.7973 64.2736 15.707Z" fill="white"/>
<path fill-rule="evenodd" clip-rule="evenodd" d="M51.4736 24.5425C50.3573 24.6607 49.8625 25.7242 48.8672 26.0509C48.4891 26.176 48.471 26.8225 48.6559 27.1881C48.7393 27.437 48.9033 27.6372 49.1313 27.633C50.5172 27.6066 52.676 26.7502 51.949 24.9902C51.8684 24.7928 51.7377 24.5161 51.4736 24.5425Z" fill="white"/>
<path fill-rule="evenodd" clip-rule="evenodd" d="M40.6184 26.4719C40.4405 26.4037 40.3182 26.4927 40.2528 26.6526C40.2223 26.6707 40.1944 26.6929 40.1666 26.7235C39.441 27.5229 39.6982 29.7627 41.0313 29.7391C41.8945 29.7224 42.0488 28.6602 41.9028 28.0234C41.7513 27.3672 41.2551 26.7152 40.6184 26.4719Z" fill="white"/>
<path fill-rule="evenodd" clip-rule="evenodd" d="M31.138 27.9426C30.3401 28.2442 29.8035 29.159 28.9139 29.2049C28.3481 29.2327 28.5177 30.6117 29.1071 30.5812C30.1094 30.5297 30.664 29.5705 31.5467 29.2382C32.0444 29.0519 31.7497 27.7104 31.138 27.9426Z" fill="white"/>
<path fill-rule="evenodd" clip-rule="evenodd" d="M28.8457 24.4049C28.109 24.6384 27.5738 25.0568 27.1387 25.6948C27.1068 25.742 27.0817 25.7921 27.0609 25.8449C26.4979 26.0353 26.7384 27.3934 27.2569 27.221C28.0756 26.9486 28.722 26.3328 29.2377 25.6573C29.4073 25.4362 29.4018 25.1068 29.3225 24.8524C29.2711 24.6898 29.0821 24.3312 28.8457 24.4049Z" fill="white"/>
<path fill-rule="evenodd" clip-rule="evenodd" d="M40.0193 16.5204C39.2673 16.2424 38.9142 17.0306 38.8613 17.6353C38.8168 18.1413 38.8892 18.7196 39.0796 19.2172C38.8739 19.6843 39.1936 20.6213 39.6384 20.3266C40.8367 19.5314 41.8835 17.2099 40.0193 16.5204Z" fill="white"/>
<path fill-rule="evenodd" clip-rule="evenodd" d="M45.7324 20.0816C45.4808 19.8536 45.2389 20.1872 45.1931 20.4082C45.1597 20.5722 45.1653 20.7418 45.2125 20.9003C45.1069 21.4868 44.9804 22.0623 45.0596 22.6684C45.15 23.3675 45.7547 24.1028 46.5081 23.6956C47.1406 23.3536 46.8973 22.2597 46.7208 21.7398C46.5206 21.1505 46.2023 20.5069 45.7324 20.0816Z" fill="white"/>
<path fill-rule="evenodd" clip-rule="evenodd" d="M51.0621 16.0407C50.235 16.0963 49.394 15.9865 48.5933 16.2451C48.0275 16.4299 48.2666 17.7909 48.7879 17.6213C49.5872 17.3613 50.431 17.4711 51.2553 17.4155C51.8238 17.3794 51.6501 16.0018 51.0621 16.0407Z" fill="white"/>
<path fill-rule="evenodd" clip-rule="evenodd" d="M51.2678 7.39969C50.6534 7.61102 49.9917 7.60547 49.3481 7.60547C48.7921 7.60547 48.9464 8.98192 49.5414 8.98192C50.185 8.98192 50.8466 8.98748 51.4624 8.77614C52.0254 8.58288 51.7822 7.22311 51.2678 7.39969Z" fill="white"/>
<path fill-rule="evenodd" clip-rule="evenodd" d="M58.6506 6.79261C57.9584 6.69946 57.2508 6.51176 56.5474 6.5785C55.9761 6.63272 56.1568 8.01055 56.7407 7.95494C57.3676 7.89515 57.9959 8.06894 58.6145 8.15236C59.2595 8.23856 59.183 6.86352 58.6506 6.79261Z" fill="white"/>
<path fill-rule="evenodd" clip-rule="evenodd" d="M63.6049 4.21277C62.953 4.86186 63.1726 7.26226 64.2985 6.90227C64.318 6.83416 64.3722 6.80081 64.4723 6.81471C64.7392 5.71528 64.3097 4.62141 63.6049 4.21277Z" fill="#231003"/>
<path fill-rule="evenodd" clip-rule="evenodd" d="M55.7968 7.33473C55.769 8.42861 59.0815 8.81919 59.7015 7.85596C60.188 6.30061 55.826 6.12269 55.7968 7.33473ZM56.4029 7.24854C57.1229 7.0748 58.9245 6.8677 59.0927 7.76977C58.1933 7.91989 56.7824 7.89904 56.4029 7.24854Z" fill="#231003"/>
<path fill-rule="evenodd" clip-rule="evenodd" d="M51.4583 7.2478C50.438 7.25893 47.4966 7.77766 47.5536 8.46327C47.6244 9.3102 51.7432 8.80956 52.2395 8.55089C52.1756 7.91812 51.8475 7.55236 51.4583 7.2478ZM49.2022 8.28943C49.6456 7.70256 50.9676 7.73176 51.5445 8.11699C51.0621 8.42572 49.7235 8.30334 49.2022 8.28943Z" fill="#231003"/>
<path fill-rule="evenodd" clip-rule="evenodd" d="M62.7374 15.8376C63.4769 16.4756 62.4914 18.7787 63.7786 19.047C65.8012 18.5147 65.1116 13.4483 62.7374 15.8376ZM63.8648 18.1797C63.3449 17.7335 63.3685 15.2191 64.4708 15.9252C64.4611 16.8676 64.4194 17.7794 63.8648 18.1797Z" fill="#231003"/>
<path fill-rule="evenodd" clip-rule="evenodd" d="M51.892 15.8377C50.4922 15.1664 48.2472 15.6306 47.4659 16.6188C47.541 18.7675 50.2086 17.7306 51.7183 17.5722C52.3132 16.9996 51.4931 16.4409 51.892 15.8377ZM48.0748 16.9662C48.3417 16.042 51.4194 15.3262 51.2846 17.051C50.267 17.133 48.7087 17.757 48.0748 16.9662Z" fill="#231003"/>
<path fill-rule="evenodd" clip-rule="evenodd" d="M40.6127 15.8368C38.0675 15.1931 37.8158 20.2469 39.6577 21.2159C40.6155 20.4429 42.8813 16.4097 40.6127 15.8368ZM39.3978 20.1746C38.9947 19.4503 39.1809 18.1364 39.1392 17.0506C41.8318 15.2043 40.9894 19.7047 39.3978 20.1746Z" fill="#231003"/>
<path fill-rule="evenodd" clip-rule="evenodd" d="M57.5317 16.2713C56.4613 15.6207 55.5633 17.0942 54.9294 17.66C55.6481 18.3981 54.5805 21.1059 55.8845 21.4771C57.2968 20.814 59.4709 17.4501 57.5317 16.2713ZM55.8831 20.6097C55.2811 19.4934 56.1222 17.8379 55.9707 17.1387C56.2292 16.8259 56.9465 16.6827 57.4456 16.8801C58.4131 18.4787 56.8339 19.8493 55.8831 20.6097Z" fill="#231003"/>
<path fill-rule="evenodd" clip-rule="evenodd" d="M45.5575 19.569C44.8054 20.5865 44.2173 23.5668 45.0375 24.7748C47.5008 24.2549 48.1055 20.3502 45.5575 19.569ZM45.2975 24.1673C44.8832 23.0539 45.4295 21.4901 45.5588 20.3502C47.7316 20.8895 46.4596 23.4125 45.2975 24.1673Z" fill="#231003"/>
<path fill-rule="evenodd" clip-rule="evenodd" d="M26.6438 26.9432C28.2632 27.3672 30.4651 25.6963 29.6811 23.9948C28.0102 23.9337 26.755 25.4433 26.6438 26.9432ZM27.1651 26.5095C27.5793 25.6226 28.0214 24.7636 29.335 24.7747C29.0862 25.7825 28.0811 26.4539 27.1651 26.5095Z" fill="#231003"/>
<path fill-rule="evenodd" clip-rule="evenodd" d="M50.4171 24.4273C49.8138 25.6463 48.2235 25.8771 47.901 27.3769C49.2702 28.2235 51.2219 27.0433 52.0657 26.2496C52.1728 25.5643 51.8558 25.303 51.7182 24.861C51.7557 24.5816 52.284 24.7915 52.1533 24.3411C51.6654 23.9449 51.1803 24.5746 50.4171 24.4273ZM48.6809 27.0294C48.8129 26.0397 51.671 24.1798 51.5445 25.8159C51.4777 26.6777 49.6595 27.0962 48.6809 27.0294Z" fill="#231003"/>
<path fill-rule="evenodd" clip-rule="evenodd" d="M40.0929 25.8157C39.3089 26.9417 39.2992 29.7398 40.7866 29.8941C43.254 30.1457 41.7708 25.3793 40.0929 25.8157ZM41.1341 29.2852C40.0276 29.6188 39.7968 27.1891 40.5252 26.5094C41.3857 26.6609 42.0196 29.0197 41.1341 29.2852Z" fill="#231003"/>
<path fill-rule="evenodd" clip-rule="evenodd" d="M31.156 27.5505C30.6598 27.6186 27.6822 29.8469 27.8587 30.5003C28.1284 31.5025 29.9105 30.6073 30.4624 30.3265C31.2603 29.922 32.3988 29.4494 32.371 28.5917C32.3459 27.8633 31.6495 27.4824 31.156 27.5505ZM28.64 30.2403C28.7901 29.7024 31.6468 27.203 31.7635 28.5917C31.8372 29.473 29.6269 30.225 28.64 30.2403Z" fill="#231003"/>
<path fill-rule="evenodd" clip-rule="evenodd" d="M52.6734 28.6797C52.6859 29.5499 51.8991 30.9081 52.6734 31.4558C52.7179 30.6968 53.4671 29.1635 52.6734 28.6797Z" fill="#231003"/>
<path fill-rule="evenodd" clip-rule="evenodd" d="M46.8599 33.6237C46.8043 32.4631 48.1694 31.8167 47.8135 30.9327C47.605 31.7834 45.9702 32.8036 46.8599 33.6237Z" fill="#231003"/>
<path fill-rule="evenodd" clip-rule="evenodd" d="M43.5627 36.1404C44.0882 34.6987 44.9222 33.5643 44.9514 31.629C44.8638 31.629 44.7776 31.629 44.6901 31.629C44.5705 33.2278 43.1527 34.8739 43.5627 36.1404Z" fill="#231003"/>
<path fill-rule="evenodd" clip-rule="evenodd" d="M38.7905 39.0897C39.6552 37.1784 40.4989 35.2462 41.0466 33.0165C40.9354 33.0123 40.9257 32.9053 40.7853 32.9289C40.1987 35.0029 39.031 36.9574 38.7905 39.0897Z" fill="#231003"/>
<path fill-rule="evenodd" clip-rule="evenodd" d="M38.2705 36.2266C37.3753 37.3274 36.8818 38.83 36.3619 40.3048C37.2613 39.2665 37.8299 37.4345 38.2705 36.2266Z" fill="#231003"/>
<path fill-rule="evenodd" clip-rule="evenodd" d="M10.6814 38.3088C10.5368 38.3088 10.3909 38.3088 10.2463 38.3088C10.149 38.7272 10.8093 38.7787 10.6814 38.3088Z" fill="#231003"/>
<path fill-rule="evenodd" clip-rule="evenodd" d="M26.2114 43.514C26.4936 43.3598 26.8773 42.8525 26.7314 42.5607C26.6146 42.9345 26.2629 43.0735 26.2114 43.514Z" fill="#231003"/>
<path fill-rule="evenodd" clip-rule="evenodd" d="M22.6544 43.4281C22.7267 43.2572 23.0853 42.9932 22.7392 42.9071C22.7211 43.0433 22.407 43.3128 22.6544 43.4281Z" fill="#231003"/>
<path fill-rule="evenodd" clip-rule="evenodd" d="M73.6692 0.568093C64.1735 0.550022 54.062 2.99101 47.2922 6.55519C45.3239 7.59081 43.2457 8.66118 41.2203 9.7663C38.2997 11.3593 36.013 13.1331 32.6296 13.931C32.0582 15.727 34.2268 18.3834 32.1097 19.3092C32.1806 18.1791 32.7922 18.0637 32.7172 16.8808C32.1069 17.7746 31.4716 18.6434 30.3749 19.0493C30.8447 19.5108 31.1825 18.3751 31.7621 18.7032C31.8414 19.7735 30.7015 20.0627 30.5486 20.6117C31.024 20.5631 31.2395 20.2086 31.7621 20.438C31.7552 20.1141 31.6968 19.736 32.1097 19.8305C32.2904 21.0218 31.0518 20.7966 30.8947 21.6529C31.6649 21.9977 32.0346 20.8689 32.7172 21.1316C32.5726 21.9129 31.9053 22.1714 31.416 22.6079C31.7232 22.8206 32.2612 22.4411 32.6296 22.6955C32.485 21.9004 33.2106 21.5612 33.8445 21.8281C33.4775 22.8484 32.5364 23.296 31.7621 23.9104C31.9276 24.2566 32.3585 23.8242 32.4572 24.1704C32.3974 24.447 32.1542 24.846 32.2834 25.0378C32.8992 25.2366 33.3774 24.1203 33.8445 24.1704C33.5275 24.9808 32.9924 25.5744 32.3696 26.079C32.4516 26.4015 33.1425 26.1165 33.0633 26.6002C32.9284 26.8491 32.2529 26.8977 32.5434 27.2939C33.0633 27.2925 33.3774 26.628 33.7569 26.774C33.6791 27.2452 33.301 27.4162 32.8895 27.5538C33.212 28.2211 32.7394 28.4491 32.6282 29.1149C32.6518 29.2942 33.0118 29.1371 32.9757 29.3762C32.4655 29.8197 32.1903 30.4994 31.6732 30.9373C31.9804 30.8275 32.2918 30.6593 32.4558 31.0249C29.0779 35.0117 22.0913 30.2937 17.5332 31.5462C18.0614 32.3663 18.9136 31.7032 19.7017 31.8923C22.9559 32.6735 26.1267 33.9649 30.0273 33.7161C32.1528 33.5785 33.7416 33.4311 34.5382 31.7199C34.762 31.239 34.4228 30.6662 35.2332 30.505C34.7022 33.1267 34.1322 35.7081 32.4572 37.1857C32.1528 37.1427 32.2084 36.7395 31.9359 36.6659C29.6576 35.8791 27.3556 35.64 24.6491 34.8421C22.917 34.3347 21.2795 33.6897 19.7017 33.281C17.1759 32.6249 14.7211 32.7917 12.6748 33.0197C12.344 33.1531 12.2842 33.5562 11.9798 33.7147C7.88321 36.0375 7.7845 42.361 5.73412 46.7273C6.20675 46.9914 6.00379 47.5516 5.90648 48.116C9.17458 50.7321 15.3939 49.9342 20.223 49.4185C22.981 49.1224 25.4887 48.8138 27.6836 48.0298C30.0232 46.1866 31.2409 42.3013 32.6296 39.2667C33.5581 37.2413 34.281 35.2077 35.2332 33.0197C36.5232 30.0546 36.1618 26.8866 35.2332 24.2566C34.2157 21.3777 33.7972 17.965 32.9771 14.7136C36.4217 12.7063 42.7522 12.9746 47.5522 12.9788C56.4001 12.9857 64.9046 12.7925 73.3202 12.805C74.9536 12.8064 76.8789 13.5098 78.3524 13.065C80.6307 12.3797 81.4411 8.00923 82.5171 5.9519C82.67 5.65859 82.973 5.68918 82.9508 5.34444C82.8841 4.33662 79.5437 3.65825 77.1374 3.52203C74.2836 3.36217 70.9557 2.66435 69.6768 4.47702C69.9896 5.39448 69.8228 6.19933 69.9382 7.16683C70.137 8.87247 72.065 10.0374 72.1067 11.6791C71.2282 11.4288 71.2518 10.2792 70.4581 9.94423C70.3566 10.5058 70.8737 10.8228 70.6318 11.2453C69.4628 11.1425 69.3321 9.99983 68.4619 9.59671C67.7529 10.011 66.7882 11.3996 66.1182 10.118C66.4018 9.70513 67.0857 9.6954 67.247 9.16299C66.2558 9.24779 65.4788 10.282 64.5571 10.7241C64.5321 10.5475 64.3222 10.5545 64.2958 10.3765C64.4223 9.95256 65.0284 10.0109 65.0756 9.50913C63.8301 9.6537 63.1615 11.825 61.9535 10.8978C62.308 10.0902 63.5702 9.74545 63.7759 9.07542C62.6166 9.17134 61.9535 11.3427 60.8261 10.1166C60.7969 9.73989 61.3071 9.90252 61.2584 9.50774C60.0421 9.67038 59.3387 11.7333 58.0487 10.7227C58.2642 10.3321 58.8925 10.3529 58.9161 9.76769C58.1349 10.2598 57.3315 10.7282 56.66 11.3288C56.4932 11.1772 56.1262 11.2273 56.1401 10.895C56.3737 10.4933 56.9825 10.4641 57.1799 10.0276C56.3348 10.1833 55.8774 11.1925 54.8376 10.6351C54.5527 10.9632 55.01 11.105 54.9252 11.5025C54.3983 11.7374 53.4253 11.9251 53.1028 11.3288C53.385 10.9173 54.023 10.8617 54.2315 10.3738C53.3919 10.5837 53.011 11.6526 51.8879 11.0674C51.5167 11.2356 51.9796 11.7569 51.6265 11.85C51.3805 11.4858 50.9287 11.3802 50.4992 11.4149C50.7674 11.0771 51.1886 10.8895 51.3666 10.46C50.1878 10.991 49.3092 12.274 47.7231 12.11C47.8232 11.4872 48.699 11.6401 48.7643 10.9812C48.0192 11.1967 47.7398 12.0752 46.7682 11.5887C46.4568 11.8792 47.1657 11.9932 46.8557 12.2824C46.3692 12.4422 45.6241 12.2879 45.467 11.8486C45.8424 11.4719 46.4999 11.3774 46.682 10.8075C45.8702 11.1522 45.0514 12.3268 43.9922 11.4149C44.0853 11.2384 44.4078 11.0605 44.1659 10.8075C43.5557 10.7755 43.2749 11.0744 42.8648 11.2412C43.147 12.2115 41.8792 12.7036 40.8686 12.3699C41.0118 11.693 42.6646 12.0989 42.1711 11.0674C41.989 10.756 41.3885 11.2579 41.3885 10.895C42.9315 9.22833 45.3767 8.46239 47.5494 7.424C50.691 4.78144 55.6758 3.52064 60.5634 2.91317C67.6584 0.487473 77.7004 0.933686 85.8116 1.78442C86.6748 6.14373 83.7362 9.56334 83.2942 13.7572C82.1348 14.2743 80.9018 14.7192 79.7369 15.2321C79.8676 16.1593 79.3046 16.9461 78.9543 17.662C78.5414 17.9136 77.535 17.573 77.3932 18.0957C77.6823 18.2986 78.4219 18.0512 78.6943 18.2695C78.7096 19.1327 77.4544 19.1591 76.7844 19.0507C76.9025 18.3598 77.3154 17.5953 77.2194 16.9697C75.992 18.6962 76.5105 21.6112 73.3147 21.133C73.4801 20.1002 74.4671 19.0062 74.0945 18.0109C72.9005 19.8236 73.2118 23.6046 70.2773 23.3891C70.5859 22.2757 71.4269 21.247 71.4923 20.178C69.8742 21.4819 70.3204 25.3102 67.5875 25.2102C67.6807 24.2621 68.3243 23.8646 68.2812 22.7817C67.1121 24.2454 67.1636 27.3884 64.3764 26.945C64.5057 26.1304 65.5246 25.3422 65.1563 24.6027C64.3361 25.4312 64.414 27.1563 63.1615 27.5525C63.0781 27.868 63.5521 27.6261 63.509 27.9C63.1643 28.7688 62.5457 29.3651 61.4266 29.461C61.5378 28.2711 62.3302 27.761 62.4678 26.5975C61.1695 27.7568 61.3766 30.4216 58.9106 30.4146C58.9189 29.2623 60.1352 28.4073 59.778 27.4649C58.8536 28.8619 58.6256 31.8548 56.5669 31.5434C56.8602 30.4438 57.6845 29.4277 57.6957 28.3323C57.2147 29.4652 56.186 30.9887 55.5257 32.237C55.0322 33.1698 54.8821 34.3097 53.2696 34.0594C53.6199 32.9265 54.6764 31.6004 54.6583 30.676C53.3489 32.1703 53.2362 34.8629 51.361 35.7957C51.4917 34.2763 52.5593 33.2337 52.4898 31.8047C51.5264 33.7898 51.2554 36.9327 48.4112 36.7506C48.7296 35.5635 49.4302 34.7614 49.7138 33.5396C48.2208 34.5918 48.3779 38.5063 45.8966 38.5717C46.3261 37.5555 47.0058 36.7882 47.2839 35.6219C46.1356 36.7006 45.777 39.3181 43.8142 39.8728C44.191 39.8658 44.4898 39.4419 44.8554 39.7004C44.7164 40.4942 43.8142 40.9612 43.0344 40.8278C43.2499 39.7671 44.3091 38.6398 43.9018 37.5319C43.4069 38.7718 42.9857 40.0855 42.4269 41.2629C41.7166 41.3338 41.116 41.9746 40.4307 41.7842C40.4863 40.9112 41.4288 40.4677 41.2134 39.6142C40.111 40.768 40.0429 42.9546 38.6097 43.7789C38.5194 43.0227 39.1199 42.9574 39.131 42.304C38.4346 43.2006 37.9133 44.7297 36.355 44.474C36.4481 43.6705 37.2169 43.0811 37.0487 42.304C36.4078 43.3702 36.152 44.8215 34.9663 45.3414C35.1289 45.5596 35.4167 45.1593 35.4862 45.5152C35.3847 46.2227 34.6605 46.3075 34.0113 46.4701C33.8237 46.3965 34.0433 45.9169 33.8376 45.8613C33.3858 47.2889 31.2589 47.0429 30.1065 47.7713C31.0824 47.8866 32.011 47.2611 33.0563 47.1624C32.6157 48.3329 30.4833 48.818 29.1516 49.3323C27.7031 49.8898 26.3728 50.3582 25.4205 50.981C27.8171 50.6293 30.1677 49.0209 32.4488 48.5525C32.3404 48.8194 32.2348 49.0904 32.0138 49.2461C29.8716 49.9954 27.5391 50.5556 25.5929 51.5022C27.6836 51.3924 29.7451 50.044 31.7538 49.8522C31.4382 50.8058 30.0871 50.9573 29.0654 51.3285C26.6619 52.1987 23.84 52.8061 20.7359 53.1509C17.586 53.5012 14.1066 52.6379 11.3668 52.7158C7.88459 52.8173 2.58695 53.0786 1.04117 50.5473C0.494862 49.652 1.22468 47.9923 1.47629 46.8149C2.43267 42.3235 4.83194 38.5633 6.76973 35.1896C8.8632 31.5406 12.8041 29.9879 15.7052 27.3815C21.88 24.3886 26.4937 19.8333 32.3641 16.536C31.9401 16.814 31.9957 16.3275 31.5814 16.3623C22.6362 21.6154 13.9676 27.1493 6.24704 33.6285C3.19997 38.4785 0.15291 43.7859 0 51.2409C3.5906 54.2004 9.2038 53.2621 14.3165 53.757C15.7525 53.8974 17.2329 54.0461 18.7412 54.1921C21.3267 54.4409 23.9637 53.4233 26.2907 53.5846C33.6721 54.0961 37.67 48.5567 42.2545 46.1226C49.761 41.9565 57.6276 38.0156 64.2041 32.9349C65.9514 31.5865 68.0629 30.8539 69.9312 29.7251C71.0447 29.0523 71.9454 28.0557 72.9672 27.2077C75.3804 25.2088 78.3107 23.5101 80.6905 21.6557C81.2034 20.5923 82.2391 20.6409 83.0328 19.9209C85.0776 18.0637 84.7732 14.0783 85.4627 11.1564C86.7777 8.74459 87.1683 4.8718 86.9375 1.43968C83.1315 0.721001 78.0452 0.576433 73.6692 0.568093ZM27.7712 33.3644C28.0047 33.1642 28.6094 33.3338 28.9861 33.2768C28.7999 33.7036 28.1118 33.4853 27.7712 33.3644ZM31.1561 33.1906C31.2478 32.8181 31.9178 32.5679 32.2834 32.7569C32.1208 33.1128 31.6356 33.1489 31.1561 33.1906ZM30.0287 37.094C29.6005 38.2853 28.786 39.0929 28.2939 40.2175C27.0553 39.1944 29.1515 38.2617 29.0751 37.0064C29.3934 37.0356 29.8424 36.9341 30.0287 37.094ZM28.64 37.2678C28.5566 37.7042 28.4106 38.0796 28.0325 38.2214C28.0853 37.7557 28.0701 37.2191 28.64 37.2678ZM28.0325 36.8341C27.9658 37.3178 27.6739 37.575 27.5112 37.9614C27.1137 37.6667 27.4529 36.4421 28.0325 36.8341ZM24.9966 40.7374C25.5026 40.6373 25.6277 40.1536 26.1239 40.0438C26.2115 39.7824 25.9307 39.8909 25.7764 39.87C26.3144 39.5475 26.1406 38.7913 26.6438 38.3089C26.926 38.7802 26.9135 39.5433 26.9914 40.2175C25.8278 40.9626 25.8848 42.9282 24.4753 43.4272C24.3252 42.2081 24.8965 41.7091 24.9966 40.7374ZM24.1278 40.0438C24.2084 39.706 24.6713 39.9409 24.8214 40.0438C24.681 40.3232 24.3127 40.1828 24.1278 40.0438ZM25.6902 39.3501C25.4456 39.4391 24.8784 39.5155 24.6505 39.3501C25.3538 38.4326 25.5999 36.6019 27.079 36.7479C26.7286 37.7265 25.8334 38.163 25.6902 39.3501ZM25.9502 36.4879C25.365 37.4638 24.7269 38.3868 24.1278 39.3515C23.7511 39.2639 23.4522 39.1027 23.0866 39.004C23.3813 37.9684 24.2334 37.4916 24.6491 36.5755C23.765 36.9939 23.4605 37.9892 22.7391 38.5703C22.3846 38.6064 22.2873 38.3868 22.133 38.2228C22.6904 37.6236 23.1589 36.9355 23.6941 36.3142C23.0324 35.665 22.6445 37.2747 21.9592 37.4429C21.4352 34.3236 24.4906 35.811 25.9502 36.4879ZM21.5255 44.2085C22.183 42.842 22.9184 41.5534 23.954 40.565C23.8442 42.1345 23.5967 44.3113 21.5255 44.2085ZM23.7802 43.5148C23.7802 43.6024 23.7802 43.6886 23.7802 43.7761C23.6273 43.7553 23.3465 43.8637 23.4341 43.6024C23.512 43.5343 23.6301 43.5092 23.7802 43.5148ZM19.9631 43.7761C20.6095 42.3402 21.5895 41.2378 22.3068 39.8714C22.7627 39.9367 22.9337 40.2856 23.3479 40.3927C22.5973 41.6938 21.8397 42.9921 20.9181 44.1237C20.4718 44.1362 20.2216 43.9513 19.9631 43.7761ZM20.5719 44.7297C20.2856 45.283 20.0117 45.8488 19.5307 46.2046C19.4863 45.3692 19.9534 44.6185 20.5719 44.7297ZM23.0866 39.5239C23.2659 39.6921 23.79 39.5155 23.6941 39.9576C23.3646 39.9409 23.1241 39.8339 23.0866 39.5239ZM18.8357 39.6114C18.4159 39.6267 18.1407 39.4961 17.7945 39.4377C18.8357 37.7015 20.0395 36.1293 21.7855 35.0992C21.4088 36.8674 19.7698 38.1115 18.8357 39.6114ZM21.5255 38.2228C21.2002 38.9164 20.4774 39.6531 19.5294 39.4377C20.0423 38.5925 20.4371 37.6278 21.2642 37.094C21.3879 37.4346 21.3253 37.96 21.5255 38.2228ZM18.9219 43.2549C18.288 44.9063 17.0564 45.9586 16.1459 47.3334C16.5629 45.8126 17.7987 44.3586 18.9219 43.2549ZM16.4072 41.52C16.7492 40.6137 17.2427 39.4002 18.4896 40.1313C18.3422 40.6485 17.9808 40.9529 17.7945 41.4324C17.3441 41.1947 16.7714 41.2351 16.4072 41.52ZM17.3608 41.8662C16.923 42.9032 16.2974 43.7539 15.626 44.5574C15.9262 43.3827 16.1542 42.1345 17.3608 41.8662ZM16.1459 38.9164C15.2979 40.0062 14.728 41.3755 13.716 42.3013C13.5742 40.2008 14.5292 38.409 16.1459 38.9164ZM15.4522 37.8752C15.7761 37.903 15.8039 38.1658 15.7122 38.3965C15.5579 38.4076 15.5301 38.2909 15.366 38.3089C15.2937 38.0643 15.4884 38.0837 15.4522 37.8752ZM16.2335 39.1763C16.6005 39.1861 16.7283 39.4335 16.9271 39.6114C16.6338 40.4316 16.2432 40.8444 15.7122 41.6938C15.4592 42.0983 13.9301 44.8173 13.8898 42.9073C13.8675 41.7869 15.9235 40.3412 16.2335 39.1763ZM21.4394 34.4056C20.2244 34.6655 19.0956 34.0886 18.3158 33.6243C19.3514 33.5437 20.5678 34.033 21.4394 34.4056ZM20.6581 35.0992C19.5002 36.4017 18.491 37.8502 17.3608 39.1777C17.0884 39.1027 16.8813 38.9637 16.7548 38.7426C17.2121 37.4957 18.1963 36.7729 18.8357 35.7067C17.7445 36.2919 17.3678 37.593 16.4072 38.3089C15.4536 36.5963 17.5068 35.5274 18.142 34.318C18.9914 34.5682 19.7142 34.9435 20.6581 35.0992ZM17.7945 34.1442C17.333 34.9269 16.8771 35.7136 16.1473 36.2266C16.2029 35.0923 16.5434 33.7981 17.7945 34.1442ZM16.1459 33.9705C16.2334 34.4667 15.954 34.1915 15.7983 34.318C16.0889 36.0417 15.0908 38.6898 13.716 39.6114C13.2211 39.4419 12.793 39.2055 12.5024 38.8302C13.2656 37.3081 14.3652 36.1237 15.3647 34.8379C13.9621 35.6636 13.3963 37.3234 12.2411 38.3965C10.7593 36.7187 13.7424 35.7581 13.8884 34.0581C14.5987 33.8634 15.4467 33.5382 16.1459 33.9705ZM12.8486 42.8198C12.8403 42.5973 12.5108 42.6961 12.5024 42.4736C12.5678 42.1053 12.8639 41.9677 13.0224 41.6924C13.1461 42.2054 13.2003 42.7864 13.3699 43.2535C12.5456 43.2966 12.0743 43.6927 11.8074 44.2946C11.332 43.6399 12.0702 42.7892 12.8486 42.8198ZM11.2875 42.6474C11.5697 42.6238 11.706 42.7489 11.7212 42.9935C11.4905 43.2173 11.2305 42.9755 11.2875 42.6474ZM12.0688 42.4736C11.5308 42.229 11.0318 41.9482 10.5939 41.6062C11.1471 40.3315 12.1494 38.4313 13.4575 40.0438C13.2893 41.1489 12.515 41.6479 12.0688 42.4736ZM13.6312 34.1442C13.0613 35.1076 12.4357 36.0139 11.635 36.7479C11.6615 35.241 11.9158 33.9635 13.6312 34.1442ZM10.94 36.4879C11.1999 37.4387 11.2486 38.2492 11.895 38.9164C11.446 39.7977 10.8733 40.5553 10.2464 41.2601C8.13202 40.123 10.2324 37.8155 10.94 36.4879ZM8.77286 40.565C9.16764 40.9501 9.60411 41.2948 9.81263 41.8662C9.00498 41.8968 8.32244 42.0524 8.16397 42.7336C8.11671 42.1066 8.56852 41.2309 8.77286 40.565ZM9.11898 42.9073C8.78675 43.5287 8.49067 44.189 7.90405 44.5574C8.13759 43.8359 8.14592 42.8893 9.11898 42.9073ZM7.38417 47.6795C7.0714 47.7045 6.96572 47.521 6.69048 47.5071C6.68631 46.9247 6.87679 46.5368 7.03665 46.1184C7.29659 46.4534 7.44255 47.307 7.38417 47.6795ZM9.72647 42.4736C12.7138 43.3939 9.4373 45.7946 8.68526 47.072C6.58344 45.9002 9.23577 43.993 9.72647 42.4736ZM11.1138 44.556C10.8121 45.7612 10.6676 47.5752 9.20518 47.332C9.7362 46.3019 10.2714 45.2747 11.1138 44.556ZM10.5077 47.3334C10.5396 47.5919 10.7204 47.9617 10.5953 48.1132C9.89467 48.1188 9.25242 48.0673 8.68666 47.9394C9.27049 47.8533 9.99751 47.7157 10.5077 47.3334ZM9.89883 48.8945C10.188 48.5066 11.0651 48.8333 11.4613 48.8945C11.0164 49.1627 10.4563 48.8013 9.89883 48.8945ZM12.9362 43.9485C13.381 43.7831 13.8717 43.6844 14.0635 44.1223C13.3379 45.536 12.4121 46.7523 11.4613 47.9394C10.4173 46.3812 12.6943 45.3567 12.9362 43.9485ZM12.6762 47.4196C12.9181 46.3367 13.7827 44.3572 14.9309 44.4698C15.006 46.4229 13.8036 47.1012 13.1961 48.3745C12.7569 48.3231 12.3037 48.2842 11.9812 48.1132C12.1994 47.8685 12.3551 47.5614 12.6762 47.4196ZM12.8486 48.9806C13.1308 48.9306 13.2531 49.0404 13.4575 49.0682C13.4463 49.3365 12.8583 49.2281 12.8486 48.9806ZM14.8447 48.4607C14.5278 48.4607 14.2095 48.4607 13.8912 48.4607C13.9704 47.8727 14.557 47.7963 14.76 47.3334C15.3925 47.4335 15.1464 48.1799 14.8447 48.4607ZM14.8447 43.9485C14.7544 43.2104 15.6163 42.703 15.9735 42.1261C15.5106 42.6474 15.6496 43.7692 14.8447 43.9485ZM18.402 40.9987C19.0512 43.9082 16.4169 45.0272 15.626 47.072C14.8503 44.6436 17.6972 43.0769 18.402 40.9987ZM17.9683 48.027C18.124 47.6336 18.427 47.3862 18.6633 47.072C19.0456 47.3792 18.5827 48.1577 17.9683 48.027ZM17.2746 48.1132C17.6541 47.0762 18.3283 46.3339 18.8357 45.4248C19.1596 46.4771 18.1448 47.6781 17.2746 48.1132ZM16.3196 48.287C16.2821 48.2091 16.2432 48.1327 16.1459 48.1132C16.8757 46.7273 18.0906 45.087 19.2694 43.8609C18.3659 45.4165 17.6499 47.1596 16.3196 48.287ZM19.1832 41.6062C18.9858 41.2295 19.3139 40.7207 19.6169 40.565C19.9672 40.5053 19.831 40.9306 20.1382 40.9112C20.7137 40.2731 21.0765 39.421 21.6993 38.8302C22.3053 40.2467 20.0798 41.5993 19.357 42.8198C19.0456 42.0038 20.0228 41.7619 19.9645 40.9112C19.4904 40.9306 19.6322 41.5645 19.1832 41.6062ZM20.0507 47.9394C19.7198 47.9116 19.3778 47.585 19.357 47.2458C19.3514 47.1527 20.4649 44.9383 20.9181 44.7297C21.3254 44.5435 21.9189 44.884 22.133 44.7297C21.6187 45.9794 20.8069 46.9316 20.0507 47.9394ZM25.0828 47.6795C24.3544 47.7365 23.8734 47.5071 23.2604 47.6795C23.0338 46.7509 23.9707 46.2574 24.0416 45.3372C23.4606 45.9544 22.9573 46.9692 22.8266 47.7671C22.0955 47.7295 21.6826 48.0103 20.9181 47.9394C21.235 47.446 21.6618 47.0637 21.9592 46.5522C21.9356 46.2477 21.5756 46.7078 21.6117 46.4646C22.2067 45.5944 22.557 44.278 23.8678 44.3822C23.9026 45.4748 24.6838 45.8224 25.1689 46.4646C24.8534 46.9316 25.0313 47.364 25.0828 47.6795ZM24.5629 44.8159C25.2969 43.2368 26.3992 42.0274 27.0776 40.3913C27.7128 40.3329 27.5126 41.1141 27.945 41.2587C27.1721 42.7711 26.4451 44.328 25.5151 45.6847C24.916 45.6764 24.8117 45.1746 24.5629 44.8159ZM25.6027 47.2458C25.5651 46.8607 25.8251 46.7732 26.2115 46.8107C26.1337 47.0818 25.8918 47.1874 25.6027 47.2458ZM26.8176 47.5071C26.9079 47.2778 27.1624 47.2138 27.2527 46.9859C27.3584 47.0234 27.4306 47.0971 27.4265 47.2472C27.2249 47.3362 27.1443 47.5447 26.8176 47.5071ZM27.2513 46.2046C27.0358 46.2811 26.5785 46.3742 26.3839 46.2046C26.6147 45.5388 27.1735 45.201 27.4251 44.556C26.7078 44.8521 26.6689 45.8237 25.9502 46.1171C26.3311 44.5296 27.5835 43.0672 28.2925 41.5187C28.6706 41.6326 29.1266 41.666 29.2475 42.0385C29.8021 41.8815 29.3406 41.2198 30.1149 41.3449C29.2211 43.0269 28.337 44.7159 27.2513 46.2046ZM30.4624 40.825C29.8869 40.8444 29.2308 41.0432 28.8138 40.7374C29.3879 40.0743 30.1316 35.6108 31.5022 37.8738C31.7107 37.9267 31.8984 37.9989 32.1972 37.9614C31.5856 38.883 31.1032 39.9339 30.4624 40.825ZM32.7172 30.5008C32.6449 29.9948 33.2607 30.1755 33.326 29.8072C33.5484 30.088 33.016 30.7316 32.7172 30.5008ZM33.2384 30.9345C33.3913 30.5981 33.5818 30.2965 34.0182 30.2409C33.9473 30.6593 33.7125 30.9178 33.2384 30.9345ZM33.4108 29.3735C33.5123 29.2998 33.6443 29.2595 33.8459 29.2859C33.8695 29.5681 33.743 29.7043 33.4984 29.721C33.4316 29.6431 33.4052 29.5236 33.4108 29.3735ZM34.2796 28.766C33.8765 28.6159 34.2796 28.253 34.4534 28.1571C34.7981 28.2517 34.4144 28.6312 34.2796 28.766ZM33.4108 28.3323C33.6638 27.7457 33.8501 27.0937 34.6257 27.0298C34.4325 27.6275 33.9251 28.3392 33.4108 28.3323ZM33.4108 26.1624C33.49 25.5618 34.0919 25.0698 34.7119 25.295C34.5743 25.8357 33.9543 26.3111 33.4108 26.1624ZM34.7133 24.6013C34.5256 24.6736 34.4172 24.8251 34.1072 24.7751C34.0169 24.3664 34.306 24.3386 34.4548 24.1676C34.6244 24.2274 34.6841 24.3997 34.7133 24.6013ZM34.3672 23.2126C34.0085 23.5893 33.319 24.0578 32.8923 24.08C32.9465 23.4559 34.1628 22.3243 34.3672 23.2126ZM33.7583 21.2164C33.4747 21.222 33.4275 21.4639 33.0647 21.3902C33.1773 21.1275 33.2273 20.8022 33.326 20.5228C33.4108 20.5228 33.4984 20.5228 33.5846 20.5228C33.6304 20.766 33.7124 20.9746 33.7583 21.2164ZM33.1522 18.788C33.5595 18.9297 33.4789 19.5608 33.4984 20.0905C33.1105 20.1933 32.959 20.5339 32.4586 20.5242C32.5976 20.1141 32.5267 19.4941 33.066 19.483C33.0271 19.1841 33.0994 18.9965 33.1522 18.788ZM75.404 7.5088C75.6611 7.70619 75.9447 8.33172 75.5777 8.63754C75.2552 8.58472 75.0314 8.43182 74.7103 8.37621C74.7215 8.0412 75.062 8.03425 75.1441 7.76874C74.5227 8.22191 73.0923 8.60557 72.8018 9.67733C72.3319 8.40957 73.4815 6.75259 75.404 7.5088ZM73.2354 10.6323C73.152 10.4544 73.0589 10.289 72.9741 10.1124C73.3703 9.54528 73.9486 8.72512 74.9703 9.07126C74.4615 9.66204 73.9291 10.2264 73.2354 10.6323ZM74.3628 12.1086C73.9055 11.9877 73.8457 11.4678 73.583 11.1522C73.9361 10.3487 74.9675 10.225 75.2316 9.32981C75.6028 9.53693 76.1727 9.54666 76.2728 10.0249C75.7585 10.8422 74.7451 11.1592 74.3628 12.1086ZM74.9703 12.1948C75.1176 11.3565 75.9809 11.237 76.359 10.6323C76.8358 11.3719 75.7626 12.4394 74.9703 12.1948ZM76.4452 9.3312C76.5925 8.96699 77.136 8.60696 77.5725 8.8113C77.5517 9.36873 77.0985 9.49384 76.7051 9.67872C76.6189 9.56195 76.4716 9.50774 76.4452 9.3312ZM76.7065 12.3671C76.6829 11.6415 77.4419 10.9701 78.18 10.7185C77.6851 11.2634 77.2931 11.914 76.7065 12.3671ZM77.0526 10.7199C76.4229 9.70374 78.1647 9.89418 78.0062 8.8113C78.4511 8.79879 78.7027 8.98368 78.7888 9.3312C78.3676 9.95118 77.7338 10.3599 77.0526 10.7199ZM79.5687 9.59115C79.2809 9.04068 79.0558 8.42626 78.44 8.20384C78.6554 7.28082 78.4024 6.19238 78.2662 5.68639C79.3143 5.39864 79.8023 6.4009 80.6099 6.64138C81.1465 7.97309 79.8439 8.54163 79.5687 9.59115ZM81.9124 5.60021C81.8359 6.07562 81.708 6.49681 81.3911 6.72895C80.9324 5.97414 80.1011 5.59048 79.5701 4.90655C80.4389 5.04834 81.6413 4.85929 81.9124 5.60021ZM78.9613 4.38666C78.4872 4.57432 77.7936 4.30048 77.3126 4.2129C77.7102 4.07667 78.7944 4.003 78.9613 4.38666ZM78.0938 4.90655C78.0243 5.10256 77.5127 5.19292 77.5739 4.82037C77.838 4.75782 77.8283 4.96911 78.0938 4.90655ZM75.5777 5.08032C75.4512 5.53209 74.6228 5.28326 74.6228 5.86154C75.0301 6.34529 75.5499 5.62245 76.1838 5.77397C76.2269 6.04643 75.885 6.00333 76.0963 6.20906C77.51 5.43478 78.5345 6.60385 77.9187 8.03147C77.086 7.89385 76.8358 8.33729 76.1824 8.3776C76.4896 6.72062 74.367 6.73312 73.5802 6.72895C72.9171 5.37362 74.449 5.16928 75.5777 5.08032ZM71.3269 5.51402C72.0275 5.54877 72.3361 5.19292 72.8031 4.99414C72.7225 4.84262 72.6419 4.69248 72.368 4.73279C72.6016 4.53401 73.2049 4.70222 73.583 4.64661C72.9143 5.27771 72.3305 5.99777 71.3269 6.29525C71.1253 6.06311 71.1948 5.81011 71.3269 5.51402ZM73.1479 6.55519C72.817 7.06118 72.2791 7.36422 71.673 7.59637C71.8329 6.92913 72.3611 5.80316 73.1479 6.55519ZM72.628 7.94389C72.596 8.22886 72.425 8.3776 72.2805 8.55136C71.6091 8.46935 72.0859 7.50323 72.628 7.94389ZM70.5456 11.9348C70.8945 11.9946 70.7583 11.5692 71.0655 11.5873C71.2824 11.572 71.3366 11.7208 71.413 11.8486C70.8097 12.5423 69.346 11.9612 68.2895 12.2824C68.1908 10.9548 69.9006 11.041 70.5456 11.9348ZM67.3345 11.066C68.5091 8.69871 69.5044 12.1864 67.3345 11.066V11.066ZM66.6409 11.4135C67.0788 11.4386 67.4235 11.5567 67.5083 11.9348C67.1913 11.9348 66.8716 11.9348 66.5547 11.9348C66.5422 11.7194 66.5408 11.5164 66.6409 11.4135ZM66.2934 11.326C65.9027 11.7513 65.3898 11.2467 65.0784 11.0646C65.2647 10.2681 66.2795 10.5781 66.2934 11.326ZM63.7787 10.7199C64.1165 10.795 64.3569 11.1022 64.211 11.4135C63.9496 11.6693 63.6119 11.433 63.0837 11.5011C63.1267 11.0507 63.5326 10.9645 63.7787 10.7199ZM61.0875 11.4135C61.1486 11.3454 61.5726 11.2203 61.6088 11.4135C61.7339 11.6846 60.9638 11.6846 61.0875 11.4135ZM61.0027 10.8937C60.8595 11.7458 59.7822 11.9724 59.2665 11.3274C59.5765 10.6615 60.3438 10.3543 61.0027 10.8937ZM58.3115 11.4997C58.1599 11.9056 57.3634 11.7138 57.2703 11.326C57.597 11.1091 58.1363 11.294 58.3115 11.4997ZM55.4493 11.8472C55.4757 11.6193 55.1129 11.7791 55.1879 11.4997C55.5104 11.1925 56.0095 11.4775 56.3153 11.6735C56.0984 12.2504 55.2852 12.2448 54.5805 12.1086C54.6111 11.7611 55.2936 12.0669 55.4493 11.8472ZM44.5162 12.281C44.2048 12.4617 43.5779 12.3254 43.1289 12.3685C43.1553 11.7652 44.3563 11.8347 44.5162 12.281ZM37.1432 12.8022C37.9147 11.5692 39.1769 12.4589 40.4391 11.8472C39.808 12.634 38.4387 12.6813 37.1432 12.8022ZM22.8266 22.3452C22.3679 22.9846 21.6076 23.3238 20.9181 23.7339C21.3268 23.043 22.0343 22.651 22.8266 22.3452ZM19.0957 24.8612C18.9775 25.1782 18.3033 25.6883 17.707 25.8162C17.9711 25.2977 18.6884 25.2352 19.0957 24.8612ZM6.08164 35.273C5.93012 35.4398 5.98016 35.8082 5.64932 35.7943C5.66461 35.4926 5.72022 35.2299 6.08164 35.273ZM5.56176 35.9666C5.43526 36.3044 5.17253 36.5032 5.04047 36.8341C4.90841 36.5825 5.24065 36.0528 5.56176 35.9666ZM80.2624 15.4045C80.8935 15.3419 81.2188 14.9722 81.8248 14.8846C81.8874 15.3809 81.5954 15.524 81.5635 15.9258C81.0561 16.0537 80.6071 16.2427 80.1748 16.4457C80.3944 16.8682 80.9505 16.4332 81.3021 16.4457C81.3216 16.8126 81.1687 17.0059 81.1284 17.3131C80.5904 17.3826 80.1804 17.5786 79.5673 17.5744C79.6549 16.7056 80.2401 16.3372 80.2624 15.4045ZM72.0219 24.4275C72.3152 24.4651 72.2235 24.9933 71.8482 24.8612C71.7731 24.5846 71.9218 24.5318 72.0219 24.4275ZM71.8482 23.6477C71.6257 24.4665 70.5748 24.4567 69.7658 24.6889C69.5322 23.8048 71.1392 23.5893 71.8482 23.6477ZM68.7232 25.4687C68.6704 26.0956 67.6348 26.154 67.1608 26.0762C67.3206 25.5563 68.3034 25.4423 68.7232 25.4687ZM68.3757 26.4237C68.2784 27.3106 67.3387 27.3537 66.4671 27.4649C66.6103 26.6225 67.4694 26.4988 68.3757 26.4237ZM66.0348 27.0298C66.1154 28.1015 64.6239 28.3351 63.6049 28.5922C63.7022 27.3592 64.9755 27.3022 66.0348 27.0298ZM60.3938 30.3271C60.0825 30.7788 59.0788 30.9637 58.5728 30.9345C58.9106 30.4911 59.8865 30.3215 60.3938 30.3271ZM59.9615 31.1083C59.8392 32.0633 58.5672 32.3079 57.8791 32.4108C57.8958 31.2987 59.0274 31.3015 59.9615 31.1083ZM57.6178 31.8033C57.4732 32.7277 56.9186 33.2435 55.7954 33.1906C55.8788 32.2037 56.6336 31.8881 57.6178 31.8033ZM56.7504 33.5382C56.5989 34.0928 55.6619 34.2832 55.1879 34.2318C55.2894 33.6257 56.2097 33.4186 56.7504 33.5382ZM56.0567 34.6655C55.7801 35.2855 55.042 35.444 54.4067 35.7067C54.3872 34.8379 55.3936 34.564 56.0567 34.6655ZM54.5818 34.1442C54.554 35.0992 53.4253 34.9547 52.7595 35.273C52.7914 34.3208 53.8284 34.3736 54.5818 34.1442ZM53.9744 35.273C53.9827 36.3003 52.7122 36.4893 51.9782 36.4879C52.1395 35.5788 53.1626 35.5315 53.9744 35.273ZM53.1931 36.6617C53.0138 37.3011 51.956 37.493 51.4583 37.5291C51.6529 36.8563 52.5467 36.8827 53.1931 36.6617ZM53.3669 37.9614C53.1514 38.3242 52.7066 38.4591 52.2395 38.5703C52.3591 38.1115 52.7984 37.9725 53.3669 37.9614ZM51.6321 36.1404C51.557 36.6728 51.3416 37.0648 50.6785 37.0078C50.6409 36.3642 51.0955 36.2127 51.6321 36.1404ZM50.7647 37.5291C50.8926 37.8029 50.267 37.9461 50.3324 37.6167C50.5381 37.6514 50.5186 37.4568 50.7647 37.5291ZM50.4172 36.5741C50.2378 37.6709 48.6392 37.7974 47.8149 37.9614C48.0331 36.8507 49.4093 36.898 50.4172 36.5741ZM46.6861 38.9164C46.6583 39.8144 45.9925 40.073 45.1251 40.1313C45.2057 39.2862 45.8215 38.9776 46.6861 38.9164ZM34.7133 48.2008C34.4214 47.3459 35.5001 47.1457 36.3633 47.1596C36.134 47.8283 35.1387 47.7295 34.7133 48.2008ZM35.5807 48.3745C35.2443 48.818 34.6382 48.9931 34.1058 49.242C34.1392 48.4941 34.9635 48.5386 35.5807 48.3745ZM34.887 46.7245C34.7731 47.2903 33.8681 47.4807 33.4122 47.4196C33.5053 46.8329 34.3908 46.6244 34.887 46.7245ZM34.3672 47.7671C34.2671 48.5052 33.5831 48.6609 32.8923 48.8069C32.7185 48.1299 33.5832 47.7754 34.3672 47.7671ZM33.6721 49.1544C33.5442 49.8077 32.7352 49.7785 32.1972 50.0218C32.1805 49.2711 33.1411 49.0738 33.6721 49.1544ZM27.1651 52.5392C28.2953 51.8762 29.6645 51.4536 31.0699 51.0644C30.4068 52.1445 28.665 52.5823 27.1651 52.5392ZM31.1561 52.1041C31.3826 51.6955 31.9456 51.6218 32.4572 51.4981C32.339 52.0152 31.669 51.9818 31.1561 52.1041ZM31.6759 51.063C31.7705 50.5792 32.3085 50.5389 32.8047 50.4555C32.5712 50.8003 32.093 50.9003 31.6759 51.063ZM33.0647 51.2367C33.6374 50.942 33.8556 50.2915 34.6257 50.1956C34.6118 50.2956 34.6452 50.3499 34.7133 50.3693C34.4464 50.8948 33.6791 51.3452 33.0647 51.2367ZM35.147 50.1956C35.3166 49.4977 36.0256 49.3393 36.6219 49.0682C36.3411 49.6534 35.7823 49.9634 35.147 50.1956ZM35.3208 46.7245C35.4584 46.0823 36.3536 46.1963 36.9694 46.0309C36.8652 46.7078 35.8879 46.5132 35.3208 46.7245ZM35.7545 45.8571C35.7767 44.809 36.8804 44.8437 37.6631 44.556C37.6686 45.6319 36.64 45.6736 35.7545 45.8571ZM37.3169 46.466C37.3295 46.0156 37.4518 45.675 37.923 45.6847C37.8855 46.1087 37.8341 46.5216 37.3169 46.466ZM38.5305 44.2085C38.9169 44.4948 38.4318 45.2135 37.923 45.1635C37.9133 44.6324 38.176 44.3753 38.5305 44.2085ZM38.3581 47.5071C38.5777 47.0623 39.1338 46.9525 39.7454 46.8983C39.5661 47.471 38.8363 47.6948 38.3581 47.5071ZM38.3581 46.0309C38.4304 45.2371 39.1866 45.1259 39.9192 44.9897C39.9484 45.2204 40.136 45.2941 40.1805 45.511C39.58 45.6931 39.1282 46.0225 38.3581 46.0309ZM38.9642 44.7297C39.2102 43.7317 40.3334 43.6121 41.3927 43.4286C41.2537 44.4795 39.7524 44.6144 38.9642 44.7297ZM39.7454 43.341C39.808 42.0719 41.1105 42.0455 42.0891 41.6924C42.3324 42.8726 40.6434 43.3035 39.7454 43.341ZM41.8278 43.5148C41.7916 42.9365 42.5812 42.792 42.9551 42.906C42.9315 43.4245 42.2379 43.6663 41.8278 43.5148ZM42.4339 42.4736C42.3491 41.7411 42.9871 41.0099 43.9963 41.0849C43.8267 41.8995 43.3986 42.4542 42.4339 42.4736ZM45.9049 40.3913C45.702 41.3171 45.221 41.9635 44.0825 41.9524C44.1812 41.2615 44.7706 40.3315 45.9049 40.3913ZM44.3438 43.5148C45.1209 43.1061 45.891 42.6905 46.5986 42.2137C46.3803 42.7266 44.9888 43.9805 44.3438 43.5148ZM46.1662 40.9112C46.1468 40.5817 46.5235 40.3579 46.7723 40.565C46.7612 40.8639 46.3831 41.0863 46.1662 40.9112ZM49.7235 37.8752C49.597 39.1416 47.8858 39.2723 46.9475 39.4377C47.2422 38.2867 48.6184 38.2172 49.7235 37.8752ZM47.206 42.8198C49.223 41.078 51.7878 39.8825 54.3205 38.6565C52.6969 40.098 49.6234 41.5937 47.206 42.8198ZM55.623 37.8752C55.7023 37.7237 55.7843 37.5736 56.0581 37.6167C56.0692 37.8585 55.8441 37.8655 55.623 37.8752ZM53.9744 37.7029C54.6527 37.0509 55.5285 36.5964 56.5766 36.3142C55.9122 36.9786 55.1977 37.5958 53.9744 37.7029ZM56.5766 34.5793C56.6698 34.325 56.9909 34.2985 57.3578 34.318C57.2105 34.5668 56.8408 34.6878 56.5766 34.5793ZM57.0117 35.9666C56.8964 35.3328 57.6373 35.5524 58.0529 35.4468C57.9 35.8137 57.5497 35.9847 57.0117 35.9666ZM58.3115 35.3592C58.3226 35.0506 58.5992 35.0103 58.9203 35.0117C58.8091 35.2202 58.6367 35.3661 58.3115 35.3592ZM57.1841 33.4506C57.54 32.8806 58.3017 32.7166 59.0927 32.5832C59.0649 33.4325 57.7916 33.4673 57.1841 33.4506ZM59.3526 34.8379C59.5542 34.4612 60.0477 34.3764 60.48 34.2304C60.1436 34.4723 59.828 34.735 59.3526 34.8379ZM59.614 32.6707C59.7975 32.0716 60.3827 31.877 61.0875 31.8033C60.8776 32.326 60.1728 32.7792 59.614 32.6707ZM60.3938 31.4558C60.3605 30.612 61.2431 30.6857 61.8687 30.5008C61.8186 31.2598 61.0778 31.3293 60.3938 31.4558ZM61.0875 30.2409C61.157 29.6445 61.9118 29.7335 62.39 29.5472C62.3288 30.1505 61.6894 30.1769 61.0875 30.2409ZM62.6499 31.542C62.8626 30.9443 63.4603 30.733 64.211 30.6746C63.819 31.0916 63.3186 31.4016 62.6499 31.542ZM62.3024 30.7622C62.5804 29.9114 63.7411 29.9448 64.6447 29.721C64.0706 30.2728 63.2268 30.5578 62.3024 30.7622ZM63.0837 29.6334C63.0781 28.8953 64.3806 28.7368 65.2522 28.5922C65.1507 29.5597 63.8663 29.3457 63.0837 29.6334ZM65.2522 31.1945C65.4051 30.7399 65.8346 30.562 66.3809 30.5008C66.178 30.9053 65.6803 31.0152 65.2522 31.1945ZM66.4671 28.766C66.2767 28.8647 66.1127 28.9898 65.7735 28.9384C65.8277 27.8374 67.1038 27.957 67.9434 27.6372C67.6751 28.0918 66.8952 28.0362 66.3809 28.2447C66.3184 28.5116 66.5297 28.5005 66.4671 28.766ZM67.4221 28.506C67.721 28.1683 68.2673 28.0779 68.8108 27.9862C68.5022 28.3128 67.9684 28.4143 67.4221 28.506ZM68.7232 26.7712C68.8108 25.73 70.0827 25.8732 70.978 25.6425C70.8626 26.6531 69.56 26.4793 68.7232 26.7712ZM70.6332 27.8986C70.5721 27.5191 71.0836 27.7123 71.1531 27.4649C71.2963 27.5858 70.8876 27.8875 70.6332 27.8986ZM69.2445 25.4687C69.6657 24.9349 70.5748 24.8904 71.3269 24.6889C71.1698 25.4367 69.8575 25.4632 69.2445 25.4687ZM71.413 25.8162C71.3255 25.0934 72.2791 25.4089 72.5418 25.035C72.8726 25.3645 71.8398 25.6814 71.413 25.8162ZM74.2766 24.3414C73.9528 24.3497 74.0292 24.4387 73.7567 24.3414C73.7776 24.1023 74.0792 24.1426 74.189 23.9952C74.442 24.0689 74.2864 24.1231 74.2766 24.3414ZM72.2805 23.7339C72.6767 22.9666 74.0806 22.765 74.8827 22.6927C74.538 23.5087 73.0867 23.6644 72.2805 23.7339ZM72.8018 22.6927C72.6614 22.3966 73.0923 22.0282 73.1479 21.6515C74.0028 21.6974 74.6936 21.2123 75.404 21.3902C74.9174 22.2048 73.8263 22.4161 72.8018 22.6927ZM74.9703 23.7339C74.962 23.4656 75.233 23.4739 75.4916 23.4739C75.4401 23.6838 75.1635 23.6658 74.9703 23.7339ZM75.5777 24.3414C75.7932 24.0369 76.1282 23.8506 76.5313 23.7339C76.3618 24.0828 75.9892 24.2315 75.5777 24.3414ZM75.3178 22.8651C75.3387 22.0769 76.2408 22.1686 76.8789 21.9991C76.5452 22.4759 75.9781 22.7177 75.3178 22.8651ZM75.9253 21.3902C76.1949 20.9676 76.9109 20.9885 77.4864 20.8689C77.175 21.1956 76.4201 21.5375 75.9253 21.3902ZM76.359 20.5228C76.3381 20.1266 76.5049 19.9167 76.6203 19.6554C76.8928 19.6971 76.9261 19.4997 77.2264 19.5678C77.143 19.6554 77.0554 19.7429 76.9651 19.8291C77.0763 20.2559 77.6393 19.7499 77.8339 20.0029C77.6893 20.5228 76.8886 20.3879 76.359 20.5228ZM77.6601 22.2576C78.3148 21.7836 78.8931 21.2345 79.8301 21.0427C79.9579 21.614 78.4386 22.0185 77.6601 22.2576ZM79.135 20.7841C79.3227 20.3921 79.9691 20.4602 80.0886 20.0029C80.1901 19.9876 80.2429 20.0223 80.2624 20.0905C80.1818 20.6145 79.5965 20.6368 79.135 20.7841ZM78.5275 19.9167C78.8472 19.3982 79.7119 19.4232 80.3499 19.2217C80.0316 19.7429 79.2003 19.7499 78.5275 19.9167ZM79.135 18.6142C79.103 17.8177 80.3402 17.8677 80.8698 17.9205C80.81 18.6225 79.584 18.5864 79.135 18.6142ZM80.8698 19.9167C81.0283 19.5247 81.6274 19.5747 81.9986 19.3954C81.8804 19.7707 81.3063 20.1475 80.8698 19.9167ZM80.956 19.0479C81.1923 18.5906 81.9152 18.6198 82.5185 18.528C82.2335 18.8797 81.4523 19.1939 80.956 19.0479ZM81.3035 18.1805C81.2966 17.4396 82.3837 17.3687 82.9522 17.4868C82.7784 18.0929 82.0125 18.1096 81.3035 18.1805ZM83.4735 16.6194C83.0342 16.96 82.2822 16.992 81.6511 17.1393C81.5955 15.9564 82.6853 15.9188 83.2997 15.4045C82.8813 15.0778 82.7103 15.7381 82.171 15.5782C82.3767 15.0889 82.4337 14.4523 83.0384 14.3633C83.3803 14.2243 83.0676 14.7386 83.2997 14.7108C83.6125 14.7359 83.4971 14.3313 83.6472 14.1909C83.764 14.5551 83.5902 15.7882 83.4735 16.6194ZM85.2945 10.2C84.9553 11.3121 84.7537 12.6424 83.9058 13.3221C84.1462 10.9284 85.3209 8.72373 85.9881 6.46762C86.0896 6.45372 86.1424 6.48708 86.1619 6.55519C85.9993 7.78264 85.6448 9.0504 85.2945 10.2Z" fill="#231003"/>
</svg>
