<svg width="142" height="121" viewBox="0 0 142 121" fill="none" xmlns="http://www.w3.org/2000/svg">
<path d="M105.635 62.6156C113.048 53.8541 135.481 49.7141 136.54 51.9285C137.6 54.1429 127.394 59.4383 127.394 59.4383C127.394 59.4383 132.304 59.4383 138.081 60.9788C138.659 61.0751 139.236 61.3639 139.429 61.8453C139.814 62.8081 138.659 63.6747 137.696 63.9635C135.193 64.83 132.593 65.504 129.993 65.8891C132.978 66.7556 135.963 68.0073 138.659 69.644C140.199 70.5105 141.836 72.1473 141.258 73.7841C140.777 75.132 139.044 75.5171 137.696 75.6134C127.49 76.6725 113.144 69.5477 105.635 62.6156Z" fill="#331000"/>
<path d="M47.8665 79.0795C44.0153 88.1299 37.6608 96.1211 29.6696 101.802C28.6105 102.572 27.4551 103.342 26.1072 103.438C24.7593 103.535 23.3151 102.957 22.93 101.705C22.4486 100.069 22.5448 96.8913 22.5448 96.8913C22.5448 96.8913 12.8206 101.031 7.52516 101.898C2.80743 102.668 0.881833 100.839 0.304153 99.5872C-0.273527 98.3355 -0.369807 95.6397 3.19255 92.5587C7.23632 89.0927 16.6718 84.2787 16.6718 84.2787C16.6718 84.2787 14.1685 82.3531 13.2057 80.9089C12.4354 79.8498 12.9168 78.213 13.8796 77.3465C14.8424 76.48 16.0941 75.9986 17.442 75.7097C26.9737 73.2065 37.1794 73.4953 46.6149 76.3837" fill="#331000"/>
<path d="M105.635 71.8585C105.731 62.3268 110.834 58.6682 110.834 58.6682L44.593 34.5981C44.593 34.5981 46.2298 40.6638 40.1641 48.0774C29.9584 60.4012 29.8622 84.7601 59.8053 95.6397L59.9978 95.736C89.9409 106.519 105.538 86.0117 105.635 71.8585Z" fill="#C1B3AA"/>
<path d="M81.1795 1.09264C80.5055 0.514956 79.7353 -0.159006 78.8687 0.033554C78.0022 0.129834 77.4245 1.09263 77.3283 1.95915C77.232 2.82568 77.5208 3.6922 77.9059 4.46244C78.2911 5.42524 78.5799 6.38804 78.965 7.35084C77.0394 5.32896 75.0175 3.49963 72.8994 1.76659C71.9366 0.900074 70.1073 0.322394 69.6259 1.47775C69.4333 1.95915 69.5296 2.44055 69.7221 2.92196C70.2035 4.46244 70.9738 5.81036 71.8403 7.15828C69.6259 5.04012 66.6412 3.78848 63.5602 3.59592C63.1751 3.59592 62.79 3.59592 62.5011 3.78848C61.6346 4.26988 62.0197 5.6178 62.5974 6.38804C65.3895 10.5281 69.8184 13.1276 74.3436 15.1495C81.6609 18.423 89.4596 20.3486 97.3545 21.0226C93.8884 18.0379 87.0525 6.67688 81.1795 1.09264Z" fill="#331000"/>
<path d="M130.186 29.2064C130.86 29.2064 131.726 29.2064 132.112 29.6878C132.593 30.1692 132.497 31.0357 132.015 31.6134C131.63 32.191 130.956 32.5762 130.379 32.865C129.705 33.2501 128.934 33.6352 128.26 34.1166C130.475 33.9241 132.593 33.8278 134.807 33.8278C135.866 33.8278 137.214 34.3092 136.926 35.3683C136.829 35.7534 136.444 36.0422 136.155 36.2348C135.096 36.9088 133.941 37.3902 132.689 37.679C135.096 37.4864 137.6 38.2567 139.525 39.7009C139.718 39.8934 140.007 40.086 140.103 40.2786C140.392 41.0488 139.429 41.6265 138.755 41.819C135 42.8781 130.86 42.2042 127.105 41.1451C121.039 39.412 115.263 36.6199 110.063 32.9613C113.915 33.0576 123.831 29.5915 130.186 29.2064Z" fill="#331000"/>
<path d="M111.122 77.4427C114.492 66.2742 123.157 39.027 123.157 39.027C123.157 39.027 109.582 23.7184 88.7855 16.1123C67.8927 8.5062 47.6739 11.5872 47.6739 11.5872C47.6739 11.5872 37.3719 36.62 32.1728 48.7513C27.5514 59.6309 20.5229 88.2261 57.4944 101.705L57.687 101.802C94.6585 115.088 107.753 88.7075 111.122 77.4427Z" fill="#582B18"/>
<path d="M54.0285 44.7075C54.0285 27.7622 32.3654 1.57408 29.0919 3.11456C25.7221 4.65504 32.3655 20.445 32.3655 20.445C32.3655 20.445 26.7812 15.8235 18.79 11.9723C18.0197 11.5872 17.1532 11.2984 16.383 11.5872C15.0351 12.2612 15.5165 14.283 16.2867 15.631C18.3086 19.097 20.6193 22.2743 23.2189 25.259C18.9825 23.3334 14.4574 21.9854 9.83592 21.2152C7.23636 20.7338 3.86658 20.9264 2.90378 23.4296C2.22982 25.4515 3.67401 27.4734 5.21449 29.0139C15.9016 39.8935 38.9125 45.4778 54.0285 44.7075Z" fill="#331000"/>
<path d="M64.1378 116.725C64.7155 113.644 64.234 110.467 62.0196 108.156C59.8052 105.845 56.6279 105.171 53.547 104.786C53.547 104.69 53.7395 104.497 54.4135 103.823C55.3763 102.861 56.4354 102.187 57.687 101.609C60.9605 99.8759 58.5535 94.6768 55.28 96.4098C52.0065 98.0466 47.2888 101.224 47.5776 105.46C47.6739 106.904 48.4441 108.06 49.5032 109.023C49.6958 109.215 49.8883 109.504 50.0809 109.696C51.7176 111.141 51.6213 113.259 50.7548 115.088C50.0809 116.532 51.14 118.265 52.4879 118.747C53.1618 119.036 53.8358 118.939 54.4135 118.747C55.4726 120.095 57.7833 120.672 59.3238 119.036L59.42 118.939C60.9605 119.806 63.7527 119.228 64.1378 116.725Z" fill="#B46E23"/>
<path d="M53.7396 110.467C51.3326 106.616 47.8665 106.23 47.5776 105.845C47.7702 107.097 48.5404 108.156 49.5032 108.926C49.6958 109.119 49.8884 109.408 50.0809 109.6C51.7177 111.044 51.6214 113.163 50.7549 114.992C50.0809 116.436 51.14 118.169 52.4879 118.651C52.5842 118.747 55.954 114.029 53.7396 110.467Z" fill="#934F21"/>
<path d="M56.9168 119.902C60.8643 113.163 56.0503 109.793 56.0503 109.793C59.0349 114.222 54.4135 118.651 54.4135 118.651C54.9912 119.421 55.954 119.902 56.9168 119.902Z" fill="#934F21"/>
<path d="M62.3084 119.036C64.6191 111.815 59.9014 110.37 59.9014 110.37C63.0786 114.414 59.9977 118.073 59.42 118.843C60.2865 119.324 61.3456 119.421 62.3084 119.036Z" fill="#934F21"/>
<path d="M50.081 101.898C44.7856 102.476 41.2232 107.578 42.3786 112.777C43.1488 116.436 48.8293 115.377 48.0591 111.718C47.5777 109.408 48.8293 107.771 51.14 107.578C54.7987 107.097 53.7396 101.416 50.081 101.898Z" fill="#B46E23"/>
<path d="M47.9628 111.718C47.4814 109.408 48.733 107.771 51.0437 107.578C51.0437 107.578 44.6893 105.942 43.2451 114.414C45.0744 115.858 48.6367 114.607 47.9628 111.718Z" fill="#934F21"/>
<path d="M64.908 94.4842L61.1531 91.307C59.7089 91.7884 53.1619 94.0029 51.8139 94.6768C50.8511 95.1582 49.8884 95.7359 49.5995 96.6987C49.5032 97.0838 49.5032 97.5652 49.7921 97.9503C49.9846 98.1429 50.1772 98.2392 50.466 98.3354C51.4288 98.6243 52.5842 98.6243 53.547 98.2392C52.7768 99.0094 52.1991 99.8759 51.8139 100.839C51.6214 101.416 51.5251 102.187 52.1028 102.475C52.2954 102.572 52.5842 102.475 52.7767 102.475C53.7395 102.283 54.6061 101.802 55.3763 101.32C54.7986 102.379 55.4726 103.92 56.6279 104.401C57.7833 104.882 59.1312 104.497 60.094 103.727C61.0568 102.957 61.7308 101.802 62.1159 100.646C62.501 99.6834 64.7155 95.447 64.908 94.4842Z" fill="#582B18"/>
<path d="M52.8731 114.896C53.4508 111.815 52.9694 108.637 50.755 106.327C48.5405 104.016 45.3633 103.342 42.2823 102.957C42.2823 102.861 42.4749 102.668 43.1488 101.994C44.1116 101.031 45.1707 100.357 46.4224 99.7797C49.6959 98.0466 47.2889 92.8475 44.0154 94.5806C40.7418 96.2173 36.0241 99.3945 36.313 103.631C36.4092 105.075 37.1795 106.23 38.2386 107.193C38.4311 107.386 38.6237 107.675 38.8162 107.867C40.453 109.311 40.3567 111.43 39.4902 113.259C38.8162 114.703 39.8753 116.436 41.2232 116.918C41.8972 117.206 42.5712 117.11 43.1488 116.918C44.2079 118.265 46.5186 118.843 48.0591 117.206L48.1554 117.11C49.6959 117.88 52.488 117.303 52.8731 114.896Z" fill="#B46E23"/>
<path d="M42.5712 108.637C40.1642 104.786 36.6981 104.401 36.4093 104.016C36.6019 105.268 37.3721 106.327 38.3349 107.097C38.5275 107.29 38.72 107.578 38.9126 107.771C40.5493 109.215 40.4531 111.333 39.5866 113.163C38.9126 114.607 39.9717 116.34 41.3196 116.821C41.4159 116.918 44.6894 112.104 42.5712 108.637Z" fill="#934F21"/>
<path d="M45.6522 118.073C49.5997 111.333 44.7857 107.963 44.7857 107.963C47.7704 112.392 43.1489 116.821 43.1489 116.821C43.7266 117.591 44.6894 118.073 45.6522 118.073Z" fill="#934F21"/>
<path d="M51.1402 117.11C53.4509 109.889 48.7332 108.445 48.7332 108.445C51.9104 112.489 48.8295 116.147 48.2518 116.917C49.022 117.495 50.1774 117.495 51.1402 117.11Z" fill="#934F21"/>
<path d="M53.6434 92.655L49.8885 89.4777C48.4443 89.9591 41.8972 92.1736 40.5493 92.8475C39.5865 93.3289 38.6237 93.9066 38.3349 94.8694C38.2386 95.2545 38.2386 95.7359 38.5274 96.1211C38.72 96.3136 38.9125 96.4099 39.2014 96.5062C40.1642 96.795 41.3195 96.795 42.2823 96.4099C41.5121 97.1801 40.9344 98.0467 40.5493 99.0095C40.3568 99.5871 40.2605 100.357 40.8381 100.646C41.0307 100.742 41.3196 100.646 41.5121 100.646C42.4749 100.454 43.3414 99.9723 44.1117 99.4909C43.534 100.55 44.208 102.09 45.3633 102.572C46.5187 103.053 47.8666 102.668 48.8294 101.898C49.7922 101.128 50.4661 99.9722 50.8513 98.8169C51.2364 97.8541 53.4508 93.5215 53.6434 92.655Z" fill="#582B18"/>
<path d="M109.871 85.5302C112.663 75.8059 111.893 65.3114 108.619 57.7053L69.3369 43.3596C61.9233 47.1145 54.606 54.6243 50.466 63.8672C49.4069 66.1779 48.5404 69.3552 49.5032 70.318C50.7548 71.5696 54.3172 68.5849 54.3172 68.5849C54.2209 68.4886 49.5995 75.9985 49.792 80.8125C49.8883 83.5083 51.5251 84.5674 52.9693 84.2786C54.4135 83.9897 55.8577 82.7381 57.3019 81.4865C56.6279 83.0269 55.9539 84.6637 55.5688 86.493C55.1837 88.3223 55.1837 90.3442 55.7614 91.6921C56.4354 93.4252 57.7833 93.8103 59.0349 93.5214C60.8642 93.04 62.501 91.307 64.1378 89.6703C62.7898 93.4252 63.7526 101.609 68.9518 103.438C74.1509 105.364 81.2756 100.165 82.6235 96.4098C82.9124 98.7206 83.0086 101.128 84.0677 102.668C84.7417 103.631 85.9933 104.305 87.7264 103.342C89.0743 102.668 90.3259 101.128 91.2887 99.4908C92.1552 97.8541 92.7329 96.2173 93.2143 94.5805C93.5032 96.5061 93.792 98.4317 94.7548 99.4908C95.7176 100.646 97.6432 100.935 99.3762 98.9131C102.65 95.3508 103.901 86.5893 103.805 86.5893C103.805 86.5893 104.672 91.1145 106.405 91.0182C107.753 91.0182 109.197 88.0335 109.871 85.5302Z" fill="#C1B3AA"/>
<path d="M115.648 70.1254C116.707 64.0598 116.514 58.4755 115.359 53.1801L68.4704 36.1385C64.1378 39.4121 60.3828 43.6484 57.3019 48.9438C56.2428 50.8694 55.4725 53.0838 55.6651 54.528C55.9539 56.8388 61.1531 52.5062 61.1531 52.6024C61.0568 52.5062 55.7614 60.3048 55.8577 64.9263C55.8577 66.8519 57.013 67.3333 58.0721 66.6593C59.2275 65.9854 60.2865 64.4449 61.4419 63.0007C60.3828 65.3114 59.42 67.6221 58.8424 70.1254C58.2647 72.6287 58.1684 75.2282 58.8424 76.9613C59.5163 78.7906 60.7679 79.1757 62.0196 78.598C63.2712 78.0204 64.4266 76.5762 65.6782 75.0357C64.234 79.0794 63.1749 84.9525 64.908 87.4558C66.5447 89.8628 68.6629 87.2632 70.396 84.6637C70.0108 85.7228 68.4703 94.6768 72.9955 96.3136C77.5207 97.9503 82.5272 90.1516 82.9124 89.1888C82.5272 92.3661 82.431 95.7359 85.3194 94.8694C88.2078 94.0991 91.1924 88.9 92.6366 84.8562C92.5403 86.8781 92.5403 88.7074 93.118 89.9591C93.6957 91.2107 94.9473 91.6921 96.5841 90.7293C98.1246 89.8628 99.7614 87.7446 100.917 85.5302C102.072 83.3158 102.842 80.8125 103.516 78.4055C103.516 80.2348 103.324 82.1604 103.805 83.412C104.19 84.6637 105.346 85.0488 106.597 83.5083C109.678 80.0422 110.641 70.6068 110.545 70.6068C110.641 70.6068 111.796 77.1538 113.529 75.6134C114.396 74.5543 115.262 72.3398 115.648 70.1254Z" fill="#DFD9D5"/>
<path d="M110.16 31.4209C103.709 32.2874 98.3172 45.8629 98.3172 45.8629C98.3172 45.8629 104.383 25.259 91.8665 19.6747C79.3501 13.9942 62.0196 26.7032 68.2779 46.6331C75.6914 53.8541 82.6236 64.2524 84.0678 76.2874C93.3107 67.1408 105.153 61.5565 115.262 61.364C121.232 44.8038 120.365 30.6506 110.16 31.4209Z" fill="#C1B3AA"/>
<path d="M119.788 51.6397C116.707 59.9197 110.16 64.5412 105.635 62.3267C101.206 60.1123 99.28 52.1211 101.976 44.9001C104.19 38.7381 112.278 32.1911 116.899 33.9241C121.232 35.6572 122.869 43.3596 119.788 51.6397Z" fill="#351100"/>
<path d="M103.324 45.3815C100.917 52.0248 102.265 58.9569 106.212 60.8825C110.256 62.9044 115.648 58.4755 118.44 51.062C121.136 43.6484 119.884 36.7162 115.551 35.5609C111.219 34.4055 105.731 38.7381 103.324 45.3815Z" fill="white"/>
<path d="M104.094 47.981C102.169 53.2764 103.131 58.9569 106.405 60.4974C109.582 62.0379 113.915 58.5718 116.129 52.795C118.247 46.9219 117.284 41.3377 113.818 40.2786C110.352 39.2195 106.02 42.6856 104.094 47.981Z" fill="black"/>
<path d="M105.923 54.2392C105.346 55.6834 105.634 57.2239 106.501 57.609C107.367 57.9941 108.523 57.1276 109.101 55.5871C109.678 54.0467 109.389 52.6024 108.523 52.2173C107.56 51.9285 106.405 52.795 105.923 54.2392Z" fill="white"/>
<path d="M105.635 50.0992C105.346 50.7731 105.538 51.5433 105.923 51.7359C106.405 51.9285 106.886 51.4471 107.175 50.7731C107.464 50.0029 107.271 49.3289 106.886 49.1364C106.405 48.9438 105.827 49.3289 105.635 50.0992Z" fill="white"/>
<path d="M94.2735 40.9526C91.1925 49.2327 83.2012 53.3727 77.2319 50.5806C71.2625 47.7885 68.0853 39.3158 70.6849 32.0948C72.8993 25.9329 82.5273 19.9636 88.6892 22.2743C94.3698 24.4887 97.2581 32.6725 94.2735 40.9526Z" fill="#351100"/>
<path d="M72.4178 32.6725C70.0108 39.2195 72.4178 46.6331 77.8095 49.1364C83.2012 51.6397 89.7483 47.5959 92.4441 40.2786C95.1399 32.9613 92.8292 25.5478 87.0524 23.8147C81.3719 22.178 74.8248 26.1255 72.4178 32.6725Z" fill="white"/>
<path d="M73.6695 35.4646C71.7439 40.76 73.6695 46.7294 77.9058 48.655C82.2384 50.5806 87.4376 47.4996 89.5557 41.6265C91.6739 35.7534 89.8446 29.8804 85.3194 28.4362C80.8905 26.992 75.5951 30.1692 73.6695 35.4646Z" fill="black"/>
<path d="M76.6542 42.2042C76.0765 43.6484 76.6542 45.2852 77.8095 45.7666C78.9649 46.248 80.3128 45.4778 80.8905 43.9373C81.4682 42.3968 80.9868 40.8563 79.7351 40.3749C78.5798 39.8935 77.2319 40.76 76.6542 42.2042Z" fill="white"/>
<path d="M75.7876 37.8717C75.4988 38.5456 75.7876 39.4121 76.3653 39.6047C76.943 39.7973 77.617 39.4121 77.9058 38.7382C78.1946 37.9679 77.9058 37.1977 77.3281 37.0051C76.7504 36.7163 76.0765 37.1014 75.7876 37.8717Z" fill="white"/>
<path d="M110.641 28.5324C109.582 28.9176 108.619 29.5915 107.753 30.2655C108.523 28.9176 109.293 27.5696 109.678 26.1254C109.967 24.585 109.678 22.9482 108.715 22.2742C107.56 22.0817 106.212 23.237 105.538 24.585C104.864 25.9329 104.575 27.4734 104.287 29.0138C103.998 27.8585 103.709 26.7031 103.227 25.8366C102.265 24.2961 100.05 25.2589 99.5689 27.3771C99.0875 29.6878 99.28 32.1911 99.4726 34.5018C99.6651 36.7162 99.954 38.9307 100.147 41.2414L103.227 42.3968C104.864 40.8563 106.405 39.3158 108.041 37.6791C109.678 36.0423 111.508 34.213 112.567 32.0948C113.433 30.1692 112.374 27.9548 110.641 28.5324Z" fill="#331000"/>
<path d="M97.0656 45.3814C97.0656 45.3814 96.3916 49.2326 98.8949 50.0991C101.398 51.0619 102.746 47.307 102.746 47.307L97.0656 45.3814Z" fill="#8F4321"/>
<path d="M103.42 39.4121C101.783 38.8344 98.4134 41.3377 96.7767 45.9591L105.731 49.0401C105.731 48.9438 105.057 39.9897 103.42 39.4121Z" fill="#B46E23"/>
</svg>
