<svg width="109" height="124" viewBox="0 0 109 124" fill="none" xmlns="http://www.w3.org/2000/svg">
<path d="M63.2654 102.819L92.2701 91.8573C92.2701 91.8573 95.5682 99.3267 95.0832 108.251C94.5012 117.176 89.2629 106.311 89.2629 106.311C89.2629 106.311 89.7479 109.124 89.2629 116.012C89.0689 119.116 88.1958 121.056 86.9348 121.638C85.5767 122.026 83.7336 121.153 81.5024 118.922C76.6522 114.169 75.1001 111.646 75.1001 111.646C75.1001 111.646 78.3013 123.287 72.0929 116.982C65.6906 110.676 63.2654 102.819 63.2654 102.819Z" fill="#331000"/>
<path d="M18.934 51.9886C8.06937 55.9658 -3.57128 75.8516 -1.82519 77.5977C-0.0790863 79.3437 8.45739 71.4864 8.45739 71.4864C8.45739 71.4864 6.80831 76.1426 6.22627 82.0598C6.12927 82.6419 6.12926 83.2239 6.51728 83.6119C7.29332 84.2909 8.4574 83.5149 9.13644 82.7389C10.8825 80.7018 12.3376 78.4707 13.6957 76.0456C13.5017 79.2467 13.6957 82.4479 14.2777 85.552C14.5687 87.298 15.5388 89.4321 17.2849 89.4321C18.74 89.4321 19.71 87.9771 20.2921 86.716C24.7543 77.4037 22.9112 61.398 18.934 51.9886Z" fill="#331000"/>
<path d="M24.1722 58.7782C27.4704 49.6597 23.7841 44.5184 23.7841 44.5184H94.7921C94.7921 44.5184 91.1059 49.7567 94.4041 58.7782C99.8364 74.008 91.494 96.9982 59.3852 96.9982H59.1911C27.0823 96.9982 19.4189 72.1649 24.1722 58.7782Z" fill="#C1B3AA"/>
<path d="M51.0427 0.38103C50.2667 0.0900119 49.3936 -0.201003 48.7146 0.187021C48.0355 0.575045 47.8415 1.5451 48.0355 2.32115C48.2295 3.0972 48.8116 3.77625 49.2966 4.35828C49.8786 5.03733 50.4607 5.81337 51.1397 6.49242C48.9086 5.42535 46.4834 4.45529 44.1553 3.58223C43.0883 3.19421 41.3422 3.19421 41.2452 4.35828C41.2452 4.84332 41.4392 5.23134 41.7302 5.61937C42.6032 6.78344 43.6703 7.7535 44.8344 8.52955C42.2152 7.46248 39.305 7.26847 36.5889 8.04452C36.2979 8.14152 35.9099 8.23853 35.7158 8.52955C35.1338 9.20859 35.9099 10.2756 36.5889 10.7607C40.2751 13.4768 44.9314 14.3499 49.4906 14.6409C56.766 15.1259 64.1384 14.4469 71.2198 12.5068C67.2426 11.0517 57.8331 3.38822 51.0427 0.38103Z" fill="#331000"/>
<path d="M94.7922 9.49935C95.4712 9.20834 96.2472 9.01432 96.8293 9.30533C97.4113 9.69335 97.6053 10.4694 97.4113 11.1484C97.2173 11.8275 96.7323 12.4095 96.3443 12.8945C95.8592 13.4766 95.2772 14.1556 94.7922 14.7376C96.7323 13.7676 98.7694 12.8945 100.904 12.2155C101.874 11.8275 103.426 11.8275 103.426 12.8945C103.426 13.2826 103.232 13.6706 102.941 13.9616C102.165 14.9316 101.195 15.8047 100.224 16.5807C102.456 15.6107 105.075 15.4167 107.403 16.0957C107.694 16.1927 107.985 16.2897 108.179 16.4837C108.664 17.0658 108.082 17.9388 107.403 18.4239C104.202 20.752 100.127 21.528 96.1502 21.819C89.8449 22.3041 83.3455 21.625 77.2342 19.9759C80.7264 18.8119 88.8748 12.1185 94.7922 9.49935Z" fill="#331000"/>
<path d="M17.0907 62.0765C17.7697 50.3388 18.9338 21.5283 18.9338 21.5283C18.9338 21.5283 37.0738 11.6338 59.3851 11.6338C81.7934 11.6338 99.8364 21.5283 99.8364 21.5283C99.8364 21.5283 101 48.7868 101.679 62.0765C102.359 74.0081 99.0603 103.401 59.4821 103.401H59.1911C19.6128 103.498 16.4117 74.0081 17.0907 62.0765Z" fill="#582B18"/>
<path d="M36.104 115.527C36.589 112.423 38.1411 109.61 41.0513 108.155C43.9614 106.699 47.1626 107.184 50.2668 107.864C50.3638 107.767 50.1698 107.475 49.7818 106.699C49.1997 105.535 48.4237 104.468 47.4536 103.498C44.9315 100.782 49.0057 96.6112 51.5279 99.4243C54.05 102.14 57.4452 106.699 55.6991 110.58C55.1171 111.938 53.953 112.714 52.5949 113.296C52.4009 113.49 52.1099 113.587 51.8189 113.684C49.7818 114.46 49.1027 116.594 49.2967 118.534C49.4907 120.086 47.8416 121.444 46.3866 121.444C45.6105 121.444 45.0285 121.153 44.5435 120.765C43.0884 121.638 40.6632 121.347 39.8872 119.31C39.8872 119.213 39.8872 119.213 39.7902 119.116C38.0441 119.504 35.716 118.049 36.104 115.527Z" fill="#B46E23"/>
<path d="M48.1326 113.199C51.7218 110.386 55.214 111.162 55.505 110.968C54.8259 112.132 53.8559 112.811 52.6918 113.296C52.4978 113.49 52.2068 113.587 51.9158 113.684C49.8787 114.46 49.1996 116.594 49.3936 118.534C49.5876 120.086 47.9385 121.444 46.4835 121.444C46.2895 121.444 44.8344 115.721 48.1326 113.199Z" fill="#934F21"/>
<path d="M41.8273 121.056C40.4692 113.296 46.0955 111.84 46.0955 111.84C41.7303 115.042 44.6404 120.765 44.6404 120.765C43.8644 121.25 42.7973 121.347 41.8273 121.056Z" fill="#934F21"/>
<path d="M37.074 118.243C37.365 110.677 42.3123 110.871 42.3123 110.871C37.9471 113.684 39.4992 118.146 39.8872 119.019C38.9171 119.31 37.8501 119.019 37.074 118.243Z" fill="#934F21"/>
<path d="M54.6321 106.312C59.4823 108.737 61.0344 114.751 58.2213 119.31C56.2812 122.511 51.2369 119.601 53.177 116.4C54.4381 114.46 53.759 112.423 51.7219 111.356C48.3267 109.707 51.2369 104.663 54.6321 106.312Z" fill="#B46E23"/>
<path d="M53.177 116.303C54.4381 114.363 53.759 112.326 51.7219 111.259C51.7219 111.259 58.2213 111.938 56.7662 120.377C54.4381 121.25 51.5279 118.922 53.177 116.303Z" fill="#934F21"/>
<path d="M43.0883 94.2825L47.7446 92.5364C48.9087 93.5065 54.341 97.8718 55.408 98.9389C56.0871 99.7149 56.8631 100.588 56.7661 101.558C56.7661 101.946 56.5721 102.431 56.1841 102.625C55.9901 102.722 55.699 102.722 55.408 102.722C54.341 102.625 53.3709 102.237 52.4979 101.558C52.9829 102.528 53.1769 103.595 53.2739 104.662C53.2739 105.244 53.0799 106.02 52.4008 106.02C52.2068 106.02 51.9158 105.923 51.7218 105.729C50.9458 105.147 50.1697 104.468 49.6847 103.692C49.8787 104.953 48.7146 106.117 47.4536 106.214C46.1925 106.311 45.0284 105.438 44.3494 104.371C43.6704 103.304 43.4763 101.946 43.4763 100.685C43.5733 100.006 42.9913 95.1556 43.0883 94.2825Z" fill="#582B18"/>
<path d="M47.4535 117.661C47.9385 114.557 49.4906 111.744 52.4008 110.289C55.311 108.834 58.5121 109.319 61.6163 109.998C61.7133 109.901 61.5193 109.61 61.1313 108.834C60.5493 107.669 59.7732 106.602 58.8032 105.632C56.281 102.916 60.3552 98.7451 62.8774 101.558C65.3995 104.274 68.7947 108.834 67.0486 112.714C66.4666 114.072 65.3025 114.848 63.9445 115.43C63.7504 115.624 63.4594 115.721 63.1684 115.818C61.1313 116.594 60.4523 118.728 60.6463 120.668C60.8403 122.22 59.1912 123.578 57.7361 123.578C56.96 123.578 56.378 123.287 55.893 122.899C54.4379 123.772 52.0128 123.481 51.2367 121.444C51.2367 121.347 51.2367 121.347 51.1397 121.25C49.3936 121.638 46.9685 120.086 47.4535 117.661Z" fill="#B46E23"/>
<path d="M59.3851 115.333C62.9743 112.519 66.4665 113.295 66.7575 113.101C66.0785 114.266 65.1084 114.945 63.9444 115.43C63.7504 115.624 63.4594 115.721 63.1683 115.818C61.1312 116.594 60.4522 118.728 60.6462 120.668C60.8402 122.22 59.1911 123.578 57.736 123.578C57.639 123.578 56.0869 117.855 59.3851 115.333Z" fill="#934F21"/>
<path d="M53.1768 123.191C51.8188 115.43 57.4451 113.975 57.4451 113.975C53.0798 117.176 55.99 122.9 55.99 122.9C55.1169 123.288 54.1469 123.482 53.1768 123.191Z" fill="#934F21"/>
<path d="M48.3266 120.377C48.6176 112.811 53.5649 113.005 53.5649 113.005C49.1997 115.818 50.7518 120.28 51.1398 121.153C50.2667 121.444 49.1027 121.153 48.3266 120.377Z" fill="#934F21"/>
<path d="M54.3409 96.3196L58.9971 94.5735C60.1612 95.5435 65.5935 99.9087 66.6606 100.976C67.3396 101.752 68.1157 102.625 68.0187 103.595C68.0187 103.983 67.8246 104.468 67.4366 104.662C67.2426 104.759 66.9516 104.759 66.6606 104.759C65.5935 104.662 64.6235 104.274 63.7504 103.595C64.2354 104.565 64.4295 105.632 64.5265 106.699C64.5265 107.281 64.3325 108.057 63.6534 108.057C63.4594 108.057 63.1684 107.96 62.9744 107.766C62.1983 107.184 61.4223 106.505 60.9373 105.729C61.1313 106.99 59.9672 108.154 58.7061 108.251C57.4451 108.348 56.281 107.475 55.602 106.408C54.9229 105.341 54.7289 103.983 54.7289 102.722C54.8259 102.043 54.2439 97.2896 54.3409 96.3196Z" fill="#582B18"/>
<path d="M65.8846 108.445C70.7348 110.87 72.2869 116.884 69.4738 121.444C67.5337 124.645 62.4894 121.735 64.4295 118.534C65.6906 116.593 65.0115 114.556 62.9744 113.489C59.5792 111.743 62.5864 106.796 65.8846 108.445Z" fill="#B46E23"/>
<path d="M64.4295 118.437C65.6906 116.497 65.0115 114.46 62.9744 113.392C62.9744 113.392 69.4738 114.072 68.0187 122.511C65.7876 123.384 62.8774 121.056 64.4295 118.437Z" fill="#934F21"/>
<path d="M81.7935 65.2776C74.4211 78.8583 83.9276 89.1408 79.2713 93.021C74.6151 96.9012 69.5708 89.4318 69.5708 89.4318C69.5708 89.4318 73.257 97.3862 68.1157 98.3562C62.9744 99.3263 57.9301 92.439 57.9301 92.439C57.9301 92.439 59.4822 101.751 56.184 102.624C52.8859 103.4 50.1697 92.924 50.1697 92.924C50.1697 92.924 49.8787 101.751 46.0955 101.557C42.3123 101.266 39.6931 94.67 39.6931 94.67C39.6931 94.67 38.8201 98.1622 34.4548 98.4532C30.0896 98.7442 29.5075 88.2677 29.5075 88.2677C29.5075 88.2677 29.8956 93.991 25.6273 92.536C21.2621 91.0809 16.1208 69.9339 28.1495 55.5771C40.3722 41.3175 81.7935 65.2776 81.7935 65.2776Z" fill="#C1B3AA"/>
<path d="M98.4783 45.4885C98.4783 45.4885 81.7934 57.6142 78.6892 75.9482C76.3611 89.529 70.7348 78.8584 71.5108 72.844C71.5108 72.844 69.4737 85.8428 65.4965 85.5518C61.5192 85.2607 62.6833 76.5303 62.6833 76.5303C62.6833 76.5303 59.9672 87.3949 55.4079 87.1039C50.8486 86.8128 50.2666 77.1123 50.2666 77.1123C50.2666 77.1123 46.1924 93.0212 42.8942 92.6332C39.596 92.2451 39.014 76.3362 39.014 76.3362C39.014 76.3362 35.7158 87.5889 32.9996 87.0068C30.2835 86.4248 31.0595 74.1051 31.0595 74.1051C31.0595 74.1051 28.4404 78.1793 25.7242 75.1722C23.0081 72.165 28.2464 59.7483 28.2464 59.7483C28.2464 59.7483 25.7242 64.1135 22.9111 61.6884C20.0979 59.2633 35.2308 44.5184 35.2308 44.5184L98.4783 45.4885Z" fill="#DFD9D5"/>
<path d="M83.3455 18.9087C77.5252 21.9159 77.0401 36.6609 77.0401 36.6609C77.0401 36.6609 75.6821 15.5135 61.9073 14.0584C38.917 11.6332 36.4919 22.0129 35.2308 44.4214C35.2308 44.4214 52.1097 54.316 57.6391 65.2777C63.2654 53.4429 88.9718 49.0777 98.4784 45.3914C101.777 24.6321 92.755 14.6404 83.3455 18.9087Z" fill="#C1B3AA"/>
<path d="M97.5082 34.6239C97.5082 41.7052 93.725 47.0405 89.7478 46.5554C85.7706 46.0704 82.1814 40.6382 82.1814 34.3329C82.1814 28.9976 86.4496 21.8193 90.4268 21.9163C94.2101 22.1103 97.5082 27.5425 97.5082 34.6239Z" fill="#351100"/>
<path d="M83.3454 34.43C83.3454 40.0564 86.2556 45.0037 89.8448 45.3917C93.434 45.7797 96.3441 40.9294 96.3441 34.624C96.3441 28.3186 93.434 23.3713 89.8448 23.6624C86.2556 23.9534 83.3454 28.8037 83.3454 34.43Z" fill="white"/>
<path d="M84.6065 36.1758C84.6065 40.7351 86.9346 44.7123 89.7478 45.0033C92.658 45.2943 94.9861 41.5111 94.9861 36.4668C94.9861 31.4226 92.658 27.5423 89.8448 27.6394C86.9346 27.8334 84.6065 31.6166 84.6065 36.1758Z" fill="black"/>
<path d="M87.7106 40.4445C87.7106 41.7055 88.2926 42.7725 89.0687 42.8695C89.8447 42.9665 90.4268 41.9965 90.4268 40.6385C90.4268 39.3775 89.8447 38.3105 89.0687 38.2135C88.2926 38.2135 87.7106 39.1835 87.7106 40.4445Z" fill="white"/>
<path d="M86.3527 37.3402C86.3527 37.9223 86.6437 38.5044 87.0317 38.5044C87.4197 38.5044 87.7108 38.0193 87.7108 37.4372C87.7108 36.8552 87.4197 36.2731 87.0317 36.2731C86.6437 36.2731 86.3527 36.7581 86.3527 37.3402Z" fill="white"/>
<path d="M71.5108 33.3627C71.5108 42.2872 65.3025 48.8836 58.7061 48.3016C52.1097 47.7195 46.1924 40.8321 46.1924 33.0716C46.1924 26.4752 53.2738 17.4537 59.8702 17.5507C65.9815 17.7447 71.6079 24.4381 71.5108 33.3627Z" fill="#351100"/>
<path d="M48.1326 33.0721C48.1326 40.1535 52.9828 46.2648 58.9002 46.7498C64.8175 47.2349 69.6678 41.2206 69.6678 33.2661C69.6678 25.3117 64.9145 19.2004 58.9002 19.5884C52.8858 19.9764 48.1326 26.0878 48.1326 33.0721Z" fill="white"/>
<path d="M50.1697 35.303C50.1697 41.0262 54.0499 45.9735 58.7062 46.3615C63.4594 46.7495 67.3396 41.9963 67.3396 35.691C67.3396 29.3857 63.5564 24.4385 58.8032 24.6325C54.0499 24.8265 50.1697 29.5797 50.1697 35.303Z" fill="black"/>
<path d="M55.3109 40.6388C55.3109 42.191 56.281 43.5491 57.639 43.6461C58.9001 43.7431 59.9672 42.482 59.9672 40.9298C59.9672 39.2806 58.9971 38.0195 57.639 37.9225C56.378 37.8255 55.3109 39.0866 55.3109 40.6388Z" fill="white"/>
<path d="M53.0798 36.7583C53.0798 37.5344 53.5648 38.2135 54.2439 38.2135C54.9229 38.2135 55.4079 36.8553 55.4079 36.8553C55.4079 36.8553 54.9229 35.4 54.2439 35.4C53.5648 35.4 53.0798 35.9821 53.0798 36.7583Z" fill="white"/>
<path d="M82.8605 15.9989C81.9874 16.6779 81.3084 17.648 80.7264 18.7151C81.0174 17.163 81.3084 15.6109 81.1144 14.0587C80.9204 12.5066 80.0473 11.0515 78.8833 10.7605C77.7192 10.9545 76.8461 12.5066 76.6521 14.0587C76.4581 15.6109 76.7491 17.163 77.0402 18.7151C76.3611 17.745 75.7791 16.7749 74.906 16.0959C73.451 14.9318 71.7049 16.6779 71.9959 18.8121C72.2869 21.2372 73.354 23.5654 74.324 25.6026C75.2941 27.6397 76.2641 29.6768 77.2342 31.714H80.5324C81.5024 29.6768 82.4725 27.6397 83.4425 25.6026C84.4126 23.4684 85.4796 21.1402 85.7706 18.8121C86.0617 16.5809 84.3156 14.8348 82.8605 15.9989Z" fill="#331000"/>
<path d="M75.779 36.5642C75.779 36.5642 76.458 40.444 79.1741 40.444C81.8903 40.444 81.8903 36.4672 81.8903 36.4672L75.779 36.5642Z" fill="#8F4321"/>
<path d="M79.6594 28.8041C77.8163 28.8041 75.5851 32.393 75.6821 37.2429L85.1887 37.0489C85.1887 37.0489 81.5025 28.8041 79.6594 28.8041Z" fill="#B46E23"/>
<path d="M88.8748 54.51C97.9933 61.5914 103.135 83.9995 100.903 85.1636C98.6723 86.3276 92.949 76.2391 92.949 76.2391C92.949 76.2391 93.143 81.0894 91.882 87.0067C91.785 87.5887 91.5909 88.1707 91.1059 88.4617C90.1359 88.9468 89.2628 87.7827 88.8748 86.8126C87.8077 84.2905 87.1287 81.7684 86.5467 79.1493C85.7706 82.2534 84.6066 85.2606 83.1515 88.0737C82.2784 89.6258 80.8233 91.3719 79.0772 90.8869C77.7192 90.4018 77.2341 88.7527 77.0401 87.3947C75.6821 77.1121 82.1814 62.3674 88.8748 54.51Z" fill="#331000"/>
</svg>
