<svg width="104" height="125" viewBox="0 0 104 125" fill="none" xmlns="http://www.w3.org/2000/svg">
<path d="M47 105.049L17.2 93.749C17.2 93.749 13.8 101.449 14.3 110.649C14.9 119.849 20.3 108.649 20.3 108.649C20.3 108.649 19.8 111.549 20.3 118.649C20.5 121.849 21.4 123.849 22.7 124.449C24.1 124.849 26 123.949 28.3 121.649C33.3 116.749 34.9 114.149 34.9 114.149C34.9 114.149 31.6 126.149 38 119.649C44.5 113.049 47 105.049 47 105.049Z" fill="#331000"/>
<path d="M88.6001 67.1484C85.2001 57.7483 89 52.4482 89 52.4482H15.8C15.8 52.4482 19.6 57.8483 16.2 67.1484C10.6 82.8486 19.2 106.549 52.3 106.549H52.5C85.6001 106.549 93.5001 81.0485 88.6001 67.1484Z" fill="#C1B3AA"/>
<path d="M18.1001 4.5488C17.3001 4.14882 16.3001 3.84885 15.5001 4.34882C14.7001 4.7488 14.5001 5.84874 14.7001 6.74869C14.9001 7.64865 15.5001 8.3486 16.1001 9.04856C16.8001 9.84852 17.5001 10.6485 18.2001 11.4485C15.6001 10.2485 13 9.04857 10.3 8.14862C9.00003 7.74864 7.10004 7.64864 7.00004 9.04856C7.00004 9.54854 7.30005 10.0485 7.60005 10.4485C8.60005 11.7484 9.80006 12.8484 11.2001 13.8483C8.30006 12.5484 4.90003 12.3484 1.90003 13.2484C1.50003 13.3484 1.20003 13.4483 0.900025 13.7483C0.200024 14.5483 1.10003 15.6482 1.90003 16.2482C6.10003 19.2481 11.4 20.248 16.5001 20.648C24.8001 21.2479 33.1001 20.448 41.1001 18.2481C36.5001 16.6482 25.8001 7.94862 18.1001 4.5488Z" fill="#331000"/>
<path d="M81.4 0.348438C82.1 0.0484146 82.9 -0.151613 83.5 0.14841C84.1 0.548441 84.3 1.3485 84.1 2.04855C83.9 2.7486 83.4 3.34867 83 3.84871C82.5 4.44875 81.9 5.1488 81.4 5.74885C83.4 4.74877 85.5 3.8487 87.7 3.14864C88.7 2.74861 90.3 2.74862 90.3 3.84871C90.3 4.24874 90.1 4.64878 89.8 4.9488C89 5.94888 88 6.84893 87 7.64899C89.3 6.64891 92 6.4489 94.4 7.14895C94.7 7.24896 95 7.34896 95.2 7.54897C95.7 8.14902 95.1 9.04909 94.4 9.54913C91.1 11.9493 86.9 12.7494 82.8 13.0494C76.3 13.5494 69.6 12.8494 63.3 11.1493C66.9 9.94917 75.3 3.04865 81.4 0.348438Z" fill="#331000"/>
<path d="M8.70001 70.6484C8.00001 82.9482 11.4 113.248 52.2 113.248H52.5C93.3 113.248 96 85.4482 96 70.6484C96 26.149 80.7 10.7492 80.7 10.7492C80.7 10.7492 60 5.74931 37.7 11.7492C15.4 17.7491 0 32.3489 0 32.3489C0 32.3489 6.1 59.7486 9 73.2484" fill="#582B18"/>
<path d="M97.6001 79.0485C96.8001 68.5486 92.4001 58.6486 86.4001 52.3486H42.9001C37 58.6486 32.5001 68.6486 31.7001 79.0485C31.5001 81.6485 31.8001 85.1485 33.1001 85.7485C34.8001 86.5485 37.2001 82.3485 37.2001 82.3485C37.1001 82.2485 35.3001 91.2485 37.2001 95.9485C38.2001 98.5485 40.2001 98.9485 41.5001 98.2485C42.8001 97.4485 43.8001 95.6485 44.7001 93.9485C44.6001 95.7485 44.5001 97.5485 44.8001 99.4485C45.1001 101.348 45.8001 103.348 46.9001 104.448C48.2001 105.948 49.7001 105.748 50.7001 105.048C52.3001 103.948 53.3001 101.648 54.3001 99.4485C54.3001 103.648 58.2001 111.148 63.9001 111.148C69.7001 111.148 74.7001 103.548 74.7001 99.4485C75.8001 101.648 76.8001 103.848 78.3001 105.048C79.3001 105.748 80.8001 105.948 82.1001 104.448C83.1001 103.248 83.9001 101.348 84.2001 99.4485C84.5001 97.5485 84.4001 95.7485 84.3001 93.9485C85.3001 95.6485 86.2001 97.4485 87.5001 98.2485C88.8001 98.9485 90.8001 98.6485 91.8001 95.9485C93.7001 91.2485 91.9001 82.3485 91.8001 82.3485C91.8001 82.3485 94.3001 86.5485 95.9001 85.7485C97.5001 85.0485 97.8001 81.6485 97.6001 79.0485Z" fill="#C1B3AA"/>
<path d="M97.7999 61.9487C96.6999 55.6486 91.4999 40.9485 88.4999 36.1484L30.7 52.4486C30.7 52.4486 33 66.6488 33.7 67.9488C34.8 70.0488 38.2999 64.0487 38.3999 64.1487C38.2999 64.0487 35.9 73.5488 37.6999 78.0488C38.3999 79.9489 39.5999 79.9489 40.4999 78.9489C41.2999 77.8489 41.8999 75.9488 42.4999 74.1488C42.2999 76.7488 42.1999 79.3489 42.4999 81.9489C42.7999 84.5489 43.6999 87.1489 44.8999 88.6489C46.1999 90.149 47.4999 90.149 48.4999 89.1489C49.4999 88.1489 50.1999 86.3489 50.7999 84.3489C50.7999 88.849 51.8999 94.949 54.3999 96.749C56.8999 98.549 57.9999 95.249 58.6999 92.049C58.6999 93.249 60.3999 102.549 65.3999 102.549C70.3999 102.549 72.4999 93.149 72.4999 92.049C73.1999 95.249 74.3999 98.549 76.7999 96.749C79.2999 94.949 80.3999 88.849 80.3999 84.3489C80.9999 86.3489 81.6999 88.1489 82.6999 89.1489C83.6999 90.149 85.0999 90.149 86.2999 88.6489C87.4999 87.2489 88.2999 84.6489 88.6999 81.9489C88.9999 79.3489 88.8999 76.6488 88.6999 74.1488C89.2999 75.9488 89.8999 77.8489 90.6999 78.9489C91.4999 80.0489 92.7999 79.9489 93.4999 78.0488C95.2999 73.5488 92.8999 64.0487 92.7999 64.1487C92.8999 64.0487 96.2999 70.1488 97.4999 67.9488C98.0999 66.6488 98.1999 64.1487 97.7999 61.9487Z" fill="#DFD9D5"/>
<path d="M62.2001 14.548C56.3001 19.148 60.4001 33.8481 60.4001 33.8481C60.4001 33.8481 52 12.648 35.4 15.348C18.8 18.048 10.3001 39.0481 30.7001 52.3482C43.3001 54.0482 57.6001 58.7482 67.5001 68.1482C70.3001 54.8481 79.2001 43.4481 89.2001 37.2481C83.2001 9.748 71.9001 7.74798 62.2001 14.548Z" fill="#C1B3AA"/>
<path d="M63.8004 28.9484C61.0004 20.6483 64.4004 13.2482 70.5004 12.5482C76.6004 11.8482 84.2004 17.1483 86.6004 24.3484C88.7004 30.5485 85.2004 40.2486 79.3004 41.3486C73.7004 42.4486 66.6004 37.2486 63.8004 28.9484Z" fill="#351100"/>
<path d="M84.9005 24.7488C82.6005 18.1489 76.4005 13.349 70.9005 14.049C65.4004 14.749 63.0004 21.2489 65.5004 28.6488C68.0004 36.0486 74.3005 40.8486 79.5005 39.3486C84.8005 37.8486 87.2005 31.3487 84.9005 24.7488Z" fill="white"/>
<path d="M82.3005 23.0482C80.5005 17.7484 75.5005 13.8486 71.1004 14.3486C66.7004 14.8486 64.8004 20.0484 66.7004 25.9482C68.7004 31.7479 73.7004 35.6478 77.9005 34.6478C82.2005 33.5478 84.2005 28.448 82.3005 23.0482Z" fill="black"/>
<path d="M76.0004 19.1481C75.5004 17.6478 74.2004 16.6476 73.0004 16.7476C71.8004 16.9476 71.3004 18.2479 71.8004 19.7482C72.3004 21.2485 73.7004 22.2487 74.8004 22.1486C76.0004 21.9486 76.5004 20.5483 76.0004 19.1481Z" fill="white"/>
<path d="M79.3004 22.248C79.1004 21.548 78.4004 21.048 77.8004 21.148C77.2003 21.248 77.0004 21.948 77.2004 22.648C77.4004 23.348 78.1004 23.848 78.7004 23.748C79.3004 23.648 79.6004 22.948 79.3004 22.248Z" fill="white"/>
<path d="M23.1 37.7477C20.3 28.8478 25.5 20.5478 33.5 19.4478C41.5 18.2479 50.6 23.5478 53.1 31.2477C55.2 37.8477 49.7 48.6476 41.9 50.3476C34.6 51.8476 25.9 46.5476 23.1 37.7477Z" fill="#351100"/>
<path d="M50.9 31.7487C48.7 24.7488 41.1 19.8488 33.9 20.9488C26.8 22.0488 22.9001 29.3488 25.4 37.2487C27.9 45.1487 35.5 49.9486 42.4 48.0486C49.3 46.0486 53.1 38.7487 50.9 31.7487Z" fill="white"/>
<path d="M47.7 30.0484C45.9 24.3484 39.8 20.4484 34.1 21.3484C28.4 22.2484 25.3 28.0484 27.3 34.2484C29.2 40.4484 35.3 44.3485 40.9 42.9485C46.4 41.5485 49.5 35.7484 47.7 30.0484Z" fill="black"/>
<path d="M39.9004 26.1479C39.4004 24.548 37.8004 23.548 36.3004 23.748C34.8004 24.048 34.0004 25.5479 34.5004 27.1479C35.0004 28.7478 36.6004 29.8478 38.1004 29.5478C39.6004 29.2478 40.4004 27.7479 39.9004 26.1479Z" fill="white"/>
<path d="M43.8001 29.3482C43.6001 28.5482 42.8001 28.0482 42.0001 28.2482C41.2001 28.3482 40.8001 29.1482 41.1001 29.9482C41.3001 30.7482 42.2001 31.2482 42.9001 31.0482C43.7001 30.9482 44.1001 30.1482 43.8001 29.3482Z" fill="white"/>
<path d="M60.6 11.7487C59.8 12.6487 59.3 13.8487 58.9 14.9486C58.8 13.3487 58.6 11.7487 57.9 10.2488C57.2 8.7488 55.7 7.54883 54.2 7.54883C52.9 8.04881 52.3 9.84878 52.6 11.3487C52.8 12.9487 53.7 14.4486 54.5 15.8486C53.4 15.0486 52.3 14.2486 51.1 13.7487C49.1 12.9487 47.5 15.1486 48.5 17.2485C49.6 19.5485 51.6 21.5484 53.4 23.3484C55.2 25.1483 57 26.8482 58.8 28.6482L62.7 27.7482C63.2 25.4483 63.7 23.1484 64.3 20.8484C64.8 18.4485 65.3 15.8486 65 13.4487C64.6 11.4487 62 10.2488 60.6 11.7487Z" fill="#331000"/>
<path d="M58.8004 34.1483C58.8004 34.1483 60.8004 37.8496 64.0004 37.1494C67.2004 36.4491 65.9004 32.4478 65.9004 32.4478L58.8004 34.1483Z" fill="#8F4321"/>
<path d="M61.0009 25.3489C58.901 25.8488 57.301 30.0486 58.901 34.8484L70.0005 32.1485C70.0005 32.0485 63.1008 24.8489 61.0009 25.3489Z" fill="#B46E23"/>
<path d="M44.3998 109.249C43.2997 111.449 43.2997 114.149 44.4998 116.349C44.9998 117.349 45.9999 118.249 47.0999 118.049C47.7 117.949 48.1 117.449 48.4 116.949C49.9001 114.849 50.0001 111.849 48.7001 109.649C48.2 108.749 47.3 107.849 46.1999 107.849C45.1998 107.749 44.7998 108.349 44.3998 109.249Z" fill="#B46E23"/>
<path d="M48.7996 109.349C47.4996 111.749 47.5996 114.749 48.8996 117.049C49.4996 118.148 50.6996 119.148 51.8996 118.848C52.4996 118.648 52.9996 118.248 53.3996 117.648C55.0996 115.349 55.1996 112.149 53.7996 109.749C53.1996 108.749 52.0996 107.749 50.8996 107.749C49.5996 107.749 49.1996 108.449 48.7996 109.349Z" fill="#B46E23"/>
<path d="M53.9997 109.249C52.8997 111.449 52.8997 114.149 54.0997 116.349C54.5997 117.349 55.5997 118.249 56.6996 118.049C57.2996 117.949 57.6996 117.449 57.9996 116.949C59.4996 114.849 59.5996 111.849 58.2996 109.649C57.7996 108.749 56.8996 107.849 55.7996 107.849C54.6996 107.749 54.2997 108.349 53.9997 109.249Z" fill="#B46E23"/>
<path d="M49.2997 114.948C48.9997 115.448 48.5997 115.848 47.9997 116.048C46.8997 116.348 45.8997 115.348 45.3997 114.348C44.3997 112.548 44.2997 110.348 44.7997 108.448C44.6997 108.648 44.4997 108.948 44.3997 109.148C43.2997 111.348 43.2997 114.048 44.4997 116.248C44.9997 117.248 45.9997 118.148 47.0997 117.948C47.6997 117.848 48.0997 117.348 48.3997 116.848C48.7997 116.248 49.1997 115.448 49.3997 114.748C49.3997 114.848 49.2997 114.948 49.2997 114.948Z" fill="#934F21"/>
<path d="M54.2002 115.848C53.8002 116.349 53.3002 116.849 52.7002 117.049C51.5002 117.349 50.3001 116.349 49.7001 115.248C48.6001 113.348 48.4001 110.948 49.0001 108.847C48.9001 109.047 48.8001 109.247 48.7001 109.447C47.4001 111.848 47.5001 114.848 48.8001 117.149C49.4001 118.249 50.6001 119.249 51.8001 118.949C52.4001 118.749 52.9001 118.349 53.3001 117.749C53.8001 117.049 54.2001 116.248 54.4001 115.348C54.4001 115.548 54.3002 115.648 54.2002 115.848Z" fill="#934F21"/>
<path d="M58.8 114.948C58.5 115.448 58.1 115.848 57.5 116.048C56.4 116.348 55.4 115.348 54.9001 114.348C53.9001 112.548 53.8001 110.348 54.3 108.448C54.2 108.648 54.0001 108.948 53.9001 109.148C52.8001 111.348 52.8001 114.048 54.0001 116.248C54.5001 117.248 55.5001 118.148 56.6001 117.948C57.2 117.848 57.6 117.348 57.9 116.848C58.3 116.248 58.7 115.448 58.9 114.748C58.9 114.848 58.9 114.948 58.8 114.948Z" fill="#934F21"/>
<path d="M77.6996 109.249C78.7996 111.449 78.6996 114.149 77.5996 116.349C77.0996 117.349 76.0996 118.249 74.9995 118.049C74.4995 117.949 74.0995 117.449 73.6995 116.949C72.2995 114.849 72.0995 111.849 73.3995 109.649C73.8995 108.749 74.7995 107.849 75.8995 107.849C76.9996 107.749 77.3996 108.349 77.6996 109.249Z" fill="#B46E23"/>
<path d="M73.4996 109.349C74.6996 111.749 74.6996 114.749 73.3996 117.049C72.7996 118.148 71.6996 119.148 70.4996 118.848C69.8996 118.648 69.3996 118.248 68.9996 117.648C67.3996 115.349 67.1996 112.149 68.6996 109.749C69.2996 108.749 70.2996 107.749 71.4996 107.749C72.6996 107.749 73.0996 108.449 73.4996 109.349Z" fill="#B46E23"/>
<path d="M68.3997 109.249C69.4997 111.449 69.3997 114.149 68.2997 116.349C67.7997 117.349 66.7996 118.249 65.6996 118.049C65.1996 117.949 64.7996 117.449 64.3996 116.949C62.9995 114.849 62.7995 111.849 64.0996 109.649C64.5996 108.749 65.4996 107.849 66.5996 107.849C67.6997 107.749 68.0997 108.349 68.3997 109.249Z" fill="#B46E23"/>
<path d="M72.9992 114.948C73.2992 115.448 73.6992 115.848 74.2992 116.048C75.3992 116.348 76.2992 115.348 76.8992 114.348C77.7992 112.548 77.9992 110.348 77.4992 108.448C77.5992 108.648 77.7992 108.948 77.8992 109.148C78.9992 111.348 78.8992 114.048 77.7992 116.248C77.2992 117.248 76.2992 118.148 75.1992 117.948C74.6992 117.848 74.2992 117.348 73.8992 116.848C73.4992 116.248 73.1992 115.448 72.9992 114.748C72.8992 114.848 72.9992 114.948 72.9992 114.948Z" fill="#934F21"/>
<path d="M68.1992 115.848C68.5992 116.349 68.9992 116.849 69.6992 117.049C70.8992 117.349 71.9992 116.349 72.5992 115.248C73.6992 113.348 73.8992 110.948 73.1992 108.847C73.2992 109.047 73.3992 109.247 73.4992 109.447C74.6992 111.848 74.6992 114.848 73.3992 117.149C72.7992 118.249 71.6992 119.249 70.4992 118.949C69.8992 118.749 69.3992 118.349 68.9992 117.749C68.4992 117.049 68.0992 116.248 67.8992 115.348C67.9992 115.548 68.0992 115.648 68.1992 115.848Z" fill="#934F21"/>
<path d="M63.6996 114.948C63.9996 115.448 64.3996 115.848 64.9996 116.048C66.0996 116.348 66.9996 115.348 67.5996 114.348C68.4996 112.548 68.6996 110.348 68.1996 108.448C68.2996 108.648 68.4996 108.948 68.5996 109.148C69.6996 111.348 69.5996 114.048 68.4996 116.248C67.9996 117.248 66.9996 118.148 65.8996 117.948C65.3996 117.848 64.9996 117.348 64.5996 116.848C64.1996 116.248 63.8996 115.448 63.6996 114.748C63.5996 114.848 63.5996 114.948 63.6996 114.948Z" fill="#934F21"/>
<path d="M30 52.2478C24.5 64.048 31 89.1484 33.9 89.1484C36.7 89.1484 37.3 76.0482 37.3 76.0482C37.3 76.0482 39.7 81.0483 44 86.2484C44.4 86.7484 44.9 87.2484 45.5 87.2484C46.7 87.2484 47 85.6484 46.9 84.4484C46.6 81.4483 46.1 78.4482 45.2 75.5482C47.6 78.2482 50.3 80.6483 53.2 82.6483C54.9 83.7483 57.3 84.7484 58.7 83.3484C59.7999 82.1483 59.4999 80.2483 58.8999 78.7483C54.8999 67.9481 40.8 56.6479 30 52.2478Z" fill="#331000"/>
<path d="M91.9005 52.7484C87.6005 52.2484 83.4005 52.4484 79.4005 53.2484C78.5005 53.4484 77.6005 54.0484 77.2005 54.8484C76.0005 57.0483 78.3005 58.9483 80.3005 59.8483C83.5005 61.4482 86.9005 62.5482 90.5005 63.2482C87.6005 63.9482 84.7005 64.9481 81.9005 66.1481C80.8005 66.6481 79.6005 67.6481 80.2005 68.7481C80.5005 69.3481 81.2005 69.448 81.8005 69.548C88.5005 70.748 94.0005 70.348 94.0005 70.348C94.0005 70.348 82.9005 77.2479 84.3005 79.7478C85.0005 80.9478 90.2005 79.3478 96.4005 76.1479C107.3 70.648 104.2 54.1484 91.9005 52.7484Z" fill="#331000"/>
<path d="M29 50.5482C29 50.5482 34.2 44.7482 43.7 42.3482C53.2 40.0482 58.7999 44.8482 58.7999 44.8482C58.7999 44.8482 46.3 56.6482 29 50.5482Z" fill="#C1B3AA"/>
<path d="M68.0996 41.9487C68.0996 41.9487 71.6996 36.5489 78.2996 34.449C84.8996 32.3491 88.6996 36.7489 88.6996 36.7489C88.6996 36.7489 80.0996 47.5484 68.0996 41.9487Z" fill="#C1B3AA"/>
</svg>
