<svg width="16" height="16" viewBox="0 0 16 16" fill="none" xmlns="http://www.w3.org/2000/svg">
<path d="M15.9924 12.6271C16.0263 12.887 15.9471 13.113 15.7552 13.3051L13.5025 15.5423C13.4008 15.6553 13.2682 15.7514 13.1045 15.8304C12.9407 15.9095 12.7798 15.9604 12.6218 15.9829C12.6105 15.9829 12.5766 15.9858 12.5201 15.9915C12.4637 15.9971 12.3903 16 12.3 16C12.0853 16 11.7381 15.9633 11.2582 15.8898C10.7783 15.8163 10.1911 15.6355 9.4967 15.3474C8.80213 15.0593 8.01453 14.627 7.13378 14.0508C6.25303 13.4746 5.31576 12.6836 4.32206 11.6779C3.53162 10.8983 2.87668 10.1525 2.35724 9.44069C1.83781 8.7288 1.42 8.07061 1.10383 7.46609C0.787621 6.86157 0.550488 6.31355 0.392399 5.82202C0.23431 5.3305 0.127036 4.90677 0.0705753 4.55084C0.0141151 4.19491 -0.00846904 3.91525 0.00282301 3.71186C0.0141151 3.50847 0.0197611 3.39547 0.0197611 3.37288C0.0423452 3.21468 0.0931594 3.05367 0.172204 2.88983C0.251248 2.72598 0.347231 2.59322 0.460151 2.49152L2.71292 0.237288C2.871 0.0790959 3.05168 0 3.25493 0C3.40173 0 3.53159 0.0423728 3.64451 0.127118C3.75743 0.211864 3.85341 0.316384 3.93246 0.440677L5.74483 3.88135C5.84646 4.06214 5.87469 4.25988 5.82952 4.47457C5.78435 4.68926 5.68837 4.87005 5.54157 5.01694L4.71161 5.84745C4.68903 5.87005 4.66926 5.90677 4.65233 5.95762C4.63539 6.00846 4.62692 6.05084 4.62692 6.08474C4.67209 6.32202 4.77372 6.59321 4.9318 6.89829C5.06731 7.16948 5.27621 7.49999 5.55851 7.88982C5.84081 8.27965 6.24168 8.72877 6.76112 9.23725C7.26926 9.75707 7.72094 10.161 8.11616 10.4492C8.5113 10.7372 8.84171 10.9491 9.10707 11.0847C9.37243 11.2203 9.57569 11.3022 9.71681 11.3304L9.92848 11.3728C9.95107 11.3728 9.98785 11.3643 10.0386 11.3474C10.0894 11.3304 10.1261 11.3107 10.1487 11.288L11.1142 10.305C11.3175 10.1242 11.5546 10.0338 11.8256 10.0338C12.0176 10.0338 12.17 10.0677 12.2829 10.1355H12.2998L15.5688 12.0677C15.8061 12.2147 15.9472 12.4011 15.9924 12.6271Z" fill="#26180A"/>
</svg>
