<svg width="30" height="31" viewBox="0 0 30 31" fill="none" xmlns="http://www.w3.org/2000/svg">
<path d="M15 30.0054C23.2843 30.0054 30.0001 23.2895 30.0001 15.0051C30.0001 6.72072 23.2843 0.00488281 15 0.00488281C6.71574 0.00488281 0 6.72072 0 15.0051C0 23.2895 6.71574 30.0054 15 30.0054Z" fill="#FCB638"/>
<path d="M16.2108 20.0914C15.0768 20.0037 14.6003 19.4414 13.7109 18.9016C13.2221 21.466 12.6248 23.9243 10.8555 25.2085C10.3087 21.3326 11.6571 18.4214 12.2833 15.3313C11.2159 13.5345 12.4117 9.91799 14.6631 10.8092C17.4341 11.9049 12.2641 17.4901 15.7348 18.1877C19.3582 18.916 20.8374 11.9009 18.5903 9.61907C15.3436 6.32471 9.1399 9.5442 9.90276 14.2602C10.0886 15.4131 11.2801 15.7631 10.3787 17.354C8.30083 16.8939 7.68102 15.2551 7.7607 13.0704C7.88932 9.4942 10.9742 6.99021 14.0684 6.64369C17.9817 6.20573 21.6545 8.08058 22.1615 11.7613C22.7319 15.9155 20.3949 20.4144 16.2108 20.0914Z" fill="white"/>
</svg>
