<svg width="32" height="33" viewBox="0 0 32 33" fill="none" xmlns="http://www.w3.org/2000/svg">
<path d="M31.3951 17.7337L28.5786 12.1902C28.325 11.6911 27.8403 11.3812 27.3135 11.3812C26.3638 11.3812 6.6301 11.3812 5.68207 11.3812C5.15524 11.3812 4.67054 11.6911 4.41696 12.1902L1.60044 17.7337C1.45152 18.0268 1.46548 18.3826 1.63693 18.6619C1.79586 18.9209 2.06577 19.0755 2.35887 19.0755H4.65215V30.2269C4.65215 31.0184 5.24837 31.6624 5.9813 31.6624C6.28199 31.6624 26.7138 31.6624 27.0145 31.6624C27.7474 31.6624 28.3437 31.0184 28.3437 30.2269V25.4397C28.3437 25.1882 28.1399 24.9844 27.8883 24.9844C27.6367 24.9844 27.4329 25.1882 27.4329 25.4397V30.227C27.4329 30.5114 27.2413 30.7517 27.0144 30.7517H16.9532V13.738L19.3281 18.4122C19.5359 18.8214 19.935 19.0756 20.3695 19.0756H27.4328V23.3149C27.4328 23.5664 27.6366 23.7702 27.8882 23.7702C28.1397 23.7702 28.3435 23.5664 28.3435 23.3149V19.0756H30.6368C30.9299 19.0756 31.1998 18.921 31.3588 18.662C31.5301 18.3825 31.5441 18.0269 31.3951 17.7337ZM2.40799 18.1649C2.40799 18.1591 2.40914 18.1527 2.41236 18.1463L5.22888 12.6028C5.32626 12.411 5.49994 12.2919 5.68213 12.2919H15.7557C15.4077 12.977 13.3254 17.0751 12.8557 17.9998V17.9998C12.8039 18.1017 12.716 18.1649 12.6262 18.1649C12.3693 18.1649 2.6853 18.1649 2.40799 18.1649ZM16.0424 30.7517H5.98124C5.75443 30.7517 5.56284 30.5114 5.56284 30.227V19.0755H12.6261C13.0622 19.0755 13.4604 18.82 13.6675 18.4122L16.0424 13.738V30.7517ZM20.3695 18.1649C20.2797 18.1649 20.1918 18.1016 20.14 17.9997L17.24 12.2919H27.3136C27.4957 12.2919 27.6693 12.411 27.7668 12.6027L30.5833 18.1462C30.5866 18.1526 30.5877 18.1591 30.5877 18.1649C30.3099 18.1649 20.6265 18.1649 20.3695 18.1649Z" fill="white" stroke="white"/>
<path d="M16.4977 1.99499C15.4827 0.366624 13.2052 0.0916185 11.8338 1.46495C11.2673 2.03226 10.9558 2.78534 10.9565 3.58553C10.9589 5.89776 12.507 8.13612 15.2041 9.7266C15.2767 9.76946 15.3563 9.78979 15.4349 9.78979C15.5908 9.78979 15.7426 9.70972 15.8276 9.56572C15.9553 9.34918 15.8833 9.06992 15.6667 8.94219C14.5253 8.26901 11.8701 6.39945 11.8671 3.58462C11.8659 2.33052 12.9707 1.34463 14.2323 1.51449C15.3599 1.66644 15.7504 2.55241 15.8371 2.64286C16.2393 3.06241 16.7881 3.06387 17.1665 2.63029C17.2676 2.51343 17.7557 1.49093 19.0404 1.4896C20.1905 1.4896 21.1273 2.42516 21.1286 3.57515C21.1313 6.25515 18.7472 8.08719 17.3259 8.94074C17.1103 9.07023 17.0405 9.34991 17.17 9.56554C17.2995 9.78117 17.5792 9.85081 17.7948 9.72144C20.5342 8.07632 22.0417 5.89315 22.0393 3.57418C22.036 0.642966 18.1837 -0.60476 16.4977 1.99499Z" fill="white" stroke="white"/>
</svg>
