<svg width="232" height="199" viewBox="0 0 232 199" fill="none" xmlns="http://www.w3.org/2000/svg">
<path d="M74.2999 165.5C74.2999 165.5 73.5999 170.9 26.3999 170.9V176.4V181.9C73.6999 181.9 74.2999 187.3 74.2999 187.3L95.4999 176.4L74.2999 165.5Z" fill="#934F21"/>
<path d="M304.1 179.6C304.1 190.3 295.4 198.9 284.8 198.9H92.0002C81.3002 198.9 72.7002 190.2 72.7002 179.6V173.3C72.7002 162.6 81.4002 154 92.0002 154H284.8C295.5 154 304.1 162.7 304.1 173.3V179.6Z" fill="#FDC783"/>
<path d="M75.3999 189.4C78.7999 195.1 84.8999 198.9 91.9999 198.9H284.8C291.9 198.9 298 195.1 301.4 189.4H75.3999Z" fill="#CA976A"/>
<path d="M26.4 190.5C40.9803 190.5 52.8 184.187 52.8 176.4C52.8 168.613 40.9803 162.3 26.4 162.3C11.8197 162.3 0 168.613 0 176.4C0 184.187 11.8197 190.5 26.4 190.5Z" fill="#FDC783"/>
<path d="M49.0001 169.1C40.2001 178 28.0001 183.6 14.7001 183.6C10.3001 183.6 6.1001 183 2.1001 181.9C6.1001 187 15.5001 190.5 26.4001 190.5C41.0001 190.5 52.8001 184.2 52.8001 176.4C52.7001 173.7 51.4001 171.3 49.0001 169.1Z" fill="#CA976A"/>
<path d="M157.391 136.1L195.784 121.59C195.784 121.59 200.149 131.477 199.507 143.29C198.737 155.103 191.803 140.722 191.803 140.722C191.803 140.722 192.445 144.446 191.803 153.563C191.546 157.672 190.391 160.24 188.721 161.01C186.924 161.524 184.484 160.368 181.531 157.415C175.111 151.123 173.056 147.784 173.056 147.784C173.056 147.784 177.293 163.193 169.076 154.847C160.601 146.5 157.391 136.1 157.391 136.1Z" fill="#331000"/>
<path d="M98.7105 68.8164C84.3292 74.0809 68.9207 100.403 71.232 102.715C73.5433 105.026 84.8428 94.6253 84.8428 94.6253C84.8428 94.6253 82.66 100.789 81.8896 108.621C81.7612 109.391 81.7611 110.162 82.2748 110.676C83.302 111.574 84.8429 110.547 85.7417 109.52C88.053 106.823 89.979 103.87 91.7767 100.66C91.5199 104.897 91.7767 109.135 92.5471 113.244C92.9323 115.555 94.2164 118.38 96.5276 118.38C98.4537 118.38 99.7378 116.454 100.508 114.784C106.415 102.458 103.975 81.2714 98.7105 68.8164Z" fill="#331000"/>
<path d="M105.644 77.8036C110.01 65.7336 105.13 58.9282 105.13 58.9282H199.122C199.122 58.9282 194.243 65.862 198.609 77.8036C205.799 97.963 194.756 128.395 152.255 128.395H151.998C109.496 128.395 99.3521 95.5233 105.644 77.8036Z" fill="#C1B3AA"/>
<path d="M141.212 0.504363C140.185 0.119147 139.029 -0.266064 138.13 0.247556C137.231 0.761177 136.974 2.04522 137.231 3.07247C137.488 4.09971 138.259 4.99855 138.901 5.76898C139.671 6.66782 140.441 7.69505 141.34 8.59389C138.387 7.18143 135.177 5.89738 132.095 4.74174C130.683 4.22812 128.371 4.22812 128.243 5.76898C128.243 6.41101 128.5 6.92463 128.885 7.43825C130.041 8.97911 131.453 10.2632 132.994 11.2904C129.527 9.87795 125.675 9.62114 122.08 10.6484C121.694 10.7768 121.181 10.9052 120.924 11.2904C120.153 12.1892 121.181 13.6017 122.08 14.2437C126.959 17.8391 133.122 18.9947 139.157 19.3799C148.788 20.0219 158.546 19.1231 167.92 16.555C162.655 14.6289 150.2 4.48492 141.212 0.504363Z" fill="#331000"/>
<path d="M199.122 12.5741C200.021 12.1889 201.048 11.932 201.819 12.3173C202.589 12.8309 202.846 13.8581 202.589 14.757C202.332 15.6558 201.69 16.4262 201.177 17.0682C200.535 17.8387 199.764 18.7375 199.122 19.5079C201.69 18.2239 204.387 17.0682 207.212 16.1694C208.496 15.6558 210.55 15.6558 210.55 17.0682C210.55 17.5819 210.294 18.0955 209.908 18.4807C208.881 19.7647 207.597 20.9203 206.313 21.9476C209.266 20.6635 212.733 20.4067 215.815 21.3056C216.2 21.434 216.585 21.5624 216.842 21.8192C217.484 22.5896 216.714 23.7453 215.815 24.3873C211.578 27.469 206.185 28.4962 200.92 28.8814C192.574 29.5234 183.971 28.6246 175.881 26.4417C180.504 24.9009 191.29 16.041 199.122 12.5741Z" fill="#331000"/>
<path d="M96.2704 82.1694C97.1693 66.6326 98.7101 28.4966 98.7101 28.4966C98.7101 28.4966 122.722 15.3994 152.255 15.3994C181.916 15.3994 205.799 28.4966 205.799 28.4966C205.799 28.4966 207.34 64.5781 208.239 82.1694C209.138 97.9631 204.772 136.87 152.383 136.87H151.998C99.6089 136.998 95.3716 97.9631 96.2704 82.1694Z" fill="#582B18"/>
<path d="M121.438 152.92C122.08 148.812 124.134 145.088 127.986 143.162C131.838 141.236 136.076 141.878 140.185 142.777C140.313 142.648 140.056 142.263 139.543 141.236C138.772 139.695 137.745 138.283 136.461 136.999C133.122 133.404 138.515 127.882 141.854 131.606C145.192 135.201 149.687 141.236 147.375 146.372C146.605 148.17 145.064 149.197 143.266 149.967C143.009 150.224 142.624 150.353 142.239 150.481C139.543 151.508 138.644 154.333 138.901 156.901C139.157 158.955 136.974 160.753 135.048 160.753C134.021 160.753 133.251 160.368 132.609 159.854C130.683 161.01 127.473 160.625 126.445 157.928C126.445 157.8 126.445 157.8 126.317 157.671C124.006 158.185 120.924 156.259 121.438 152.92Z" fill="#B46E23"/>
<path d="M137.359 149.839C142.11 146.116 146.733 147.143 147.118 146.886C146.219 148.427 144.935 149.326 143.394 149.968C143.138 150.225 142.752 150.353 142.367 150.481C139.671 151.509 138.772 154.333 139.029 156.901C139.285 158.956 137.103 160.753 135.177 160.753C134.92 160.753 132.994 153.178 137.359 149.839Z" fill="#934F21"/>
<path d="M129.013 160.24C127.216 149.967 134.663 148.041 134.663 148.041C128.885 152.279 132.737 159.855 132.737 159.855C131.71 160.497 130.297 160.625 129.013 160.24Z" fill="#934F21"/>
<path d="M122.721 156.516C123.107 146.501 129.655 146.757 129.655 146.757C123.877 150.481 125.932 156.388 126.445 157.543C125.161 157.928 123.749 157.543 122.721 156.516Z" fill="#934F21"/>
<path d="M145.963 140.723C152.383 143.933 154.438 151.894 150.714 157.929C148.146 162.166 141.469 158.314 144.037 154.077C145.706 151.508 144.807 148.812 142.111 147.4C137.617 145.217 141.469 138.54 145.963 140.723Z" fill="#B46E23"/>
<path d="M144.037 153.948C145.706 151.38 144.807 148.684 142.111 147.271C142.111 147.271 150.714 148.17 148.788 159.341C145.706 160.496 141.854 157.415 144.037 153.948Z" fill="#934F21"/>
<path d="M130.683 124.8L136.846 122.489C138.387 123.773 145.578 129.551 146.99 130.963C147.889 131.991 148.916 133.146 148.788 134.431C148.788 134.944 148.531 135.586 148.017 135.843C147.761 135.971 147.375 135.971 146.99 135.971C145.578 135.843 144.294 135.329 143.138 134.431C143.78 135.715 144.037 137.127 144.165 138.54C144.165 139.31 143.909 140.337 143.01 140.337C142.753 140.337 142.368 140.209 142.111 139.952C141.084 139.182 140.056 138.283 139.414 137.255C139.671 138.925 138.13 140.466 136.461 140.594C134.792 140.722 133.251 139.567 132.352 138.154C131.453 136.742 131.196 134.944 131.196 133.275C131.325 132.376 130.554 125.956 130.683 124.8Z" fill="#582B18"/>
<path d="M136.461 155.746C137.103 151.637 139.157 147.913 143.01 145.987C146.862 144.061 151.099 144.703 155.208 145.602C155.336 145.473 155.08 145.088 154.566 144.061C153.796 142.52 152.768 141.108 151.484 139.824C148.146 136.228 153.539 130.707 156.877 134.431C160.216 138.026 164.71 144.061 162.399 149.197C161.628 150.995 160.087 152.022 158.29 152.792C158.033 153.049 157.648 153.178 157.262 153.306C154.566 154.333 153.667 157.158 153.924 159.726C154.181 161.781 151.998 163.578 150.072 163.578C149.045 163.578 148.274 163.193 147.632 162.679C145.706 163.835 142.496 163.45 141.469 160.753C141.469 160.625 141.469 160.625 141.34 160.497C139.029 161.01 135.819 158.956 136.461 155.746Z" fill="#B46E23"/>
<path d="M152.254 152.664C157.005 148.94 161.628 149.967 162.013 149.71C161.114 151.251 159.83 152.15 158.289 152.792C158.033 153.049 157.647 153.177 157.262 153.306C154.566 154.333 153.667 157.158 153.924 159.726C154.181 161.781 151.998 163.578 150.072 163.578C149.943 163.578 147.889 156.002 152.254 152.664Z" fill="#934F21"/>
<path d="M144.037 163.065C142.239 152.792 149.687 150.866 149.687 150.866C143.908 155.104 147.76 162.68 147.76 162.68C146.605 163.193 145.321 163.45 144.037 163.065Z" fill="#934F21"/>
<path d="M137.617 159.341C138.002 149.326 144.551 149.583 144.551 149.583C138.773 153.306 140.827 159.213 141.341 160.368C140.185 160.754 138.644 160.368 137.617 159.341Z" fill="#934F21"/>
<path d="M145.578 127.496L151.741 125.185C153.282 126.469 160.473 132.247 161.885 133.66C162.784 134.687 163.811 135.843 163.683 137.127C163.683 137.64 163.426 138.282 162.912 138.539C162.656 138.667 162.27 138.667 161.885 138.667C160.473 138.539 159.189 138.025 158.033 137.127C158.675 138.411 158.932 139.823 159.06 141.235C159.06 142.006 158.804 143.033 157.905 143.033C157.648 143.033 157.263 142.905 157.006 142.648C155.979 141.877 154.951 140.979 154.309 139.951C154.566 141.621 153.025 143.161 151.356 143.29C149.687 143.418 148.146 142.263 147.247 140.85C146.348 139.438 146.092 137.64 146.092 135.971C146.22 135.072 145.449 128.78 145.578 127.496Z" fill="#582B18"/>
<path d="M160.858 143.547C167.278 146.757 169.333 154.718 165.609 160.753C163.041 164.99 156.364 161.138 158.932 156.901C160.601 154.333 159.702 151.636 157.006 150.224C152.512 147.912 156.492 141.364 160.858 143.547Z" fill="#B46E23"/>
<path d="M158.932 156.773C160.601 154.205 159.702 151.508 157.006 150.095C157.006 150.095 165.609 150.994 163.683 162.166C160.729 163.322 156.877 160.24 158.932 156.773Z" fill="#934F21"/>
<path d="M181.916 86.4068C172.157 104.383 184.741 117.994 178.578 123.13C172.414 128.266 165.737 118.379 165.737 118.379C165.737 118.379 170.616 128.908 163.811 130.192C157.006 131.476 150.329 122.36 150.329 122.36C150.329 122.36 152.383 134.686 148.017 135.842C143.652 136.869 140.056 123.002 140.056 123.002C140.056 123.002 139.671 134.686 134.663 134.43C129.655 134.044 126.189 125.313 126.189 125.313C126.189 125.313 125.033 129.936 119.255 130.321C113.476 130.706 112.706 116.838 112.706 116.838C112.706 116.838 113.22 124.414 107.57 122.488C101.792 120.562 94.9863 92.5702 110.908 73.5665C127.087 54.6912 181.916 86.4068 181.916 86.4068Z" fill="#C1B3AA"/>
<path d="M204.001 60.2123C204.001 60.2123 181.916 76.2628 177.807 100.531C174.725 118.508 167.278 104.383 168.305 96.4223C168.305 96.4223 165.609 113.628 160.344 113.243C155.079 112.858 156.62 101.302 156.62 101.302C156.62 101.302 153.025 115.683 146.99 115.298C140.955 114.913 140.184 102.072 140.184 102.072C140.184 102.072 134.792 123.13 130.426 122.617C126.06 122.103 125.29 101.045 125.29 101.045C125.29 101.045 120.924 115.94 117.329 115.169C113.733 114.399 114.76 98.0916 114.76 98.0916C114.76 98.0916 111.294 103.485 107.698 99.504C104.103 95.5235 111.037 79.0877 111.037 79.0877C111.037 79.0877 107.698 84.8659 103.974 81.6558C100.251 78.4457 120.282 58.9282 120.282 58.9282L204.001 60.2123Z" fill="#DFD9D5"/>
<path d="M183.971 25.0291C176.266 29.0097 175.624 48.5273 175.624 48.5273C175.624 48.5273 173.827 20.5349 155.593 18.6088C125.161 15.3987 121.951 29.1381 120.282 58.7997C120.282 58.7997 142.624 71.8971 149.943 86.4069C157.391 70.7414 191.418 64.9632 204.002 60.0838C208.367 32.605 196.426 19.3793 183.971 25.0291Z" fill="#C1B3AA"/>
<path d="M202.718 45.831C202.718 55.2045 197.71 62.2667 192.445 61.6246C187.181 60.9826 182.43 53.792 182.43 45.4458C182.43 38.3836 188.08 28.8818 193.344 29.0102C198.352 29.267 202.718 36.4576 202.718 45.831Z" fill="#351100"/>
<path d="M183.971 45.5744C183.971 53.0219 187.823 59.5706 192.574 60.0842C197.325 60.5978 201.177 54.1776 201.177 45.8312C201.177 37.4849 197.325 30.9362 192.574 31.3215C187.823 31.7067 183.971 38.1269 183.971 45.5744Z" fill="white"/>
<path d="M185.64 47.8853C185.64 53.9203 188.722 59.1849 192.446 59.5701C196.298 59.9553 199.379 54.9475 199.379 48.2705C199.379 41.5935 196.298 36.4573 192.574 36.5857C188.722 36.8425 185.64 41.8503 185.64 47.8853Z" fill="black"/>
<path d="M189.749 53.5357C189.749 55.2049 190.519 56.6172 191.547 56.7456C192.574 56.874 193.344 55.59 193.344 53.7925C193.344 52.1233 192.574 50.7109 191.547 50.5825C190.519 50.5825 189.749 51.8665 189.749 53.5357Z" fill="white"/>
<path d="M187.951 49.4266C187.951 50.1971 188.337 50.9676 188.85 50.9676C189.364 50.9676 189.749 50.3255 189.749 49.555C189.749 48.7845 189.364 48.014 188.85 48.014C188.337 48.014 187.951 48.6561 187.951 49.4266Z" fill="white"/>
<path d="M168.305 44.1615C168.305 55.9747 160.087 64.7063 151.356 63.9358C142.624 63.1654 134.791 54.0486 134.791 43.7763C134.791 35.0447 144.165 23.1031 152.896 23.2315C160.986 23.4883 168.433 32.3482 168.305 44.1615Z" fill="#351100"/>
<path d="M137.36 43.7769C137.36 53.1504 143.78 61.2398 151.613 61.8819C159.446 62.5239 165.866 54.5629 165.866 44.0337C165.866 33.5046 159.574 25.4152 151.613 25.9288C143.652 26.4424 137.36 34.5319 137.36 43.7769Z" fill="white"/>
<path d="M140.056 46.7298C140.056 54.3056 145.192 60.8542 151.356 61.3678C157.648 61.8814 162.784 55.5896 162.784 47.2434C162.784 38.8972 157.776 32.3486 151.484 32.6054C145.192 32.8623 140.056 39.154 140.056 46.7298Z" fill="black"/>
<path d="M146.861 53.7928C146.861 55.8474 148.146 57.6451 149.943 57.7735C151.612 57.9019 153.025 56.2326 153.025 54.178C153.025 51.995 151.741 50.3257 149.943 50.1973C148.274 50.0688 146.861 51.7382 146.861 53.7928Z" fill="white"/>
<path d="M143.908 48.6561C143.908 49.6835 144.55 50.5824 145.449 50.5824C146.348 50.5824 146.99 48.7846 146.99 48.7846C146.99 48.7846 146.348 46.8583 145.449 46.8583C144.55 46.8583 143.908 47.6288 143.908 48.6561Z" fill="white"/>
<path d="M183.329 21.1775C182.173 22.0763 181.274 23.3604 180.504 24.7729C180.889 22.7184 181.274 20.6639 181.017 18.6094C180.76 16.5549 179.605 14.6287 178.064 14.2435C176.523 14.5003 175.367 16.5549 175.111 18.6094C174.854 20.6639 175.239 22.7184 175.624 24.7729C174.725 23.4888 173.955 22.2047 172.799 21.3059C170.873 19.765 168.562 22.0763 168.947 24.9012C169.332 28.1114 170.745 31.1932 172.029 33.8897C173.313 36.5862 174.597 39.2827 175.881 41.9793H180.247C181.531 39.2827 182.815 36.5862 184.099 33.8897C185.383 31.0647 186.795 27.983 187.181 24.9012C187.566 21.9479 185.255 19.6366 183.329 21.1775Z" fill="#331000"/>
<path d="M173.955 48.3993C173.955 48.3993 174.854 53.5349 178.45 53.5349C182.045 53.5349 182.045 48.2709 182.045 48.2709L173.955 48.3993Z" fill="#8F4321"/>
<path d="M179.092 38.1274C176.652 38.1274 173.699 42.878 173.827 49.2978L186.411 49.041C186.411 49.041 181.531 38.1274 179.092 38.1274Z" fill="#B46E23"/>
<path d="M191.29 72.1539C203.36 81.5274 210.165 111.189 207.212 112.729C204.258 114.27 196.683 100.916 196.683 100.916C196.683 100.916 196.939 107.337 195.27 115.169C195.142 115.94 194.885 116.71 194.243 117.095C192.959 117.737 191.803 116.196 191.29 114.912C189.877 111.574 188.978 108.235 188.208 104.768C187.181 108.877 185.64 112.858 183.714 116.582C182.558 118.636 180.632 120.947 178.321 120.305C176.523 119.663 175.881 117.48 175.624 115.683C173.827 102.072 182.43 82.5546 191.29 72.1539Z" fill="#331000"/>
</svg>
