<svg width="135" height="273" viewBox="0 0 135 273" fill="none" xmlns="http://www.w3.org/2000/svg">
<path opacity="0.3" d="M136.201 154.629L108.33 202.996C107.682 204.171 107.674 205.392 108.19 206.493C108.108 206.55 108.025 206.607 107.943 206.664C107.861 206.72 107.696 206.834 107.67 206.973C107.449 207.004 107.171 206.953 106.975 206.845C106.774 206.377 106.186 206.053 105.553 206.368C105.192 206.374 104.781 206.657 104.647 206.992C96.0027 212.952 86.4612 218.316 79.9368 226.823C76.9188 230.726 74.5563 235.755 75.2738 240.848C75.6481 243.505 76.5476 246.043 78.0547 248.405C79.7887 251.096 82.119 252.891 84.8354 254.54C84.8921 254.622 85.0312 254.648 85.088 254.73C85.088 254.73 85.1448 254.813 85.2271 254.756L85.2839 254.838C85.3406 254.921 85.4797 254.946 85.5365 255.028C88.2784 256.539 91.0147 257.689 94.2905 257.86C97.01 257.928 99.667 257.554 102.174 256.433C106.915 254.501 110.06 249.902 111.903 245.352C115.882 235.443 115.795 224.571 116.657 214.017C116.929 213.708 116.949 213.208 116.779 212.961C116.768 212.24 116.237 211.999 115.655 212.035C115.541 211.871 115.371 211.624 115.258 211.459C115.283 211.32 115.309 211.181 115.334 211.042L115.36 210.903C116.663 210.855 117.872 210.142 118.52 208.967L146.391 160.6C147.444 158.781 146.797 156.433 144.978 155.38L141.395 153.355C139.684 152.106 137.254 152.81 136.201 154.629ZM86.82 251.957C87.0163 248.542 88.4077 245.275 90.0261 242.337C91.6957 239.121 93.6435 235.957 95.5089 232.849C98.1296 228.369 101.003 224.081 104.211 219.925C105.409 218.492 106.607 217.059 107.806 215.625C107.195 217.382 106.584 219.139 105.835 220.871C103.941 225.699 101.629 230.451 99.091 234.873C97.2823 238.063 95.6128 241.279 93.6083 244.362C91.794 247.192 89.6192 250.027 86.82 251.957ZM79.2983 246.333C78.1262 244.104 77.3402 241.731 77.3576 239.29C77.3668 234.546 79.7405 230.238 82.8209 226.778C89.2231 219.327 97.8278 214.366 105.814 208.86C102.671 211.877 99.389 214.869 96.4732 218.215C92.5751 222.603 89.0744 227.568 86.5217 232.85C84.6675 236.679 83.0404 240.838 82.3301 245.093C82.1057 246.705 81.9379 248.4 82.1307 250.089C81.0323 249.024 80.0418 247.764 79.2983 246.333ZM84.7944 243.029C85.6805 239.382 87.1231 235.837 88.875 232.564C91.6491 227.25 95.1243 222.425 99.2182 218.145C102.248 214.963 105.447 212.028 108.615 208.872C109.115 208.892 109.558 208.83 109.975 208.906C109.734 209.437 109.549 210.05 109.282 210.72C108.357 211.844 107.292 212.943 106.31 213.984C104.649 215.98 102.988 217.975 101.466 219.996C98.5049 223.981 95.7962 228.156 93.2267 232.357C89.7939 238.125 85.1518 244.605 84.7336 251.574C83.2834 249.294 84.2206 245.368 84.7944 243.029ZM110.782 242.846C109.326 247.251 106.813 251.534 102.716 253.873C100.544 255.127 98.0833 255.609 95.6165 255.731C93.953 255.785 92.423 255.503 91.0009 255.026C92.5452 254.448 94.0271 253.426 95.2309 252.353C98.6007 249.665 101.264 246.129 103.649 242.541C106.928 237.608 109.506 232.186 111.332 226.555C112.738 222.427 113.752 218.084 114.684 213.798C113.95 223.657 113.937 233.504 110.782 242.846ZM109.825 224.193C108.139 229.85 105.756 235.379 102.534 240.395C100.503 243.616 98.164 246.565 95.5152 249.242C93.8487 250.877 90.8961 253.641 88.1766 253.573C93.9964 249.682 97.2108 242.364 100.504 236.571C102.96 232.205 105.195 227.871 107.12 223.264C108.137 220.863 109.014 218.436 109.892 216.009C110.369 214.587 110.764 213.221 111.241 211.799C111.621 211.294 112.058 210.871 112.439 210.366C112.723 210.777 112.95 211.107 113.151 211.575C112.106 215.697 111.174 219.983 109.825 224.193Z" fill="#949597"/>
<path d="M99.1128 220.282C98.1218 222.545 96.9917 224.781 95.8616 227.018C93.4935 231.687 90.816 236.084 87.8036 240.347C85.7424 243.347 83.7378 246.43 81.4239 249.24C79.0845 252.189 76.3845 255.144 72.8019 256.642C72.6372 256.755 72.4726 256.869 72.3903 256.926C71.7572 257.241 71.4391 258.189 72.197 258.76C72.2537 258.842 72.3928 258.867 72.4496 258.95C75.0581 260.795 77.6865 262.141 80.8288 262.647C83.4971 262.994 86.2677 262.784 88.78 262.023C93.6656 260.477 97.2343 256.316 99.5513 251.925C104.534 242.416 105.447 231.584 107.282 221.209C107.555 220.899 107.632 220.482 107.487 220.096C107.615 219.401 107.109 219.02 106.528 219.057C106.414 218.892 106.244 218.645 106.13 218.481C106.156 218.342 106.181 218.203 106.264 218.146C106.531 217.476 105.994 216.874 105.438 216.772C105.06 215.696 104.379 214.708 103.426 214.029C102.977 213.731 102.313 213.825 102.015 214.273C100.74 216.124 99.9959 218.216 99.1128 220.282ZM75.1521 257.937C81.2302 254.596 85.228 247.71 89.0524 242.158C91.9002 238.009 94.5265 233.89 96.9825 229.525C98.1949 227.231 99.3506 224.855 100.424 222.536C101.364 220.552 102.051 218.378 103.187 216.502C103.584 217.078 103.899 217.711 104.132 218.401C102.644 222.585 101.238 226.712 99.6365 230.731C97.3932 236.286 94.4232 241.492 90.8345 246.153C88.4951 249.102 85.903 251.861 82.9448 254.265C81.0001 255.848 77.8204 258.283 75.1521 257.937ZM89.4361 259.628C87.1508 260.717 84.6584 260.978 82.186 260.739C80.5481 260.654 79.0436 260.234 77.6471 259.618C79.2482 259.121 80.7613 258.321 82.0785 257.413C85.6755 255.054 88.7303 251.733 91.4814 248.5C95.266 243.948 98.236 238.742 100.675 233.295C102.498 229.244 103.847 225.035 105.309 220.99C103.628 230.53 102.673 240.42 98.5695 249.444C96.6386 253.69 93.7596 257.618 89.4361 259.628Z" fill="#EFEFEF"/>
<path d="M104.427 216.011C104.725 215.562 104.632 214.898 104.183 214.6C103.23 213.921 102.143 213.578 100.922 213.569C100.664 213.018 99.9938 212.751 99.3351 213.206C99.2528 213.262 99.0881 213.376 99.0058 213.433C98.7276 213.381 98.5885 213.356 98.3104 213.305C98.1912 212.78 97.6292 212.317 97.0529 212.714C96.6356 212.637 96.3063 212.864 96.0905 213.256C86.8784 218.393 76.8771 222.738 69.5381 230.591C66.0716 234.196 63.343 238.871 63.5353 244.082C63.6059 246.827 64.284 249.397 65.4873 251.846C66.9743 254.708 69.1144 256.755 71.7229 258.6C71.7796 258.683 71.9187 258.708 71.9755 258.791C72.7333 259.361 73.4999 258.711 73.6277 258.016C73.7356 257.82 73.7612 257.681 73.7867 257.542C74.0598 253.71 76.0019 250.184 78.032 246.963C80.0365 243.88 82.2937 240.988 84.4117 238.07C87.4241 233.807 90.7459 229.816 94.377 226.098C96.0691 224.324 97.9003 222.576 99.7315 220.827C101.259 219.167 103.013 217.836 104.427 216.011ZM72.8202 247.155C74.1236 243.584 75.8188 240.229 77.9056 237.09C81.1849 232.157 85.1086 227.63 89.5687 223.704C92.9073 220.795 96.4163 218.133 99.7862 215.445C100.507 215.434 101.203 215.562 101.816 215.746C100.371 217.35 98.5906 218.82 97.032 220.259C95.1185 222.064 93.3441 223.895 91.5696 225.726C88.1599 229.413 85.0851 233.233 82.1806 237.301C78.2426 242.688 72.9562 248.762 71.8425 255.603C70.6393 253.153 71.9115 249.361 72.8202 247.155ZM72.2576 230.66C79.392 223.919 88.4252 219.756 96.9788 215.073C93.5266 217.818 90.0176 220.48 86.818 223.414C82.5538 227.448 78.5478 232.032 75.4644 237.073C73.2185 240.686 71.1173 244.685 70.0721 248.807C69.7086 250.394 69.3194 252.12 69.4555 253.726C68.4394 252.605 67.5312 251.288 66.9523 249.743C66.0017 247.484 65.3803 244.997 65.6191 242.524C66.1023 237.94 68.8678 233.847 72.2576 230.66Z" fill="#EFEFEF"/>
<path d="M132.52 164.09C133.769 162.378 136.148 161.953 137.86 163.202L141.226 165.618C142.938 166.867 143.363 169.246 142.114 170.958L109.676 216.4C108.427 218.112 106.048 218.537 104.336 217.288L100.97 214.872C99.2584 213.623 98.8329 211.244 100.082 209.532L132.52 164.09Z" fill="#44443B"/>
<path d="M131.941 166.068C133.108 164.414 135.013 163.829 136.219 164.698L138.575 166.353C139.781 167.222 139.84 169.246 138.673 170.901L108.246 213.621C107.079 215.276 105.174 215.86 103.968 214.992L101.612 213.336C100.405 212.468 100.346 210.444 101.513 208.789L131.941 166.068Z" fill="#64645F"/>
<path d="M131.336 168.186C132.477 166.67 133.851 165.844 134.552 166.333L135.898 167.227C136.599 167.715 136.292 169.384 135.151 170.9L106.733 210.899C105.592 212.414 104.218 213.24 103.517 212.752L102.171 211.858C101.47 211.369 101.777 209.7 102.918 208.184L131.336 168.186Z" fill="#838383"/>
<path opacity="0.5" d="M13.6726 241.172C13.7294 241.254 13.7861 241.336 13.8429 241.419C15.9886 243.826 19.9373 242.683 22.6767 242.252C24.0052 242.065 25.6375 241.789 26.6423 242.19C27.7039 242.673 28.6489 244.572 29.3045 245.699C30.7292 248.118 32.9654 252.77 36.5225 251.411C38.0668 250.832 38.9555 249.126 39.654 247.673C40.4037 245.942 40.9319 244.241 41.7383 242.592C42.4112 241.278 43.0387 240.602 44.4495 240.358C46.3032 240.052 48.137 240.245 49.9395 240.217C51.5207 240.22 53.3488 240.053 54.6916 239.006C56.0344 237.959 56.2845 236.207 55.7056 234.663C55.07 233.036 53.8268 231.585 52.7795 230.243C51.789 228.982 50.5771 227.753 50.1373 226.234L50.0806 226.152C50.0806 226.152 50.0805 226.152 50.1061 226.013L50.1572 225.734C50.2084 225.456 50.2595 225.178 50.2851 225.039C50.4952 224.287 50.9268 223.503 51.3329 222.859C52.1137 221.349 53.0904 219.947 53.7321 218.411C54.266 217.071 54.7119 215.428 54.1074 214.023C53.4462 212.535 51.9929 211.837 50.355 211.751C48.6604 211.584 46.9458 211.915 45.3135 212.191C43.9027 212.434 42.3271 212.792 41.0186 212.479C41.0186 212.479 40.8227 212.372 40.7404 212.428C40.6836 212.346 40.6013 212.403 40.6013 212.403L40.5445 212.32C40.2919 212.13 40.0393 211.94 39.9258 211.775C39.3326 211.091 38.904 210.293 38.3932 209.552C37.4538 208.014 36.6791 206.362 35.4927 204.993C34.5589 203.815 33.0432 202.674 31.4677 203.031C29.7531 203.363 28.6941 204.822 27.9956 206.275C27.1892 207.924 26.6354 209.764 25.9113 211.356C25.2952 212.753 24.7557 213.732 23.3193 214.115C19.9212 215 16.2936 213.614 13.1027 215.329C11.5896 216.129 11.2005 217.855 11.5579 219.43C11.9154 221.006 13.2153 222.539 14.2058 223.799C15.1963 225.06 16.465 226.371 17.1262 227.859C17.3845 228.41 17.3333 228.688 17.2311 229.244C17.0465 229.857 16.6973 230.584 16.3736 231.172C14.9453 233.857 11.7314 237.652 13.4456 240.842C13.5591 241.007 13.6158 241.089 13.6726 241.172ZM15.8899 239.279C15.8019 238.975 15.8842 238.918 15.9354 238.64C16.0632 237.945 16.3301 237.275 16.7361 236.63C17.517 235.12 18.4937 233.718 19.2177 232.126C19.9163 230.672 20.3934 229.25 20.0359 227.675C19.6784 226.099 18.4353 224.649 17.4448 223.388C16.4543 222.128 15.1288 220.734 14.5243 219.328C14.4364 219.025 14.3485 218.721 14.2917 218.639C14.2917 218.639 14.3116 218.139 14.2605 218.417L14.286 218.278C14.286 218.278 14.3684 218.221 14.3116 218.139C14.3116 218.139 14.3116 218.139 14.3939 218.082L14.4763 218.025C14.3684 218.221 14.6409 217.912 14.6409 217.912C14.8056 217.798 15.1917 217.654 15.4954 217.566C17.1533 217.151 18.987 217.345 20.6505 217.291C22.453 217.263 24.1988 217.152 25.7943 216.295C27.2251 215.552 28.0571 213.764 28.7556 212.31C29.5052 210.579 30.0334 208.879 30.8398 207.229C31.0812 206.699 31.4616 206.193 31.8733 205.91C31.8733 205.91 31.8733 205.91 31.9556 205.853L32.0379 205.796C31.8733 205.91 32.0379 205.796 32.177 205.822L32.3161 205.847C32.4552 205.873 32.6511 205.981 32.6511 205.981C33.9397 206.793 34.7712 208.527 35.458 209.876C36.3974 211.414 37.1976 212.927 38.4664 214.239C39.6215 215.386 41.0948 215.585 42.6192 215.506C44.2826 215.452 45.9405 215.038 47.6295 214.845C48.3761 214.695 49.1794 214.627 49.9572 214.698C50.1786 214.667 50.4568 214.718 50.735 214.769L51.0132 214.82C51.0699 214.902 51.2658 215.01 51.3481 214.953C51.4049 215.036 51.4616 215.118 51.4616 215.118C51.5184 215.2 51.6319 215.365 51.5184 215.2C51.6064 215.504 51.6319 215.365 51.6943 215.808C51.6999 216.168 51.4075 216.977 51.1661 217.508C50.5244 219.044 49.5477 220.446 48.6845 222.013C48.0115 223.327 47.313 224.78 47.31 226.361C47.3637 228.025 48.5245 229.532 49.515 230.793C50.6191 232.218 51.8878 233.53 52.7448 235.125C53.0854 235.619 53.2045 236.144 53.1846 236.644C53.2102 236.505 52.9944 236.896 53.0767 236.84C52.9944 236.896 52.7474 237.067 52.5827 237.18C51.0952 237.842 49.2614 237.648 47.6803 237.645C45.9601 237.617 44.0752 237.701 42.3918 238.255C38.9994 239.5 38.238 244.034 36.9801 246.966C36.7132 247.636 36.3895 248.223 35.8699 248.703C35.7876 248.76 35.7876 248.76 35.7876 248.76L35.7053 248.817C35.7053 248.817 35.5406 248.93 35.4583 248.987C35.376 249.044 35.1545 249.075 35.1545 249.075C33.9283 248.706 33.0968 246.971 32.4412 245.844C31.5018 244.305 30.7839 242.735 29.5975 241.367C28.4679 240.081 27.2104 239.49 25.4902 239.462C23.8523 239.376 22.1945 239.791 20.6445 240.009C19.316 240.196 17.5191 240.585 16.5143 240.184C16.4575 240.102 15.9834 239.943 16.1793 240.051C15.9834 239.943 15.9835 239.943 15.9835 239.943C15.9835 239.943 15.9834 239.943 15.9267 239.861C15.9211 239.5 15.8643 239.418 15.8899 239.279Z" fill="#A6A6A6"/>
<path d="M12.2732 242.137C12.3299 242.219 12.3867 242.301 12.4435 242.384C14.5892 244.791 18.5379 243.648 21.2773 243.217C22.6058 243.029 24.2381 242.754 25.2429 243.155C26.3045 243.637 27.2495 245.537 27.9051 246.664C29.3298 249.082 31.566 253.735 35.123 252.376C36.6674 251.797 37.5561 250.091 38.2546 248.638C39.0043 246.907 39.5325 245.206 40.3389 243.557C41.0118 242.243 41.6393 241.567 43.0501 241.323C44.9038 241.017 46.7376 241.21 48.5401 241.182C50.1213 241.185 51.9494 241.018 53.2922 239.971C54.635 238.923 54.8851 237.172 54.3062 235.628C53.6705 234.001 52.4274 232.55 51.3801 231.208C50.3896 229.947 49.1777 228.718 48.7379 227.199L48.6811 227.117C48.6811 227.117 48.6811 227.117 48.7067 226.978L48.7578 226.699C48.809 226.421 48.8601 226.143 48.8857 226.004C49.0958 225.252 49.5274 224.468 49.9334 223.824C50.7143 222.314 51.6909 220.912 52.3327 219.376C52.8665 218.036 53.3125 216.393 52.708 214.988C52.0468 213.5 50.5935 212.802 48.9556 212.716C47.261 212.548 45.5464 212.88 43.9141 213.155C42.5032 213.399 40.9277 213.757 39.6191 213.444C39.6191 213.444 39.4233 213.337 39.341 213.393C39.2842 213.311 39.2019 213.368 39.2019 213.368L39.1451 213.285C38.8925 213.095 38.6399 212.905 38.5264 212.74C37.9332 212.056 37.5046 211.258 36.9938 210.517C36.0544 208.979 35.2797 207.327 34.0933 205.958C33.1595 204.78 31.6438 203.639 30.0683 203.996C28.3537 204.328 27.2947 205.787 26.5962 207.24C25.7898 208.889 25.236 210.729 24.5119 212.321C23.8957 213.718 23.3563 214.697 21.9198 215.08C18.5218 215.965 14.8942 214.579 11.7033 216.293C10.1902 217.094 9.80108 218.82 10.1585 220.395C10.516 221.971 11.8159 223.504 12.8064 224.764C13.7969 226.025 15.0656 227.336 15.7268 228.824C15.9851 229.375 15.9339 229.653 15.8317 230.209C15.6471 230.822 15.2978 231.549 14.9741 232.137C13.5459 234.822 10.332 238.617 12.0462 241.807C12.1597 241.972 12.2164 242.054 12.2732 242.137ZM14.4904 240.244C14.4025 239.94 14.4848 239.883 14.536 239.605C14.6638 238.91 14.9307 238.24 15.3367 237.595C16.1176 236.085 17.0943 234.683 17.8183 233.091C18.5169 231.637 18.9939 230.215 18.6365 228.64C18.279 227.064 17.0359 225.614 16.0454 224.353C15.0548 223.093 13.7294 221.699 13.1249 220.293C13.037 219.99 12.9491 219.686 12.8923 219.604C12.8923 219.604 12.9122 219.104 12.8611 219.382L12.8866 219.243C12.8866 219.243 12.8867 219.243 12.9122 219.104C12.9122 219.104 12.9122 219.104 12.9945 219.047L13.0769 218.99C12.969 219.186 13.2415 218.877 13.2415 218.877C13.4062 218.763 13.7923 218.619 14.096 218.531C15.7539 218.116 17.5876 218.31 19.2511 218.256C21.0536 218.228 22.7994 218.117 24.3949 217.26C25.8257 216.517 26.6576 214.729 27.3562 213.275C28.1058 211.544 28.634 209.844 29.4404 208.194C29.6818 207.664 30.0622 207.158 30.4739 206.875C30.4739 206.875 30.4739 206.875 30.5562 206.818L30.6385 206.761C30.4739 206.875 30.6385 206.761 30.7776 206.787L30.9167 206.812C31.0558 206.838 31.2517 206.946 31.2517 206.946C32.5403 207.758 33.3718 209.492 34.0586 210.841C34.998 212.379 35.7982 213.892 37.0669 215.204C38.2221 216.351 39.6954 216.55 41.2197 216.471C42.8832 216.417 44.541 216.003 46.2301 215.81C46.9767 215.66 47.78 215.592 48.5578 215.663C48.7792 215.631 49.0574 215.683 49.3356 215.734L49.6137 215.785C49.6705 215.867 49.8664 215.975 49.9487 215.918C50.0055 216.001 50.0622 216.083 50.0622 216.083C50.119 216.165 50.2325 216.33 50.119 216.165C50.207 216.469 50.2325 216.33 50.2949 216.773C50.3005 217.133 50.0081 217.942 49.7667 218.473C49.125 220.009 48.1482 221.411 47.2851 222.978C46.6121 224.292 45.9136 225.745 45.9106 227.326C45.9643 228.99 47.1251 230.497 48.1156 231.758C49.2197 233.183 50.4883 234.495 51.3454 236.09C51.686 236.584 51.8051 237.109 51.7852 237.609C51.8108 237.47 51.595 237.861 51.6773 237.805C51.595 237.861 51.348 238.032 51.1833 238.145C49.6958 238.806 47.862 238.613 46.2809 238.61C44.5607 238.581 42.6758 238.666 40.9924 239.22C37.6 240.465 36.8386 244.999 35.5807 247.931C35.3137 248.601 34.9901 249.188 34.4705 249.668C34.3882 249.725 34.3882 249.725 34.3882 249.725L34.3059 249.781C34.3059 249.781 34.1412 249.895 34.0589 249.952C33.9766 250.009 33.7551 250.04 33.7551 250.04C32.5289 249.67 31.6974 247.936 31.0418 246.809C30.1024 245.27 29.3844 243.7 28.1981 242.332C27.0685 241.046 25.811 240.455 24.0908 240.427C22.4529 240.341 20.795 240.755 19.2451 240.974C17.9166 241.161 16.1197 241.55 15.1148 241.149C15.0581 241.067 14.584 240.908 14.7799 241.016C14.584 240.908 14.5841 240.908 14.5841 240.908C14.5841 240.908 14.584 240.908 14.5273 240.826C14.5216 240.465 14.4649 240.383 14.4904 240.244Z" fill="#6D859B"/>
<path d="M13.837 241.058C13.8938 241.141 13.9506 241.223 14.0074 241.305C15.9004 243.523 19.6845 242.493 22.2025 242.093C23.3919 241.88 24.9418 241.662 25.8076 242.036C26.8124 242.437 27.6439 244.171 28.2427 245.216C29.5539 247.47 31.5063 251.711 34.8163 250.522C36.2783 250 37.1415 248.433 37.6753 247.094C38.3994 245.501 38.9021 243.94 39.6261 242.348C40.2168 241.09 40.8186 240.554 42.0904 240.284C43.7227 240.009 45.4997 240.12 47.1631 240.066C48.6052 240.044 50.351 239.933 51.5291 239C52.7896 238.009 52.9318 236.454 52.4097 234.992C51.8308 233.447 50.7012 232.161 49.7106 230.901C48.8336 229.805 47.6217 228.576 47.2955 227.222L47.2387 227.139C47.2387 227.139 47.2387 227.139 47.2643 227C47.2643 227 47.3154 226.722 47.2331 226.779C47.2019 226.557 47.3353 226.222 47.3353 226.222C47.6023 225.552 47.9515 224.826 48.2752 224.238C49.0305 222.867 49.8425 221.579 50.541 220.125C51.0493 218.925 51.4696 217.42 50.922 216.097C50.2352 214.749 48.9777 214.158 47.5613 214.042C46.0057 213.899 44.4302 214.257 42.8802 214.475C41.5517 214.662 40.1976 214.989 38.9458 214.759L38.75 214.651C38.75 214.651 38.6932 214.568 38.6109 214.625L38.5541 214.543C38.3583 214.435 38.188 214.188 37.9921 214.08C37.4557 213.478 37.0839 212.763 36.5731 212.022C35.7472 210.648 34.9469 209.135 33.9564 207.874C33.0794 206.778 31.7595 205.745 30.2664 206.046C28.6909 206.403 27.7397 207.666 27.1236 209.063C26.3427 210.573 25.8968 212.216 25.1727 213.809C24.6389 215.148 24.125 215.989 22.7709 216.315C19.6766 217.112 16.2449 215.834 13.3009 217.378C11.8702 218.122 11.5634 219.791 11.8896 221.145C12.1903 222.638 13.3767 224.006 14.3105 225.185C15.2442 226.363 16.4562 227.592 17.0038 228.915C17.2621 229.466 17.2365 229.605 17.1342 230.161C17.032 230.717 16.626 231.362 16.3846 231.893C15.0643 234.382 12.1229 237.867 13.6668 240.811C13.7235 240.894 13.7803 240.976 13.837 241.058ZM15.8897 239.279C15.8585 239.057 15.884 238.918 15.9352 238.64C16.063 237.945 16.3867 237.357 16.6281 236.826C17.3266 235.373 18.1953 234.167 18.8939 232.713C19.5668 231.399 19.9616 230.034 19.6353 228.68C19.3346 227.186 18.1482 225.818 17.2712 224.722C16.3375 223.544 15.1255 222.315 14.5779 220.992C14.4899 220.688 14.3764 220.523 14.3452 220.302C14.3452 220.302 14.4219 219.885 14.314 220.081C14.314 220.081 14.2572 219.998 14.3396 219.942C14.3396 219.942 14.3396 219.942 14.3651 219.802C14.3651 219.802 14.3651 219.802 14.4475 219.746C14.4475 219.746 14.4475 219.746 14.5298 219.689C14.4219 219.885 14.6121 219.632 14.6945 219.575C14.8591 219.462 15.1628 219.374 15.4666 219.286C16.9853 218.846 18.7368 219.096 20.1788 219.074C21.8423 219.02 23.449 218.884 24.9365 218.223C26.285 217.536 27.0914 215.887 27.6252 214.547C28.267 213.011 28.7952 211.311 29.6328 209.883C29.8742 209.353 30.2291 208.986 30.5584 208.759C30.5584 208.759 30.5584 208.759 30.6407 208.703C30.6407 208.703 30.6407 208.703 30.723 208.646C30.5584 208.759 30.723 208.646 30.8621 208.671L31.0012 208.697C31.1403 208.723 31.3362 208.83 31.3362 208.83C32.4857 209.617 33.2037 211.187 33.916 212.396C34.7419 213.77 35.5422 215.283 36.6974 216.43C37.739 217.413 39.1299 217.668 40.572 217.646C42.0963 217.567 43.6718 217.209 45.2218 216.991C45.886 216.897 46.6894 216.829 47.3281 216.875C47.5495 216.843 47.8277 216.895 48.1059 216.946C48.1059 216.946 48.3018 217.054 48.3841 216.997C48.4408 217.079 48.6367 217.187 48.6367 217.187C48.6935 217.269 48.6935 217.269 48.7502 217.352C48.807 217.434 48.9205 217.599 48.807 217.434C48.9773 217.681 48.9205 217.599 48.9261 217.959C48.9317 218.32 48.7216 219.072 48.4235 219.52C47.8073 220.917 46.9129 222.262 46.1576 223.633C45.5103 224.808 44.8941 226.205 44.9166 227.647C44.9959 229.171 46.0999 230.597 46.9769 231.692C48.0242 233.035 49.0971 234.239 49.9797 235.695C50.2635 236.107 50.3826 236.632 50.445 237.075C50.4706 236.936 50.3371 237.271 50.3371 237.271C50.2548 237.328 50.0078 237.498 49.9255 237.555C48.6026 238.102 46.8256 237.991 45.3836 238.014C43.8024 238.011 42.0822 237.982 40.5379 238.561C37.4493 239.719 36.739 243.974 35.5322 246.628C35.2085 247.215 34.9672 247.746 34.5867 248.251L34.5044 248.308L34.422 248.365L34.2574 248.478C34.1751 248.535 33.9537 248.566 34.036 248.51C32.9488 248.166 32.0917 246.571 31.4929 245.526C30.6671 244.152 29.8668 242.639 28.8763 241.378C27.8034 240.175 26.685 239.609 25.1039 239.606C23.6051 239.547 22.0296 239.904 20.6188 240.148C19.4293 240.361 17.797 240.636 16.7922 240.235C16.7922 240.235 16.3438 239.937 16.4573 240.102C16.3182 240.076 16.2614 239.994 16.2614 239.994C16.2614 239.994 16.2614 239.994 16.2047 239.912C15.9209 239.5 15.8641 239.418 15.8897 239.279Z" fill="#445665"/>
<path opacity="0.5" d="M39.5353 243.625C39.5353 243.625 36.6615 251.437 34.0612 251.893C31.461 252.35 27.3204 244.759 26.9742 243.904C26.628 243.05 31.1091 251.135 33.715 251.039C36.2386 250.999 38.4564 245.584 39.5353 243.625Z" fill="white"/>
<path opacity="0.5" d="M24.9349 212.758C24.9349 212.758 27.6128 204.839 30.1563 204.3C32.839 203.786 37.0619 211.321 37.4904 212.118C37.8366 212.973 33.1908 205.001 30.5849 205.097C27.9534 205.333 25.8748 210.774 24.9349 212.758Z" fill="white"/>
<path opacity="0.5" d="M22.6568 242.751C22.6568 242.751 14.4443 244.405 12.7471 242.296C10.9675 240.243 15.3458 232.852 15.9165 232.094C16.4871 231.336 11.7852 239.315 13.3178 241.538C14.7113 243.735 20.4682 242.924 22.6568 242.751Z" fill="white"/>
<path opacity="0.5" d="M41.6031 214.384C41.6031 214.384 49.702 212.566 51.5639 214.562C53.3691 216.475 49.1611 224.113 48.5904 224.871C48.0198 225.629 52.5258 217.542 50.9933 215.32C49.5174 213.179 43.7917 214.211 41.6031 214.384Z" fill="white"/>
<path opacity="0.5" d="M15.7809 226.965C15.7809 226.965 10.411 220.585 11.2318 218.076C12.1916 215.592 20.7927 215.735 21.7096 215.832C22.6264 215.929 13.4434 215.822 12.1486 218.173C11.0753 220.492 14.6145 225.097 15.7809 226.965Z" fill="white"/>
<path opacity="0.5" d="M49.8842 229.567C49.8842 229.567 55.4187 235.832 54.598 238.342C53.7773 240.851 45.1506 240.847 44.1514 240.807C43.2345 240.71 52.4432 240.678 53.5988 238.302C54.7545 235.926 51.0506 231.435 49.8842 229.567Z" fill="white"/>
<path opacity="0.5" d="M64.9673 197.182C67.2573 203.499 72.17 210.8 79.8062 209.544C82.8493 209.025 85.4214 206.766 86.9064 204.163C88.9053 200.72 89.4509 196.578 89.2499 192.587C95.5662 190.297 102.868 185.384 101.611 177.748C101.092 174.705 98.8332 172.133 96.2304 170.648C92.7873 168.649 88.6458 168.103 84.6546 168.304C82.3647 161.988 77.4519 154.686 69.8157 155.943C66.7726 156.462 64.2005 158.721 62.7155 161.324C60.7166 164.767 60.171 168.909 60.372 172.9C54.0557 175.19 46.754 180.102 48.0104 187.739C48.5295 190.782 50.7887 193.354 53.3916 194.839C56.9169 196.781 61.0585 197.327 64.9673 197.182ZM50.8889 187.333C49.5414 180.974 57.2149 176.777 62.1828 175.174C62.9549 174.884 63.3354 174.379 63.2674 173.576C62.936 168.338 64.1095 159.999 70.3036 158.765C76.6624 157.417 80.8597 165.09 82.4629 170.058C82.7523 170.831 83.2576 171.211 84.0609 171.143C89.2983 170.812 97.6381 171.985 98.8721 178.179C100.22 184.538 92.5461 188.735 87.5782 190.339C86.8061 190.628 86.4256 191.133 86.4937 191.937C86.8251 197.174 85.6515 205.514 79.4574 206.748C73.0986 208.095 68.9013 200.422 67.2981 195.454C67.2357 195.011 67.0654 194.764 66.6737 194.548C66.4211 194.358 66.0862 194.225 65.6433 194.287C60.4627 194.701 52.1229 193.527 50.8889 187.333Z" fill="#A6A6A6"/>
<path d="M64.0982 198.389C66.3881 204.705 71.3008 212.007 78.937 210.75C81.9801 210.231 84.5523 207.972 86.0373 205.369C88.0362 201.926 88.5818 197.784 88.3808 193.793C94.6971 191.503 101.999 186.591 100.742 178.954C100.223 175.911 97.9641 173.339 95.3612 171.854C91.9182 169.855 87.7767 169.31 83.7855 169.511C81.4955 163.194 76.5828 155.893 68.9466 157.149C65.9035 157.668 63.3314 159.927 61.8464 162.53C59.8475 165.973 59.3019 170.115 59.5029 174.106C53.1866 176.396 45.8848 181.309 47.1413 188.945C47.6604 191.988 49.9196 194.56 52.5224 196.045C56.1046 198.07 60.1893 198.533 64.0982 198.389ZM50.0198 188.539C48.6723 182.181 56.3457 177.983 61.3136 176.38C62.0858 176.091 62.4662 175.585 62.3982 174.782C62.0668 169.545 63.2403 161.205 69.4345 159.971C75.7933 158.623 79.9906 166.297 81.5938 171.265C81.8832 172.037 82.3884 172.417 83.1918 172.349C88.4292 172.018 96.769 173.191 98.003 179.386C99.3505 185.744 91.677 189.942 86.7091 191.545C85.9369 191.834 85.5565 192.34 85.6245 193.143C85.9559 198.38 84.7824 206.72 78.5883 207.954C72.2295 209.301 68.0322 201.628 66.429 196.66C66.3666 196.217 66.1963 195.97 65.8046 195.755C65.552 195.564 65.217 195.431 64.7742 195.493C59.5936 195.907 51.3105 194.816 50.0198 188.539Z" fill="#6D859B"/>
<path d="M64.9418 197.321C67.0302 203.169 71.5456 209.895 78.6566 208.757C81.4783 208.269 83.8603 206.263 85.2373 203.856C87.1283 200.609 87.5972 196.884 87.4842 193.197C93.3321 191.109 100.058 186.593 98.9202 179.482C98.4324 176.66 96.4257 174.279 94.0187 172.901C90.7716 171.01 87.0473 170.542 83.3598 170.655C81.2714 164.807 76.756 158.081 69.645 159.219C66.8233 159.706 64.4414 161.713 63.0643 164.12C61.1733 167.367 60.7044 171.091 60.8175 174.779C54.9695 176.867 48.2441 181.383 49.3814 188.494C49.8693 191.315 51.8759 193.697 54.2829 195.074C57.4478 197.022 61.2543 197.434 64.9418 197.321ZM51.817 188.151C50.5887 182.317 57.6291 178.435 62.2109 176.976C62.9008 176.744 63.2812 176.238 63.2132 175.435C62.8874 170.558 63.9331 162.914 69.7667 161.685C75.6004 160.457 79.4827 167.497 80.9411 172.079C81.1738 172.769 81.679 173.15 82.4824 173.082C87.3592 172.756 95.0036 173.801 96.232 179.635C97.4603 185.469 90.4199 189.351 85.8381 190.809C85.1482 191.042 84.7678 191.547 84.8358 192.351C85.1616 197.228 84.1159 204.872 78.2823 206.1C72.4487 207.329 68.5664 200.288 67.1079 195.706C67.0455 195.264 66.7929 195.073 66.5403 194.883C66.2877 194.693 65.9527 194.559 65.5666 194.704C60.6898 195.03 53.0454 193.984 51.817 188.151Z" fill="#445665"/>
<path opacity="0.5" d="M82.0259 166.958C82.0259 166.958 76.1287 155.234 68.4839 157.711C60.839 160.188 60.1728 174.373 60.1728 174.373C60.1728 174.373 61.6679 159.981 68.6342 158.458C75.2968 157.022 82.0259 166.958 82.0259 166.958Z" fill="white"/>
<path opacity="0.5" d="M91.1492 191.642C91.1492 191.642 102.874 185.745 100.397 178.1C97.9195 170.455 83.7347 169.789 83.7347 169.789C83.7347 169.789 98.1266 171.284 99.65 178.25C101.225 184.938 91.1492 191.642 91.1492 191.642Z" fill="white"/>
<path opacity="0.5" d="M61.1973 197.352C61.1973 197.352 48.0573 196.087 47.6553 188.105C47.2533 180.122 60.2551 174.316 60.2551 174.316C60.2551 174.316 47.4036 180.869 48.4842 187.898C49.4512 194.762 61.1973 197.352 61.1973 197.352Z" fill="white"/>
<path opacity="0.5" d="M87.5147 196.941C87.5147 196.941 86.2497 210.081 78.2673 210.483C70.2849 210.885 64.4788 197.883 64.4788 197.883C64.4788 197.883 71.0315 210.735 78.0602 209.654C84.8419 208.744 87.5147 196.941 87.5147 196.941Z" fill="white"/>
<path opacity="0.3" d="M122.7 127.4C157.881 127.4 186.4 98.8808 186.4 63.7002C186.4 28.5195 157.881 0 122.7 0C87.5195 0 59 28.5195 59 63.7002C59 98.8808 87.5195 127.4 122.7 127.4Z" fill="#949597"/>
<path d="M133.2 127.4C168.381 127.4 196.9 98.8808 196.9 63.7002C196.9 28.5195 168.381 0 133.2 0C98.0195 0 69.5 28.5195 69.5 63.7002C69.5 98.8808 98.0195 127.4 133.2 127.4Z" fill="#838383"/>
<path d="M187.5 37.0003C202.2 66.9999 189.8 103.199 159.8 117.899C129.8 132.599 93.6002 120.199 78.9002 90.1996C64.2002 60.2 76.6002 24.0005 106.6 9.3007C136.5 -5.2991 172.8 7.00074 187.5 37.0003Z" fill="#44443B"/>
<path d="M115.2 102.1C118.4 101 121.5 99.6995 124.8 98.6995C122.9 101.1 117.7 105.2 118.8 108.9C119.4 110.8 127 112.6 129 112.4C134.5 112.1 136.7 97.1995 138.1 97.3995C139 97.4995 144 119.3 146.2 110.2C146.6 108.5 145.6 101.1 147.3 100.2C148.8 99.2995 151.1 102.6 152.8 102.7C156.6 102.9 157.7 97.3995 158.3 94.4995C158.5 93.2995 158.6 87.0995 159 90.9995C159.2 93.2995 158.4 100.3 160.3 102C162 103.5 163.4 100.6 164.8 99.2995C166.9 97.2995 170.1 95.8995 171.1 92.9995C172.5 89.0995 169.9 83.9994 168.9 80.2994C166.9 72.5994 170.3 76.4994 173.5 79.6994C172.8 74.2994 171.2 69.0994 168.8 63.8994C164.3 54.1993 159.3 44.6992 151.3 37.0992C148.6 34.5992 145.5 32.0992 142 29.8992C141.1 30.7992 140.2 31.7992 139.5 32.4992C138.2 33.6992 134.1 38.3992 134.2 34.5992C134.2 32.2992 136.5 29.7992 138.9 27.8992C135.4 25.8992 131.8 24.0992 128.1 22.6991C127 23.4992 126 24.0992 125.4 23.7992C124.4 23.4992 124.2 22.4992 124.2 21.2991C123.2 20.9991 122.2 20.6991 121.3 20.3991C121.2 20.6991 121.1 20.8991 120.9 21.0991C119.9 21.9991 117.4 21.2992 116.5 20.4992C116.1 20.1992 115.9 19.6991 115.7 19.1991C114.1 18.9991 112.6 18.7991 111 18.5991C110.9 18.7991 110.8 18.9991 110.7 19.1991C110.4 20.0991 110.2 20.5991 109.6 21.2991C108.9 21.9991 108.1 22.2992 107.8 23.3992C107.3 25.2992 108.3 26.8992 107 28.6992C105.9 30.1992 104.2 29.8992 103.7 31.6992C102.4 36.3992 105.8 41.5992 105.3 46.3993C105.1 48.0993 105.8 48.2993 104.2 47.9993C102.7 47.6993 100.2 44.4992 99 43.5992C96.2 41.4992 90.3999 37.7992 89.7999 43.5992C89.4999 46.5993 94.3 54.5993 92.7 56.8993C90.2999 60.1993 83.1999 51.8993 80.4999 54.2993C77.2999 57.2993 85.3999 64.5994 87.5999 65.9994C90.7999 68.0994 94.8 68.8994 98.2 69.9994C100.2 70.5994 102.1 71.4994 104.1 71.9994C105.7 72.3994 108.3 71.9994 109.6 73.1994C114.4 77.7994 102.5 75.7994 101.1 75.5994C97.1 74.9994 93.2 74.0994 89.1999 73.9994C85.1999 73.8994 81.9999 77.3994 87.1999 79.9994C90.4999 81.5994 97 81.5994 97.1 86.0994C97.2 89.1995 95.2 89.4995 97.2 92.3995C98.8 94.6995 100.2 94.9995 99.8 98.1995C99.5 100.8 98.1 104.4 95.9 106.6C96.1 106.8 96.4 106.9 96.6 107.1C99.9 103.4 112.3 103.1 115.2 102.1Z" fill="#FFDE7D"/>
<path d="M156.5 113.999C159.3 112.499 162.2 110.9 165 109.2C168.2 107.2 169.3 105 171.7 102.8C173 98.1 173.8 93.2001 173.9 88.6003C174 85.6004 173.8 82.7005 173.4 79.8006C170.2 76.6007 166.8 72.7008 168.8 80.4006C169.8 84.1004 172.4 89.2003 171 93.1001C170 95.9 166.8 97.4 164.7 99.3999C163.3 100.7 161.9 103.6 160.2 102.1C158.3 100.4 159.1 93.4001 158.9 91.1002C158.6 87.2003 158.5 93.4001 158.2 94.6001C157.7 97.4 156.6 102.9 152.7 102.8C151 102.7 148.6 99.4999 147.2 100.3C145.5 101.3 146.5 108.6 146.1 110.3C143.9 119.399 138.9 97.6 138 97.5C136.6 97.3 134.5 112.199 128.9 112.499C126.8 112.599 119.2 110.9 118.7 109C117.6 105.4 122.8 101.3 124.7 98.7999C121.4 99.7999 118.3 101.1 115.1 102.2C112.2 103.2 99.7998 103.5 96.2998 107.4C96.9998 107.9 97.7998 108.4 98.2998 108.9C100.2 110.8 103 113.799 105.8 114.499C108.6 115.199 112.3 116.799 115.1 115.499C115.9 117.399 117.2 117.299 118.6 118.099C118.2 117.899 123.2 119.799 122.8 119.699C126.5 119.999 131.2 118.799 135.1 118.599C142.9 118.299 149.6 117.599 156.5 113.999Z" fill="#FFDE7D"/>
<path opacity="0.3" d="M156.5 113.999C159.3 112.499 162.2 110.9 165 109.2C168.2 107.2 169.3 105 171.7 102.8C173 98.1 173.8 93.2001 173.9 88.6003C174 85.6004 173.8 82.7005 173.4 79.8006C170.2 76.6007 166.8 72.7008 168.8 80.4006C169.8 84.1004 172.4 89.2003 171 93.1001C170 95.9 166.8 97.4 164.7 99.3999C163.3 100.7 161.9 103.6 160.2 102.1C158.3 100.4 159.1 93.4001 158.9 91.1002C158.6 87.2003 158.5 93.4001 158.2 94.6001C157.7 97.4 156.6 102.9 152.7 102.8C151 102.7 148.6 99.4999 147.2 100.3C145.5 101.3 146.5 108.6 146.1 110.3C143.9 119.399 138.9 97.6 138 97.5C136.6 97.3 134.5 112.199 128.9 112.499C126.8 112.599 119.2 110.9 118.7 109C117.6 105.4 122.8 101.3 124.7 98.7999C121.4 99.7999 118.3 101.1 115.1 102.2C112.2 103.2 99.7998 103.5 96.2998 107.4C96.9998 107.9 97.7998 108.4 98.2998 108.9C100.2 110.8 103 113.799 105.8 114.499C108.6 115.199 112.3 116.799 115.1 115.499C115.9 117.399 117.2 117.299 118.6 118.099C118.2 117.899 123.2 119.799 122.8 119.699C126.5 119.999 131.2 118.799 135.1 118.599C142.9 118.299 149.6 117.599 156.5 113.999Z" fill="#CF9455"/>
<path d="M115.5 19.4004C115.7 19.9003 116 20.4002 116.3 20.7001C117.2 21.5 119.8 22.1999 120.7 21.3C120.9 21.1001 121 20.9001 121.1 20.6001C119.3 20.1002 117.6 19.7003 115.9 19.5004C115.8 19.4004 115.7 19.4004 115.5 19.4004Z" fill="#FFDE7D"/>
<path opacity="0.3" d="M115.5 19.4004C115.7 19.9003 116 20.4002 116.3 20.7001C117.2 21.5 119.8 22.1999 120.7 21.3C120.9 21.1001 121 20.9001 121.1 20.6001C119.3 20.1002 117.6 19.7003 115.9 19.5004C115.8 19.4004 115.7 19.4004 115.5 19.4004Z" fill="#CFCFCF"/>
<path d="M99.6997 98.4007C100.1 95.3007 98.6997 95.0007 97.0997 92.6006C95.0997 89.7006 97.0997 89.4006 96.9997 86.3006C96.8997 81.7006 90.3997 81.8005 87.0998 80.2005C81.8998 77.6005 85.0998 74.1005 89.0997 74.2005C93.0997 74.3005 96.9997 75.2005 101 75.8005C102.4 76.0005 114.3 78.0005 109.5 73.4005C108.2 72.2005 105.6 72.6005 104 72.2005C102 71.7005 100.1 70.8004 98.0997 70.2004C94.6997 69.1004 90.6997 68.3004 87.4998 66.2004C85.3998 64.8004 77.1998 57.4003 80.3998 54.5003C83.0998 52.0003 90.0997 60.4003 92.5997 57.1003C94.1997 54.8003 89.3997 46.8002 89.6997 43.8002C90.2997 38.0002 96.0997 41.7002 98.8997 43.8002C100.1 44.7002 102.6 48.0002 104.1 48.2002C105.7 48.5002 105 48.3002 105.2 46.6002C105.7 41.8002 102.4 36.6001 103.6 31.9001C104.1 30.1001 105.8 30.4001 106.9 28.9001C108.2 27.1001 107.2 25.5 107.7 23.6C108 22.5 108.8 22.2 109.5 21.5C110.1 20.8 110.2 20.3 110.6 19.4C110.7 19.2 110.8 19 110.9 18.8C107.9 18.6 105 18.7 102.1 19.4C102 19.4 102 19.4 101.9 19.4C101.3 20.6 100.7 21.7 99.5997 22.7C97.9997 24.1 95.6997 24.8 93.8997 25.9C90.1997 28.4001 86.9998 30.9001 84.1998 34.1001C80.9998 37.8001 81.0998 41.3002 79.9998 46.1002C78.8998 51.0003 76.6998 55.6003 77.7998 60.8004C78.2998 63.3004 78.9998 63.7004 78.9998 66.3004C78.9998 68.5004 77.8998 70.7005 77.8998 72.9005C77.8998 75.8005 79.5998 79.3005 80.1998 82.3006C80.3998 83.2006 79.2998 84.3006 79.7998 85.3006C80.1998 86.0006 81.5998 87.0006 81.5998 87.1006C82.0998 88.1006 83.2998 90.2006 83.9998 91.9007C85.1998 94.5007 88.4998 97.9007 89.9997 100.601C90.8997 102.301 92.8997 103.801 93.7997 105.001C94.3997 105.701 95.0997 106.301 95.6997 106.801C97.9997 104.501 99.3997 100.901 99.6997 98.4007Z" fill="#FFDE7D"/>
<path opacity="0.3" d="M99.6997 98.4007C100.1 95.3007 98.6997 95.0007 97.0997 92.6006C95.0997 89.7006 97.0997 89.4006 96.9997 86.3006C96.8997 81.7006 90.3997 81.8005 87.0998 80.2005C81.8998 77.6005 85.0998 74.1005 89.0997 74.2005C93.0997 74.3005 96.9997 75.2005 101 75.8005C102.4 76.0005 114.3 78.0005 109.5 73.4005C108.2 72.2005 105.6 72.6005 104 72.2005C102 71.7005 100.1 70.8004 98.0997 70.2004C94.6997 69.1004 90.6997 68.3004 87.4998 66.2004C85.3998 64.8004 77.1998 57.4003 80.3998 54.5003C83.0998 52.0003 90.0997 60.4003 92.5997 57.1003C94.1997 54.8003 89.3997 46.8002 89.6997 43.8002C90.2997 38.0002 96.0997 41.7002 98.8997 43.8002C100.1 44.7002 102.6 48.0002 104.1 48.2002C105.7 48.5002 105 48.3002 105.2 46.6002C105.7 41.8002 102.4 36.6001 103.6 31.9001C104.1 30.1001 105.8 30.4001 106.9 28.9001C108.2 27.1001 107.2 25.5 107.7 23.6C108 22.5 108.8 22.2 109.5 21.5C110.1 20.8 110.2 20.3 110.6 19.4C110.7 19.2 110.8 19 110.9 18.8C107.9 18.6 105 18.7 102.1 19.4C102 19.4 102 19.4 101.9 19.4C101.3 20.6 100.7 21.7 99.5997 22.7C97.9997 24.1 95.6997 24.8 93.8997 25.9C90.1997 28.4001 86.9998 30.9001 84.1998 34.1001C80.9998 37.8001 81.0998 41.3002 79.9998 46.1002C78.8998 51.0003 76.6998 55.6003 77.7998 60.8004C78.2998 63.3004 78.9998 63.7004 78.9998 66.3004C78.9998 68.5004 77.8998 70.7005 77.8998 72.9005C77.8998 75.8005 79.5998 79.3005 80.1998 82.3006C80.3998 83.2006 79.2998 84.3006 79.7998 85.3006C80.1998 86.0006 81.5998 87.0006 81.5998 87.1006C82.0998 88.1006 83.2998 90.2006 83.9998 91.9007C85.1998 94.5007 88.4998 97.9007 89.9997 100.601C90.8997 102.301 92.8997 103.801 93.7997 105.001C94.3997 105.701 95.0997 106.301 95.6997 106.801C97.9997 104.501 99.3997 100.901 99.6997 98.4007Z" fill="#CF9E6C"/>
<path d="M125.3 23.9979C125.9 24.1978 126.9 23.6981 128 22.8986C126.7 22.3989 125.4 21.9992 124.2 21.4995C124.1 22.5988 124.4 23.5982 125.3 23.9979Z" fill="#FFDE7D"/>
<path opacity="0.3" d="M125.3 23.9979C125.9 24.1978 126.9 23.6981 128 22.8986C126.7 22.3989 125.4 21.9992 124.2 21.4995C124.1 22.5988 124.4 23.5982 125.3 23.9979Z" fill="#CFCFCF"/>
<path d="M134.1 34.6974C134.1 38.4964 138.2 33.7976 139.4 32.598C140.2 31.8981 141 30.8984 141.9 29.9987C140.9 29.2988 139.8 28.699 138.7 28.0991C136.4 29.8987 134.1 32.398 134.1 34.6974Z" fill="#FFDE7D"/>
<path opacity="0.3" d="M134.1 34.6974C134.1 38.4964 138.2 33.7976 139.4 32.598C140.2 31.8981 141 30.8984 141.9 29.9987C140.9 29.2988 139.8 28.699 138.7 28.0991C136.4 29.8987 134.1 32.398 134.1 34.6974Z" fill="#CFCFCF"/>
<path d="M154.5 16.1995C152.3 14.4995 147.6 15.0995 145.1 15.1995C141 15.2995 137.1 15.8995 133.6 18.1994C132.7 18.7994 130.2 21.2993 128.1 22.8993C131.8 24.2993 135.4 26.0992 138.9 28.0991C140.4 26.8992 141.9 25.9992 142.9 25.3992C144.9 24.2993 160.3 20.7993 154.5 16.1995Z" fill="#FFDE7D"/>
<path opacity="0.5" d="M154.5 16.1995C152.3 14.4995 147.6 15.0995 145.1 15.1995C141 15.2995 137.1 15.8995 133.6 18.1994C132.7 18.7994 130.2 21.2993 128.1 22.8993C131.8 24.2993 135.4 26.0992 138.9 28.0991C140.4 26.8992 141.9 25.9992 142.9 25.3992C144.9 24.2993 160.3 20.7993 154.5 16.1995Z" fill="#BEBEBE"/>
<path d="M113.999 16.8979C112.599 16.1979 111.399 17.5979 110.899 18.7979C112.399 18.8979 113.999 19.0979 115.599 19.3979C115.099 18.3979 114.799 17.2979 113.999 16.8979Z" fill="#FFDE7D"/>
<path opacity="0.5" d="M113.999 16.8979C112.599 16.1979 111.399 17.5979 110.899 18.7979C112.399 18.8979 113.999 19.0979 115.599 19.3979C115.099 18.3979 114.799 17.2979 113.999 16.8979Z" fill="#BEBEBE"/>
<path d="M121.3 12.0997C120.2 12.7997 120 12.4997 120.3 13.7998C120.4 14.4998 121 15.1999 121.2 15.9C121.4 17.1001 121.9 19.2002 121.3 20.5003C122.3 20.8004 123.2 21.1004 124.2 21.4004C124.3 19.8003 124.9 18.0001 125 17.1C125.2 14.4998 124.3 12.2997 123.4 9.99951C123.2 9.99951 123.1 9.99951 122.9 9.99951C122.7 9.99951 122.5 10.0995 122.3 10.0995C122.3 10.1995 122.4 10.2995 122.4 10.3995C122.4 11.8997 122.4 11.2996 121.3 12.0997Z" fill="#FFDE7D"/>
<path opacity="0.5" d="M121.3 12.0997C120.2 12.7997 120 12.4997 120.3 13.7998C120.4 14.4998 121 15.1999 121.2 15.9C121.4 17.1001 121.9 19.2002 121.3 20.5003C122.3 20.8004 123.2 21.1004 124.2 21.4004C124.3 19.8003 124.9 18.0001 125 17.1C125.2 14.4998 124.3 12.2997 123.4 9.99951C123.2 9.99951 123.1 9.99951 122.9 9.99951C122.7 9.99951 122.5 10.0995 122.3 10.0995C122.3 10.1995 122.4 10.2995 122.4 10.3995C122.4 11.8997 122.4 11.2996 121.3 12.0997Z" fill="#BEBEBE"/>
<path d="M110.9 18.7994C111.5 17.6993 112.6 16.1992 114 16.8992C114.9 17.2993 115.2 18.3993 115.6 19.2994C115.8 19.2994 115.9 19.2994 116.1 19.3994C117.8 19.6994 119.6 20.0995 121.3 20.4995C121.9 19.1994 121.4 16.9992 121.2 15.8992C121.1 15.0991 120.5 14.4991 120.3 13.799C120 12.3989 120.3 12.7989 121.3 12.0989C122.5 11.2988 122.4 11.8989 122.3 10.4988C122.3 10.3988 122.3 10.2987 122.2 10.1987C119.4 10.6988 116.5 11.5988 113.8 12.1989C110.8 12.8989 107.4 13.599 104.8 15.3991C103.3 16.4992 102.5 17.9993 101.8 19.3994C101.9 19.3994 101.9 19.3994 102 19.3994C104.9 18.6994 107.9 18.5994 110.9 18.7994Z" fill="#FFDE7D"/>
<path opacity="0.3" d="M110.9 18.7994C111.5 17.6993 112.6 16.1992 114 16.8992C114.9 17.2993 115.2 18.3993 115.6 19.2994C115.8 19.2994 115.9 19.2994 116.1 19.3994C117.8 19.6994 119.6 20.0995 121.3 20.4995C121.9 19.1994 121.4 16.9992 121.2 15.8992C121.1 15.0991 120.5 14.4991 120.3 13.799C120 12.3989 120.3 12.7989 121.3 12.0989C122.5 11.2988 122.4 11.8989 122.3 10.4988C122.3 10.3988 122.3 10.2987 122.2 10.1987C119.4 10.6988 116.5 11.5988 113.8 12.1989C110.8 12.8989 107.4 13.599 104.8 15.3991C103.3 16.4992 102.5 17.9993 101.8 19.3994C101.9 19.3994 101.9 19.3994 102 19.3994C104.9 18.6994 107.9 18.5994 110.9 18.7994Z" fill="#CFCFCF"/>
<path opacity="0.5" d="M110.9 18.7994C111.5 17.6993 112.6 16.1992 114 16.8992C114.9 17.2993 115.2 18.3993 115.6 19.2994C115.8 19.2994 115.9 19.2994 116.1 19.3994C117.8 19.6994 119.6 20.0995 121.3 20.4995C121.9 19.1994 121.4 16.9992 121.2 15.8992C121.1 15.0991 120.5 14.4991 120.3 13.799C120 12.3989 120.3 12.7989 121.3 12.0989C122.5 11.2988 122.4 11.8989 122.3 10.4988C122.3 10.3988 122.3 10.2987 122.2 10.1987C119.4 10.6988 116.5 11.5988 113.8 12.1989C110.8 12.8989 107.4 13.599 104.8 15.3991C103.3 16.4992 102.5 17.9993 101.8 19.3994C101.9 19.3994 101.9 19.3994 102 19.3994C104.9 18.6994 107.9 18.5994 110.9 18.7994Z" fill="#BEBEBE"/>
<path d="M124.9 17.1997C124.8 18.0997 124.2 19.8997 124.1 21.4998C125.4 21.8998 126.7 22.3998 127.9 22.8998C130 21.3998 132.5 18.7997 133.4 18.1997C137 15.9996 140.8 15.2996 144.9 15.1996C147.4 15.0996 152.2 14.5996 154.3 16.1996C160.2 20.7998 144.7 24.2998 142.7 25.2999C141.6 25.8999 140.1 26.7999 138.7 27.9999C139.8 28.5999 140.8 29.3 141.9 29.9C143.8 27.9999 145.9 26.1999 148.4 26.5999C151.6 27.0999 154.2 30.2 157.6 30.8C158.5 31 165 30.4 165.3 31.1C165.7 32.1 162.7 33.3 163.7 34.9001C165.7 38.3002 180.9 33.5 169.6 40.6002C167.8 41.7002 163.6 43.0003 165.3 44.9003C166.1 45.8003 169.3 46.1003 170.4 46.6003C172.7 47.6003 174.8 48.9004 176.6 50.6004C178.1 52.1004 183.1 58.0006 181 60.4006C179.1 62.6007 173.6 58.4006 171.9 57.5006C169.6 56.3006 165.8 54.1005 168.2 58.0006C170.9 62.4007 175.8 65.4008 178.6 69.8008C180.5 72.7009 180.1 74.401 179 77.501C178.7 78.401 178.1 82.2011 177.2 82.5011C176.4 82.7011 174.9 81.2011 173.3 79.6011C173.7 82.4011 173.8 85.4012 173.8 88.4013C173.7 93.0014 172.9 97.9015 171.6 102.602C171.7 102.502 171.7 102.502 171.8 102.402C174.5 100.002 176.8 99.2015 178.9 96.2014C180.2 94.3014 185.3 90.6013 184.8 88.3013C186.8 85.7012 187.1 77.501 187.2 74.001C187.2 71.3009 186.7 69.0008 186.7 66.6008C186.7 63.7007 188.2 60.7006 188.2 57.8006C188.2 55.1005 187.3 52.9005 187.3 50.1004C187.3 49.5004 187.3 46.8003 187.1 46.3003C186.6 44.9003 185.8 44.6003 185.3 43.6003C184 40.9002 179.5 34.9001 176.5 33.9001C177.4 34.2001 174.6 26.0999 173.9 25.3999C171.7 22.6998 168.2 20.7998 165.1 19.3997C162.6 18.2997 159.4 17.7997 157.1 16.7997C154.6 15.7996 151.8 14.8996 149.4 14.4996C145.9 13.8996 144.2 12.1996 141.5 11.0995C138 9.6995 135.7 11.8995 132.5 11.5995C129 11.2995 126.9 9.7995 123.4 10.0995C124.2 12.3996 125.2 14.5996 124.9 17.1997Z" fill="#FFDE7D"/>
<path opacity="0.3" d="M124.9 17.1997C124.8 18.0997 124.2 19.8997 124.1 21.4998C125.4 21.8998 126.7 22.3998 127.9 22.8998C130 21.3998 132.5 18.7997 133.4 18.1997C137 15.9996 140.8 15.2996 144.9 15.1996C147.4 15.0996 152.2 14.5996 154.3 16.1996C160.2 20.7998 144.7 24.2998 142.7 25.2999C141.6 25.8999 140.1 26.7999 138.7 27.9999C139.8 28.5999 140.8 29.3 141.9 29.9C143.8 27.9999 145.9 26.1999 148.4 26.5999C151.6 27.0999 154.2 30.2 157.6 30.8C158.5 31 165 30.4 165.3 31.1C165.7 32.1 162.7 33.3 163.7 34.9001C165.7 38.3002 180.9 33.5 169.6 40.6002C167.8 41.7002 163.6 43.0003 165.3 44.9003C166.1 45.8003 169.3 46.1003 170.4 46.6003C172.7 47.6003 174.8 48.9004 176.6 50.6004C178.1 52.1004 183.1 58.0006 181 60.4006C179.1 62.6007 173.6 58.4006 171.9 57.5006C169.6 56.3006 165.8 54.1005 168.2 58.0006C170.9 62.4007 175.8 65.4008 178.6 69.8008C180.5 72.7009 180.1 74.401 179 77.501C178.7 78.401 178.1 82.2011 177.2 82.5011C176.4 82.7011 174.9 81.2011 173.3 79.6011C173.7 82.4011 173.8 85.4012 173.8 88.4013C173.7 93.0014 172.9 97.9015 171.6 102.602C171.7 102.502 171.7 102.502 171.8 102.402C174.5 100.002 176.8 99.2015 178.9 96.2014C180.2 94.3014 185.3 90.6013 184.8 88.3013C186.8 85.7012 187.1 77.501 187.2 74.001C187.2 71.3009 186.7 69.0008 186.7 66.6008C186.7 63.7007 188.2 60.7006 188.2 57.8006C188.2 55.1005 187.3 52.9005 187.3 50.1004C187.3 49.5004 187.3 46.8003 187.1 46.3003C186.6 44.9003 185.8 44.6003 185.3 43.6003C184 40.9002 179.5 34.9001 176.5 33.9001C177.4 34.2001 174.6 26.0999 173.9 25.3999C171.7 22.6998 168.2 20.7998 165.1 19.3997C162.6 18.2997 159.4 17.7997 157.1 16.7997C154.6 15.7996 151.8 14.8996 149.4 14.4996C145.9 13.8996 144.2 12.1996 141.5 11.0995C138 9.6995 135.7 11.8995 132.5 11.5995C129 11.2995 126.9 9.7995 123.4 10.0995C124.2 12.3996 125.2 14.5996 124.9 17.1997Z" fill="#CFBCA8"/>
<path opacity="0.5" d="M124.9 17.1997C124.8 18.0997 124.2 19.8997 124.1 21.4998C125.4 21.8998 126.7 22.3998 127.9 22.8998C130 21.3998 132.5 18.7997 133.4 18.1997C137 15.9996 140.8 15.2996 144.9 15.1996C147.4 15.0996 152.2 14.5996 154.3 16.1996C160.2 20.7998 144.7 24.2998 142.7 25.2999C141.6 25.8999 140.1 26.7999 138.7 27.9999C139.8 28.5999 140.8 29.3 141.9 29.9C143.8 27.9999 145.9 26.1999 148.4 26.5999C151.6 27.0999 154.2 30.2 157.6 30.8C158.5 31 165 30.4 165.3 31.1C165.7 32.1 162.7 33.3 163.7 34.9001C165.7 38.3002 180.9 33.5 169.6 40.6002C167.8 41.7002 163.6 43.0003 165.3 44.9003C166.1 45.8003 169.3 46.1003 170.4 46.6003C172.7 47.6003 174.8 48.9004 176.6 50.6004C178.1 52.1004 183.1 58.0006 181 60.4006C179.1 62.6007 173.6 58.4006 171.9 57.5006C169.6 56.3006 165.8 54.1005 168.2 58.0006C170.9 62.4007 175.8 65.4008 178.6 69.8008C180.5 72.7009 180.1 74.401 179 77.501C178.7 78.401 178.1 82.2011 177.2 82.5011C176.4 82.7011 174.9 81.2011 173.3 79.6011C173.7 82.4011 173.8 85.4012 173.8 88.4013C173.7 93.0014 172.9 97.9015 171.6 102.602C171.7 102.502 171.7 102.502 171.8 102.402C174.5 100.002 176.8 99.2015 178.9 96.2014C180.2 94.3014 185.3 90.6013 184.8 88.3013C186.8 85.7012 187.1 77.501 187.2 74.001C187.2 71.3009 186.7 69.0008 186.7 66.6008C186.7 63.7007 188.2 60.7006 188.2 57.8006C188.2 55.1005 187.3 52.9005 187.3 50.1004C187.3 49.5004 187.3 46.8003 187.1 46.3003C186.6 44.9003 185.8 44.6003 185.3 43.6003C184 40.9002 179.5 34.9001 176.5 33.9001C177.4 34.2001 174.6 26.0999 173.9 25.3999C171.7 22.6998 168.2 20.7998 165.1 19.3997C162.6 18.2997 159.4 17.7997 157.1 16.7997C154.6 15.7996 151.8 14.8996 149.4 14.4996C145.9 13.8996 144.2 12.1996 141.5 11.0995C138 9.6995 135.7 11.8995 132.5 11.5995C129 11.2995 126.9 9.7995 123.4 10.0995C124.2 12.3996 125.2 14.5996 124.9 17.1997Z" fill="#BE8D56"/>
<path opacity="0.3" d="M187.5 37.0007C202.2 67.0006 189.8 103.2 159.8 117.9C188.5 65.4006 153.2 12.3008 106.5 9.30077C136.5 -5.29918 172.8 7.00078 187.5 37.0007Z" fill="#C4A687"/>
</svg>
