<svg width="99" height="122" viewBox="0 0 99 122" fill="none" xmlns="http://www.w3.org/2000/svg">
<path opacity="0.3" d="M4.60267 112.993C5.87259 113.346 7.14251 113.275 8.34188 112.781C8.05967 113.84 8.05967 114.968 8.34188 116.097C8.90629 118.143 10.5995 119.766 12.6455 120.33C14.6915 120.895 16.808 120.26 18.3601 118.919C19.9828 117.508 20.5472 115.321 20.1945 113.275C20.1239 113.064 20.1239 112.781 20.0534 112.57C20.5472 112.57 21.1116 112.358 21.4644 111.935C21.4644 111.935 22.4521 109.536 21.676 108.831C20.5472 107.772 18.9245 106.291 17.2313 104.809L17.3724 104.668L17.5135 104.456L34.4458 85.8309L41.3598 92.1099C41.9242 92.6038 42.7002 92.6743 43.1941 92.1099C43.4763 91.8277 43.9701 91.0517 44.3229 90.2051L76.3531 55.0001C76.4236 54.9296 76.2825 54.6474 76.0003 54.2946C75.577 53.7302 74.8009 52.8836 73.8132 51.8959C73.531 51.6137 73.2488 51.3315 72.8961 50.9787C72.8255 50.9082 72.6844 50.7671 72.6139 50.6965L86.0891 31.3655C86.3713 31.0833 86.5124 30.8011 86.6535 30.4484C87.0768 29.3901 86.7946 28.1202 85.8774 27.2736C85.2425 26.7092 84.3959 26.427 83.6198 26.5681C82.9143 26.6386 82.2793 26.9208 81.7855 27.4852L64.1477 42.7948C64.0772 42.7242 64.0066 42.7242 63.9361 42.6537C63.8655 42.5831 63.795 42.5126 63.6539 42.442C63.5128 42.3715 63.4422 42.2304 63.3011 42.1598C63.2306 42.0893 63.16 42.0187 63.0895 41.9482C62.9484 41.8776 62.8778 41.7365 62.7367 41.666C62.6662 41.5954 62.5956 41.5954 62.5251 41.5249C62.384 41.4543 62.3134 41.3132 62.1723 41.2427C62.1018 41.2427 62.1018 41.1721 62.0312 41.1721C61.8901 41.1016 61.8196 40.9605 61.6785 40.8899C60.6202 40.0433 59.8441 39.5494 59.5619 39.4789C59.4914 39.4789 59.4208 39.4789 59.4208 39.4789L27.3907 74.6839C26.6146 75.1072 25.8385 75.7421 25.6269 76.0243C25.133 76.5887 25.2036 77.3648 25.768 77.8587L32.682 84.1377L15.5381 102.975L15.397 103.116C13.7038 101.564 12.0811 100.082 10.9523 99.024C10.1762 98.3184 7.91858 99.5178 7.91858 99.5178C7.56582 99.9411 7.35416 100.506 7.42471 100.999C5.30818 100.506 3.05056 101.282 1.56899 102.834C0.157967 104.386 -0.335896 106.573 0.228512 108.619C0.863471 110.806 2.62724 112.429 4.60267 112.993ZM12.5044 106.291C12.3633 106.22 12.2927 106.15 12.2222 106.008L12.5044 106.291ZM15.8908 109.959C17.7957 110.665 18.9245 112.499 18.9245 114.475C18.9245 116.45 17.5841 118.214 15.8203 118.849C13.9154 119.554 11.8694 118.919 10.5995 117.438C9.04739 115.674 9.18849 112.993 10.6701 111.229C10.7406 111.159 10.8112 111.088 10.8112 111.018C12.1516 109.748 14.1271 109.254 15.8908 109.959ZM7.91858 102.622C9.82346 103.328 10.9523 105.162 10.9523 107.137C10.9523 109.113 9.6118 110.877 7.84802 111.511C5.94315 112.217 3.89717 111.582 2.62725 110.1C1.07513 108.337 1.21623 105.585 2.76835 103.821C4.03827 102.481 6.08425 101.917 7.91858 102.622Z" fill="#949597"/>
<path d="M91.4511 27.9791C92.5093 26.7797 94.3437 26.7092 95.543 27.7674C96.7424 28.8257 96.813 30.66 95.7547 31.8594L82.0678 51.4725C81.0095 52.6719 77.2703 51.0493 76.071 49.9204C74.8716 48.8622 72.4023 44.8408 73.4606 43.6414L91.4511 27.9791Z" fill="white"/>
<path opacity="0.2" d="M98.9999 27.5558C98.3649 27.9791 85.4541 46.7456 81.9971 43.3592C78.5401 39.9727 94.9784 25.5803 94.9784 25.5803C94.9784 25.5803 91.5214 22.1939 90.5337 22.9699C89.546 23.8166 66.4053 42.5126 66.4053 42.5126L77.5523 56.3406L83.9019 58.4571L98.9999 27.5558Z" fill="#A6A6A6"/>
<path d="M43.6878 83.4322C44.1111 82.9383 44.8166 82.9383 45.3105 83.3616C45.8044 83.7849 45.8044 84.4904 45.3811 84.9843L26.9672 105.232C26.5439 105.726 25.8384 105.726 25.3446 105.303C24.8507 104.88 24.8507 104.174 25.274 103.68L43.6878 83.4322Z" fill="#3F4041"/>
<path opacity="0.2" d="M24.2996 105.703L24.5605 105.94L44.5025 84.0247L44.2416 83.7873L24.2996 105.703Z" fill="white"/>
<path opacity="0.2" d="M24.0186 105.41L25.2188 106.503L45.1637 84.5873L43.9635 83.4951L24.0186 105.41Z" fill="white"/>
<path opacity="0.5" d="M24.8843 104.053L26.6064 105.619L28.268 103.793L26.5459 102.226L24.8843 104.053Z" fill="#A6A6A6"/>
<path d="M35.2919 76.7298C35.7857 76.1654 38.255 74.4016 38.8194 74.8955L54.3406 89.0057C54.905 89.4996 53.3529 92.11 52.8591 92.6744C52.3652 93.2388 51.5892 93.1682 51.0247 92.6744L35.5035 78.5642C34.8686 78.0703 34.798 77.2942 35.2919 76.7298Z" fill="#79787A"/>
<path opacity="0.3" d="M44.9238 83.6077C40.2829 79.387 36.1381 76.3861 35.6662 76.905C35.1944 77.4239 38.574 81.266 43.215 85.4866C47.8559 89.7073 52.0007 92.7082 52.4726 92.1893C52.9444 91.6704 49.5647 87.8283 44.9238 83.6077Z" fill="white"/>
<path opacity="0.5" d="M35.7163 77.0826C35.4341 77.3648 38.8911 81.2451 43.4064 85.4076C47.9216 89.4995 52.0136 92.3921 52.2958 92.1099C52.578 91.8277 48.8388 88.5118 44.3235 84.3493C39.7377 80.2574 35.928 76.8004 35.7163 77.0826Z" fill="white"/>
<path d="M69.0875 40.1844C69.793 39.4083 86.7252 54.7884 86.0197 55.5645L54.0601 90.7695C53.3546 91.5455 36.4224 76.1654 37.1279 75.3893L69.0875 40.1844Z" fill="#C8C7C9"/>
<path d="M9.89471 109.465C10.4591 111.511 12.1523 113.134 14.1983 113.699C15.4682 114.051 16.7382 113.981 17.9375 113.487C17.6553 114.545 17.6553 115.674 17.9375 116.803C18.5019 118.849 20.1952 120.471 22.2411 121.036C24.2871 121.6 26.4036 120.965 27.9558 119.625C29.5784 118.214 30.1429 116.027 29.7901 113.981C29.3668 111.723 27.5325 109.889 25.4159 109.324C24.146 108.972 24.4988 107.278 23.2994 107.772C23.5111 106.855 21.9589 107.631 21.8178 106.714C21.3945 104.456 19.5602 102.622 17.4437 102.058C15.2566 101.423 12.8579 102.199 11.3763 103.821C9.82416 105.232 9.3303 107.42 9.89471 109.465ZM25.4865 110.594C27.3914 111.3 28.5202 113.134 28.5202 115.11C28.5202 117.085 27.1797 118.849 25.4159 119.484C23.5111 120.189 21.4651 119.554 20.1952 118.073C18.643 116.309 18.7841 113.628 20.2657 111.864C20.3363 111.794 20.4068 111.723 20.4068 111.653C21.7473 110.453 23.7227 109.959 25.4865 110.594ZM17.4437 103.328C19.3486 104.033 20.4774 105.867 20.4774 107.843C20.4774 109.818 19.1369 111.582 17.3731 112.217C15.4682 112.922 13.4223 112.288 12.1523 110.806C10.6002 109.042 10.7413 106.291 12.2934 104.527C13.5634 103.186 15.6799 102.622 17.4437 103.328Z" fill="#3F4041"/>
<path opacity="0.5" d="M86.0189 55.5645C86.7245 54.7884 69.7922 39.4083 69.0867 40.1844C77.9761 49.7793 80.5865 55.2823 70.9916 68.7575C64.8536 77.3648 53.3538 91.5455 54.0593 90.7695L86.0189 55.5645Z" fill="#A6A6A6"/>
<path opacity="0.3" d="M37.5757 78.7437L43.7354 84.3439L80.5641 43.8362L74.4044 38.2359L37.5757 78.7437Z" fill="white"/>
<path opacity="0.3" d="M35.7054 77.015L41.8643 82.6161L78.6984 42.1138L72.5396 36.5128L35.7054 77.015Z" fill="white"/>
<path opacity="0.3" d="M45.0483 85.4644L47.6064 87.7895L84.4297 47.2763L81.8715 44.9512L45.0483 85.4644Z" fill="white"/>
<path opacity="0.3" d="M48.6694 88.7769L49.6084 89.6318L86.4645 49.1514L85.5255 48.2965L48.6694 88.7769Z" fill="white"/>
<path d="M20.6182 99.8C23.2992 102.199 28.5905 107.067 31.2714 109.465C32.0475 110.171 31.0598 112.57 31.0598 112.57C30.3543 113.346 29.1549 113.416 28.3789 112.711L17.7257 102.975C16.9496 102.269 16.879 101.07 17.5846 100.294C17.5846 100.294 19.8422 99.0945 20.6182 99.8Z" fill="#79787A"/>
<path opacity="0.3" d="M25.0099 105.743C21.349 102.414 17.9988 100.135 17.5269 100.654C17.055 101.173 19.6402 104.293 23.3011 107.622C26.962 110.951 30.3122 113.23 30.7841 112.711C31.256 112.192 28.6707 109.072 25.0099 105.743Z" fill="white"/>
<path opacity="0.5" d="M24.602 106.148C20.9411 102.819 17.7609 100.353 17.4987 100.642C17.2366 100.93 19.9918 103.862 23.6527 107.192C27.3135 110.521 30.4938 112.986 30.7559 112.698C31.0181 112.41 28.2629 109.477 24.602 106.148Z" fill="white"/>
<path opacity="0.5" d="M17.7257 112.993C17.7257 112.993 14.9037 113.416 13.1399 112.711C11.1645 111.935 9.25961 108.619 10.5295 105.867C11.7289 103.045 13.0694 102.834 14.2687 102.41C13.6338 102.975 11.1645 103.892 10.6706 106.855C10.1768 109.748 11.7289 111.653 13.3516 112.429C14.8331 113.205 17.7257 112.993 17.7257 112.993Z" fill="white"/>
<path opacity="0.5" d="M18.502 113.628C18.502 113.628 18.3609 116.521 19.2075 118.214C20.1952 120.119 23.6522 121.671 26.2626 120.189C28.9435 118.708 29.0846 117.367 29.3668 116.168C28.873 116.803 28.1675 119.413 25.2749 120.189C22.4528 120.965 20.4069 119.554 19.4897 118.073C18.5725 116.591 18.502 113.628 18.502 113.628Z" fill="white"/>
<path opacity="0.5" d="M30.7292 56.1289C31.6463 54.224 32.2107 52.178 32.2107 50.0615C32.1402 48.2977 31.5758 46.6751 30.447 45.3346C29.177 43.853 27.2016 43.1475 25.2967 42.9359C25.2262 42.9359 25.2262 42.9359 25.1556 42.9359C25.0851 42.9359 25.0851 42.9359 25.0145 42.9359C22.898 42.7242 20.7109 43.4297 18.806 44.488C18.806 43.218 18.6649 41.9481 18.3122 40.6782C17.9594 39.1966 17.0423 37.9267 15.984 36.8685C14.1497 35.1047 11.6098 34.5403 9.21111 35.3869C6.45962 36.3041 4.41364 38.5617 2.86152 40.8899C1.5916 42.7947 1.09775 44.8407 1.0272 47.0984C0.815542 51.5431 1.8738 56.0583 3.00262 60.2914C3.63757 62.6901 4.34309 65.1594 5.26026 67.4876C5.47191 68.052 5.89521 68.2637 6.45962 68.1931C9.28166 67.6993 12.1037 66.9937 14.8552 66.1471C19.3705 64.8067 24.309 63.184 27.9777 60.1503C29.177 58.9509 30.0237 57.681 30.7292 56.1289ZM24.5207 60.0092C22.4747 61.2791 20.2171 62.1963 17.9594 62.9723C14.3613 64.2423 10.5516 65.3005 6.74182 66.006C5.89521 63.6073 5.1897 61.0675 4.55475 58.5982C3.91979 56.1994 3.42593 53.8007 3.14373 51.402C2.86152 49.2149 2.72041 46.9573 3.21427 44.8407C3.56703 43.0769 4.62529 41.5248 5.82466 40.1138C7.09457 38.6322 8.71725 37.3623 10.6221 37.0096C12.3154 36.6568 13.8675 37.5034 15.0668 38.7028C16.9717 40.7488 16.9717 43.7119 16.8306 46.3223C16.7601 47.0278 17.7478 47.5922 18.3122 47.1689C20.2171 45.8285 22.5453 44.6291 25.0145 44.9113C27.2016 45.264 29.3181 46.2518 30.0237 48.5094C30.7997 50.9787 29.8826 53.7302 28.7537 55.9172C27.766 57.681 26.355 58.9509 24.5207 60.0092Z" fill="#A6A6A6"/>
<path d="M31.9987 56.5522C32.9159 54.6473 33.4803 52.6013 33.4803 50.4848C33.4097 48.721 32.8453 47.0984 31.7165 45.7579C30.4466 44.2763 28.4712 43.5708 26.5663 43.3591C26.4957 43.3591 26.4957 43.3591 26.4252 43.3591C26.3546 43.3591 26.3546 43.3591 26.2841 43.3591C24.1675 43.1475 21.9805 43.853 20.0756 44.9113C20.0756 43.6414 19.9345 42.3714 19.5817 41.1015C19.229 39.62 18.3118 38.35 17.2536 37.2918C15.4192 35.528 12.8794 34.9636 10.4806 35.8102C7.72916 36.7274 5.68318 38.985 4.13106 41.3132C2.86114 43.218 2.36728 45.264 2.29673 47.5217C2.08507 51.9664 3.14334 56.4816 4.27216 60.7147C4.90712 63.1134 5.61262 65.5827 6.52979 67.9109C6.74144 68.4753 7.16476 68.687 7.72916 68.6164C10.5512 68.1226 13.3732 67.4171 16.1247 66.5704C20.64 65.23 25.5786 63.6073 29.2472 60.5736C30.4466 59.3742 31.2932 58.1043 31.9987 56.5522ZM25.7902 60.4325C23.7442 61.7024 21.4866 62.6196 19.229 63.3957C15.6309 64.6656 11.8211 65.7238 8.01136 66.4293C7.16475 64.0306 6.45924 61.4908 5.82428 59.0215C5.18932 56.6227 4.69546 54.224 4.41326 51.8253C4.13105 49.6382 3.98996 47.3806 4.48381 45.264C4.83657 43.5003 5.89483 41.9481 7.0942 40.5371C8.36412 39.0555 9.98679 37.7856 11.8917 37.4329C13.5849 37.0801 15.137 37.9267 16.3364 39.1261C18.2413 41.1721 18.2413 44.1352 18.1002 46.7456C18.0296 47.4511 19.0173 48.0155 19.5817 47.5922C21.4866 46.2517 23.8148 45.0524 26.2841 45.3346C28.4712 45.6873 30.5877 46.6751 31.2932 48.9327C32.0693 51.402 31.1521 54.1535 30.0233 56.3405C29.0356 58.1749 27.6245 59.3742 25.7902 60.4325Z" fill="#6D859B"/>
<path d="M30.5168 56.4111C31.2929 54.6473 31.8573 52.7424 31.8573 50.8375C31.8573 49.2149 31.2929 47.7333 30.2346 46.5339C29.0353 45.1935 27.2715 44.5585 25.5077 44.3469C25.4372 44.3469 25.4372 44.3469 25.3666 44.3469C25.2961 44.3469 25.2961 44.3469 25.2255 44.3469C23.2501 44.1352 21.2747 44.7702 19.5814 45.7579C19.5814 44.5585 19.4403 43.4297 19.1581 42.3009C18.8054 40.9604 18.0293 39.761 16.9711 38.8439C15.2778 37.2212 12.9496 36.7273 10.7626 37.4329C8.29328 38.2795 6.38841 40.3255 4.90684 42.442C3.77803 44.2058 3.28416 46.0401 3.21361 48.0861C3.07251 52.1075 3.98968 56.27 5.04794 60.1503C5.61235 62.3374 6.31786 64.595 7.09392 66.7115C7.30557 67.2054 7.65833 67.417 8.22274 67.3465C10.8331 66.8526 13.373 66.2177 15.9128 65.5122C20.0753 64.3128 24.52 62.8312 27.9065 60.0092C29.1058 58.9509 29.8819 57.7515 30.5168 56.4111ZM24.8728 59.9386C22.9679 61.0674 20.9219 61.9141 18.8759 62.6196C15.56 63.8189 12.103 64.7361 8.64604 65.3711C7.86998 63.184 7.23502 60.8558 6.60006 58.5982C6.03566 56.4111 5.61235 54.224 5.33014 51.9664C5.11849 49.9909 4.97739 47.8744 5.4007 45.9695C5.75345 44.3469 6.67061 42.9358 7.79943 41.6659C8.92825 40.3254 10.4098 39.1966 12.1736 38.8439C13.7257 38.5617 15.1367 39.2672 16.195 40.396C17.9588 42.2303 17.9588 44.9818 17.8177 47.3806C17.7471 48.0155 18.5937 48.5094 19.1581 48.1566C20.9219 46.8867 23.0384 45.899 25.2255 46.0401C27.2715 46.3223 29.1058 47.2395 29.8113 49.2854C30.5168 51.5431 29.6702 54.0829 28.6825 56.0583C27.8359 57.8221 26.566 58.9509 24.8728 59.9386Z" fill="#445665"/>
<path opacity="0.5" d="M19.9349 44.9818C19.9349 44.9818 19.5822 36.0924 13.5148 36.163C7.44738 36.163 2.3677 42.3714 2.72046 47.0984C3.07321 51.8253 6.53021 66.8526 6.53021 66.8526C6.53021 66.8526 3.14377 49.9204 3.49653 46.4634C3.77873 43.0064 6.88297 39.2672 9.98722 37.7856C11.8921 36.8685 14.3614 36.939 15.843 37.7856C17.3245 38.6322 20.076 43.4297 19.9349 44.9818Z" fill="white"/>
<path opacity="0.5" d="M20.3577 45.264C20.3577 45.264 28.33 41.1721 31.3637 46.3928C34.3973 51.6136 31.6459 59.1626 27.4128 61.2791C23.1797 63.3956 8.43457 67.9815 8.43457 67.9815C8.43457 67.9815 24.7318 62.2668 27.5539 60.2914C30.3759 58.2454 32.0692 53.7302 31.787 50.2732C31.5753 48.2272 30.2348 46.0401 28.7533 45.1935C27.2717 44.3469 21.6276 44.3469 20.3577 45.264Z" fill="white"/>
<path opacity="0.5" d="M57.8951 16.3932C57.8951 16.2521 57.8951 16.1816 57.8246 16.0405C57.754 15.4055 57.4718 14.9117 57.119 14.4178C56.6957 13.8534 56.0608 13.3595 55.8491 12.7246C55.6375 12.1602 55.8491 11.3841 55.9197 10.8197C56.0608 9.9731 56.1313 9.12649 55.7786 8.35042C55.0731 7.00995 53.5915 6.7983 52.3921 6.23389C51.8983 5.95169 51.6866 5.52837 51.475 5.03452C51.1928 4.32901 50.9811 3.62351 50.5578 3.0591C49.5701 1.57753 47.8769 1.85973 46.3247 2.07139C45.6898 2.21249 45.1959 2.14192 44.6315 1.78917C43.9966 1.36586 43.5027 0.801452 42.7972 0.378146C41.2451 -0.539017 39.834 0.378163 38.6347 1.36588C38.1408 1.71863 37.7175 2.14192 37.1531 2.14192C36.377 2.14192 35.601 1.93027 34.7544 1.85972C33.0611 1.78917 32.144 2.98854 31.6501 4.39956C31.4385 4.89342 31.2974 5.52839 30.9446 5.95169C30.5213 6.375 29.8158 6.51609 29.2514 6.72774C27.7698 7.29215 26.7821 8.27986 26.8527 9.97309C26.9232 10.6786 27.1349 11.4547 27.1349 12.1602C27.1349 12.8657 26.641 13.3595 26.2177 13.7828C25.1594 15.0528 24.5245 16.3932 25.4416 17.9454C25.7944 18.5803 26.2883 19.0742 26.7116 19.6386C27.1349 20.203 27.1349 20.7674 26.9938 21.4729C26.7116 23.0956 26.641 24.5772 28.1226 25.5649C29.1103 26.2704 30.6624 26.1998 31.2268 27.3992C31.8618 28.6691 32.0734 30.2212 33.555 30.7856C34.2605 31.0678 35.0366 30.9973 35.7421 30.8562C36.377 30.7856 37.1531 30.5034 37.7175 30.7856C39.058 31.4206 39.834 32.9022 41.5273 32.8316C42.3033 32.7611 42.9383 32.3378 43.5732 31.9145C44.0671 31.4912 44.6315 30.9267 45.2665 30.7151C45.8309 30.5034 46.6775 30.7856 47.2419 30.8562C48.0885 30.9973 48.8646 30.9973 49.6406 30.574C50.9106 29.939 51.0517 28.2458 51.6866 27.117C51.9688 26.6231 52.4627 26.482 52.9565 26.2704C53.662 25.9882 54.3676 25.7765 55.0025 25.2827C56.343 24.2244 55.9197 22.6017 55.708 21.1202C55.5669 20.1324 55.9197 19.6386 56.5546 18.9331C57.119 18.2276 57.6129 17.522 57.754 16.6754C57.8951 16.6754 57.8951 16.5343 57.8951 16.3932ZM55.0025 17.8748C54.5087 18.5098 54.0148 19.0742 53.8737 19.8502C53.7326 20.6263 53.8737 21.4024 54.0148 22.1784C54.0854 22.7428 54.297 23.4483 53.8031 23.8716C53.3798 24.2244 52.6743 24.3655 52.1805 24.5772C51.475 24.8594 50.84 25.1416 50.3462 25.706C49.9228 26.2704 49.6406 26.9053 49.429 27.6108C49.2879 28.0341 49.0762 28.8102 48.6529 28.9513C48.0885 29.163 47.3124 28.8808 46.6775 28.8102C45.8309 28.6691 44.9843 28.6691 44.2082 29.0219C43.5732 29.3041 43.0088 29.8685 42.4444 30.2918C42.0211 30.6446 41.5273 30.9973 40.9629 30.7151C40.3279 30.4329 39.834 29.8685 39.2696 29.4452C38.6347 28.9513 37.9292 28.7397 37.0826 28.6691C36.377 28.6691 35.601 28.8808 34.8955 28.9513C34.19 29.0219 33.9078 28.8102 33.6256 28.2458C32.9906 26.9759 32.7789 25.6354 31.4385 24.8594C30.8741 24.5066 30.2391 24.3655 29.6041 24.0833C28.9692 23.8011 28.687 23.5894 28.687 22.9545C28.687 22.249 28.8986 21.4729 28.9692 20.7674C29.0397 19.9913 28.7575 19.2153 28.3342 18.5803C27.9109 18.0159 27.4171 17.5221 27.0643 16.8871C26.7116 16.3227 26.9232 15.8994 27.3465 15.4055C27.7698 14.8411 28.2637 14.2767 28.687 13.6418C29.1103 12.9362 29.1103 12.0896 28.9692 11.3136C28.8986 10.6786 28.6164 9.90254 28.7575 9.26758C28.8281 8.70317 29.6041 8.56208 30.0275 8.35042C30.6624 8.13877 31.2974 7.92711 31.8618 7.5038C32.4967 7.0805 32.8495 6.37498 33.1317 5.66947C33.3433 5.10506 33.555 4.47011 33.8372 3.97625C34.1194 3.4824 34.8249 3.6235 35.3188 3.69405C36.0243 3.83515 36.6592 3.97625 37.3648 3.9057C38.1408 3.83515 38.7052 3.4824 39.3402 3.0591C39.834 2.63579 40.3279 2.21248 40.8923 1.85972C41.3862 1.57752 41.8095 1.85972 42.2328 2.21248C43.4321 3.12964 44.3493 3.97625 45.9014 3.9057C46.6069 3.83515 47.2419 3.69405 47.9474 3.6235C48.5824 3.55295 48.794 3.83515 49.0057 4.39956C49.5701 5.59893 49.7817 6.7983 50.9105 7.57436C51.4044 7.92711 52.0394 8.13877 52.6038 8.35042C52.9565 8.49153 53.662 8.70318 53.8031 9.05593C54.0148 9.54979 53.8031 10.2553 53.662 10.8197C53.5209 11.5958 53.4504 12.3013 53.662 13.0773C53.8737 13.7123 54.297 14.2767 54.7203 14.7706C55.0731 15.1939 55.6375 15.6877 55.6375 16.2521C55.9197 16.9576 55.3553 17.4515 55.0025 17.8748Z" fill="#A6A6A6"/>
<path d="M59.0943 16.3932C59.0943 16.2521 59.0943 16.1816 59.0238 16.0405C58.9532 15.4055 58.671 14.9117 58.3183 14.4178C57.8949 13.8534 57.26 13.3595 57.0483 12.7246C56.8367 12.1602 57.0483 11.3841 57.1189 10.8197C57.26 9.9731 57.3305 9.12649 56.9778 8.35042C56.2723 7.00995 54.7907 6.7983 53.5913 6.23389C53.0975 5.95169 52.8858 5.52837 52.6742 5.03452C52.392 4.32901 52.1803 3.62351 51.757 3.0591C50.7693 1.57753 49.0761 1.85973 47.524 2.07139C46.889 2.21249 46.3951 2.14192 45.8307 1.78917C45.1958 1.36586 44.7019 0.801452 43.9964 0.378146C42.4443 -0.539017 41.0333 0.378163 39.8339 1.36588C39.34 1.71863 38.9167 2.14192 38.3523 2.14192C37.5763 2.14192 36.8002 1.93027 35.9536 1.85972C34.2604 1.78917 33.3432 2.98854 32.8493 4.39956C32.6377 4.89342 32.4966 5.52839 32.1438 5.95169C31.7205 6.375 31.015 6.51609 30.4506 6.72774C28.969 7.29215 27.9813 8.27986 28.0519 9.97309C28.1224 10.6786 28.3341 11.4547 28.3341 12.1602C28.3341 12.8657 27.8402 13.3595 27.4169 13.7828C26.3587 15.0528 25.7237 16.3932 26.6409 17.9454C26.9936 18.5803 27.4875 19.0742 27.9108 19.6386C28.3341 20.203 28.3341 20.7674 28.193 21.4729C27.9108 23.0956 27.8402 24.5772 29.3218 25.5649C30.3095 26.2704 31.8616 26.1998 32.426 27.3992C33.061 28.6691 33.2726 30.2212 34.7542 30.7856C35.4597 31.0678 36.2358 30.9973 36.9413 30.8562C37.5763 30.7856 38.3523 30.5034 38.9167 30.7856C40.2572 31.4206 41.0333 32.9022 42.7265 32.8316C43.5025 32.7611 44.1375 32.3378 44.7725 31.9145C45.2663 31.4912 45.8307 30.9267 46.4657 30.7151C47.0301 30.5034 47.8767 30.7856 48.4411 30.8562C49.2877 30.9973 50.0638 30.9973 50.8399 30.574C52.1098 29.939 52.2509 28.2458 52.8858 27.117C53.168 26.6231 53.6619 26.482 54.1557 26.2704C54.8613 25.9882 55.5668 25.7765 56.2017 25.2827C57.5422 24.2244 57.1189 22.6017 56.9072 21.1202C56.7661 20.1324 57.1189 19.6386 57.7539 18.9331C58.3183 18.2276 58.8121 17.522 58.9532 16.6754C59.0943 16.6754 59.0943 16.5343 59.0943 16.3932ZM56.2017 17.8748C55.7079 18.5098 55.214 19.0742 55.0729 19.8502C54.9318 20.6263 55.0729 21.4024 55.214 22.1784C55.2846 22.7428 55.4962 23.4483 55.0024 23.8716C54.5791 24.2244 53.8735 24.3655 53.3797 24.5772C52.6742 24.8594 52.0392 25.1416 51.5454 25.706C51.1221 26.2704 50.8398 26.9053 50.6282 27.6108C50.4871 28.0341 50.2754 28.8102 49.8521 28.9513C49.2877 29.163 48.5117 28.8808 47.8767 28.8102C47.0301 28.6691 46.1835 28.6691 45.478 29.0219C44.843 29.3041 44.2786 29.8685 43.7142 30.2918C43.2909 30.6446 42.797 30.9973 42.2326 30.7151C41.5977 30.4329 41.1038 29.8685 40.5394 29.4452C39.9044 28.9513 39.1989 28.7397 38.3523 28.6691C37.6468 28.6691 36.8708 28.8808 36.1652 28.9513C35.4597 29.0219 35.1775 28.8102 34.8953 28.2458C34.2604 26.9759 34.0487 25.6354 32.7082 24.8594C32.1438 24.5066 31.5089 24.3655 30.8739 24.0833C30.239 23.8011 29.9567 23.5894 29.9567 22.9545C29.9567 22.249 30.1684 21.4729 30.239 20.7674C30.3095 19.9913 30.0273 19.2153 29.604 18.5803C29.1807 18.0159 28.6868 17.5221 28.3341 16.8871C27.9813 16.3227 28.193 15.8994 28.6163 15.4055C29.0396 14.8411 29.5334 14.2767 29.9567 13.6418C30.3801 12.9362 30.3801 12.0896 30.239 11.3136C30.1684 10.6786 29.8862 9.90254 30.0273 9.26758C30.0979 8.70317 30.8739 8.56208 31.2972 8.35042C31.9322 8.13877 32.5671 7.92711 33.1315 7.5038C33.7665 7.0805 34.1193 6.37498 34.4015 5.66947C34.6131 5.10506 34.8248 4.47011 35.107 3.97625C35.3892 3.4824 36.0947 3.6235 36.5886 3.69405C37.2941 3.83515 37.929 3.97625 38.6345 3.9057C39.4106 3.83515 39.975 3.4824 40.61 3.0591C41.1038 2.63579 41.5977 2.21248 42.1621 1.85972C42.6559 1.57752 43.0792 1.85972 43.5025 2.21248C44.7019 3.12964 45.6191 3.97625 47.1712 3.9057C47.8767 3.83515 48.5117 3.69405 49.2172 3.6235C49.8521 3.55295 50.0638 3.83515 50.2754 4.39956C50.8398 5.59893 51.0515 6.7983 52.1803 7.57436C52.6742 7.92711 53.3091 8.13877 53.8735 8.35042C54.2263 8.49153 54.9318 8.70318 55.0729 9.05593C55.2846 9.54979 55.0729 10.2553 54.9318 10.8197C54.7907 11.5958 54.7202 12.3013 54.9318 13.0773C55.1435 13.7123 55.5668 14.2767 55.9901 14.7706C56.3428 15.1939 56.9072 15.6877 56.9072 16.2521C57.0483 16.9576 56.5545 17.4515 56.2017 17.8748Z" fill="#6D859B"/>
<path d="M57.5415 16.3932C57.5415 16.2521 57.5415 16.1816 57.471 16.111C57.4004 15.5466 57.1182 15.0528 56.836 14.6295C56.4833 14.1356 55.9189 13.6417 55.6367 13.0773C55.425 12.5129 55.6367 11.878 55.7072 11.3135C55.8483 10.608 55.9189 9.76145 55.5661 9.12649C54.9312 7.92712 53.5907 7.71546 52.4619 7.2216C52.0386 7.00995 51.8269 6.58664 51.6153 6.16333C51.4036 5.52838 51.1919 4.89341 50.7686 4.329C49.8515 2.98854 48.3699 3.2002 46.9589 3.48241C46.3239 3.55296 45.9712 3.55294 45.4773 3.20018C44.9129 2.77688 44.4191 2.28303 43.7841 1.93027C42.3731 1.15421 41.1032 1.93027 40.0449 2.84743C39.6216 3.20018 39.2688 3.55294 38.7044 3.55294C37.9989 3.55294 37.2934 3.34129 36.5879 3.27074C35.0358 3.20019 34.2597 4.32902 33.7659 5.59894C33.5542 6.09279 33.4836 6.58665 33.1309 7.00996C32.7781 7.43326 32.0726 7.57436 31.5788 7.71547C30.2383 8.20932 29.3211 9.12647 29.3917 10.6786C29.4622 11.3136 29.6033 12.0191 29.6739 12.654C29.6739 13.289 29.2506 13.7123 28.8978 14.1356C27.9101 15.2644 27.3457 16.4638 28.1923 17.8748C28.5451 18.4392 28.9684 18.8625 29.3917 19.4269C29.815 19.9913 29.7444 20.4852 29.6739 21.1202C29.4622 22.6017 29.3211 23.9422 30.6616 24.8594C31.5788 25.4943 32.9192 25.4238 33.4836 26.5526C34.0481 27.6814 34.1892 29.0924 35.6002 29.5863C36.2351 29.7979 36.9406 29.7274 37.5756 29.6568C38.14 29.5863 38.8455 29.3041 39.4099 29.5863C40.6093 30.1507 41.3854 31.4911 42.8669 31.4206C43.5724 31.35 44.1369 30.9973 44.7013 30.574C45.1951 30.2212 45.6184 29.6568 46.2534 29.5157C46.8178 29.3746 47.5233 29.5863 48.0172 29.6568C48.7932 29.7979 49.4987 29.7979 50.2042 29.4452C51.333 28.8808 51.5447 27.3286 52.1091 26.2704C52.3208 25.8471 52.8146 25.706 53.2379 25.4943C53.8729 25.2827 54.5079 25.0005 55.0723 24.5772C56.2716 23.5894 55.9189 22.1079 55.7778 20.8379C55.6367 19.9208 55.9894 19.4975 56.5538 18.8625C57.0477 18.2276 57.5415 17.5926 57.6826 16.8165C57.5415 16.6049 57.5415 16.5343 57.5415 16.3932ZM54.9312 17.7337C54.5079 18.2981 54.014 18.8625 53.8729 19.568C53.7318 20.2735 53.8729 20.979 54.014 21.6846C54.0845 22.1784 54.2962 22.8134 53.8023 23.1661C53.4496 23.5189 52.8146 23.5894 52.3208 23.8011C51.6858 24.0127 51.1214 24.2949 50.6981 24.8594C50.2748 25.3532 50.0631 25.9882 49.8515 26.5526C49.7104 26.9053 49.5693 27.6109 49.146 27.8225C48.6521 28.0342 47.8761 27.7519 47.3822 27.6814C46.6061 27.5403 45.9006 27.5403 45.1951 27.893C44.6307 28.1752 44.1369 28.5986 43.643 29.0219C43.2197 29.3746 42.7964 29.6568 42.3025 29.4452C41.7381 29.163 41.2443 28.6691 40.7504 28.3163C40.186 27.893 39.551 27.6814 38.775 27.6108C38.14 27.6108 37.4345 27.8225 36.7995 27.893C36.1646 27.9636 35.9529 27.7519 35.6707 27.2581C35.1063 26.0587 34.8947 24.9299 33.6953 24.2244C33.2014 23.9422 32.5665 23.8011 32.0726 23.5189C31.5082 23.3072 31.226 23.0956 31.2966 22.4606C31.2966 21.8257 31.5082 21.1201 31.5788 20.4852C31.6493 19.7797 31.4377 19.0742 31.0144 18.5098C30.6616 17.9454 30.1678 17.522 29.815 16.9576C29.4622 16.4638 29.6739 16.0405 30.0267 15.6172C30.45 15.1233 30.8733 14.6295 31.226 14.0651C31.5788 13.4301 31.5788 12.654 31.5082 11.9485C31.4377 11.3841 31.226 10.6786 31.2966 10.1142C31.3671 9.62034 32.0726 9.47923 32.4254 9.26758C32.9898 9.05592 33.5542 8.84426 34.1186 8.49151C34.683 8.0682 35.0358 7.5038 35.318 6.86884C35.5296 6.37499 35.6707 5.81057 35.9529 5.31671C36.2351 4.82286 36.8701 5.03452 37.2934 5.10507C37.9284 5.17562 38.5633 5.31671 39.1983 5.31671C39.9038 5.24616 40.4682 4.96398 40.9621 4.54067C41.4559 4.18792 41.8792 3.76461 42.3731 3.48241C42.7964 3.2002 43.2197 3.4824 43.5724 3.76461C44.6307 4.61122 45.4773 5.38728 46.8883 5.24618C47.5233 5.17563 48.0877 5.03451 48.7227 5.03451C49.2871 5.03451 49.4987 5.24617 49.7104 5.74002C50.2748 6.79829 50.4159 7.92711 51.4742 8.63262C51.8975 8.98538 52.5324 9.12648 53.0263 9.33813C53.379 9.47923 54.014 9.62033 54.1551 10.0436C54.3667 10.5375 54.1551 11.1724 54.0845 11.6663C53.9434 12.3718 53.8729 13.0068 54.0845 13.7123C54.2962 14.2767 54.649 14.7706 55.0723 15.2644C55.3545 15.6172 55.8483 16.111 55.9189 16.6049C55.7778 16.8871 55.2839 17.3809 54.9312 17.7337Z" fill="#445665"/>
<path opacity="0.5" d="M32.8496 5.81057C32.8496 5.81057 33.1318 3.41185 34.4017 2.42413C35.7422 1.36587 38.4937 2.91798 38.4937 2.91798C38.4937 2.91798 36.095 2.00081 34.825 2.91798C33.4846 3.83514 32.8496 5.81057 32.8496 5.81057Z" fill="white"/>
<path opacity="0.5" d="M46.6768 3.0591C46.6768 3.0591 48.7227 1.85973 50.3454 2.28303C51.9681 2.70634 52.3208 5.88114 52.3208 5.88114C52.3208 5.88114 51.6153 3.41184 50.1338 2.91799C48.6522 2.42413 46.6768 3.0591 46.6768 3.0591Z" fill="white"/>
<path opacity="0.5" d="M32.8496 26.6937C32.8496 26.6937 33.1318 29.0924 34.4017 30.2212C35.7422 31.2795 38.4937 29.6568 38.4937 29.6568C38.4937 29.6568 36.095 30.574 34.825 29.6568C33.4846 28.7396 32.8496 26.6937 32.8496 26.6937Z" fill="white"/>
<path opacity="0.5" d="M29.322 20.2735C29.322 20.2735 28.1932 22.4606 28.6165 24.0833C29.1103 25.706 32.2851 25.9176 32.2851 25.9176C32.2851 25.9176 29.8158 25.3532 29.2514 23.8716C28.687 22.3195 29.322 20.2735 29.322 20.2735Z" fill="white"/>
<path opacity="0.5" d="M29.181 13.0068C29.181 13.0068 27.135 14.3472 26.7117 15.9699C26.3589 17.5926 29.0399 19.3564 29.0399 19.3564C29.0399 19.3564 27.135 17.6631 27.4172 16.0405C27.6994 14.4884 29.181 13.0068 29.181 13.0068Z" fill="white"/>
<path opacity="0.5" d="M32.9196 6.72773C32.9196 6.72773 30.4503 6.65719 29.2509 7.85655C27.981 9.05592 29.2509 11.9485 29.2509 11.9485C29.2509 11.9485 28.616 9.47923 29.7448 8.27986C30.8031 7.15105 32.9196 6.72773 32.9196 6.72773Z" fill="white"/>
<path opacity="0.5" d="M55.9905 20.2735C55.9905 20.2735 57.1193 22.4606 56.696 24.0833C56.2021 25.706 53.0273 25.9176 53.0273 25.9176C53.0273 25.9176 55.4966 25.3532 56.061 23.8716C56.5549 22.3195 55.9905 20.2735 55.9905 20.2735Z" fill="white"/>
<path opacity="0.5" d="M56.0605 13.0068C56.0605 13.0068 58.1065 14.3472 58.5298 15.9699C58.8826 17.5926 56.2016 19.3564 56.2016 19.3564C56.2016 19.3564 58.1065 17.6631 57.8243 16.0405C57.6127 14.4884 56.0605 13.0068 56.0605 13.0068Z" fill="white"/>
<path opacity="0.5" d="M52.3926 6.72773C52.3926 6.72773 54.8619 6.65719 56.0612 7.85655C57.3311 9.05592 56.0612 11.9485 56.0612 11.9485C56.0612 11.9485 56.6962 9.47923 55.5674 8.27986C54.5091 7.15105 52.3926 6.72773 52.3926 6.72773Z" fill="white"/>
<path opacity="0.5" d="M46.6768 29.5863C46.6768 29.5863 48.7227 30.7856 50.3454 30.3623C51.9681 29.939 52.3208 26.6937 52.3208 26.6937C52.3208 26.6937 51.6153 29.2335 50.1338 29.7274C48.6522 30.2212 46.6768 29.5863 46.6768 29.5863Z" fill="white"/>
<path opacity="0.5" d="M39.4111 30.2212C39.4111 30.2212 40.681 32.2672 42.3037 32.62C43.9264 32.9727 45.7607 30.2918 45.7607 30.2918C45.7607 30.2918 43.9969 32.1967 42.4448 31.985C40.8221 31.7028 39.4111 30.2212 39.4111 30.2212Z" fill="white"/>
<path opacity="0.5" d="M39.5518 2.84742C39.5518 2.84742 40.8217 0.801448 42.4443 0.448693C44.067 0.0959375 45.9013 2.77689 45.9013 2.77689C45.9013 2.77689 44.1376 0.871994 42.5855 1.08365C40.9628 1.36585 39.5518 2.84742 39.5518 2.84742Z" fill="white"/>
</svg>
