<svg width="111" height="92" viewBox="0 0 111 92" fill="none" xmlns="http://www.w3.org/2000/svg">
<path opacity="0.3" d="M78.992 5.54504L58.7351 40.6987C58.2646 41.5528 58.2583 42.4399 58.6337 43.2405C58.5739 43.2818 58.514 43.323 58.4542 43.3643C58.3943 43.4055 58.2747 43.488 58.2561 43.5891C58.0951 43.6118 57.893 43.5746 57.7506 43.4962C57.6042 43.1557 57.1771 42.9205 56.717 43.1494C56.455 43.1535 56.1558 43.3598 56.0588 43.6032C49.7758 47.935 42.841 51.8335 38.099 58.0162C35.9055 60.8527 34.1884 64.5084 34.7099 68.2098C34.9819 70.141 35.6357 71.9856 36.731 73.7023C37.9914 75.6583 39.685 76.9625 41.6593 78.1614C41.7006 78.2213 41.8017 78.2399 41.8429 78.2997C41.8429 78.2997 41.8842 78.3595 41.944 78.3183L41.9853 78.3781C42.0265 78.438 42.1276 78.4565 42.1689 78.5164C44.1617 79.6142 46.1505 80.4501 48.5314 80.5742C50.5079 80.624 52.4391 80.3519 54.261 79.5372C57.7067 78.1327 59.9931 74.7907 61.3326 71.4836C64.224 64.2815 64.1612 56.3795 64.7874 48.7087C64.9855 48.4839 65 48.1208 64.8762 47.9413C64.868 47.4172 64.4822 47.2418 64.0593 47.2685C63.9768 47.1489 63.853 46.9693 63.7705 46.8497C63.7891 46.7486 63.8077 46.6475 63.8262 46.5464L63.8448 46.4453C64.7918 46.4104 65.6708 45.8926 66.1413 45.0385L86.3982 9.88488C87.1638 8.56249 86.6937 6.8562 85.3713 6.09058L82.7678 4.61918C81.5238 3.71121 79.7577 4.22266 78.992 5.54504ZM43.1017 76.2842C43.2444 73.8022 44.2557 71.4276 45.432 69.2924C46.6455 66.955 48.0611 64.6547 49.4169 62.3958C51.3217 59.1403 53.4101 56.0232 55.7418 53.003C56.6126 51.9612 57.4834 50.9194 58.3542 49.8777C57.9105 51.1547 57.4667 52.4318 56.9219 53.6902C55.5453 57.1995 53.8654 60.653 52.0205 63.8672C50.7059 66.186 49.4924 68.5234 48.0355 70.7638C46.7169 72.8206 45.1362 74.8815 43.1017 76.2842ZM37.6349 72.1963C36.783 70.5766 36.2118 68.8517 36.2244 67.0774C36.2311 63.6298 37.9563 60.4981 40.1952 57.9834C44.8484 52.5683 51.1023 48.9627 56.9066 44.9609C54.6223 47.1538 52.237 49.328 50.1178 51.7602C47.2847 54.9495 44.7403 58.5576 42.8849 62.3969C41.5373 65.1799 40.3547 68.2023 39.8385 71.295C39.6753 72.4668 39.5534 73.6985 39.6936 74.9261C38.8952 74.1523 38.1753 73.2362 37.6349 72.1963ZM41.6295 69.7953C42.2736 67.1442 43.322 64.5674 44.5953 62.1888C46.6116 58.3268 49.1374 54.8198 52.1129 51.7089C54.3146 49.3964 56.6401 47.2634 58.9429 44.9695C59.3061 44.984 59.6279 44.9386 59.9312 44.9944C59.7558 45.3802 59.6216 45.8258 59.4276 46.3126C58.7549 47.1296 57.9811 47.9279 57.2671 48.685C56.06 50.1352 54.8528 51.5855 53.7468 53.0543C51.5945 55.9507 49.6258 58.9854 47.7582 62.0386C45.2633 66.2306 41.8893 70.9404 41.5853 76.0054C40.5313 74.3485 41.2125 71.4953 41.6295 69.7953ZM60.5179 69.6617C59.459 72.8636 57.6327 75.9767 54.6553 77.6763C53.0769 78.588 51.288 78.9385 49.4951 79.027C48.2861 79.066 47.1741 78.8616 46.1405 78.5149C47.2629 78.0941 48.34 77.3515 49.2149 76.5718C51.6641 74.6183 53.5997 72.0478 55.3331 69.4402C57.7166 65.8548 59.5905 61.9144 60.9177 57.8212C61.9394 54.8215 62.6764 51.665 63.3535 48.5497C62.8202 55.715 62.811 62.8721 60.5179 69.6617ZM59.8224 56.1045C58.5963 60.2163 56.8647 64.2351 54.5225 67.8804C53.0471 70.2219 51.3467 72.3653 49.4215 74.3106C48.2103 75.4988 46.0643 77.508 44.0878 77.4582C48.3177 74.6302 50.6539 69.3117 53.0478 65.1011C54.8328 61.9282 56.457 58.7779 57.8563 55.4296C58.5951 53.6842 59.2329 51.9203 59.8706 50.1564C60.2174 49.1228 60.5043 48.1304 60.8511 47.0968C61.1276 46.7296 61.4454 46.4223 61.7219 46.0551C61.9281 46.3543 62.0932 46.5936 62.2396 46.9341C61.48 49.9297 60.8028 53.045 59.8224 56.1045Z" fill="#949597"/>
<path d="M52.0356 53.2624C51.3153 54.9067 50.4939 56.5323 49.6725 58.158C47.9514 61.5517 46.0054 64.7473 43.8159 67.8459C42.3178 70.0264 40.8609 72.2668 39.1791 74.3091C37.4788 76.4525 35.5164 78.6 32.9125 79.689C32.7929 79.7715 32.6732 79.854 32.6133 79.8953C32.1532 80.1242 31.922 80.8133 32.4729 81.2281C32.5141 81.2879 32.6152 81.3065 32.6565 81.3663C34.5523 82.7077 36.4627 83.6859 38.7466 84.0534C40.6859 84.3054 42.6996 84.153 44.5256 83.6003C48.0764 82.4764 50.6703 79.4521 52.3543 76.2606C55.9761 69.3495 56.6394 61.4765 57.9733 53.9358C58.1713 53.711 58.2271 53.4077 58.1219 53.1271C58.2148 52.6216 57.8476 52.3451 57.4247 52.3719C57.3421 52.2522 57.2184 52.0727 57.1359 51.953C57.1545 51.8519 57.1731 51.7508 57.2329 51.7096C57.4269 51.2227 57.037 50.7852 56.6326 50.7109C56.3583 49.9289 55.8633 49.2109 55.1701 48.7177C54.8442 48.501 54.3614 48.569 54.1447 48.895C53.2181 50.24 52.6774 51.7605 52.0356 53.2624ZM34.6207 80.6301C39.0383 78.2023 41.9439 73.1975 44.7236 69.1623C46.7933 66.1462 48.7022 63.1528 50.4872 59.9799C51.3684 58.313 52.2084 56.5862 52.9885 54.9007C53.6716 53.4587 54.1711 51.8783 54.9966 50.5147C55.2854 50.9335 55.5143 51.3937 55.6834 51.8951C54.6019 54.936 53.5802 57.9357 52.4162 60.857C50.7857 64.8944 48.6271 68.678 46.0188 72.0653C44.3185 74.2087 42.4345 76.2139 40.2845 77.9611C38.8711 79.1122 36.56 80.882 34.6207 80.6301ZM45.0024 81.8591C43.3414 82.6511 41.53 82.8407 39.733 82.6671C38.5425 82.6051 37.4491 82.2996 36.4341 81.8517C37.5977 81.4908 38.6975 80.9091 39.6549 80.2491C42.2692 78.5349 44.4895 76.1213 46.489 73.7716C49.2397 70.4627 51.3983 66.6791 53.1711 62.7202C54.496 59.7762 55.4764 56.7167 56.5394 53.7768C55.317 60.7109 54.6228 67.8989 51.6406 74.4573C50.2373 77.5436 48.1448 80.3988 45.0024 81.8591Z" fill="#EFEFEF"/>
<path d="M55.8989 50.1579C56.1156 49.832 56.0475 49.3491 55.7216 49.1325C55.0284 48.6393 54.2383 48.3896 53.3511 48.3832C53.1634 47.983 52.6765 47.789 52.1978 48.119C52.138 48.1603 52.0183 48.2428 51.9585 48.284C51.7563 48.2469 51.6552 48.2283 51.453 48.1911C51.3664 47.8094 50.958 47.473 50.5391 47.7618C50.2358 47.7061 49.9965 47.8711 49.8396 48.1558C43.1441 51.8892 35.8751 55.0469 30.5411 60.755C28.0216 63.3749 26.0384 66.7726 26.1782 70.5606C26.2295 72.5557 26.7223 74.423 27.5969 76.2036C28.6777 78.2834 30.2331 79.7712 32.129 81.1125C32.1702 81.1723 32.2713 81.1909 32.3126 81.2508C32.8634 81.6656 33.4205 81.1932 33.5134 80.6877C33.5918 80.5453 33.6104 80.4443 33.629 80.3432C33.8275 77.5579 35.239 74.9956 36.7145 72.6541C38.1714 70.4137 39.8119 68.3116 41.3513 66.1909C43.5408 63.0923 45.9551 60.1918 48.5943 57.4894C49.8241 56.2001 51.155 54.9294 52.4859 53.6586C53.5961 52.4518 54.8712 51.4844 55.8989 50.1579ZM32.9265 72.7939C33.8739 70.1986 35.1059 67.7601 36.6227 65.4784C39.0061 61.893 41.8578 58.6026 45.0995 55.7497C47.5261 53.6353 50.0764 51.7004 52.5256 49.7469C53.0497 49.7387 53.5552 49.8316 54.0008 49.9658C52.9505 51.1313 51.6567 52.1999 50.5239 53.2457C49.1331 54.5577 47.8435 55.8883 46.5538 57.2188C44.0756 59.8986 41.8408 62.6753 39.7298 65.6315C36.8676 69.547 33.0254 73.9617 32.2159 78.9338C31.3414 77.1532 32.2661 74.3969 32.9265 72.7939ZM32.5176 60.8048C37.703 55.9055 44.2684 52.8797 50.4852 49.4763C47.9761 51.4711 45.4258 53.406 43.1003 55.539C40.001 58.4703 37.0894 61.8019 34.8483 65.4658C33.216 68.092 31.6888 70.9988 30.9292 73.9944C30.6649 75.1477 30.3821 76.4021 30.481 77.5698C29.7425 76.7548 29.0824 75.7974 28.6617 74.6749C27.9707 73.0326 27.5192 71.2252 27.6927 69.4282C28.0439 66.0962 30.0538 63.1214 32.5176 60.8048Z" fill="#EFEFEF"/>
<path d="M76.3167 12.4212C77.2247 11.1772 78.9537 10.868 80.1977 11.776L82.6443 13.5321C83.8883 14.44 84.1976 16.169 83.2896 17.413L59.7134 50.4411C58.8054 51.6851 57.0764 51.9943 55.8324 51.0863L53.3858 49.3302C52.1418 48.4223 51.8325 46.6933 52.7405 45.4493L76.3167 12.4212Z" fill="#44443B"/>
<path d="M75.8953 13.8591C76.7434 12.6564 78.1278 12.2316 79.0046 12.863L80.7169 14.0661C81.5936 14.6975 81.6368 16.1686 80.7886 17.3713L58.6734 48.421C57.8252 49.6237 56.4408 50.0486 55.564 49.4171L53.8518 48.214C52.975 47.5826 52.9319 46.1115 53.78 44.9088L75.8953 13.8591Z" fill="#64645F"/>
<path d="M75.4562 15.3983C76.2857 14.2967 77.2844 13.6964 77.7939 14.0513L78.7718 14.7014C79.2813 15.0563 79.0584 16.2694 78.2288 17.3711L57.5746 46.4424C56.745 47.544 55.7464 48.1443 55.2368 47.7894L54.2589 47.1393C53.7494 46.7844 53.9724 45.5712 54.8019 44.4696L75.4562 15.3983Z" fill="#838383"/>
<path opacity="0.5" d="M-10.0623 68.445C-10.0211 68.5048 -9.97982 68.5647 -9.93856 68.6245C-8.37905 70.3743 -5.50908 69.5432 -3.51808 69.2299C-2.5525 69.0939 -1.36614 68.8939 -0.635819 69.1849C0.135759 69.5358 0.822615 70.9161 1.29909 71.7353C2.33456 73.4932 3.95987 76.875 6.54516 75.8871C7.66758 75.4664 8.31353 74.2265 8.82121 73.1702C9.36606 71.9118 9.74998 70.676 10.3361 69.4773C10.8252 68.5222 11.2812 68.0312 12.3066 67.8539C13.6539 67.6313 14.9867 67.7717 16.2968 67.7513C17.446 67.7535 18.7747 67.6319 19.7507 66.8708C20.7267 66.1096 20.9084 64.8366 20.4877 63.7142C20.0257 62.532 19.1222 61.4776 18.361 60.5016C17.6411 59.5854 16.7602 58.692 16.4406 57.5881L16.3993 57.5283C16.3993 57.5283 16.3993 57.5283 16.4179 57.4272L16.4551 57.225C16.4922 57.0228 16.5294 56.8206 16.548 56.7195C16.7007 56.1728 17.0144 55.6034 17.3095 55.1351C17.877 54.0376 18.5869 53.0185 19.0533 51.9024C19.4413 50.9286 19.7654 49.7341 19.3261 48.7128C18.8455 47.6316 17.7893 47.1239 16.5988 47.0619C15.3671 46.94 14.1209 47.1812 12.9346 47.3812C11.9092 47.5584 10.7641 47.8182 9.81297 47.5912C9.81297 47.5912 9.67062 47.5127 9.61079 47.554C9.56953 47.4941 9.5097 47.5354 9.5097 47.5354L9.46843 47.4756C9.28483 47.3373 9.10123 47.199 9.01872 47.0794C8.58759 46.5821 8.27612 46.0023 7.90482 45.4638C7.22207 44.3454 6.659 43.1446 5.79673 42.15C5.11807 41.2937 4.01644 40.4642 2.87134 40.724C1.62516 40.9652 0.855455 42.0256 0.34777 43.0818C-0.238335 44.2805 -0.640839 45.6173 -1.16711 46.7747C-1.61495 47.7897 -2.00706 48.5014 -3.05106 48.7798C-5.52076 49.4232 -8.15735 48.416 -10.4765 49.6619C-11.5763 50.2435 -11.8591 51.4979 -11.5993 52.643C-11.3395 53.7881 -10.3947 54.9023 -9.6748 55.8185C-8.95488 56.7346 -8.03277 57.6879 -7.5522 58.7691C-7.36451 59.1694 -7.40168 59.3716 -7.47601 59.7759C-7.61017 60.2216 -7.86399 60.7497 -8.09925 61.1768C-9.1373 63.1284 -11.4732 65.8865 -10.2274 68.2057C-10.1448 68.3254 -10.1036 68.3852 -10.0623 68.445ZM-8.45081 67.0691C-8.51474 66.8483 -8.45491 66.8071 -8.41774 66.6049C-8.32483 66.0994 -8.13083 65.6125 -7.83573 65.1442C-7.26821 64.0467 -6.55834 63.0276 -6.03207 61.8702C-5.52439 60.814 -5.17763 59.7804 -5.43744 58.6353C-5.69724 57.4902 -6.60077 56.4358 -7.32069 55.5196C-8.04061 54.6035 -9.00397 53.5903 -9.44328 52.569C-9.50721 52.3482 -9.57112 52.1275 -9.61238 52.0676C-9.61238 52.0676 -9.59788 51.7045 -9.63505 51.9067L-9.61649 51.8056C-9.61649 51.8056 -9.55664 51.7644 -9.59789 51.7045C-9.59789 51.7045 -9.5979 51.7045 -9.53806 51.6633L-9.47822 51.622C-9.55664 51.7644 -9.35855 51.5395 -9.35855 51.5395C-9.23887 51.457 -8.95825 51.3518 -8.73749 51.2879C-7.53255 50.9868 -6.19976 51.1273 -4.99074 51.0883C-3.68062 51.0678 -2.41177 50.9875 -1.25219 50.3646C-0.212273 49.8242 0.392423 48.5245 0.900108 47.4682C1.44496 46.2098 1.82888 44.974 2.41498 43.7754C2.59041 43.3896 2.86692 43.0224 3.1661 42.8161C3.1661 42.8161 3.16611 42.8161 3.22594 42.7748L3.28578 42.7336C3.1661 42.8161 3.28577 42.7336 3.38686 42.7521L3.48795 42.7707C3.58904 42.7893 3.73141 42.8677 3.73141 42.8677C4.66801 43.4579 5.27233 44.7186 5.77149 45.6987C6.45424 46.817 7.0359 47.9168 7.95801 48.8701C8.7976 49.7037 9.86838 49.8483 10.9763 49.7907C12.1853 49.7516 13.3903 49.4506 14.6179 49.3104C15.1605 49.2012 15.7444 49.1517 16.3097 49.2034C16.4706 49.1807 16.6728 49.2179 16.875 49.2551L17.0772 49.2922C17.1184 49.352 17.2608 49.4305 17.3206 49.3892C17.3619 49.4491 17.4031 49.5089 17.4031 49.5089C17.4444 49.5687 17.5269 49.6884 17.4444 49.5687C17.5083 49.7895 17.5269 49.6884 17.5722 50.0103C17.5763 50.2723 17.3637 50.8603 17.1883 51.2461C16.7219 52.3622 16.012 53.3813 15.3846 54.5201C14.8955 55.4752 14.3879 56.5315 14.3856 57.6807C14.4247 58.8897 15.2684 59.9854 15.9883 60.9015C16.7907 61.9373 17.7128 62.8906 18.3357 64.0502C18.5833 64.4092 18.6699 64.7909 18.6554 65.1541C18.674 65.053 18.5171 65.3377 18.577 65.2964C18.5171 65.3377 18.3376 65.4615 18.2179 65.544C17.1368 66.0245 15.804 65.884 14.6548 65.8818C13.4045 65.861 12.0346 65.9227 10.811 66.3249C8.34543 67.2303 7.79205 70.5251 6.87777 72.6562C6.68376 73.1431 6.44852 73.5701 6.07091 73.9188C6.01107 73.96 6.01108 73.96 6.01108 73.96L5.95124 74.0013C5.95124 74.0013 5.83156 74.0838 5.77172 74.125C5.71189 74.1663 5.55094 74.189 5.55094 74.189C4.65969 73.9206 4.05535 72.6599 3.57887 71.8408C2.89611 70.7225 2.37429 69.5815 1.51202 68.5869C0.691006 67.6522 -0.222906 67.2229 -1.47318 67.2021C-2.66362 67.1401 -3.86857 67.4411 -4.99508 67.5998C-5.96067 67.7358 -7.26667 68.0183 -7.99699 67.7273C-8.03825 67.6675 -8.38281 67.5519 -8.24046 67.6303C-8.38281 67.5519 -8.38278 67.5519 -8.38278 67.5519C-8.38278 67.5519 -8.3828 67.5519 -8.42405 67.492C-8.42814 67.23 -8.4694 67.1702 -8.45081 67.0691Z" fill="#A6A6A6"/>
<path d="M-11.0799 69.1464C-11.0387 69.2063 -10.9974 69.2661 -10.9561 69.326C-9.39662 71.0757 -6.52665 70.2446 -4.53565 69.9313C-3.57007 69.7953 -2.38371 69.5953 -1.65339 69.8863C-0.881814 70.2372 -0.19496 71.6175 0.281521 72.4367C1.31699 74.1947 2.9423 77.5764 5.52759 76.5885C6.65001 76.1678 7.29595 74.9279 7.80364 73.8716C8.34849 72.6132 8.73241 71.3774 9.31851 70.1788C9.80762 69.2236 10.2636 68.7326 11.2891 68.5553C12.6364 68.3327 13.9691 68.4732 15.2792 68.4527C16.4284 68.4549 17.7571 68.3334 18.7331 67.5722C19.7091 66.811 19.8908 65.5381 19.4701 64.4156C19.0081 63.2334 18.1046 62.179 17.3434 61.203C16.6235 60.2868 15.7426 59.3934 15.423 58.2895L15.3817 58.2297C15.3817 58.2297 15.3817 58.2297 15.4003 58.1286L15.4375 57.9264C15.4746 57.7242 15.5118 57.522 15.5304 57.4209C15.6831 56.8742 15.9968 56.3049 16.2919 55.8366C16.8595 54.739 17.5693 53.7199 18.0357 52.6038C18.4237 51.63 18.7478 50.4355 18.3085 49.4142C17.828 48.333 16.7717 47.8253 15.5812 47.7633C14.3495 47.6414 13.1034 47.8826 11.917 48.0826C10.8916 48.2599 9.74649 48.5196 8.7954 48.2926C8.7954 48.2926 8.65305 48.2141 8.59321 48.2554C8.55196 48.1956 8.49213 48.2368 8.49213 48.2368L8.45086 48.177C8.26725 48.0387 8.08366 47.9005 8.00115 47.7808C7.57001 47.2835 7.25855 46.7037 6.88725 46.1652C6.20449 45.0468 5.64143 43.846 4.77916 42.8514C4.10049 41.9951 2.99887 41.1656 1.85377 41.4254C0.607582 41.6666 -0.162119 42.727 -0.669804 43.7832C-1.25591 44.9819 -1.65841 46.3187 -2.18468 47.4761C-2.63253 48.4911 -3.02463 49.2029 -4.06863 49.4812C-6.53834 50.1246 -9.17493 49.1174 -11.4941 50.3633C-12.5939 50.9449 -12.8767 52.1993 -12.6169 53.3444C-12.3571 54.4895 -11.4123 55.6037 -10.6924 56.5199C-9.97246 57.436 -9.05036 58.3893 -8.56979 59.4705C-8.38209 59.8708 -8.41925 60.073 -8.49358 60.4773C-8.62775 60.923 -8.88158 61.4511 -9.11683 61.8782C-10.1549 63.8298 -12.4908 66.5879 -11.2449 68.9071C-11.1624 69.0268 -11.1212 69.0866 -11.0799 69.1464ZM-9.4684 67.7705C-9.53233 67.5497 -9.47248 67.5085 -9.43532 67.3063C-9.34241 66.8008 -9.1484 66.3139 -8.85331 65.8456C-8.28578 64.7481 -7.57591 63.729 -7.04965 62.5717C-6.54196 61.5154 -6.19521 60.4818 -6.45502 59.3367C-6.71482 58.1916 -7.61834 57.1372 -8.33826 56.221C-9.05818 55.3049 -10.0215 54.2917 -10.4609 53.2704C-10.5248 53.0496 -10.5887 52.8289 -10.6299 52.7691C-10.6299 52.7691 -10.6155 52.4059 -10.6526 52.6081L-10.6341 52.507C-10.6341 52.507 -10.634 52.507 -10.6155 52.4059C-10.6155 52.4059 -10.6155 52.4059 -10.5556 52.3647L-10.4958 52.3234C-10.5742 52.4658 -10.3761 52.2409 -10.3761 52.2409C-10.2564 52.1584 -9.97584 52.0532 -9.75507 51.9893C-8.55014 51.6882 -7.21734 51.8287 -6.00831 51.7897C-4.6982 51.7692 -3.42935 51.6889 -2.26976 51.066C-1.22985 50.5256 -0.625151 49.2259 -0.117467 48.1696C0.427383 46.9112 0.811296 45.6754 1.3974 44.4768C1.57282 44.091 1.84934 43.7238 2.14853 43.5175C2.14853 43.5175 2.14853 43.5175 2.20837 43.4762L2.2682 43.435C2.14853 43.5175 2.2682 43.435 2.36929 43.4536L2.47037 43.4721C2.57146 43.4907 2.71383 43.5692 2.71383 43.5692C3.65043 44.1593 4.25476 45.42 4.75391 46.4001C5.43667 47.5184 6.01833 48.6182 6.94043 49.5715C7.78003 50.4051 8.8508 50.5497 9.95873 50.4921C11.1678 50.4531 12.3727 50.152 13.6003 50.0119C14.1429 49.9026 14.7268 49.8532 15.2921 49.9048C15.453 49.8821 15.6552 49.9193 15.8574 49.9565L16.0596 49.9936C16.1008 50.0534 16.2432 50.1319 16.303 50.0906C16.3443 50.1505 16.3855 50.2103 16.3855 50.2103C16.4268 50.2701 16.5093 50.3898 16.4268 50.2701C16.4907 50.4909 16.5093 50.3898 16.5546 50.7117C16.5587 50.9737 16.3462 51.5617 16.1707 51.9475C15.7043 53.0636 14.9944 54.0827 14.3671 55.2215C13.878 56.1766 13.3703 57.2329 13.3681 58.3821C13.4071 59.5911 14.2508 60.6868 14.9707 61.6029C15.7731 62.6388 16.6952 63.5921 17.3182 64.7516C17.5657 65.1107 17.6523 65.4924 17.6378 65.8555C17.6564 65.7544 17.4996 66.0391 17.5594 65.9979C17.4996 66.0391 17.32 66.1629 17.2004 66.2454C16.1192 66.7259 14.7864 66.5855 13.6372 66.5832C12.3869 66.5624 11.017 66.6241 9.79347 67.0263C7.32786 67.9317 6.77446 71.2265 5.86019 73.3576C5.66618 73.8445 5.43095 74.2716 5.05334 74.6202C4.9935 74.6614 4.9935 74.6614 4.9935 74.6614L4.93366 74.7027C4.93366 74.7027 4.81399 74.7852 4.75415 74.8265C4.69431 74.8677 4.53336 74.8904 4.53336 74.8904C3.64211 74.622 3.03777 73.3613 2.56129 72.5422C1.87854 71.4239 1.35672 70.2829 0.494447 69.2883C-0.326567 68.3536 -1.24048 67.9243 -2.49076 67.9035C-3.6812 67.8415 -4.88615 68.1425 -6.01266 68.3012C-6.97825 68.4373 -8.28425 68.7198 -9.01458 68.4288C-9.05583 68.3689 -9.40038 68.2533 -9.25803 68.3317C-9.40038 68.2533 -9.40036 68.2533 -9.40036 68.2533C-9.40036 68.2533 -9.40037 68.2533 -9.44163 68.1935C-9.44572 67.9314 -9.48698 67.8716 -9.4684 67.7705Z" fill="#6D859B"/>
<path d="M-9.94286 68.3625C-9.90161 68.4223 -9.86033 68.4822 -9.81908 68.542C-8.44316 70.1536 -5.69286 69.405 -3.86279 69.1143C-2.9983 68.9597 -1.87179 68.801 -1.24256 69.0734C-0.512234 69.3644 0.0921007 70.6251 0.527325 71.3844C1.48028 73.0227 2.89932 76.1053 5.30509 75.2411C6.36768 74.8616 6.99503 73.7229 7.38304 72.7491C7.90931 71.5917 8.27465 70.457 8.80091 69.2997C9.23018 68.3858 9.66764 67.9959 10.592 67.8C11.7783 67.6 13.0698 67.6807 14.2789 67.6417C15.327 67.6253 16.5958 67.545 17.4521 66.8663C18.3683 66.1464 18.4716 65.0158 18.0921 63.9532C17.6714 62.8308 16.8504 61.8961 16.1304 60.9799C15.493 60.1834 14.6122 59.29 14.3751 58.3058L14.3338 58.246C14.3338 58.246 14.3338 58.246 14.3524 58.1449C14.3524 58.1449 14.3895 57.9427 14.3297 57.9839C14.307 57.823 14.404 57.5796 14.404 57.5796C14.598 57.0927 14.8519 56.5646 15.0871 56.1375C15.6361 55.1411 16.2263 54.2045 16.734 53.1482C17.1034 52.2755 17.4089 51.1821 17.0108 50.2206C16.5117 49.2405 15.5977 48.8113 14.5682 48.7265C13.4376 48.6232 12.2925 48.883 11.166 49.0418C10.2004 49.1778 9.21629 49.4149 8.30645 49.2477L8.1641 49.1692C8.1641 49.1692 8.12286 49.1094 8.06302 49.1507L8.02175 49.0908C7.8794 49.0124 7.75563 48.8329 7.61328 48.7545C7.2234 48.317 6.9532 47.7971 6.5819 47.2585C5.98166 46.2599 5.40001 45.1601 4.68009 44.244C4.04268 43.4475 3.08339 42.6964 1.99813 42.9149C0.853038 43.1747 0.161754 44.0927 -0.286094 45.1078C-0.853616 46.2053 -1.1777 47.3998 -1.70397 48.5572C-2.09198 49.5309 -2.46549 50.1416 -3.44965 50.3787C-5.69859 50.9582 -8.19284 50.0294 -10.3325 51.1515C-11.3724 51.6919 -11.5954 52.905 -11.3583 53.8891C-11.1397 54.9744 -10.2775 55.969 -9.59878 56.8253C-8.92012 57.6816 -8.03926 58.5751 -7.6412 59.5366C-7.45351 59.9369 -7.47209 60.0379 -7.54642 60.4423C-7.62075 60.8467 -7.91585 61.315 -8.09127 61.7008C-9.0509 63.51 -11.1887 66.0433 -10.0666 68.183C-10.0254 68.2428 -9.98412 68.3026 -9.94286 68.3625ZM-8.451 67.0691C-8.47368 66.9082 -8.4551 66.8071 -8.41793 66.6049C-8.32502 66.0994 -8.08975 65.6724 -7.91432 65.2866C-7.40664 64.2303 -6.77521 63.3535 -6.26752 62.2973C-5.77842 61.3421 -5.49149 60.3498 -5.72862 59.3656C-5.94717 58.2803 -6.80945 57.2858 -7.44686 56.4893C-8.12552 55.633 -9.00637 54.7395 -9.40443 53.778C-9.46836 53.5573 -9.55087 53.4376 -9.57354 53.2766C-9.57354 53.2766 -9.5178 52.9734 -9.59622 53.1157C-9.59622 53.1157 -9.63746 53.0559 -9.57763 53.0146C-9.57763 53.0146 -9.57762 53.0146 -9.55904 52.9136C-9.55904 52.9136 -9.55903 52.9135 -9.4992 52.8723C-9.4992 52.8723 -9.49919 52.8723 -9.43936 52.831C-9.51778 52.9734 -9.37952 52.7898 -9.31968 52.7485C-9.20001 52.666 -8.97926 52.6021 -8.75849 52.5381C-7.65465 52.2185 -6.3817 52.4002 -5.33361 52.3839C-4.12458 52.3448 -2.95682 52.246 -1.87565 51.7654C-0.895578 51.2662 -0.309472 50.0676 0.0785379 49.0938C0.544968 47.9777 0.928909 46.742 1.53769 45.7043C1.71311 45.3185 1.97103 45.0524 2.21038 44.8874C2.21038 44.8874 2.21038 44.8874 2.27022 44.8461C2.27022 44.8461 2.27021 44.8461 2.33005 44.8048C2.21038 44.8874 2.33004 44.8048 2.43114 44.8234L2.53224 44.842C2.63333 44.8606 2.77568 44.939 2.77568 44.939C3.61119 45.5106 4.13302 46.6516 4.65075 47.5306C5.251 48.5293 5.83265 49.629 6.67224 50.4626C7.42933 51.1766 8.44026 51.3624 9.48835 51.3461C10.5963 51.2885 11.7414 51.0286 12.8679 50.8699C13.3507 50.8019 13.9346 50.7525 14.3988 50.7856C14.5597 50.7629 14.7619 50.8001 14.9641 50.8372C14.9641 50.8372 15.1064 50.9157 15.1663 50.8744C15.2075 50.9342 15.3499 51.0126 15.3499 51.0126C15.3911 51.0725 15.3911 51.0725 15.4324 51.1323C15.4736 51.1922 15.5561 51.3118 15.4736 51.1922C15.5974 51.3717 15.5561 51.3118 15.5602 51.5739C15.5643 51.8359 15.4116 52.3826 15.1949 52.7085C14.7471 53.7236 14.097 54.7014 13.5481 55.6978C13.0775 56.5519 12.6297 57.567 12.6461 58.6151C12.7037 59.723 13.5061 60.7588 14.1435 61.5553C14.9047 62.5313 15.6845 63.4062 16.326 64.4647C16.5322 64.7638 16.6188 65.1455 16.6642 65.4674C16.6828 65.3663 16.5858 65.6097 16.5858 65.6097C16.5259 65.651 16.3464 65.7748 16.2866 65.816C15.3251 66.2141 14.0336 66.1334 12.9855 66.1498C11.8363 66.1476 10.586 66.1268 9.46358 66.5475C7.21874 67.389 6.70252 70.4816 5.82541 72.4105C5.59015 72.8376 5.41471 73.2234 5.1382 73.5906L5.07837 73.6318L5.01852 73.6731L4.89885 73.7556C4.83901 73.7968 4.67809 73.8195 4.73793 73.7783C3.94777 73.5285 3.32484 72.3689 2.88961 71.6096C2.28937 70.611 1.70773 69.5112 0.987807 68.5951C0.208048 67.7202 -0.604803 67.3095 -1.75399 67.3073C-2.84334 67.2638 -3.98842 67.5236 -5.01384 67.7009C-5.87833 67.8555 -7.06469 68.0555 -7.79502 67.7645C-7.79502 67.7645 -8.12096 67.5478 -8.03845 67.6675C-8.13954 67.6489 -8.18081 67.589 -8.18081 67.589C-8.18081 67.589 -8.1808 67.5891 -8.22205 67.5292C-8.42833 67.23 -8.46958 67.1702 -8.451 67.0691Z" fill="#445665"/>
<path opacity="0.5" d="M8.73507 70.2281C8.73507 70.2281 6.64636 75.9057 4.75645 76.2376C2.86655 76.5695 -0.142846 71.0522 -0.394467 70.4312C-0.646089 69.8101 2.61083 75.6864 4.50483 75.6166C6.33899 75.5879 7.95087 71.6516 8.73507 70.2281Z" fill="white"/>
<path opacity="0.5" d="M-1.8773 47.7939C-1.8773 47.7939 0.0690495 42.0379 1.9177 41.6461C3.86745 41.273 6.93672 46.7491 7.24818 47.3288C7.4998 47.9499 4.12318 42.156 2.22918 42.2259C0.316596 42.3969 -1.1942 46.3518 -1.8773 47.7939Z" fill="white"/>
<path opacity="0.5" d="M10.2375 48.9757C10.2375 48.9757 16.1239 47.654 17.4772 49.1046C18.7892 50.4954 15.7308 56.0469 15.316 56.5977C14.9012 57.1486 18.1763 51.271 17.0624 49.6554C15.9898 48.0996 11.8283 48.8501 10.2375 48.9757Z" fill="white"/>
<path opacity="0.5" d="M16.2568 60.0103C16.2568 60.0103 20.2794 64.5643 19.6828 66.3881C19.0863 68.2118 12.8164 68.2089 12.0901 68.1799C11.4237 68.1097 18.1167 68.0858 18.9566 66.3591C19.7966 64.6323 17.1046 61.368 16.2568 60.0103Z" fill="white"/>
<path opacity="0.5" d="M27.2195 36.4729C28.8839 41.0637 32.4545 46.3706 38.0046 45.4574C40.2163 45.0802 42.0858 43.4381 43.1651 41.5464C44.6179 39.0439 45.0145 36.0338 44.8684 33.133C49.4591 31.4686 54.7661 27.898 53.8529 22.348C53.4756 20.1362 51.8336 18.2668 49.9418 17.1875C47.4394 15.7346 44.4293 15.3381 41.5285 15.4842C39.8641 10.8934 36.2935 5.58642 30.7434 6.49964C28.5317 6.8769 26.6622 8.51894 25.5829 10.4107C24.1301 12.9131 23.7336 15.9233 23.8796 18.8241C19.2889 20.4885 13.9819 24.059 14.8951 29.6091C15.2724 31.8209 16.9144 33.6903 18.8062 34.7696C21.3684 36.1812 24.3785 36.5777 27.2195 36.4729ZM16.9872 29.3144C16.0078 24.6927 21.585 21.6421 25.1957 20.4769C25.7569 20.2665 26.0334 19.8993 25.984 19.3154C25.7431 15.5088 26.5961 9.44737 31.098 8.55051C35.7197 7.57113 38.7703 13.1483 39.9355 16.759C40.1459 17.3202 40.5131 17.5967 41.097 17.5473C44.9036 17.3064 50.965 18.1593 51.8619 22.6613C52.8412 27.2829 47.2641 30.3336 43.6534 31.4988C43.0922 31.7092 42.8157 32.0764 42.8651 32.6603C43.106 36.4668 42.253 42.5283 37.7511 43.4252C33.1294 44.4045 30.0788 38.8274 28.9136 35.2167C28.8682 34.8948 28.7445 34.7153 28.4598 34.5584C28.2762 34.4202 28.0327 34.3232 27.7109 34.3685C23.9455 34.6692 17.8841 33.8163 16.9872 29.3144Z" fill="#A6A6A6"/>
<path d="M26.5877 37.3497C28.2521 41.9405 31.8227 47.2475 37.3727 46.3342C39.5845 45.957 41.454 44.315 42.5333 42.4232C43.9861 39.9208 44.3826 36.9107 44.2365 34.0098C48.8273 32.3455 54.1343 28.7748 53.221 23.2248C52.8438 21.013 51.2018 19.1436 49.31 18.0643C46.8076 16.6115 43.7975 16.2149 40.8966 16.361C39.2323 11.7702 35.6616 6.46325 30.1116 7.37648C27.8998 7.75373 26.0304 9.39578 24.9511 11.2876C23.4983 13.79 23.1017 16.8001 23.2478 19.7009C18.657 21.3653 13.35 24.9359 14.2633 30.4859C14.6405 32.6977 16.2826 34.5672 18.1743 35.6465C20.7779 37.1179 23.7467 37.4546 26.5877 37.3497ZM16.3554 30.1912C15.376 25.5696 20.9532 22.5189 24.5639 21.3537C25.1251 21.1433 25.4016 20.7761 25.3522 20.1922C25.1113 16.3856 25.9642 10.3242 30.4662 9.42734C35.0878 8.44797 38.1385 14.0251 39.3037 17.6358C39.514 18.197 39.8813 18.4736 40.4651 18.4241C44.2717 18.1833 50.3332 19.0362 51.23 23.5381C52.2094 28.1597 46.6323 31.2104 43.0215 32.3756C42.4603 32.586 42.1838 32.9532 42.2333 33.5371C42.4741 37.3437 41.6212 43.4051 37.1192 44.302C32.4976 45.2814 29.447 39.7042 28.2818 36.0935C28.2364 35.7717 28.1126 35.5921 27.8279 35.4353C27.6443 35.297 27.4009 35.2 27.079 35.2454C23.3137 35.5461 17.2935 34.753 16.3554 30.1912Z" fill="#6D859B"/>
<path d="M27.2009 36.574C28.7188 40.8243 32.0006 45.7124 37.169 44.8858C39.2198 44.5312 40.951 43.0728 41.9519 41.3234C43.3263 38.9633 43.6671 36.2565 43.585 33.5764C47.8353 32.0585 52.7234 28.7767 51.8968 23.6083C51.5422 21.5575 50.0838 19.8263 48.3343 18.8254C45.9742 17.451 43.2674 17.1102 40.5873 17.1923C39.0694 12.942 35.7876 8.05394 30.6193 8.88056C28.5684 9.23515 26.8372 10.6936 25.8363 12.443C24.4619 14.8031 24.1212 17.5099 24.2033 20.19C19.953 21.7079 15.0649 24.9897 15.8915 30.1581C16.2461 32.2089 17.7045 33.9401 19.4539 34.941C21.7542 36.3566 24.5208 36.6562 27.2009 36.574ZM17.6617 29.9087C16.7689 25.6687 21.886 22.847 25.2161 21.787C25.7175 21.6179 25.994 21.2507 25.9445 20.6668C25.7078 17.1222 26.4678 11.5662 30.7077 10.6735C34.9477 9.78068 37.7694 14.8977 38.8294 18.2278C38.9985 18.7292 39.3657 19.0057 39.9496 18.9563C43.4941 18.7195 49.0502 19.4795 49.9429 23.7194C50.8357 27.9594 45.7186 30.7811 42.3885 31.8411C41.8872 32.0102 41.6107 32.3774 41.6601 32.9613C41.8969 36.5059 41.1369 42.0619 36.8969 42.9547C32.657 43.8474 29.8353 38.7304 28.7753 35.4003C28.7299 35.0784 28.5463 34.9402 28.3627 34.8019C28.1791 34.6637 27.9357 34.5666 27.6551 34.6718C24.1105 34.9086 18.5545 34.1486 17.6617 29.9087Z" fill="#445665"/>
<path opacity="0.5" d="M39.6182 14.5059C39.6182 14.5059 35.3321 5.98444 29.7758 7.78483C24.2194 9.58521 23.7352 19.8948 23.7352 19.8948C23.7352 19.8948 24.8219 9.43469 29.885 8.32746C34.7274 7.28416 39.6182 14.5059 39.6182 14.5059Z" fill="white"/>
<path opacity="0.5" d="M46.2487 32.4461C46.2487 32.4461 54.7702 28.16 52.9698 22.6037C51.1694 17.0473 40.8598 16.5631 40.8598 16.5631C40.8598 16.5631 51.32 17.6497 52.4272 22.7129C53.5716 27.5739 46.2487 32.4461 46.2487 32.4461Z" fill="white"/>
<path opacity="0.5" d="M24.4798 36.5964C24.4798 36.5964 14.9295 35.6769 14.6374 29.8753C14.3452 24.0736 23.7951 19.8536 23.7951 19.8536C23.7951 19.8536 14.4545 24.6162 15.2398 29.7247C15.9427 34.7136 24.4798 36.5964 24.4798 36.5964Z" fill="white"/>
<path opacity="0.5" d="M43.6071 36.2977C43.6071 36.2977 42.6877 45.848 36.886 46.1402C31.0844 46.4324 26.8644 36.9825 26.8644 36.9825C26.8644 36.9825 31.627 46.3231 36.7355 45.5377C41.6645 44.8761 43.6071 36.2977 43.6071 36.2977Z" fill="white"/>
</svg>
