<svg width="132" height="162" viewBox="0 0 132 162" fill="none" xmlns="http://www.w3.org/2000/svg">
<path opacity="0.5" d="M35.8241 69.6361C37.1241 66.9361 37.9241 64.0361 37.9241 61.0361C37.8241 58.5361 37.0241 56.2361 35.4241 54.3361C33.6241 52.2361 30.8241 51.2361 28.1241 50.9361C28.0241 50.9361 28.0241 50.9361 27.9241 50.9361C27.8241 50.9361 27.8241 50.9361 27.7241 50.9361C24.7241 50.6361 21.6241 51.6361 18.9241 53.1361C18.9241 51.3361 18.7241 49.5361 18.2241 47.7361C17.7241 45.6361 16.4241 43.8361 14.9241 42.3361C12.3241 39.8361 8.72408 39.0361 5.32409 40.2361C1.42409 41.5361 -1.47591 44.7361 -3.67592 48.0361C-5.47591 50.7361 -6.17591 53.6361 -6.27591 56.8361C-6.57591 63.1361 -5.07592 69.5361 -3.47592 75.5361C-2.57592 78.9361 -1.57591 82.4361 -0.275906 85.7361C0.0240941 86.5361 0.624091 86.8361 1.42409 86.7361C5.42409 86.0361 9.42409 85.0361 13.3241 83.8361C19.7241 81.9361 26.7241 79.6361 31.9241 75.3361C33.6241 73.6361 34.8241 71.8361 35.8241 69.6361ZM27.0241 75.1361C24.1241 76.9361 20.9241 78.2361 17.7241 79.3361C12.6241 81.1361 7.22408 82.6361 1.82409 83.6361C0.624085 80.2361 -0.375906 76.6361 -1.27591 73.1361C-2.17591 69.7361 -2.87591 66.3361 -3.27591 62.9361C-3.67591 59.8361 -3.87592 56.6361 -3.17592 53.6361C-2.67592 51.1361 -1.17592 48.9361 0.524082 46.9361C2.32408 44.8361 4.62409 43.0361 7.32409 42.5361C9.72408 42.0361 11.9241 43.2361 13.6241 44.9361C16.3241 47.8361 16.3241 52.0361 16.1241 55.7361C16.0241 56.7361 17.4241 57.5361 18.2241 56.9361C20.9241 55.0361 24.2241 53.3361 27.7241 53.7361C30.8241 54.2361 33.8241 55.6361 34.8241 58.8361C35.9241 62.3361 34.6241 66.2361 33.0241 69.3361C31.6241 71.8361 29.6241 73.6361 27.0241 75.1361Z" fill="#A6A6A6"/>
<path d="M37.6241 70.2361C38.9241 67.5361 39.7242 64.6361 39.7242 61.6361C39.6242 59.1361 38.8242 56.8361 37.2242 54.9361C35.4242 52.8361 32.6242 51.8361 29.9242 51.5361C29.8242 51.5361 29.8242 51.5361 29.7242 51.5361C29.6242 51.5361 29.6241 51.5361 29.5241 51.5361C26.5241 51.2361 23.4242 52.2361 20.7242 53.7361C20.7242 51.9361 20.5241 50.1361 20.0241 48.3361C19.5241 46.2361 18.2242 44.4361 16.7242 42.9361C14.1242 40.4361 10.5241 39.6361 7.12415 40.8361C3.22415 42.1361 0.324149 45.3361 -1.87585 48.6361C-3.67585 51.3361 -4.37586 54.2361 -4.47586 57.4361C-4.77586 63.7361 -3.27585 70.1361 -1.67585 76.1361C-0.775855 79.5361 0.224143 83.0361 1.52414 86.3361C1.82414 87.1361 2.42415 87.4361 3.22415 87.3361C7.22416 86.6361 11.2241 85.6361 15.1241 84.4361C21.5241 82.5361 28.5242 80.2361 33.7242 75.9361C35.4242 74.2361 36.6241 72.4361 37.6241 70.2361ZM28.8241 75.7361C25.9241 77.5361 22.7241 78.8361 19.5241 79.9361C14.4241 81.7361 9.02415 83.2361 3.62415 84.2361C2.42415 80.8361 1.42414 77.2361 0.524143 73.7361C-0.375857 70.3361 -1.07586 66.9361 -1.47586 63.5361C-1.87586 60.4361 -2.07585 57.2361 -1.37585 54.2361C-0.875851 51.7361 0.624146 49.5361 2.32415 47.5361C4.12415 45.4361 6.42415 43.6361 9.12415 43.1361C11.5241 42.6361 13.7242 43.8361 15.4242 45.5361C18.1242 48.4361 18.1242 52.6361 17.9242 56.3361C17.8242 57.3361 19.2241 58.1361 20.0241 57.5361C22.7241 55.6361 26.0241 53.9361 29.5241 54.3361C32.6241 54.8361 35.6241 56.2361 36.6241 59.4361C37.7241 62.9361 36.4241 66.8361 34.8241 69.9361C33.4241 72.5361 31.4241 74.2361 28.8241 75.7361Z" fill="#6D859B"/>
<path d="M35.5241 70.0361C36.6241 67.5361 37.4241 64.8361 37.4241 62.1361C37.4241 59.8361 36.6241 57.7361 35.1241 56.0361C33.4241 54.1361 30.9241 53.2361 28.4241 52.9361C28.3241 52.9361 28.3241 52.9361 28.2241 52.9361C28.1241 52.9361 28.1241 52.9361 28.0241 52.9361C25.2241 52.6361 22.4241 53.5361 20.0241 54.9361C20.0241 53.2361 19.8241 51.6361 19.4241 50.0361C18.9241 48.1361 17.8241 46.4361 16.3241 45.1361C13.9241 42.8361 10.6241 42.1361 7.52411 43.1361C4.02411 44.3361 1.32412 47.2361 -0.775877 50.2361C-2.37588 52.7361 -3.07589 55.3361 -3.17589 58.2361C-3.37589 63.9361 -2.07588 69.8361 -0.57588 75.3361C0.22412 78.4361 1.22411 81.6361 2.32411 84.6361C2.62411 85.3361 3.12412 85.6361 3.92412 85.5361C7.62412 84.8361 11.2241 83.9361 14.8241 82.9361C20.7241 81.2361 27.0241 79.1361 31.8241 75.1361C33.5241 73.6361 34.6241 71.9361 35.5241 70.0361ZM27.5241 75.0361C24.8241 76.6361 21.9241 77.8361 19.0241 78.8361C14.3241 80.5361 9.42411 81.8361 4.52411 82.7361C3.42411 79.6361 2.52412 76.3361 1.62412 73.1361C0.824117 70.0361 0.224114 66.9361 -0.175886 63.7361C-0.475886 60.9361 -0.67588 57.9361 -0.0758801 55.2361C0.42412 52.9361 1.72411 50.9361 3.32411 49.1361C4.92411 47.2361 7.02411 45.6361 9.52411 45.1361C11.7241 44.7361 13.7241 45.7361 15.2241 47.3361C17.7241 49.9361 17.7241 53.8361 17.5241 57.2361C17.4241 58.1361 18.6241 58.8361 19.4241 58.3361C21.9241 56.5361 24.9241 55.1361 28.0241 55.3361C30.9241 55.7361 33.5241 57.0361 34.5241 59.9361C35.5241 63.1361 34.3241 66.7361 32.9241 69.5361C31.7241 72.0361 29.9241 73.6361 27.5241 75.0361Z" fill="#445665"/>
<path opacity="0.5" d="M20.5242 53.8361C20.5242 53.8361 20.0242 41.2361 11.4242 41.3361C2.82418 41.3361 -4.37582 50.1361 -3.87582 56.8361C-3.37582 63.5361 1.52417 84.8361 1.52417 84.8361C1.52417 84.8361 -3.27581 60.8361 -2.77581 55.9361C-2.37581 51.0361 2.02418 45.7361 6.42418 43.6361C9.12418 42.3361 12.6242 42.4361 14.7242 43.6361C16.8242 44.8361 20.7242 51.6361 20.5242 53.8361Z" fill="white"/>
<path opacity="0.5" d="M21.1241 54.2361C21.1241 54.2361 32.4241 48.4361 36.7241 55.8361C41.0241 63.2361 37.1241 73.9361 31.1241 76.9361C25.1241 79.9361 4.22412 86.4361 4.22412 86.4361C4.22412 86.4361 27.3241 78.3361 31.3241 75.5361C35.3241 72.6361 37.7241 66.2361 37.3241 61.3361C37.0241 58.4361 35.1241 55.3361 33.0241 54.1361C30.9241 52.9361 22.9241 52.9361 21.1241 54.2361Z" fill="white"/>
<path opacity="0.5" d="M56.9238 23.236C56.9238 23.036 56.9238 22.936 56.8238 22.736C56.7238 21.836 56.3238 21.136 55.8238 20.436C55.2238 19.636 54.3238 18.936 54.0238 18.036C53.7238 17.236 54.0238 16.136 54.1238 15.336C54.3238 14.136 54.4238 12.936 53.9238 11.836C52.9238 9.93601 50.8238 9.63601 49.1238 8.83601C48.4238 8.43601 48.1238 7.836 47.8238 7.136C47.4238 6.136 47.1238 5.13601 46.5238 4.33601C45.1238 2.23601 42.7238 2.63601 40.5238 2.93601C39.6238 3.13601 38.9238 3.03599 38.1238 2.53599C37.2238 1.93599 36.5238 1.13599 35.5238 0.53599C33.3238 -0.76401 31.3238 0.536014 29.6238 1.93601C28.9238 2.43601 28.3238 3.03599 27.5238 3.03599C26.4238 3.03599 25.3238 2.736 24.1238 2.636C21.7238 2.536 20.4238 4.236 19.7238 6.236C19.4238 6.936 19.2238 7.83601 18.7238 8.43601C18.1238 9.03601 17.1238 9.23599 16.3238 9.53599C14.2238 10.336 12.8238 11.736 12.9238 14.136C13.0238 15.136 13.3238 16.236 13.3238 17.236C13.3238 18.236 12.6238 18.936 12.0238 19.536C10.5238 21.336 9.62384 23.236 10.9238 25.436C11.4238 26.336 12.1238 27.036 12.7238 27.836C13.3238 28.636 13.3238 29.436 13.1238 30.436C12.7238 32.736 12.6238 34.836 14.7238 36.236C16.1238 37.236 18.3238 37.136 19.1238 38.836C20.0238 40.636 20.3238 42.836 22.4238 43.636C23.4238 44.036 24.5238 43.936 25.5238 43.736C26.4238 43.636 27.5238 43.236 28.3238 43.636C30.2238 44.536 31.3238 46.636 33.7238 46.536C34.8238 46.436 35.7238 45.836 36.6238 45.236C37.3238 44.636 38.1238 43.836 39.0238 43.536C39.8238 43.236 41.0238 43.636 41.8238 43.736C43.0238 43.936 44.1238 43.936 45.2238 43.336C47.0238 42.436 47.2238 40.036 48.1238 38.436C48.5238 37.736 49.2238 37.536 49.9238 37.236C50.9238 36.836 51.9238 36.536 52.8238 35.836C54.7238 34.336 54.1238 32.036 53.8238 29.936C53.6238 28.536 54.1238 27.836 55.0238 26.836C55.8238 25.836 56.5238 24.836 56.7238 23.636C56.9238 23.636 56.9238 23.436 56.9238 23.236ZM52.8238 25.336C52.1238 26.236 51.4238 27.036 51.2238 28.136C51.0238 29.236 51.2238 30.336 51.4238 31.436C51.5238 32.236 51.8238 33.236 51.1238 33.836C50.5238 34.336 49.5238 34.536 48.8238 34.836C47.8238 35.236 46.9238 35.636 46.2238 36.436C45.6238 37.236 45.2238 38.136 44.9238 39.136C44.7238 39.736 44.4238 40.836 43.8238 41.036C43.0238 41.336 41.9238 40.936 41.0238 40.836C39.8238 40.636 38.6238 40.636 37.5238 41.136C36.6238 41.536 35.8238 42.336 35.0238 42.936C34.4238 43.436 33.7238 43.936 32.9238 43.536C32.0238 43.136 31.3238 42.336 30.5238 41.736C29.6238 41.036 28.6238 40.736 27.4238 40.636C26.4238 40.636 25.3238 40.936 24.3238 41.036C23.3238 41.136 22.9238 40.836 22.5238 40.036C21.6238 38.236 21.3238 36.336 19.4238 35.236C18.6238 34.736 17.7238 34.536 16.8238 34.136C15.9238 33.736 15.5238 33.436 15.5238 32.536C15.5238 31.536 15.8238 30.436 15.9238 29.436C16.0238 28.336 15.6238 27.236 15.0238 26.336C14.4238 25.536 13.7238 24.836 13.2238 23.936C12.7238 23.136 13.0238 22.536 13.6238 21.836C14.2238 21.036 14.9238 20.236 15.5238 19.336C16.1238 18.336 16.1238 17.136 15.9238 16.036C15.8238 15.136 15.4238 14.036 15.6238 13.136C15.7238 12.336 16.8238 12.136 17.4238 11.836C18.3238 11.536 19.2238 11.236 20.0238 10.636C20.9238 10.036 21.4238 9.03599 21.8238 8.03599C22.1238 7.23599 22.4238 6.336 22.8238 5.636C23.2238 4.936 24.2238 5.136 24.9238 5.236C25.9238 5.436 26.8238 5.63599 27.8238 5.53599C28.9238 5.43599 29.7238 4.93601 30.6238 4.33601C31.3238 3.73601 32.0238 3.136 32.8238 2.636C33.5238 2.236 34.1238 2.636 34.7238 3.136C36.4238 4.436 37.7238 5.63599 39.9238 5.53599C40.9238 5.43599 41.8238 5.236 42.8238 5.136C43.7238 5.036 44.0238 5.436 44.3238 6.236C45.1238 7.936 45.4238 9.636 47.0238 10.736C47.7238 11.236 48.6238 11.536 49.4238 11.836C49.9238 12.036 50.9238 12.336 51.1238 12.836C51.4238 13.536 51.1238 14.536 50.9238 15.336C50.7238 16.436 50.6238 17.436 50.9238 18.536C51.2238 19.436 51.8238 20.236 52.4238 20.936C52.9238 21.536 53.7238 22.236 53.7238 23.036C54.1238 24.036 53.3238 24.736 52.8238 25.336Z" fill="#A6A6A6"/>
<path d="M58.6238 23.236C58.6238 23.036 58.6238 22.936 58.5238 22.736C58.4238 21.836 58.0238 21.136 57.5238 20.436C56.9238 19.636 56.0238 18.936 55.7238 18.036C55.4238 17.236 55.7238 16.136 55.8238 15.336C56.0238 14.136 56.1238 12.936 55.6238 11.836C54.6238 9.93601 52.5238 9.63601 50.8238 8.83601C50.1238 8.43601 49.8238 7.836 49.5238 7.136C49.1238 6.136 48.8238 5.13601 48.2238 4.33601C46.8238 2.23601 44.4238 2.63601 42.2238 2.93601C41.3238 3.13601 40.6238 3.03599 39.8238 2.53599C38.9238 1.93599 38.2238 1.13599 37.2238 0.53599C35.0238 -0.76401 33.0238 0.536014 31.3238 1.93601C30.6238 2.43601 30.0238 3.03599 29.2238 3.03599C28.1238 3.03599 27.0238 2.736 25.8238 2.636C23.4238 2.536 22.1238 4.236 21.4238 6.236C21.1238 6.936 20.9238 7.83601 20.4238 8.43601C19.8238 9.03601 18.8238 9.23599 18.0238 9.53599C15.9238 10.336 14.5238 11.736 14.6238 14.136C14.7238 15.136 15.0238 16.236 15.0238 17.236C15.0238 18.236 14.3238 18.936 13.7238 19.536C12.2238 21.336 11.3238 23.236 12.6238 25.436C13.1238 26.336 13.8238 27.036 14.4238 27.836C15.0238 28.636 15.0238 29.436 14.8238 30.436C14.4238 32.736 14.3238 34.836 16.4238 36.236C17.8238 37.236 20.0238 37.136 20.8238 38.836C21.7238 40.636 22.0238 42.836 24.1238 43.636C25.1238 44.036 26.2238 43.936 27.2238 43.736C28.1238 43.636 29.2238 43.236 30.0238 43.636C31.9238 44.536 33.0238 46.636 35.4238 46.536C36.5238 46.436 37.4238 45.836 38.3238 45.236C39.0238 44.636 39.8238 43.836 40.7238 43.536C41.5238 43.236 42.7238 43.636 43.5238 43.736C44.7238 43.936 45.8238 43.936 46.9238 43.336C48.7238 42.436 48.9238 40.036 49.8238 38.436C50.2238 37.736 50.9238 37.536 51.6238 37.236C52.6238 36.836 53.6238 36.536 54.5238 35.836C56.4238 34.336 55.8238 32.036 55.5238 29.936C55.3238 28.536 55.8238 27.836 56.7238 26.836C57.5238 25.836 58.2238 24.836 58.4238 23.636C58.6238 23.636 58.6238 23.436 58.6238 23.236ZM54.5238 25.336C53.8238 26.236 53.1238 27.036 52.9238 28.136C52.7238 29.236 52.9238 30.336 53.1238 31.436C53.2238 32.236 53.5238 33.236 52.8238 33.836C52.2238 34.336 51.2238 34.536 50.5238 34.836C49.5238 35.236 48.6238 35.636 47.9238 36.436C47.3238 37.236 46.9238 38.136 46.6238 39.136C46.4238 39.736 46.1238 40.836 45.5238 41.036C44.7238 41.336 43.6238 40.936 42.7238 40.836C41.5238 40.636 40.3238 40.636 39.3238 41.136C38.4238 41.536 37.6238 42.336 36.8238 42.936C36.2238 43.436 35.5238 43.936 34.7238 43.536C33.8238 43.136 33.1238 42.336 32.3238 41.736C31.4238 41.036 30.4238 40.736 29.2238 40.636C28.2238 40.636 27.1238 40.936 26.1238 41.036C25.1238 41.136 24.7238 40.836 24.3238 40.036C23.4238 38.236 23.1238 36.336 21.2238 35.236C20.4238 34.736 19.5238 34.536 18.6238 34.136C17.7238 33.736 17.3238 33.436 17.3238 32.536C17.3238 31.536 17.6238 30.436 17.7238 29.436C17.8238 28.336 17.4238 27.236 16.8238 26.336C16.2238 25.536 15.5238 24.836 15.0238 23.936C14.5238 23.136 14.8238 22.536 15.4238 21.836C16.0238 21.036 16.7238 20.236 17.3238 19.336C17.9238 18.336 17.9238 17.136 17.7238 16.036C17.6238 15.136 17.2238 14.036 17.4238 13.136C17.5238 12.336 18.6238 12.136 19.2238 11.836C20.1238 11.536 21.0238 11.236 21.8238 10.636C22.7238 10.036 23.2238 9.03599 23.6238 8.03599C23.9238 7.23599 24.2238 6.336 24.6238 5.636C25.0238 4.936 26.0238 5.136 26.7238 5.236C27.7238 5.436 28.6238 5.63599 29.6238 5.53599C30.7238 5.43599 31.5238 4.93601 32.4238 4.33601C33.1238 3.73601 33.8238 3.136 34.6238 2.636C35.3238 2.236 35.9238 2.636 36.5238 3.136C38.2238 4.436 39.5238 5.63599 41.7238 5.53599C42.7238 5.43599 43.6238 5.236 44.6238 5.136C45.5238 5.036 45.8238 5.436 46.1238 6.236C46.9238 7.936 47.2238 9.636 48.8238 10.736C49.5238 11.236 50.4238 11.536 51.2238 11.836C51.7238 12.036 52.7238 12.336 52.9238 12.836C53.2238 13.536 52.9238 14.536 52.7238 15.336C52.5238 16.436 52.4238 17.436 52.7238 18.536C53.0238 19.436 53.6238 20.236 54.2238 20.936C54.7238 21.536 55.5238 22.236 55.5238 23.036C55.7238 24.036 55.0238 24.736 54.5238 25.336Z" fill="#6D859B"/>
<path d="M56.4237 23.236C56.4237 23.036 56.4237 22.936 56.3237 22.836C56.2237 22.036 55.8237 21.336 55.4237 20.736C54.9237 20.036 54.1237 19.336 53.7237 18.536C53.4237 17.736 53.7237 16.836 53.8237 16.036C54.0237 15.036 54.1237 13.836 53.6237 12.936C52.7237 11.236 50.8237 10.936 49.2237 10.236C48.6237 9.936 48.3237 9.336 48.0237 8.736C47.7237 7.836 47.4237 6.93599 46.8237 6.13599C45.5237 4.23599 43.4237 4.53601 41.4237 4.93601C40.5237 5.03601 40.0237 5.03598 39.3237 4.53598C38.5237 3.93598 37.8237 3.236 36.9237 2.736C34.9237 1.636 33.1237 2.73598 31.6237 4.03598C31.0237 4.53598 30.5237 5.03598 29.7237 5.03598C28.7237 5.03598 27.7237 4.73599 26.7237 4.63599C24.5237 4.53599 23.4237 6.13601 22.7237 7.93601C22.4237 8.63601 22.3237 9.33601 21.8237 9.93601C21.3237 10.536 20.3237 10.736 19.6237 10.936C17.7237 11.636 16.4237 12.936 16.5237 15.136C16.6237 16.036 16.8237 17.036 16.9237 17.936C16.9237 18.836 16.3237 19.436 15.8237 20.036C14.4237 21.636 13.6237 23.336 14.8237 25.336C15.3237 26.136 15.9237 26.736 16.5237 27.536C17.1237 28.336 17.0237 29.036 16.9237 29.936C16.6237 32.036 16.4237 33.936 18.3237 35.236C19.6237 36.136 21.5237 36.036 22.3237 37.636C23.1237 39.236 23.3237 41.236 25.3237 41.936C26.2237 42.236 27.2237 42.136 28.1237 42.036C28.9237 41.936 29.9237 41.536 30.7237 41.936C32.4237 42.736 33.5237 44.636 35.6237 44.536C36.6237 44.436 37.4237 43.936 38.2237 43.336C38.9237 42.836 39.5237 42.036 40.4237 41.836C41.2237 41.636 42.2237 41.936 42.9237 42.036C44.0237 42.236 45.0237 42.236 46.0237 41.736C47.6237 40.936 47.9237 38.736 48.7237 37.236C49.0237 36.636 49.7237 36.436 50.3237 36.136C51.2237 35.836 52.1237 35.436 52.9237 34.836C54.6237 33.436 54.1237 31.336 53.9237 29.536C53.7237 28.236 54.2237 27.636 55.0237 26.736C55.7237 25.836 56.4237 24.936 56.6237 23.836C56.4237 23.536 56.4237 23.436 56.4237 23.236ZM52.7237 25.136C52.1237 25.936 51.4237 26.736 51.2237 27.736C51.0237 28.736 51.2237 29.736 51.4237 30.736C51.5237 31.436 51.8237 32.336 51.1237 32.836C50.6237 33.336 49.7237 33.436 49.0237 33.736C48.1237 34.036 47.3237 34.436 46.7237 35.236C46.1237 35.936 45.8237 36.836 45.5237 37.636C45.3237 38.136 45.1237 39.136 44.5237 39.436C43.8237 39.736 42.7237 39.336 42.0237 39.236C40.9237 39.036 39.9237 39.036 38.9237 39.536C38.1237 39.936 37.4237 40.536 36.7237 41.136C36.1237 41.636 35.5237 42.036 34.8237 41.736C34.0237 41.336 33.3237 40.636 32.6237 40.136C31.8237 39.536 30.9237 39.236 29.8237 39.136C28.9237 39.136 27.9237 39.436 27.0237 39.536C26.1237 39.636 25.8237 39.336 25.4237 38.636C24.6237 36.936 24.3237 35.336 22.6237 34.336C21.9237 33.936 21.0237 33.736 20.3237 33.336C19.5237 33.036 19.1237 32.736 19.2237 31.836C19.2237 30.936 19.5237 29.936 19.6237 29.036C19.7237 28.036 19.4237 27.036 18.8237 26.236C18.3237 25.436 17.6237 24.836 17.1237 24.036C16.6237 23.336 16.9237 22.736 17.4237 22.136C18.0237 21.436 18.6237 20.736 19.1237 19.936C19.6237 19.036 19.6237 17.936 19.5237 16.936C19.4237 16.136 19.1237 15.136 19.2237 14.336C19.3237 13.636 20.3237 13.436 20.8237 13.136C21.6237 12.836 22.4237 12.536 23.2237 12.036C24.0237 11.436 24.5237 10.636 24.9237 9.736C25.2237 9.036 25.4237 8.23598 25.8237 7.53598C26.2237 6.83598 27.1237 7.136 27.7237 7.236C28.6237 7.336 29.5237 7.53598 30.4237 7.53598C31.4237 7.43598 32.2237 7.03601 32.9237 6.43601C33.6237 5.93601 34.2237 5.33601 34.9237 4.93601C35.5237 4.53601 36.1237 4.936 36.6237 5.336C38.1237 6.536 39.3237 7.63601 41.3237 7.43601C42.2237 7.33601 43.0237 7.13599 43.9237 7.13599C44.7237 7.13599 45.0237 7.43599 45.3237 8.13599C46.1237 9.63599 46.3237 11.236 47.8237 12.236C48.4237 12.736 49.3237 12.936 50.0237 13.236C50.5237 13.436 51.4237 13.636 51.6237 14.236C51.9237 14.936 51.6237 15.836 51.5237 16.536C51.3237 17.536 51.2237 18.436 51.5237 19.436C51.8237 20.236 52.3237 20.936 52.9237 21.636C53.3237 22.136 54.0237 22.836 54.1237 23.536C53.9237 23.936 53.2237 24.636 52.7237 25.136Z" fill="#445665"/>
<path opacity="0.5" d="M21.4238 8.23599C21.4238 8.23599 21.8238 4.836 23.6238 3.436C25.5238 1.936 29.4238 4.13599 29.4238 4.13599C29.4238 4.13599 26.0238 2.83599 24.2238 4.13599C22.3238 5.43599 21.4238 8.23599 21.4238 8.23599Z" fill="white"/>
<path opacity="0.5" d="M41.0239 4.33601C41.0239 4.33601 43.9239 2.63601 46.2239 3.23601C48.5239 3.83601 49.0239 8.33601 49.0239 8.33601C49.0239 8.33601 48.0239 4.836 45.9239 4.136C43.8239 3.436 41.0239 4.33601 41.0239 4.33601Z" fill="white"/>
<path opacity="0.5" d="M21.4238 37.836C21.4238 37.836 21.8238 41.236 23.6238 42.836C25.5238 44.336 29.4238 42.036 29.4238 42.036C29.4238 42.036 26.0238 43.336 24.2238 42.036C22.3238 40.736 21.4238 37.836 21.4238 37.836Z" fill="white"/>
<path opacity="0.5" d="M16.4239 28.736C16.4239 28.736 14.8239 31.836 15.4239 34.136C16.1239 36.436 20.6239 36.736 20.6239 36.736C20.6239 36.736 17.1239 35.936 16.3239 33.836C15.5239 31.636 16.4239 28.736 16.4239 28.736Z" fill="white"/>
<path opacity="0.5" d="M16.2238 18.436C16.2238 18.436 13.3238 20.336 12.7238 22.636C12.2238 24.936 16.0238 27.436 16.0238 27.436C16.0238 27.436 13.3238 25.036 13.7238 22.736C14.1238 20.536 16.2238 18.436 16.2238 18.436Z" fill="white"/>
<path opacity="0.5" d="M21.5239 9.53599C21.5239 9.53599 18.0239 9.436 16.3239 11.136C14.5239 12.836 16.3239 16.936 16.3239 16.936C16.3239 16.936 15.4239 13.436 17.0239 11.736C18.5239 10.136 21.5239 9.53599 21.5239 9.53599Z" fill="white"/>
<path opacity="0.5" d="M54.2239 28.736C54.2239 28.736 55.8239 31.836 55.2239 34.136C54.5239 36.436 50.0239 36.736 50.0239 36.736C50.0239 36.736 53.5239 35.936 54.3239 33.836C55.0239 31.636 54.2239 28.736 54.2239 28.736Z" fill="white"/>
<path opacity="0.5" d="M54.3237 18.436C54.3237 18.436 57.2237 20.336 57.8237 22.636C58.3237 24.936 54.5237 27.436 54.5237 27.436C54.5237 27.436 57.2237 25.036 56.8237 22.736C56.5237 20.536 54.3237 18.436 54.3237 18.436Z" fill="white"/>
<path opacity="0.5" d="M49.1238 9.53599C49.1238 9.53599 52.6238 9.436 54.3238 11.136C56.1238 12.836 54.3238 16.936 54.3238 16.936C54.3238 16.936 55.2238 13.436 53.6238 11.736C52.1238 10.136 49.1238 9.53599 49.1238 9.53599Z" fill="white"/>
<path opacity="0.5" d="M41.0239 41.936C41.0239 41.936 43.9239 43.636 46.2239 43.036C48.5239 42.436 49.0239 37.836 49.0239 37.836C49.0239 37.836 48.0239 41.436 45.9239 42.136C43.8239 42.836 41.0239 41.936 41.0239 41.936Z" fill="white"/>
<path opacity="0.5" d="M30.7239 42.836C30.7239 42.836 32.5239 45.736 34.8239 46.236C37.1239 46.736 39.7239 42.936 39.7239 42.936C39.7239 42.936 37.2239 45.636 35.0239 45.336C32.7239 44.936 30.7239 42.836 30.7239 42.836Z" fill="white"/>
<path opacity="0.5" d="M30.9238 4.03597C30.9238 4.03597 32.7238 1.13598 35.0238 0.635981C37.3238 0.135981 39.9238 3.936 39.9238 3.936C39.9238 3.936 37.4238 1.23597 35.2238 1.53597C32.9238 1.93597 30.9238 4.03597 30.9238 4.03597Z" fill="white"/>
<path opacity="0.3" d="M-2.47611 150.236C-0.676107 150.736 1.1239 150.636 2.8239 149.936C2.4239 151.436 2.4239 153.036 2.8239 154.636C3.6239 157.536 6.0239 159.836 8.9239 160.636C11.8239 161.436 14.8239 160.536 17.0239 158.636C19.3239 156.636 20.1239 153.536 19.6239 150.636C19.5239 150.336 19.5239 149.936 19.4239 149.636C20.1239 149.636 20.9239 149.336 21.4239 148.736C21.4239 148.736 22.8239 145.336 21.7239 144.336C20.1239 142.836 17.8239 140.736 15.4239 138.636L15.6239 138.436L15.8239 138.136L39.8239 111.736L49.6239 120.636C50.4239 121.336 51.5239 121.436 52.2239 120.636C52.6239 120.236 53.3239 119.136 53.8239 117.936L99.2239 68.036C99.3239 67.936 99.1239 67.536 98.7239 67.036C98.1239 66.236 97.0239 65.036 95.6239 63.636C95.2239 63.236 94.8239 62.836 94.3239 62.336C94.2239 62.236 94.0239 62.036 93.9239 61.936L113.024 34.536C113.424 34.136 113.624 33.736 113.824 33.236C114.424 31.736 114.024 29.936 112.724 28.736C111.824 27.936 110.624 27.536 109.524 27.736C108.524 27.836 107.624 28.236 106.924 29.036L81.9239 50.736C81.8239 50.636 81.7239 50.636 81.6239 50.536C81.5239 50.436 81.4239 50.336 81.2239 50.236C81.0239 50.136 80.9239 49.936 80.7239 49.836C80.6239 49.736 80.5239 49.636 80.4239 49.536C80.2239 49.436 80.1239 49.236 79.9239 49.136C79.8239 49.036 79.7239 49.036 79.6239 48.936C79.4239 48.836 79.3239 48.636 79.1239 48.536C79.0239 48.536 79.0239 48.436 78.9239 48.436C78.7239 48.336 78.6239 48.136 78.4239 48.036C76.9239 46.836 75.8239 46.136 75.4239 46.036C75.3239 46.036 75.2239 46.036 75.2239 46.036L29.8239 95.936C28.7239 96.536 27.6239 97.436 27.3239 97.836C26.6239 98.636 26.7239 99.736 27.5239 100.436L37.3239 109.336L13.0239 136.036L12.8239 136.236C10.4239 134.036 8.12389 131.936 6.52389 130.436C5.42389 129.436 2.2239 131.136 2.2239 131.136C1.7239 131.736 1.42389 132.536 1.52389 133.236C-1.47611 132.536 -4.6761 133.636 -6.77609 135.836C-8.77609 138.036 -9.4761 141.136 -8.6761 144.036C-7.7761 147.136 -5.27611 149.436 -2.47611 150.236ZM8.72391 140.736C8.5239 140.636 8.4239 140.536 8.3239 140.336L8.72391 140.736ZM13.5239 145.936C16.2239 146.936 17.8239 149.536 17.8239 152.336C17.8239 155.136 15.9239 157.636 13.4239 158.536C10.7239 159.536 7.82389 158.636 6.02389 156.536C3.82389 154.036 4.0239 150.236 6.1239 147.736C6.2239 147.636 6.3239 147.536 6.3239 147.436C8.2239 145.636 11.0239 144.936 13.5239 145.936ZM2.2239 135.536C4.9239 136.536 6.52389 139.136 6.52389 141.936C6.52389 144.736 4.6239 147.236 2.1239 148.136C-0.576101 149.136 -3.4761 148.236 -5.27609 146.136C-7.47609 143.636 -7.2761 139.736 -5.0761 137.236C-3.2761 135.336 -0.376095 134.536 2.2239 135.536Z" fill="#949597"/>
<path d="M120.624 29.736C122.124 28.036 124.724 27.936 126.424 29.436C128.124 30.936 128.224 33.536 126.724 35.236L107.324 63.036C105.824 64.736 100.524 62.436 98.8237 60.836C97.1237 59.336 93.6237 53.636 95.1237 51.936L120.624 29.736Z" fill="white"/>
<path opacity="0.2" d="M131.324 29.136C130.424 29.736 112.124 56.336 107.224 51.536C102.324 46.736 125.624 26.336 125.624 26.336C125.624 26.336 120.724 21.536 119.324 22.636C117.924 23.836 85.1238 50.336 85.1238 50.336L100.924 69.936L109.924 72.936L131.324 29.136Z" fill="#A6A6A6"/>
<path d="M52.924 108.336C53.524 107.636 54.524 107.636 55.224 108.236C55.924 108.836 55.924 109.836 55.324 110.536L29.224 139.236C28.624 139.936 27.624 139.936 26.924 139.336C26.224 138.736 26.224 137.736 26.824 137.036L52.924 108.336Z" fill="#3F4041"/>
<path opacity="0.2" d="M25.4427 139.903L25.8125 140.239L54.0785 109.176L53.7087 108.839L25.4427 139.903Z" fill="white"/>
<path opacity="0.2" d="M25.045 139.488L26.7461 141.037L55.0163 109.973L53.3152 108.425L25.045 139.488Z" fill="white"/>
<path opacity="0.5" d="M26.2704 137.564L28.7114 139.784L31.0666 137.195L28.6256 134.975L26.2704 137.564Z" fill="#A6A6A6"/>
<path d="M41.0238 98.836C41.7238 98.036 45.2238 95.536 46.0238 96.236L68.0238 116.236C68.8238 116.936 66.6238 120.636 65.9238 121.436C65.2238 122.236 64.1238 122.136 63.3238 121.436L41.3238 101.436C40.4238 100.736 40.3238 99.636 41.0238 98.836Z" fill="#79787A"/>
<path opacity="0.3" d="M54.6749 108.585C48.0967 102.602 42.2219 98.3489 41.5531 99.0843C40.8842 99.8198 45.6747 105.266 52.2528 111.248C58.8309 117.23 64.7058 121.484 65.3746 120.748C66.0435 120.013 61.253 114.567 54.6749 108.585Z" fill="white"/>
<path opacity="0.5" d="M41.6239 99.336C41.2239 99.736 46.1239 105.236 52.5239 111.136C58.9239 116.936 64.7239 121.036 65.1239 120.636C65.5239 120.236 60.2239 115.536 53.8239 109.636C47.3239 103.836 41.9239 98.936 41.6239 99.336Z" fill="white"/>
<path d="M88.9239 47.036C89.9239 45.936 113.924 67.736 112.924 68.836L67.6239 118.736C66.6239 119.836 42.6239 98.036 43.6239 96.936L88.9239 47.036Z" fill="#C8C7C9"/>
<path d="M5.02386 145.236C5.82386 148.136 8.22386 150.436 11.1239 151.236C12.9239 151.736 14.7239 151.636 16.4239 150.936C16.0239 152.436 16.0239 154.036 16.4239 155.636C17.2239 158.536 19.6239 160.836 22.5239 161.636C25.4239 162.436 28.4239 161.536 30.6239 159.636C32.9239 157.636 33.7239 154.536 33.2239 151.636C32.6239 148.436 30.0239 145.836 27.0239 145.036C25.2239 144.536 25.7239 142.136 24.0239 142.836C24.3239 141.536 22.1239 142.636 21.9239 141.336C21.3239 138.136 18.7239 135.536 15.7239 134.736C12.6239 133.836 9.22386 134.936 7.12386 137.236C4.92386 139.236 4.22386 142.336 5.02386 145.236ZM27.1239 146.836C29.8239 147.836 31.4239 150.436 31.4239 153.236C31.4239 156.036 29.5239 158.536 27.0239 159.436C24.3239 160.436 21.4239 159.536 19.6239 157.436C17.4239 154.936 17.6239 151.136 19.7239 148.636C19.8239 148.536 19.9239 148.436 19.9239 148.336C21.8239 146.636 24.6239 145.936 27.1239 146.836ZM15.7239 136.536C18.4239 137.536 20.0239 140.136 20.0239 142.936C20.0239 145.736 18.1239 148.236 15.6239 149.136C12.9239 150.136 10.0239 149.236 8.22387 147.136C6.02387 144.636 6.22387 140.736 8.42387 138.236C10.2239 136.336 13.2239 135.536 15.7239 136.536Z" fill="#3F4041"/>
<path opacity="0.5" d="M112.924 68.836C113.924 67.736 89.9238 45.936 88.9238 47.036C101.524 60.636 105.224 68.436 91.6238 87.536C82.9238 99.736 66.6238 119.836 67.6238 118.736L112.924 68.836Z" fill="#A6A6A6"/>
<path opacity="0.3" d="M44.2572 101.69L52.988 109.628L105.19 52.2121L96.4587 44.2743L44.2572 101.69Z" fill="white"/>
<path opacity="0.3" d="M41.6061 99.2403L50.3357 107.179L102.545 49.7708L93.8153 41.8318L41.6061 99.2403Z" fill="white"/>
<path opacity="0.3" d="M54.8489 111.216L58.4749 114.512L110.669 57.0882L107.043 53.7925L54.8489 111.216Z" fill="white"/>
<path opacity="0.3" d="M59.9811 115.912L61.312 117.123L113.552 59.746L112.221 58.5342L59.9811 115.912Z" fill="white"/>
<path d="M20.2239 131.536C24.0239 134.936 31.5239 141.836 35.3239 145.236C36.4239 146.236 35.0239 149.636 35.0239 149.636C34.0239 150.736 32.3239 150.836 31.2239 149.836L16.1239 136.036C15.0239 135.036 14.9239 133.336 15.9239 132.236C15.9239 132.236 19.1239 130.536 20.2239 131.536Z" fill="#79787A"/>
<path opacity="0.3" d="M26.4477 139.96C21.2588 135.241 16.5101 132.011 15.8412 132.747C15.1724 133.482 18.8367 137.904 24.0257 142.623C29.2146 147.342 33.9633 150.571 34.6322 149.836C35.301 149.1 31.6367 144.679 26.4477 139.96Z" fill="white"/>
<path opacity="0.5" d="M25.8688 140.534C20.6799 135.815 16.1722 132.32 15.8006 132.729C15.429 133.137 19.3343 137.294 24.5232 142.013C29.7122 146.732 34.2199 150.227 34.5915 149.818C34.9631 149.409 31.0578 145.253 25.8688 140.534Z" fill="white"/>
<path opacity="0.5" d="M16.124 150.236C16.124 150.236 12.124 150.836 9.62396 149.836C6.82396 148.736 4.12397 144.036 5.92397 140.136C7.62397 136.136 9.52397 135.836 11.224 135.236C10.324 136.036 6.82396 137.336 6.12396 141.536C5.42396 145.636 7.62397 148.336 9.92397 149.436C12.024 150.536 16.124 150.236 16.124 150.236Z" fill="white"/>
<path opacity="0.5" d="M17.2239 151.136C17.2239 151.136 17.0239 155.236 18.2239 157.636C19.6239 160.336 24.5239 162.536 28.2239 160.436C32.0239 158.336 32.2239 156.436 32.6239 154.736C31.9239 155.636 30.9239 159.336 26.8239 160.436C22.8239 161.536 19.9239 159.536 18.6239 157.436C17.3239 155.336 17.2239 151.136 17.2239 151.136Z" fill="white"/>
</svg>
