<svg width="146" height="269" viewBox="0 0 146 269" fill="none" xmlns="http://www.w3.org/2000/svg">
<path opacity="0.3" d="M42.3713 229.878C32.1602 234.143 27.2485 245.906 31.5139 256.247C35.7793 266.587 47.5414 271.37 57.8818 267.104C68.2221 262.839 87.481 245.13 83.2156 234.79C78.8209 224.578 52.7116 225.612 42.3713 229.878Z" fill="#949597"/>
<path d="M47.2831 227.553C38.7523 234.662 37.4598 247.329 44.5688 255.86C51.6778 264.391 64.3447 265.684 72.8756 258.575C81.4064 251.465 93.9441 232.206 83.733 221.865C75.8484 214.11 55.9432 220.573 47.2831 227.553Z" fill="#E6E6E6"/>
<path d="M51.6779 228.715C44.1811 234.919 43.1471 245.905 49.222 253.402C55.4263 260.899 66.4129 261.933 73.9097 255.858C81.4065 249.654 92.2639 232.851 83.3453 223.933C76.4948 216.953 59.1747 222.511 51.6779 228.715Z" fill="#ECECEC"/>
<path d="M56.0725 229.75C49.739 235.05 48.705 244.485 54.0044 250.819C59.3039 257.152 68.7394 258.057 75.0729 252.887C81.4064 247.587 90.7127 233.24 83.0867 225.614C77.2703 219.798 62.406 224.451 56.0725 229.75Z" fill="#F3F3F3"/>
<path d="M60.3385 230.913C55.0391 235.308 54.2636 243.063 58.6582 248.363C63.0528 253.662 70.8081 254.438 76.1075 250.043C81.4069 245.648 89.0328 233.757 82.8286 227.423C77.917 222.641 65.6379 226.519 60.3385 230.913Z" fill="#F9F9F9"/>
<path d="M64.7318 231.945C60.5956 235.436 59.9493 241.511 63.4392 245.777C66.9291 249.913 73.004 250.559 77.2694 247.069C81.4056 243.579 87.6098 234.272 82.5689 229.231C78.6912 225.353 68.8679 228.455 64.7318 231.945Z" fill="white"/>
<path opacity="0.3" d="M20.0667 198.068C11.1482 191.476 -1.51877 193.415 -8.11075 202.333C-14.7027 211.252 -12.7639 223.918 -3.84535 230.51C5.07322 237.102 30.2779 244.47 36.8698 235.551C43.4618 226.633 28.9853 204.789 20.0667 198.068Z" fill="#949597"/>
<path d="M29.7616 192.51C19.292 188.762 7.78832 194.319 4.03994 204.789C0.291571 215.259 5.84952 226.762 16.3191 230.511C26.7887 234.259 49.7959 234.905 53.2858 220.817C56.0002 210.088 40.2312 196.258 29.7616 192.51Z" fill="#E6E6E6"/>
<path d="M30.5369 194.061C21.3598 190.829 11.4072 195.612 8.17586 204.79C4.9445 213.967 9.72694 223.92 18.904 227.151C28.0811 230.383 48.1155 231.029 51.2176 218.75C53.4149 209.314 39.714 197.292 30.5369 194.061Z" fill="#ECECEC"/>
<path d="M31.3129 195.484C23.5577 192.77 14.8977 196.777 12.1834 204.661C9.46903 212.416 13.4759 221.075 21.3604 223.79C29.1156 226.504 46.3064 227.15 48.8915 216.552C50.8303 208.538 39.1974 198.198 31.3129 195.484Z" fill="#F3F3F3"/>
<path d="M32.0878 196.904C25.625 194.577 18.5161 198.067 16.3188 204.401C13.9922 210.864 17.482 217.973 23.8155 220.171C30.2782 222.497 44.3669 222.885 46.5642 214.225C48.2445 207.633 38.5505 199.231 32.0878 196.904Z" fill="#F9F9F9"/>
<path d="M32.9931 198.327C27.8229 196.517 22.265 199.232 20.4554 204.272C18.6459 209.443 21.3602 215 26.4011 216.81C31.5713 218.619 42.6872 219.007 44.3675 212.157C45.7893 206.857 38.034 200.136 32.9931 198.327Z" fill="white"/>
<path opacity="0.3" d="M67.4337 207.338C104.268 207.338 134.129 177.477 134.129 140.642C134.129 103.807 104.268 73.9456 67.4337 73.9456C30.599 73.9456 0.738525 103.807 0.738525 140.642C0.738525 177.477 30.599 207.338 67.4337 207.338Z" fill="#949597"/>
<path d="M78.4206 207.339C115.255 207.339 145.116 177.478 145.116 140.643C145.116 103.807 115.255 73.9462 78.4206 73.9462C41.5858 73.9462 11.7253 103.807 11.7253 140.643C11.7253 177.478 41.5858 207.339 78.4206 207.339Z" fill="#838383"/>
<path d="M135.292 112.723C150.674 144.132 137.748 182.134 106.339 197.515C74.9306 212.896 36.9297 199.971 21.5484 168.562C6.16716 137.153 19.0926 99.1516 50.5014 83.7702C81.9103 68.3888 119.782 81.3143 135.292 112.723Z" fill="#44443B"/>
<path opacity="0.3" d="M135.294 112.724C150.675 144.133 137.75 182.135 106.34 197.517C136.457 142.582 99.3607 86.8724 50.5022 83.7703C81.9112 68.3886 119.783 81.3144 135.294 112.724Z" fill="#C0C4C4"/>
<path d="M38.2227 105.486C25.9435 117.377 24.3925 137.67 28.9164 153.697C33.828 171.146 45.3317 183.037 62.0055 188.337C77.3868 193.248 95.0947 191.439 109.054 183.684C125.599 174.507 129.476 163.132 130.51 145.425C132.191 119.962 121.333 97.8596 96.6457 90.1045C71.9581 82.3493 44.6854 92.5602 32.0185 115.697L38.2227 105.486Z" fill="#D6D6D6"/>
<path opacity="0.3" d="M34.0859 134.696C34.0859 138.445 36.154 160.031 42.2289 158.738C43.6507 142.71 36.0247 125.131 50.5011 113.11C54.3787 109.879 64.3312 107.294 60.8414 115.825C58.5148 121.512 53.4739 125.39 52.5692 131.594C57.3515 132.37 59.9366 128.104 64.3312 127.587C69.2428 127.07 65.3652 130.56 64.3312 133.275C66.787 136.377 72.8619 135.601 76.0933 137.54C81.0049 140.384 84.3655 143.874 80.7464 149.561C76.8688 155.895 72.2157 160.16 72.4742 168.174C72.8619 177.222 81.5219 169.467 84.7532 166.106C87.9846 162.745 90.6989 158.738 93.9302 155.378C96.9031 152.275 100.522 148.915 102.202 145.037C105.951 136.377 98.7126 135.343 91.7329 135.343C86.9506 135.343 77.2565 136.247 79.7124 129.267C81.3927 124.614 88.1138 118.41 87.2091 113.369C81.2634 110.913 74.8007 118.927 69.3721 116.212C67.4333 115.178 66.5285 111.301 66.787 109.232C67.1748 104.967 71.8279 102.77 75.0592 100.96C81.1341 97.4701 89.2771 95.2727 95.7398 99.4089C99.2296 101.606 103.236 111.301 108.924 108.586C115.128 105.613 103.624 99.1504 101.168 97.7286C96.5153 95.1434 90.9574 95.2727 85.7873 94.7556C76.0933 93.8508 64.0727 95.1434 55.542 99.5382C54.508 100.055 51.2766 101.348 50.7596 102.382C49.9841 104.062 51.9229 104.45 50.5011 106.26C49.9841 107.035 47.2698 107.681 46.2357 108.198C42.0996 110.396 38.222 112.723 36.2832 117.117C34.2152 122.546 34.0859 128.75 34.0859 134.696Z" fill="white"/>
<path opacity="0.3" d="M128.83 147.493C127.667 156.411 122.884 165.2 117.197 172.051C107.891 183.296 95.2237 187.044 81.0056 187.044C75.4476 187.044 70.5359 185.622 65.2365 185.493C59.8077 185.363 56.8348 183.683 53.3449 179.806C50.2428 176.316 47.1407 171.663 54.5082 172.697C59.4199 173.343 63.1684 176.575 67.8216 178.126C71.8285 179.418 76.9987 180.84 81.1348 180.84C86.3051 180.84 92.5093 176.833 96.6455 174.119C100.265 171.663 107.374 166.105 107.891 161.323C108.408 155.894 103.108 160.16 99.7476 159.772C99.3598 157.316 105.435 152.792 106.986 150.724C110.088 146.718 110.605 143.874 107.374 139.997C106.34 138.704 104.401 137.412 103.625 135.861C102.203 133.017 104.142 133.017 104.272 130.044C104.272 128.364 99.4891 119.316 105.693 120.35C106.727 120.48 109.442 123.969 110.088 124.745C111.51 126.813 111.381 128.493 112.027 131.078C112.673 133.663 115.258 144.65 118.877 141.418C121.98 138.575 119.394 132.629 118.619 129.527C117.714 125.52 114.87 121.255 114.612 117.248C114.353 113.629 116.809 109.235 119.782 113.629C121.85 116.602 120.17 120.48 121.85 123.452C123.272 126.037 125.857 127.201 127.02 130.173C129.089 135.343 129.606 141.935 128.83 147.493Z" fill="white"/>
<path d="M91.3461 131.851C99.2698 131.851 105.693 125.427 105.693 117.504C105.693 109.58 99.2698 103.157 91.3461 103.157C83.4223 103.157 76.9988 109.58 76.9988 117.504C76.9988 125.427 83.4223 131.851 91.3461 131.851Z" fill="#FFDF00"/>
<path d="M94.1898 127.201C104.53 126.813 105.176 109.234 93.4143 110.139C99.4892 111.819 99.2307 117.248 98.843 122.547L94.1898 127.201Z" fill="white"/>
<path d="M93.2851 176.446C101.209 176.446 107.632 170.022 107.632 162.098C107.632 154.174 101.209 147.75 93.2851 147.75C85.3616 147.75 78.9382 154.174 78.9382 162.098C78.9382 170.022 85.3616 176.446 93.2851 176.446Z" fill="#FFDF00"/>
<path d="M96.1286 171.791C106.469 171.403 107.115 153.824 95.353 154.729C101.428 156.409 101.169 161.838 100.782 167.137L96.1286 171.791Z" fill="white"/>
<path d="M55.9305 166.492C63.8543 166.492 70.2778 160.069 70.2778 152.145C70.2778 144.222 63.8543 137.798 55.9305 137.798C48.0068 137.798 41.5833 144.222 41.5833 152.145C41.5833 160.069 48.0068 166.492 55.9305 166.492Z" fill="#FFDF00"/>
<path d="M58.7736 161.839C69.1141 161.451 69.7603 143.872 57.998 144.777C64.0731 146.457 63.8145 151.886 63.4268 157.186L58.7736 161.839Z" fill="white"/>
<path opacity="0.8" d="M90.8292 146.587C89.0196 147.621 87.4686 148.655 87.3393 150.723C87.0808 153.049 87.8563 153.178 86.176 154.988C83.5909 157.961 81.7814 160.546 84.1079 164.165C85.2712 165.845 86.5638 166.621 87.9856 168.043C88.5026 168.689 89.6659 169.723 89.6659 170.628C89.6659 171.662 88.1149 171.662 88.5026 173.213C91.4755 174.634 94.5776 175.281 98.0675 174.764C101.557 174.247 103.884 171.532 107.632 171.791C109.442 175.927 107.244 178.254 103.496 179.675C96.1286 182.519 89.0196 184.845 81.2644 186.396C76.0942 187.43 71.958 187.689 66.9171 186.655C64.0735 186.138 61.1007 185.75 58.3863 184.587C56.706 183.811 55.4135 182.39 53.9917 181.356C54.3794 180.192 56.9645 179.417 55.9305 177.995C55.672 177.737 52.0528 176.832 51.2773 176.444C47.2704 174.634 44.8146 172.825 41.5832 169.723C39.5152 167.655 38.3519 163.906 41.3247 161.709C44.1683 159.641 46.7534 161.709 49.7263 162.743C56.5768 165.199 63.4272 166.233 69.2437 160.675C70.407 159.641 71.3118 158.736 71.958 157.185C72.9921 154.73 72.0873 154.859 70.5362 153.566C67.5634 151.11 69.89 148.396 68.2097 145.423C65.1076 139.736 56.706 139.478 51.6651 142.968C50.3726 143.872 48.9508 145.294 48.9508 146.845C48.9508 148.267 51.0188 149.689 50.3726 150.981C49.3385 153.437 43.1343 151.369 41.3247 151.886C40.42 155.247 35.1205 153.825 33.6987 151.757C30.8551 147.879 35.6375 143.485 38.2226 141.029C41.454 138.056 46.8827 134.954 51.2773 134.437C55.4135 133.92 60.8422 135.471 64.332 132.757C69.5022 129.008 62.264 125.389 58.6448 125.131C54.1209 124.872 45.0731 127.586 45.4609 120.865C45.8486 114.92 48.8215 113.369 54.2502 111.947C55.9305 111.559 59.4204 110.396 61.2299 111.301C63.298 112.205 61.6177 113.627 62.0055 115.437C68.8559 116.212 68.8559 108.845 71.8288 104.709C75.4479 99.7971 82.9447 95.5317 89.1489 96.5657C91.9925 97.0827 95.4824 99.0215 92.768 101.865C90.5707 104.192 86.6931 104.321 84.3665 106.647C82.9447 108.069 81.9106 109.62 81.9106 111.559C81.9106 113.756 82.4276 113.627 84.1079 114.79C87.2101 116.729 87.3393 118.797 85.659 122.029C85.142 123.063 83.3324 124.484 84.2372 125.906C85.142 127.199 88.2441 126.682 89.5366 126.682C92.8973 126.682 95.9994 126.423 99.1015 125.648C102.591 124.743 105.952 123.967 106.469 119.961C106.598 118.41 105.952 115.824 106.986 114.403C108.149 112.593 111.381 112.335 113.319 112.464C115.905 112.593 115.905 114.273 118.102 115.049C119.524 115.566 124.177 114.273 125.082 115.824C126.503 118.28 116.551 124.355 115 125.906C112.932 127.974 107.115 130.818 110.734 133.532C113.836 135.729 118.102 134.178 121.463 136.376C124.565 138.444 126.374 141.029 123.143 143.743C120.687 145.682 119.265 147.491 117.843 150.206C116.809 152.144 115.258 154.988 112.802 155.247C109.442 155.505 109.442 152.144 110.347 149.818C111.122 147.75 113.061 145.811 111.639 143.614C110.605 141.934 108.149 141.287 106.21 141.287C101.299 142.063 95.0946 144.002 90.8292 146.587Z" fill="#D6D6D6"/>
<path opacity="0.3" d="M52.958 102.253C46.7538 106.777 43.7809 114.015 40.6788 120.866C38.0937 126.553 36.5427 132.24 36.0257 138.445C35.6379 143.098 34.9916 146.976 37.7059 151.241C38.6107 149.819 38.0937 146.33 38.74 144.391C39.774 141.547 41.4543 138.574 43.0054 135.989C43.9102 134.438 45.332 131.465 47.0123 130.56C48.6926 129.655 52.958 129.009 54.8968 128.88C57.2234 128.75 57.6111 129.397 58.3866 131.206C59.0329 132.499 58.1281 132.499 59.5499 133.404C60.4547 134.05 62.135 134.05 63.2983 134.309C66.1419 134.826 68.9855 137.54 68.727 140.771C64.2031 138.316 57.6111 136.894 52.5702 138.057C47.917 139.22 44.2979 145.295 44.1687 149.949C46.883 148.656 48.3048 144.391 50.7606 142.323C53.2165 140.384 56.9648 140.513 59.9377 141.03C63.169 141.547 64.5908 142.84 67.1759 144.649C69.8903 146.459 73.6386 147.234 76.2237 144.649C79.5843 141.289 78.1625 138.574 75.3189 135.989C72.6046 133.533 70.795 130.302 74.1556 127.716C77.2577 125.39 84.2375 118.41 81.3939 114.532C79.3258 111.818 75.5774 110.008 78.0333 106.13C79.9721 102.899 85.4007 101.865 88.7614 101.089C90.9587 100.572 97.6799 98.1164 93.156 95.402C88.6321 92.8169 84.1082 96.0483 79.9721 97.7287C75.4482 99.5383 73.1216 101.865 69.761 105.355C68.21 106.906 66.6589 108.586 64.5908 109.233C63.0398 109.75 59.0329 109.879 58.9036 107.294C58.7744 105.226 62.7813 104.192 64.2031 103.416C66.2711 102.382 68.0807 100.572 70.0195 99.409C71.8291 98.3749 75.8359 97.2116 76.9992 95.402C78.5503 92.9461 75.1897 92.0413 72.9924 92.1706C66.1419 92.5583 58.2574 98.375 52.958 102.253Z" fill="white"/>
<path opacity="0.3" d="M100.006 100.314C101.816 99.9258 104.142 102.252 105.435 103.416C108.02 105.613 108.537 107.552 108.795 110.783C108.924 112.851 109.054 115.178 107.244 116.47C105.564 117.763 103.625 116.987 102.462 119.055C101.428 120.994 102.85 120.606 102.979 122.545C102.979 124.355 101.04 125.518 99.489 126.293C97.1625 127.457 93.1557 129.137 91.0876 126.681C88.7611 123.967 93.4141 120.735 90.5706 119.184C86.176 116.729 85.4005 124.096 86.0467 126.423C87.21 130.946 87.3393 132.11 82.8154 134.436C81.6521 135.082 78.6793 135.729 78.2916 137.151C77.7746 138.831 80.1011 139.736 79.4549 141.416C78.2916 144.389 72.863 140.77 73.2507 145.681C73.5092 148.396 76.4821 148.913 78.1624 150.722C80.8767 153.695 79.0671 155.375 77.9038 158.606C76.6113 162.096 76.0943 166.491 77.6453 169.981C78.9378 173.083 82.8154 178.899 85.5297 174.117C87.3393 170.885 85.4005 168.171 84.8835 164.811C84.3665 162.096 83.4617 158.865 83.7202 156.021C83.9787 153.178 87.9855 149.947 90.9584 150.722C91.9924 156.151 97.2917 149.947 98.972 148.396C99.2305 153.436 106.986 152.144 109.829 154.47C114.87 158.736 112.027 168.688 112.544 174.375C117.584 177.09 120.04 164.811 120.686 161.321C121.074 159.511 122.367 154.6 121.72 152.79C120.945 150.334 118.101 151.885 116.033 150.722C110.863 147.879 117.714 141.028 119.394 138.055C122.755 131.851 122.884 128.232 119.782 121.64C118.748 119.443 117.067 117.246 115.516 115.436C113.836 113.497 112.802 111.559 110.863 114.144C107.244 119.314 109.829 126.552 110.088 132.239C110.217 135.212 111.38 145.164 107.115 145.811C104.918 146.198 100.523 143.355 98.972 141.933C97.2917 140.511 96.5162 139.477 96.904 137.28C97.8088 133.014 101.945 131.722 104.659 128.878C108.02 125.389 104.918 121.769 107.503 118.15C109.829 114.919 112.027 112.722 112.027 108.456C112.027 105.225 109.829 98.2455 105.435 99.2795L100.006 100.314Z" fill="white"/>
<path opacity="0.3" d="M44.1688 108.845C34.6039 121.512 30.2093 137.152 34.604 152.662C35.2502 154.73 36.4135 156.54 37.0598 158.479C37.9646 160.805 38.9986 162.098 40.2911 164.166C42.3592 167.526 43.3932 172.05 46.7539 174.635C50.373 177.22 54.6384 177.867 58.6453 179.288C62.3936 180.452 63.4277 184.2 67.5638 184.717C74.0265 185.363 82.5573 184.846 87.986 181.357C89.7955 180.193 94.1902 175.928 91.7344 173.86C90.9589 173.214 88.3737 173.601 87.3397 173.214C86.1764 172.697 84.7546 171.275 84.4961 169.982C84.1084 167.914 85.9179 167.268 86.3057 165.458C86.5642 163.649 85.2717 162.356 84.4961 160.805C82.8158 157.186 83.7206 154.601 79.0674 154.601C76.6116 154.601 69.5026 155.118 68.2101 157.703C67.5638 159.125 68.7271 161.581 68.2101 163.132C67.4346 165.329 64.591 165.846 62.6522 165.846C59.2915 165.846 54.2506 162.615 54.1214 158.866C53.9921 156.281 60.3256 151.24 56.0602 149.56C52.1825 148.138 52.3118 153.696 51.1485 155.764C49.3389 159.125 46.8831 158.996 44.9443 155.635C44.298 154.472 44.0395 153.308 43.264 152.274C42.4885 151.24 41.1959 150.336 40.6789 149.172C38.8694 145.553 41.7129 142.063 43.0055 138.703C44.1688 135.73 45.7198 132.757 46.6246 129.784C48.1756 124.614 43.0055 127.328 42.1007 123.321C41.3252 120.219 45.9783 119.444 45.5906 116.342C45.4613 115.178 43.6518 113.627 42.4885 113.627C40.2911 113.498 37.706 117.376 37.0598 119.056L44.1688 108.845Z" fill="white"/>
<path d="M66.4182 135.432C64.0526 133.885 62.1766 131.573 60.925 128.649C60.9301 128.577 60.8577 128.572 60.8627 128.499C60.8054 128.277 60.6707 128.122 60.6134 127.9C60.5561 127.678 60.4938 127.528 60.3641 127.301C60.3068 127.079 60.2495 126.856 60.1198 126.629C60.0675 126.335 59.9378 126.107 59.8856 125.813C59.8232 125.663 59.8283 125.59 59.7659 125.441C59.6463 125.069 59.5991 124.702 59.4794 124.33C59.4845 124.257 59.4171 124.18 59.4272 124.035C59.385 123.596 59.2653 123.224 59.2231 122.784C59.2231 122.784 59.2231 122.784 59.2282 122.712C59.1859 122.273 59.1437 121.833 59.1015 121.394C59.1066 121.321 59.1116 121.249 59.1166 121.177C59.0744 120.737 59.1046 120.303 59.0624 119.864C59.0674 119.791 59.0724 119.719 59.0775 119.646C59.1076 119.212 59.0654 118.773 59.1007 118.266C59.1359 117.759 59.161 117.397 59.2686 116.896C59.2736 116.823 59.2786 116.751 59.2837 116.678C59.3139 116.244 59.4164 115.815 59.519 115.386C59.524 115.313 59.5291 115.241 59.5341 115.168C59.6366 114.739 59.7392 114.31 59.8418 113.88C59.8418 113.88 59.8418 113.88 59.8468 113.808C59.9494 113.379 60.0469 113.022 60.2219 112.598C60.2269 112.525 60.3043 112.458 60.3144 112.313C60.4119 111.956 60.5818 111.604 60.7517 111.252C60.8342 111.113 60.8392 111.04 60.9217 110.9C61.0142 110.616 61.1741 110.409 61.2666 110.124C61.354 109.912 61.4415 109.7 61.5239 109.56C61.6114 109.348 61.6989 109.136 61.8537 109.001C61.9412 108.789 62.096 108.654 62.1835 108.442C62.1885 108.37 62.2609 108.375 62.2659 108.302C63.9048 105.652 66.0876 103.549 68.6443 102.344C69.0163 102.225 69.321 102.028 69.693 101.908C69.8428 101.846 69.9875 101.856 70.065 101.788C70.1424 101.721 70.2871 101.731 70.3645 101.664L70.437 101.669C70.9588 101.487 71.5479 101.382 72.132 101.35L73.0776 87.7408L76.697 87.9922L75.7514 101.601C76.3255 101.714 76.8221 101.894 77.3138 102.146L77.3861 102.151C77.4535 102.229 77.5983 102.239 77.6656 102.316C77.8054 102.399 77.9501 102.409 78.0899 102.491C81.112 104.011 83.5268 106.942 84.9453 110.605C85.0126 110.683 85.0026 110.827 85.07 110.905C85.1946 111.204 85.3142 111.576 85.4389 111.876C85.4962 112.098 85.5585 112.248 85.6158 112.47C85.6781 112.62 85.7405 112.77 85.7304 112.915C85.85 113.287 85.9023 113.581 85.9495 113.948C85.9395 114.093 86.0068 114.17 85.9968 114.315C86.044 114.682 86.1586 115.126 86.2059 115.493L86.2008 115.566C86.243 116.005 86.2903 116.372 86.3325 116.812C86.3275 116.884 86.3224 116.956 86.3174 117.029C86.3596 117.468 86.3294 117.902 86.3716 118.342C86.3666 118.414 86.3616 118.487 86.3566 118.559C86.3264 118.993 86.3686 119.433 86.3334 119.939C86.2982 120.446 86.268 120.88 86.1654 121.31C86.1604 121.382 86.1554 121.455 86.1503 121.527C86.1202 121.961 86.0176 122.391 85.915 122.82C85.91 122.892 85.905 122.965 85.8999 123.037C85.7974 123.466 85.6998 123.823 85.5973 124.253L85.5922 124.325C85.4947 124.682 85.3921 125.111 85.2222 125.463C85.2121 125.608 85.1348 125.675 85.1247 125.82C85.0272 126.177 84.8572 126.529 84.7647 126.813C84.6823 126.953 84.6722 127.098 84.5897 127.238C84.5023 127.45 84.4198 127.59 84.3324 127.802C84.1624 128.154 83.9976 128.433 83.8327 128.713C83.7553 128.78 83.7502 128.852 83.6678 128.992C81.7564 132.424 79.0317 134.998 75.7561 136.08C75.6063 136.142 75.4616 136.132 75.3841 136.2C75.3067 136.267 75.162 136.257 75.0846 136.324L75.0121 136.319C73.9012 136.606 72.7279 136.743 71.5697 136.662C70.3391 136.577 69.196 136.279 68.1354 135.842L68.063 135.837C67.9906 135.832 67.8508 135.749 67.7835 135.672C67.6437 135.589 67.5713 135.584 67.4316 135.502C67.1169 135.844 66.765 135.674 66.4182 135.432ZM66.9994 131.253C67.1342 131.408 67.2739 131.49 67.4086 131.645C67.476 131.723 67.6157 131.805 67.6831 131.882C68.0973 132.202 68.4441 132.445 68.8634 132.692C66.1269 129.156 64.7265 124.185 65.0937 118.901C65.4609 113.616 67.5351 108.887 70.7344 105.763C70.285 105.95 69.8356 106.137 69.4535 106.401C69.3761 106.469 69.2263 106.531 69.1489 106.598C68.9991 106.661 68.8442 106.795 68.6894 106.93C68.5396 106.992 68.4571 107.132 68.3073 107.195C68.1575 107.257 68.0751 107.397 67.9202 107.531C67.7654 107.666 67.6106 107.801 67.4558 107.936C67.3783 108.003 67.2959 108.143 67.2185 108.21C66.749 108.687 66.2694 109.308 65.8622 109.934C65.7847 110.002 65.7797 110.074 65.7023 110.141C65.5374 110.421 65.3775 110.628 65.2127 110.907C65.1352 110.975 65.1252 111.12 65.0478 111.187C64.8829 111.466 64.7904 111.751 64.6255 112.031C64.6204 112.103 64.543 112.17 64.5329 112.315C64.363 112.667 64.1931 113.019 64.0905 113.448C63.9206 113.8 63.8181 114.229 63.7155 114.659C63.7054 114.803 63.628 114.871 63.6179 115.016C63.5254 115.3 63.433 115.585 63.4128 115.874C63.4028 116.019 63.3203 116.159 63.3102 116.304C63.2177 116.588 63.1976 116.878 63.1775 117.167C63.1675 117.312 63.1574 117.457 63.1473 117.602C63.1172 118.036 63.0146 118.465 62.9844 118.899C62.9542 119.334 62.9241 119.768 62.9663 120.208C62.9562 120.352 62.9462 120.497 62.9361 120.642C62.916 120.931 62.9682 121.226 62.9481 121.516C62.9381 121.66 63.0004 121.81 62.9903 121.955C63.0426 122.25 63.0225 122.539 63.0747 122.834C63.0647 122.978 63.1321 123.056 63.122 123.201C63.2838 124.012 63.4457 124.823 63.6799 125.64C63.6749 125.712 63.7422 125.79 63.7321 125.934C63.8568 126.234 63.9091 126.529 64.0337 126.828C64.1011 126.906 64.091 127.05 64.1584 127.128C64.283 127.427 64.4077 127.727 64.5374 127.954C64.6047 128.032 64.5997 128.104 64.6671 128.182C64.9837 128.858 65.3778 129.467 65.7719 130.077C65.8393 130.154 65.9016 130.304 65.969 130.381C66.1037 130.536 66.2384 130.691 66.3731 130.846C66.5078 131.001 66.5752 131.078 66.7149 131.161C66.72 131.088 66.8597 131.171 66.9994 131.253ZM82.2353 123.437C82.3278 123.153 82.3479 122.863 82.4404 122.579C82.4505 122.434 82.538 122.222 82.548 122.077C82.5631 121.86 82.6506 121.648 82.6657 121.43C82.6959 120.996 82.7984 120.567 82.8286 120.132C82.8588 119.698 82.889 119.264 82.8468 118.824C82.8619 118.607 82.8769 118.39 82.8196 118.168C82.8297 118.023 82.8448 117.806 82.7825 117.656C82.7302 117.361 82.7503 117.072 82.698 116.777L82.7031 116.705C82.1613 111.939 79.8994 107.854 76.6752 106.103C79.4117 109.639 80.807 114.682 80.4398 119.966C80.0727 125.251 77.9934 130.053 74.7941 133.177C78.2296 131.888 81.1071 128.16 82.2353 123.437ZM74.0352 128.396C75.5816 126.03 76.6665 122.978 76.8928 119.72C77.1192 116.463 76.5392 113.294 75.2625 110.733L74.0352 128.396ZM70.4058 128.289L71.6632 110.192C70.0394 112.625 68.9495 115.75 68.7181 119.08C68.4817 122.482 69.1291 125.727 70.4058 128.289Z" stroke="#D1C2A6" stroke-width="2" stroke-miterlimit="10"/>
<path d="M91.8431 7.14084L54.6361 4.55643C50.7996 4.28995 47.4706 7.18648 47.2041 11.0231C46.9375 14.8597 49.8339 18.1887 53.6704 18.4552L80.3089 20.3055C84.1455 20.572 87.0418 23.9009 86.7753 27.7375L86.5992 30.2711C86.3327 34.1078 83.0038 37.0043 79.1672 36.7378L3.37781 31.4735C-4.44001 30.9304 -11.2527 36.8582 -11.7958 44.6762L-13.6416 71.2431C-14.1848 79.0611 -8.25735 85.8738 -0.439521 86.4168L84.0364 92.2846C91.8542 92.8276 98.6669 86.8998 99.21 79.0818L101.091 52.0082L102.047 38.2543L103.183 21.8943L103.666 14.945C103.933 11.1083 101.036 7.7794 97.1998 7.51292L91.8431 7.14084Z" fill="#E8EDDF"/>
<path d="M-13.5038 68.1998L99.4208 76.0415C100.651 76.1269 101.658 75.2512 101.743 74.0205C101.829 72.7898 100.953 71.7833 99.7227 71.6978L-13.2019 63.8561C-14.4325 63.7707 -15.4389 64.6465 -15.5245 65.8772C-15.605 67.0355 -14.7344 68.1143 -13.5038 68.1998Z" fill="#124A5F"/>
<path d="M-6.18292 57.0699L32.182 59.7335C33.4125 59.8189 34.419 58.9431 34.5045 57.7123C34.5901 56.4816 33.7145 55.4751 32.4839 55.3896L-5.88098 52.7261C-7.11155 52.6407 -8.118 53.5165 -8.20355 54.7473C-8.28407 55.9056 -7.4135 56.9845 -6.18292 57.0699Z" fill="#CFDBD4"/>
<path d="M-5.47876 46.9318L22.0278 48.8447C23.2584 48.9303 24.2647 48.0549 24.3501 46.8247C24.4354 45.5945 23.5597 44.5882 22.3292 44.5027L-5.17744 42.5898C-6.408 42.5042 -7.4143 43.3796 -7.49968 44.6098C-7.58003 45.7677 -6.70932 46.8463 -5.47876 46.9318Z" fill="#CFDBD4"/>
<path d="M88.9541 66.5141C86.2755 66.3281 84.255 64.0058 84.4412 61.3271C84.6273 58.6484 86.9496 56.6278 89.6281 56.8138C92.3066 56.9998 94.3271 59.3221 94.141 62.0008C93.9549 64.6795 91.6326 66.7001 88.9541 66.5141Z" fill="#F5CC5B"/>
<path d="M73.7539 65.455C71.0753 65.269 69.0548 62.9467 69.241 60.268C69.4271 57.5893 71.7494 55.5687 74.4279 55.7547C77.1064 55.9407 79.1269 58.263 78.9408 60.9417C78.7547 63.6204 76.4324 65.6411 73.7539 65.455Z" fill="#333533"/>
</svg>
