<svg width="20" height="20" viewBox="0 0 20 20" fill="none" xmlns="http://www.w3.org/2000/svg">
<path d="M5.23952 5.45164C7.44743 3.24373 10.8242 2.92851 13.3755 4.48881C12.5102 5.34451 11.5137 6.34442 11.5137 6.34442C10.8153 7.18157 11.5995 7.66436 11.9978 7.65199L16.6595 7.65062C16.9054 7.65062 17.1066 7.65199 17.1066 7.65199C17.1066 7.65199 17.3099 7.65199 17.5564 7.65199H18.4602C18.7067 7.65199 18.9073 7.45078 18.9079 7.20355V0.792715C18.9368 0.206229 18.2926 -0.362402 17.6278 0.292073C17.6278 0.292073 16.5277 1.36409 15.7681 2.11677C11.8838 -0.720886 6.40769 -0.400174 2.8977 3.10982C0.849801 5.15771 -0.105471 7.8745 0.00921642 10.5576H3.32623C3.20879 8.7247 3.83786 6.8533 5.23952 5.45164Z" fill="white"/>
<path d="M16.2722 9.44299C16.3897 11.2759 15.7606 13.1473 14.359 14.549C12.1504 16.7569 8.77497 17.0721 6.22369 15.5118C7.08762 14.6561 8.08479 13.6555 8.08479 13.6555C8.78253 12.8184 7.99894 12.3356 7.60063 12.3493L2.93827 12.3507C2.69241 12.3507 2.49119 12.3493 2.49119 12.3493C2.49119 12.3493 2.28791 12.3493 2.04137 12.3493H1.13554C0.888999 12.3493 0.688468 12.5505 0.687781 12.7971V19.2072C0.659624 19.7937 1.30311 20.3624 1.96857 19.7079C1.96857 19.7079 3.06806 18.6359 3.8283 17.8839C7.71531 20.7236 13.1901 20.4015 16.7001 16.8922C18.7466 14.845 19.7033 12.1275 19.5893 9.44437L16.2722 9.44299Z" fill="white"/>
</svg>
