<svg width="30" height="31" viewBox="0 0 30 31" fill="none" xmlns="http://www.w3.org/2000/svg">
<path d="M15 30.0054C23.2843 30.0054 30.0001 23.2896 30.0001 15.0054C30.0001 6.7211 23.2843 0.00537109 15 0.00537109C6.71574 0.00537109 0 6.7211 0 15.0054C0 23.2896 6.71574 30.0054 15 30.0054Z" fill="#FCB638"/>
<path d="M22.3374 10.0324C21.7237 9.30293 20.5908 9.00537 18.4271 9.00537H10.5728C8.35955 9.00537 7.20738 9.32212 6.59604 10.0987C6 10.856 6 11.9717 6 13.5158V16.4589C6 19.4504 6.7072 20.9693 10.5728 20.9693H18.4271C20.3035 20.9693 21.3432 20.7067 22.0159 20.063C22.7057 19.4028 23 18.325 23 16.4589V13.5158C23 11.8874 22.9539 10.7651 22.3374 10.0324ZM16.9141 15.3937L13.3475 17.2577C13.2677 17.2994 13.1805 17.3201 13.0934 17.3201C12.9948 17.3201 12.8965 17.2935 12.8093 17.2408C12.6452 17.1414 12.5451 16.9635 12.5451 16.7717V13.0556C12.5451 12.8641 12.645 12.6864 12.8087 12.5869C12.9725 12.4875 13.1762 12.4807 13.3462 12.569L16.9128 14.421C17.0943 14.5152 17.2082 14.7025 17.2085 14.9069C17.2087 15.1114 17.0952 15.299 16.9141 15.3937Z" fill="white"/>
</svg>
